<?xml version="1.0" encoding="utf-8"?>
<!-- Generator: Adobe Illustrator 16.0.0, SVG Export Plug-In . SVG Version: 6.00 Build 0)  -->
<!DOCTYPE svg PUBLIC "-//W3C//DTD SVG 1.1//EN" "http://www.w3.org/Graphics/SVG/1.1/DTD/svg11.dtd">
<svg version="1.1" id="Layer_2" xmlns="http://www.w3.org/2000/svg" xmlns:xlink="http://www.w3.org/1999/xlink" x="0px" y="0px"
	 width="1024px" height="1024px" viewBox="0 0 1024 1024" enable-background="new 0 0 1024 1024" xml:space="preserve">
<g>
	<path fill="#0076FF" d="M26.381,26.5v971.862h971.864V26.5H26.381z M961.749,961.866H62.877V62.996h898.872V961.866z"/>
	
		<rect x="750.533" y="265.596" transform="matrix(0.8285 0.5599 -0.5599 0.8285 337.3255 -365.0986)" fill="#0076FF" width="28.562" height="205.312"/>
	
		<rect x="548.226" y="585.916" transform="matrix(-0.8286 -0.5599 0.5599 -0.8286 654.7827 1535.6968)" fill="#0076FF" width="28.562" height="163.37"/>
	
		<rect x="464.423" y="354.01" transform="matrix(0.5599 0.8285 -0.8285 0.5599 554.684 -307.7742)" fill="#0076FF" width="205.313" height="28.562"/>
	
		<rect x="687.701" y="653.36" transform="matrix(-0.56 -0.8285 0.8285 -0.56 647.0493 1678.9419)" fill="#0076FF" width="163.368" height="28.56"/>
	<polygon fill="#0076FF" points="219.06,523.558 458.665,523.558 458.665,494.997 219.06,494.997 219.06,309.342 482.864,309.342 
		482.864,280.78 219.06,280.78 190.498,280.78 190.498,309.342 190.498,494.997 190.498,523.558 190.498,737.775 219.06,737.775 	
		"/>
</g>
</svg>
