<?xml version="1.0" standalone="no"?>
<!DOCTYPE svg PUBLIC "-//W3C//DTD SVG 1.1//EN" "http://www.w3.org/Graphics/SVG/1.1/DTD/svg11.dtd" >
<svg xmlns="http://www.w3.org/2000/svg">
<metadata>
<json>
{
	"fontFamily": "eldorado_stroke",
	"majorVersion": 1,
	"minorVersion": 0,
	"fontURL": "http://www.icojam.com/",
	"designer": "icojam",
	"license": "royalty free stock icons",
	"designerURL": "http://www.icojam.com/",
	"version": "Version 1.0",
	"fontId": "eldorado_stroke",
	"psName": "eldorado_stroke",
	"subFamily": "Regular",
	"fullName": "eldorado_stroke",
	"description": "Generated by IcoMoon"
}
</json>
</metadata>
<defs>
<font id="eldorado_stroke" horiz-adv-x="512">
<font-face units-per-em="512" ascent="480" descent="-32" />
<missing-glyph horiz-adv-x="512" />
<glyph unicode="&#x20;" d="" horiz-adv-x="256" />
<glyph unicode="&#xe600;" d="M453.849 386.202h-395.687c-15.578 0-28.25-12.672-28.25-28.263v-267.801c0-15.577 12.672-28.262 28.25-28.262h395.687c15.565 0 28.25 12.672 28.25 28.262v267.815c0 15.577-12.685 28.25-28.25 28.25zM465.024 90.151c0-6.17-5.017-11.2-11.175-11.2h-395.687c-6.157 0-11.175 5.031-11.175 11.2v267.801c0 6.169 5.017 11.2 11.175 11.2h395.687c6.157 0 11.175-5.031 11.175-11.2v-267.801zM192 347.738c-59.75 0-123.737-49.728-123.737-123.738 0-68.224 55.501-123.738 123.737-123.738s123.738 55.514 123.738 123.738-55.514 123.738-123.738 123.738zM106.662 160.281c-13.325 17.805-21.325 39.821-21.325 63.719 0 24.64 8.269 46.093 21.337 63.219v-126.938zM157.863 123.046c-12.583 4.262-24.141 10.752-34.138 19.098v162.816c10.278 8.563 21.901 15.168 34.138 19.52v-201.433zM209.063 118.835c-5.581-0.896-11.251-1.498-17.063-1.498s-11.494 0.589-17.063 1.498v210.227c5.683 1.011 11.405 1.613 17.063 1.613 5.824 0 11.494-0.589 17.063-1.497v-210.343zM260.262 142.144c-9.997-8.346-21.555-14.835-34.137-19.098v201.933c12.583-4.262 24.141-10.752 34.137-19.098v-163.737zM277.337 160.281v127.463c13.337-17.805 21.337-39.821 21.337-63.731-0.013-23.91-8.013-45.927-21.337-63.731zM416.013 334.925c-8.231 0-14.925-6.695-14.925-14.925s6.682-14.925 14.925-14.925 14.925 6.695 14.925 14.925-6.695 14.925-14.925 14.925z" />
<glyph unicode="&#xe601;" d="M204.8 360.538h-140.813v-17.063h140.813v17.063zM419.815 90.599l-31.552 18.202 31.539 18.214c4.083 2.368 5.478 7.577 3.123 11.661-2.368 4.083-7.591 5.491-11.661 3.123l-31.539-18.214v36.416c0 4.711-3.815 8.538-8.538 8.538s-8.525-3.827-8.525-8.538v-36.416l-31.539 18.214c-4.096 2.368-9.305 0.96-11.661-3.123s-0.96-9.305 3.123-11.661l31.539-18.214-31.526-18.202c-4.083-2.368-5.478-7.577-3.123-11.661 1.587-2.739 4.454-4.262 7.399-4.262 1.447 0 2.918 0.358 4.262 1.139l31.539 18.214v-36.429c0-4.711 3.815-8.538 8.538-8.538s8.538 3.815 8.538 8.538v36.416l31.552-18.214c1.344-0.781 2.816-1.139 4.262-1.139 2.944 0 5.811 1.523 7.399 4.262 2.329 4.096 0.935 9.305-3.149 11.673zM248.666 125.671l24.678 28.774-12.954 11.111-26.355-30.733c-4.48-5.325-4.467-13.017 0.013-18.279l21.837-25.856c2.688-3.175 2.688-7.616 0.141-10.637l-21.517-24.192 12.749-11.341 21.645 24.346c8.051 9.51 8.051 23.322 0 32.832l-20.237 23.974zM180.262 125.671l24.678 28.774-12.953 11.111-26.368-30.733c-4.454-5.299-4.454-12.979 0-18.279l21.85-25.856c2.688-3.187 2.688-7.616 0.141-10.637l-21.517-24.192 12.749-11.341 21.657 24.346c8.025 9.51 8.025 23.309 0 32.819l-20.237 23.987zM111.847 125.671l24.678 28.774-12.954 11.111-26.381-30.745c-4.442-5.312-4.429-12.992 0.025-18.265l21.837-25.856c2.688-3.187 2.688-7.629 0.141-10.637l-21.517-24.192 12.749-11.341 21.658 24.346c8.038 9.51 8.038 23.309 0 32.819l-20.237 23.987zM63.987 241.063h307.136v17.063h-307.136v-17.063zM428.787 360.525c-8.231 0-14.925-6.694-14.925-14.925s6.682-14.925 14.925-14.925 14.925 6.695 14.925 14.925-6.695 14.925-14.925 14.925zM466.586 411.802h-421.286c-15.565 0-28.237-12.672-28.237-28.25v-165.401c0-15.577 12.659-28.25 28.237-28.25h421.286c15.577 0 28.25 12.672 28.25 28.25v165.415c-0.013 15.577-12.685 28.237-28.25 28.237zM477.76 218.163c0-6.157-5.017-11.187-11.175-11.187h-421.286c-6.157 0-11.175 5.017-11.175 11.187v165.401c0 6.157 5.017 11.187 11.175 11.187h421.286c6.157 0 11.175-5.017 11.175-11.187v-165.401zM230.4 292.262h140.8v17.063h-140.8v-17.063zM230.4 343.399h140.8v17.063h-140.8v-17.063zM204.8 309.401h-140.813v-17.063h140.813v17.063z" />
<glyph unicode="&#xe602;" d="M390.387 398.925c-8.231 0-14.912-6.695-14.912-14.925s6.682-14.925 14.912-14.925c8.243 0 14.925 6.695 14.925 14.925s-6.695 14.925-14.925 14.925zM302.579 221.043c-4.224-3.507-8.409-6.989-10.752-9.203-16.499-15.577-39.104-36.928-39.104-62.925 0-39.731 34.854-57.83 67.226-57.83s67.226 18.189 67.226 58.125c0 25.843-22.605 47.104-39.13 62.643-2.227 2.099-6.349 5.543-10.509 9.024-2.829 2.368-6.669 5.568-9.024 7.655v25.331h42.688c4.723 0 8.538 3.815 8.538 8.538s-3.815 8.537-8.538 8.537h-102.4c-4.723 0-8.538-3.815-8.538-8.537s3.815-8.538 8.538-8.538h42.663v-25.305c-2.342-2.061-6.106-5.197-8.883-7.514zM328.538 108.8v97.37c3.175-2.649 6.118-5.133 7.834-6.745 14.233-13.389 33.753-31.744 33.753-50.202 0-24.883-20.25-37.798-41.6-40.499 0 0.026 0.013 0.051 0.013 0.077zM311.488 108.685c-21.888 2.56-41.715 15.283-41.715 40.243 0 18.637 18.714 36.301 33.843 50.586 1.715 1.613 4.672 4.096 7.846 6.733v-97.447c0-0.038 0.026-0.077 0.026-0.115zM468.403 172.403v41.6h-17.063v-41.6c0-35.059-13.773-68.109-38.771-93.094-24.601-24.64-58.522-38.771-93.056-38.771-35.021 0-68.070 13.773-93.056 38.771-24.986 24.986-38.745 58.048-38.745 93.094v41.6h-17.063v-41.6c0-39.603 15.539-76.954 43.738-105.152 5.030-5.043 10.445-9.523 16.025-13.735h-60.224c-18.585 0-33.703 15.13-33.703 33.715v218.048h291.687c15.577 0 28.25 12.672 28.25 28.25v88.589c0 15.577-12.672 28.262-28.25 28.262h-370.074c-15.578 0-28.25-12.672-28.25-28.262v-408.627c0-15.577 12.672-28.262 28.25-28.262h370.087c15.577 0 28.25 12.672 28.25 28.262v11.776c0 15.577-12.672 28.25-28.25 28.25h-19.648c5.645 4.224 11.098 8.717 16.115 13.735 28.211 28.185 43.75 65.536 43.75 105.152zM46.925 422.118c0 6.17 5.017 11.2 11.187 11.2h370.087c6.17 0 11.187-5.030 11.187-11.2v-88.589c0-6.157-5.017-11.187-11.187-11.187h-381.274v99.776zM428.185 36.442c6.17 0 11.187-5.017 11.187-11.187v-11.776c0-6.17-5.017-11.2-11.187-11.2h-370.087c-6.169 0-11.187 5.031-11.187 11.2v291.801h72.512v-218.061c0-28.007 22.771-50.778 50.765-50.778h88.985c18.803-8.423 39.219-12.979 60.339-12.979 20.697 0 41.152 4.608 59.981 12.979h48.691z" />
<glyph unicode="&#xe603;" d="M253.747 114.176l-6.169-15.911c11.431-4.429 19.097-15.629 19.097-27.865 0-16.474-13.401-29.863-29.863-29.863s-29.863 13.401-29.863 29.863c0 12.301 7.386 23.193 18.803 27.75l-6.323 15.846c-17.946-7.168-29.555-24.269-29.555-43.597 0-25.882 21.056-46.938 46.938-46.938s46.938 21.056 46.938 46.938c-0.013 19.238-12.058 36.825-30.003 43.776zM415.104 386.279h-48.538v10.163c0 15.577-12.672 28.249-28.25 28.249h-48.525v10.074c0 15.577-12.672 28.25-28.25 28.25h-50.163c-15.565 0-28.237-12.672-28.237-28.25v-10.087h-48.537c-15.578 0-28.249-12.672-28.249-28.25v-186.304c0-9.945 3.712-18.918 10.739-25.945l34.688-34.714c0.781-0.781 1.587-1.523 2.406-2.214-0.806-0.691-1.613-1.433-2.393-2.214l-8.537-8.525c-3.353-2.419-11.315-9.907-11.315-26.534v-96.64c0-15.577 12.659-28.25 28.237-28.25h152.537c15.577 0 28.25 12.672 28.25 28.25v96.64c0 10.087-3.623 18.816-10.752 25.959l-9.088 9.101c-0.781 0.781-1.587 1.523-2.406 2.214 0.807 0.691 1.613 1.433 2.394 2.214l34.701 34.714c7.027 7.027 10.739 16 10.739 25.945v18.202h48.538c15.577 0 28.25 12.672 28.25 28.25v101.466c0.013 15.565-12.659 28.237-28.237 28.237zM323.904 109.99v-96.64c0-6.157-5.017-11.187-11.175-11.187h-152.537c-6.157 0-11.174 5.017-11.174 11.187v96.64c0 9.485 3.904 12.454 3.84 12.454 0 0 0 0 0 0l11.008 10.534c3.865 3.865 8.397 5.747 13.875 5.747h117.44c5.478 0 10.010-1.882 13.875-5.747l9.101-9.101c3.865-3.878 5.747-8.409 5.747-13.888zM426.279 256.589c0-6.157-5.017-11.187-11.175-11.187h-65.6v-35.264c0-5.466-1.882-10.010-5.747-13.875l-34.701-34.714c-3.865-3.865-8.397-5.747-13.875-5.747h-117.44c-5.478 0-10.010 1.882-13.875 5.747l-34.701 34.714c-3.865 3.878-5.747 8.409-5.747 13.875v186.304c0 6.157 5.017 11.187 11.187 11.187h65.6v27.136c0 6.157 5.018 11.187 11.174 11.187h50.163c6.157 0 11.187-5.018 11.187-11.187v-27.149h65.6c6.157 0 11.187-5.018 11.187-11.187v-27.213h65.6c6.157 0 11.175-5.018 11.175-11.187v-101.44zM375.462 275.277h17.063v64.064h-17.063v-64.064z" />
<glyph unicode="&#xe604;" d="M192 386.125c-8.218 0-14.912-6.695-14.912-14.925s6.695-14.938 14.912-14.938c8.231 0 14.938 6.695 14.938 14.925s-6.707 14.938-14.938 14.938zM241.907 71.193c-5.133 5.171-11.328 7.783-18.419 7.783h-22.951v55.424h-17.063v-55.424h-22.925c-7.091 0-13.299-2.611-18.47-7.821l-27.111-27.648c-5.453-5.478-8.333-12.557-8.333-20.48v-29.427h17.063v17.063h34.163v-17.063h17.063v17.063h34.137v-17.063h17.063v17.063h34.176v-17.063h17.075v29.44c0 7.923-2.88 15.002-8.269 20.442l-27.2 27.712zM124.57 27.738c0.563 1.382 1.395 2.649 2.547 3.789l27.111 27.648c1.92 1.92 3.802 2.752 6.323 2.752h62.938c2.522 0 4.403-0.819 6.272-2.701l27.2-27.725c1.113-1.127 1.933-2.368 2.496-3.75h-134.887zM393.575 181.337c-21.043 0.064-38.81 17.715-38.81 38.541v136.333c0.026 30.541-24.717 55.449-55.168 55.526h-22.413c-0.474 7.155-3.379 13.568-8.678 18.547l-26.509 25.063c-5.427 5.12-11.942 7.719-19.379 7.719h-61.12c-7.45 0-13.952-2.599-19.379-7.719l-26.509-25.049c-5.862-5.504-8.96-12.608-8.96-20.544v-203.187c0-7.667 2.778-14.349 8.269-19.853l26.841-26.841c5.401-5.414 12.314-8.281 19.968-8.281h60.544c7.642 0 14.553 2.854 19.981 8.269l26.816 26.841c5.517 5.491 8.307 12.185 8.307 19.865v188.096h22.195c21.031-0.051 38.131-17.305 38.106-38.451v-136.333c0-30.567 25.050-55.514 55.859-55.603h28.864v17.063h-28.825zM260.313 206.567c0-3.111-1.011-5.517-3.303-7.795l-26.816-26.841c-2.253-2.24-4.774-3.289-7.923-3.289h-60.544c-3.161 0-5.657 1.037-7.898 3.277l-26.841 26.841c-2.266 2.279-3.29 4.685-3.29 7.795v21.709h136.601v-21.696zM260.313 245.338h-136.601v164.416c0 3.187 1.177 5.849 3.597 8.115l26.521 25.050c2.214 2.087 4.647 3.059 7.667 3.059h61.12c3.021 0 5.453-0.973 7.667-3.059l26.522-25.063c2.394-2.253 3.495-4.826 3.495-8.102v-164.416z" />
<glyph unicode="&#xe605;" d="M364.787 215.475c8.231 0 14.925 6.695 14.925 14.925s-6.695 14.925-14.925 14.925-14.925-6.695-14.925-14.925 6.695-14.925 14.925-14.925zM364.787 87.475c8.231 0 14.925 6.695 14.925 14.925s-6.695 14.925-14.925 14.925-14.925-6.695-14.925-14.925 6.695-14.925 14.925-14.925zM364.787 151.462c8.231 0 14.925 6.695 14.925 14.925s-6.695 14.925-14.925 14.925-14.925-6.695-14.925-14.925 6.695-14.925 14.925-14.925zM147.187 215.475c8.231 0 14.925 6.695 14.925 14.925s-6.695 14.925-14.925 14.925-14.925-6.695-14.925-14.925 6.695-14.925 14.925-14.925zM147.187 87.475c8.231 0 14.925 6.695 14.925 14.925s-6.695 14.925-14.925 14.925-14.925-6.695-14.925-14.925 6.695-14.925 14.925-14.925zM428.377 437.696h-344.499c-15.591 0-28.263-12.672-28.263-28.25v-357.427c0-15.577 12.672-28.262 28.263-28.262h10.138v-15.783c0-12.48 10.15-22.618 22.617-22.618h22.887c12.467 0 22.618 10.137 22.618 22.618v15.783h187.725v-15.783c0-12.48 10.151-22.618 22.618-22.618h23.13c12.467 0 22.618 10.137 22.618 22.618v15.783h10.163c15.565 0 28.237 12.672 28.237 28.262v357.427c-0.013 15.577-12.685 28.25-28.25 28.25zM439.539 52.019c0-6.17-5.005-11.2-11.161-11.2h-27.238v-32.845c0-3.059-2.471-5.555-5.543-5.555h-23.117c-3.059 0-5.543 2.496-5.543 5.555v32.858h-221.875v-32.845c0-3.059-2.47-5.555-5.542-5.555h-22.899c-3.059 0-5.543 2.496-5.543 5.555v32.845h-27.2c-6.169 0-11.187 5.031-11.187 11.2v240.231h366.848v-240.243zM439.539 309.337h-366.848v100.109c0 6.157 5.017 11.187 11.187 11.187h344.499c6.157 0 11.161-5.018 11.161-11.187v-100.109zM315.84 245.671h-119.45v-157.875h119.45v157.875zM298.765 104.858h-85.299v123.75h85.299v-123.75zM147.187 151.462c8.231 0 14.925 6.695 14.925 14.925s-6.695 14.925-14.925 14.925-14.925-6.695-14.925-14.925 6.695-14.925 14.925-14.925z" />
<glyph unicode="&#xe606;" d="M459.303 322.125h-93.286c-6.067 62.797-49.715 111.629-104.205 115.034l-0.077-1.127c-3.93 1.715-7.911 1.728-11.84-0.013l-0.077 1.152c-54.477-3.405-98.125-52.237-104.192-115.034h-93.273c-12.467 0-22.617-10.137-22.617-22.605v-23.079c0-12.48 10.137-22.618 22.617-22.618h17.037l34.624-219.315c2.189-13.811 13.913-23.834 27.891-23.834h247.859c13.99 0 25.715 10.022 27.904 23.834l34.611 219.315h17.037c12.467 0 22.605 10.137 22.605 22.618v23.079c-0.013 12.454-10.151 22.592-22.618 22.592zM390.797 37.171c-0.87-5.555-5.414-9.433-11.034-9.433h-247.859c-5.529 0-10.163 3.981-11.034 9.433l-18.215 115.367c2.253 1.037 4.505 2.112 6.733 3.187 9.049 4.39 17.6 8.525 26.201 8.525 8.73 0 17.485-4.211 26.752-8.678 10.701-5.159 21.786-10.483 34.675-10.483 13.478 0 25.152 5.645 35.443 10.637 9.049 4.39 17.587 8.525 26.202 8.525 8.729 0 17.485-4.224 26.765-8.678 10.714-5.159 21.798-10.483 34.688-10.483 13.466 0 25.229 5.645 35.597 10.624 9.139 4.39 17.767 8.538 26.394 8.538 8.717 0 17.408-4.224 26.599-8.678 0.243-0.115 0.474-0.217 0.717-0.333l-18.624-118.067zM412.211 172.825c-9.305 4.429-19.021 8.474-30.093 8.474-12.519 0-23.322-5.184-33.779-10.214-9.587-4.595-18.637-8.947-28.211-8.947-9.011 0-17.882 4.275-27.289 8.806-10.586 5.094-21.543 10.368-34.163 10.368-12.531 0-23.257-5.197-33.638-10.227-9.485-4.595-18.445-8.935-28.006-8.935-9.011 0-17.881 4.275-27.277 8.807-10.585 5.094-21.529 10.368-34.15 10.368-12.531 0-23.257-5.197-33.638-10.227-0.691-0.333-1.382-0.653-2.073-0.986l-13.222 83.712h338.317l-12.774-80.998zM464.845 276.442c0-3.059-2.483-5.555-5.543-5.555h-406.95c-3.059 0-5.555 2.496-5.555 5.555v23.078c0 3.059 2.496 5.543 5.555 5.543h109.401l0.358 8.166c2.189 50.214 31.155 91.43 70.131 103.475-13.005-23.193-22.745-62.861-23.181-103.014l17.063-0.192c0.666 60.275 21.824 101.824 29.696 106.547 7.961-4.711 29.363-46.246 30.042-106.547l17.063 0.192c-0.435 40.115-10.24 79.757-23.322 102.951 38.887-12.135 67.738-53.286 69.926-103.411l0.358-8.166h109.401c3.059 0 5.543-2.483 5.543-5.543v-23.078z" />
<glyph unicode="&#xe607;" d="M428.007 66.137h-214.669v290.304h214.669c15.565 0 28.237 12.672 28.237 28.25v37.376c0 15.577-12.672 28.262-28.237 28.262h-370.087c-15.59 0-28.262-12.672-28.262-28.262v-408.627c0-15.577 12.672-28.25 28.262-28.25h370.074c15.565 0 28.237 12.672 28.237 28.25v24.448c0.013 15.577-12.672 28.25-28.224 28.25zM439.168 13.44c0-6.157-5.005-11.187-11.161-11.187h-370.087c-6.169 0-11.187 5.017-11.187 11.187v408.627c0 6.169 5.017 11.2 11.187 11.2h370.074c6.157 0 11.161-5.031 11.161-11.2v-37.376c0-6.157-5.005-11.187-11.161-11.187h-231.731v-324.442h231.731c6.157 0 11.161-5.017 11.161-11.187v-24.435zM121.613 360.538c-8.231 0-14.925-6.695-14.925-14.925s6.695-14.925 14.925-14.925 14.925 6.694 14.925 14.925-6.695 14.925-14.925 14.925zM121.613 258.137c-8.231 0-14.925-6.695-14.925-14.925s6.695-14.925 14.925-14.925 14.925 6.695 14.925 14.925-6.695 14.925-14.925 14.925zM456.397 232.679h-25.741v5.811c0 10.918-8.883 19.789-19.815 19.789h-143.846c-10.918 0-19.789-8.87-19.789-19.789v-107.43c0-8.423 3.149-16.013 9.101-21.978l12.39-12.365c5.939-5.965 13.543-9.127 21.978-9.127h96.499c8.538 0 15.936 3.059 21.99 9.113l12.377 12.39c5.965 5.965 9.127 13.568 9.127 21.965v7.744h25.741c14.029 0 25.433 11.405 25.433 25.433v43.008c0 14.029-11.418 25.434-25.447 25.434zM464.768 164.237c0-4.608-3.75-8.371-8.358-8.371h-42.816v-24.806c0-3.942-1.305-7.091-4.122-9.907l-12.377-12.39c-2.803-2.803-5.952-4.109-9.907-4.109h-96.499c-3.968 0-7.091 1.305-9.882 4.122l-12.403 12.377c-2.803 2.803-4.096 5.952-4.096 9.907v107.43c0 1.511 1.216 2.726 2.714 2.726h143.846c1.485 0 2.739-1.255 2.739-2.726v-22.873h42.816c4.608 0 8.358-3.75 8.358-8.371v-43.008zM371.2 279.462c4.711 0 8.538 3.815 8.538 8.538v29.863h29.863c4.711 0 8.538 3.815 8.538 8.537s-3.827 8.538-8.538 8.538h-140.8c-4.711 0-8.538-3.815-8.538-8.538s3.827-8.537 8.538-8.537h29.863v-29.863c0-4.711 3.827-8.538 8.538-8.538s8.538 3.815 8.538 8.538v29.863h46.925v-29.863c0-4.711 3.827-8.538 8.538-8.538zM409.6 177.063h25.6v17.063h-25.6v-17.063z" />
<glyph unicode="&#xe608;" d="M315.738 224.025v51.174h-17.075v-51.174h17.075zM185.856 292.262h152.525c15.565 0 28.237 12.672 28.237 28.25v101.376c0 15.577-12.672 28.249-28.237 28.249h-152.525c-15.59 0-28.262-12.672-28.262-28.249v-101.389c0-15.577 12.672-28.237 28.262-28.237zM174.669 421.888c0 6.157 5.018 11.187 11.187 11.187h152.525c6.157 0 11.161-5.017 11.161-11.187v-101.389c0-6.157-5.005-11.187-11.161-11.187h-152.525c-6.169 0-11.187 5.017-11.187 11.187v101.389zM309.926 175.526c-7.334 7.309-15.577 13.543-24.461 18.509l-8.32-14.899c7.526-4.211 14.502-9.485 20.723-15.68 17.856-17.869 27.673-41.6 27.673-66.855s-9.83-48.998-27.673-66.855-41.587-27.699-66.841-27.699c-25.242 0-48.96 9.843-66.816 27.699s-27.673 41.6-27.673 66.855 9.831 48.998 27.673 66.855c14.605 14.605 33.869 24.141 54.233 26.867l7.411 0.986v83.469h-17.075v-68.8c-21.299-4.352-41.191-15.002-56.653-30.464-21.069-21.082-32.678-49.113-32.678-78.925s11.597-57.843 32.678-78.925c21.069-21.082 49.088-32.704 78.887-32.704 29.811 0 57.843 11.61 78.912 32.704 21.069 21.082 32.678 49.113 32.678 78.925s-11.597 57.843-32.678 78.938zM425.433 175.526c-9.331 9.331-20.109 16.858-32.026 22.387l-7.181-15.475c10.087-4.685 19.226-11.059 27.123-18.969 17.856-17.869 27.673-41.6 27.673-66.854s-9.83-48.998-27.673-66.855c-8.448-8.448-18.24-15.13-29.069-19.865l6.822-15.642c12.8 5.594 24.346 13.478 34.329 23.437 21.069 21.082 32.678 49.113 32.678 78.925s-11.597 57.817-32.678 78.912zM367.514 175.526c-9.344 9.331-20.122 16.87-32.026 22.387l-7.181-15.475c10.074-4.672 19.213-11.059 27.123-18.969 17.856-17.869 27.673-41.6 27.673-66.854s-9.83-48.998-27.673-66.855c-8.448-8.448-18.24-15.13-29.069-19.865l6.822-15.642c12.8 5.594 24.346 13.478 34.329 23.437 21.069 21.082 32.678 49.113 32.678 78.925s-11.61 57.817-32.678 78.912z" />
<glyph unicode="&#xe609;" d="M247.463 96h17.062v28.8h-17.063v-28.8zM247.463 150.4h17.062v28.8h-17.063v-28.8zM192.87 211.495l15.795-6.425 9.651 23.706-15.795 6.425-9.651-23.706zM152.231 111.667l15.795-6.438 10.432 25.625-15.795 6.438-10.432-25.625zM288.013 411.738c-8.243 0-14.925-6.695-14.925-14.925s6.682-14.925 14.925-14.925c8.231 0 14.912 6.695 14.912 14.925s-6.682 14.925-14.912 14.925zM172.391 161.216l15.795-6.438 10.791 26.496-15.795 6.438-10.791-26.496zM247.463 204.8h17.062v25.6h-17.063v-25.6zM224.013 411.738c-8.243 0-14.925-6.695-14.925-14.925s6.681-14.925 14.925-14.925c8.231 0 14.912 6.695 14.912 14.925s-6.681 14.925-14.912 14.925zM415.104 450.368h-318.899c-15.578 0-28.249-12.672-28.249-28.262v-395.827c0-15.577 12.672-28.25 28.249-28.25h318.899c15.577 0 28.25 12.672 28.25 28.25v395.84c0 15.577-12.685 28.25-28.25 28.25zM426.279 26.291c0-6.157-5.017-11.187-11.187-11.187h-318.887c-6.169 0-11.187 5.017-11.187 11.187v317.401h162.445v-22.054c-2.266-0.205-4.454-0.448-5.927-0.679-18.56-2.906-42.343-26.317-43.712-48-1.395-3.878-1.037-8.154 1.113-11.853 2.573-4.416 7.155-7.053 12.237-7.053h89.267c5.094 0 9.677 2.637 12.25 7.053 2.253 3.879 1.6 7.591 1.178 9.907 0 22.31-24.87 47.091-44.16 50.010-1.344 0.205-3.226 0.409-5.197 0.589v22.067h161.754v-317.389zM267.175 304.167c12.429-1.882 29.543-20.979 29.645-33.037h-81.971c0.102 11.994 17.037 31.053 29.338 32.973 2.944 0.461 20.083 0.499 22.989 0.064zM426.279 360.755h-341.261v61.363c0 6.17 5.017 11.2 11.187 11.2h318.899c6.17 0 11.187-5.030 11.187-11.2v-61.363zM344.231 105.241l15.821 6.425-10.419 25.625-15.821-6.425 10.419-25.625zM293.952 228.774l9.639-23.706 15.821 6.425-9.639 23.706-15.821-6.425zM324.083 154.765l15.795 6.438-10.791 26.496-15.795-6.438 10.791-26.496z" />
<glyph unicode="&#xe60a;" d="M111.437 345.69l-22.029-29.415v-6.95h-63.808c-4.71 0-8.538-3.815-8.538-8.537s3.827-8.525 8.538-8.525h63.808v-7.271l22.041-29.414c7.117-9.459 17.523-14.669 29.351-14.669h64v17.063h-64c-6.413 0-11.84 2.713-15.693 7.846l-18.624 24.857v7.014c0.384 0.973 0.627 2.010 0.627 3.111s-0.256 2.137-0.627 3.097v6.695l18.611 24.857c3.917 5.209 9.191 7.859 15.706 7.859h64v17.075h-64c-11.827 0-22.246-5.209-29.363-14.695zM324.262 262.233h17.075v76.813h-17.075v-76.813zM273.063 262.233h17.075v76.813h-17.075v-76.813zM375.36 262.233h17.075v76.813h-17.075v-76.813zM466.752 398.784h-216.55c-15.565 0-28.237-12.672-28.237-28.25v-139.801c0-15.577 12.672-28.25 28.237-28.25h79.207l5.325-21.337h-0.563c-12.493 0-22.643-10.137-22.643-22.618v-10.24c0-12.48 10.151-22.618 22.643-22.618h14.438l2.547-10.227c-8.231-3.392-14.029-11.495-14.029-20.928v-10.24c0-12.467 10.151-22.605 22.618-22.605h75.853c8.883 0 16.793 3.853 22.285 10.867 5.453 7.014 7.271 15.616 5.107 24.217l-26.419 105.728h30.169c15.565 0 28.237 12.672 28.237 28.25v139.801c0.013 15.578-12.659 28.25-28.224 28.25zM477.913 230.733c0-6.157-5.005-11.187-11.161-11.187h-52.032l31.731-126.938c0.883-3.558 0.231-6.695-2.010-9.587-2.279-2.893-5.159-4.301-8.832-4.301h-75.853c-3.059 0-5.543 2.483-5.543 5.543v10.24c0 3.059 2.471 5.555 5.543 5.555h12.864l-10.675 42.663h-27.763c-3.059 0-5.568 2.496-5.568 5.555v10.24c0 3.059 2.496 5.555 5.568 5.555h22.438l-13.875 55.462h-92.531c-6.157 0-11.161 5.018-11.161 11.187v139.815c0 6.157 5.005 11.187 11.161 11.187h216.55c6.157 0 11.161-5.018 11.161-11.187v-139.802zM426.663 262.233h17.075v76.813h-17.075v-76.813z" />
<glyph unicode="&#xe60b;" d="M453.043 360.435h-47.744v35.917c0 15.578-12.659 28.25-28.237 28.25h-61.337v10.138c0 15.577-12.672 28.249-28.25 28.249h-75.75c-15.577 0-28.25-12.672-28.25-28.249v-10.138h-61.338c-15.565 0-28.237-12.672-28.237-28.25v-35.917h-36.544c-10.125 0-19.2-5.274-24.294-14.131-5.184-9.011-5.248-20.070-0.128-28.889l60.557-103.833v-187.481c0-15.577 12.672-28.25 28.237-28.25h254.515c15.577 0 28.237 12.672 28.237 28.25v125.248h48.538c15.577 0 28.25 12.672 28.25 28.25v152.589c0.013 15.577-12.659 28.25-28.224 28.25zM110.963 396.352c0 6.157 5.017 11.187 11.174 11.187h78.4v27.2c0 6.157 5.018 11.187 11.174 11.187h75.75c6.157 0 11.187-5.017 11.187-11.187v-27.2h78.4c6.157 0 11.175-5.017 11.175-11.187v-35.917h-277.261v35.917zM387.43 26.099c0-6.157-5.017-11.187-11.175-11.187h-254.515c-6.157 0-11.174 5.017-11.174 11.187v35.763h276.864v-35.763zM464.217 179.584c0-6.157-5.017-11.187-11.187-11.187h-65.6v-89.472h-276.864v139.264l-62.873 107.801c-2.061 3.533-1.997 8.064 0.154 11.789 0.973 1.677 3.827 5.581 9.511 5.581h395.673c6.157 0 11.187-5.018 11.187-11.187v-152.589zM283.123 296.55h-67.456c-10.918 0-19.789-8.87-19.789-19.789v-131.085c0-10.918 8.87-19.789 19.789-19.789h67.456c10.918 0 19.801 8.87 19.801 19.789v131.085c0 10.918-8.883 19.789-19.801 19.789zM285.863 145.677c0-1.485-1.255-2.726-2.726-2.726h-67.456c-1.472 0-2.726 1.255-2.726 2.726v131.085c0 1.51 1.229 2.726 2.726 2.726h67.456c1.51 0 2.726-1.229 2.726-2.726v-131.085zM413.863 198.285h17.063v115.213h-17.063v-115.213z" />
<glyph unicode="&#xe60c;" d="M186.035 350.733c0-8.231 6.695-14.925 14.925-14.925s14.925 6.695 14.925 14.925-6.695 14.925-14.925 14.925-14.925-6.695-14.925-14.925zM307.2 411.673h-128v-17.063h128v17.063zM228.173 124.058c0-8.231 6.681-14.938 14.912-14.938 8.243 0 14.925 6.695 14.925 14.938s-6.681 14.938-14.925 14.938c-8.231 0-14.912-6.707-14.912-14.938zM270.502 350.733c0-8.231 6.695-14.925 14.925-14.925s14.925 6.695 14.925 14.925-6.695 14.925-14.925 14.925-14.925-6.695-14.925-14.925zM334.861 342.938l-68.736-108.851 14.425-9.101 68.749 108.851-14.438 9.101zM243.085 462.938c-75.264 0-136.487-61.248-136.487-136.538 0-43.021 19.993-81.459 51.174-106.509v-206.579c0-15.577 12.672-28.25 28.25-28.25h114.15c15.565 0 28.237 12.672 28.237 28.25v206.592c31.181 25.049 51.175 63.475 51.175 106.496-0.013 75.289-61.235 136.538-136.499 136.538zM311.334 13.312c0-6.157-5.005-11.187-11.161-11.187h-114.15c-6.157 0-11.174 5.017-11.174 11.187v194.88c20.083-11.648 43.405-18.329 68.237-18.329 24.845 0 48.167 6.669 68.249 18.329v-194.88zM243.085 206.938c-65.856 0-119.411 53.606-119.411 119.475s53.568 119.462 119.411 119.462 119.411-53.594 119.411-119.475-53.568-119.462-119.411-119.462zM137.113 333.837l68.736-108.851 14.439 9.101-68.749 108.851-14.425-9.101zM243.085 295.257c-8.231 0-14.912-6.695-14.912-14.925s6.681-14.925 14.912-14.925c8.243 0 14.925 6.695 14.925 14.925s-6.695 14.925-14.925 14.925z" />
<glyph unicode="&#xe60d;" d="M430.938 275.2c0 96.461-78.477 174.938-174.938 174.938s-174.938-78.477-174.938-174.938c0-93.581 73.907-170.010 166.4-174.502v-73.049h-81.063v-17.063h177.728v17.063h-79.591v73.049c92.48 4.493 166.4 80.921 166.4 174.502zM256 117.337c-87.053 0-157.863 70.822-157.863 157.863s70.81 157.863 157.863 157.863 157.863-70.81 157.863-157.863-70.81-157.863-157.863-157.863zM353.165 276.454c-18.726 10.829-42.688 8.563-61.337 6.183-3.456 16.627-18.202 29.159-35.827 29.159-4.377 0-8.525-0.896-12.416-2.317-9.92 13.043-22.029 29.965-22.029 46.183 0 20.825 12.633 28.48 23.219 31.232 17.817 4.646 40.819-2.048 47.322-13.722 3.635-6.541 0.947-14.195-8.013-22.745-8.474-8.089-12.505-12.889-17.831-19.968l13.632-10.265c4.864 6.451 8.32 10.573 15.987 17.894 20.8 19.853 14.707 36.953 11.136 43.392-10.342 18.56-40.793 28.595-66.522 21.926-22.887-5.939-36.007-23.334-36.007-47.744 0-21.338 13.542-40.717 24.819-55.59-6.106-6.541-9.907-15.245-9.907-24.87 0-11.226 5.184-21.159 13.159-27.879l-0.512 0.205c-6.439-15.513-15.245-36.775-30.336-45.504-18.023-10.419-30.951-3.289-38.643 4.505-12.928 13.133-18.662 36.403-11.789 47.872 3.84 6.413 11.827 7.897 23.68 4.429 10.522-3.085 20.185-5.21 28.723-6.311l2.189 16.922c-7.667 0.986-16.448 2.931-26.112 5.76-27.571 8.102-39.347-5.721-43.123-12.032-10.918-18.24-4.377-49.664 14.272-68.608 9.715-9.869 21.145-14.873 33.216-14.873 8.525 0 17.369 2.509 26.125 7.565 19.648 11.366 29.721 34.855 37.056 52.505 2.803-0.691 5.683-1.152 8.691-1.152 16.742 0 30.746 11.367 35.085 26.739 16.576 2.163 38.797 4.864 53.543-3.673 18.035-10.406 18.343-25.177 15.424-35.737-4.877-17.639-21.965-34.137-35.289-34.137-0.077 0-0.166 0-0.256 0-7.475 0.115-12.749 6.285-15.68 18.304-2.24 9.241-5.184 20.8-8.089 28.224l-15.885-6.233c2.56-6.528 5.44-17.959 7.399-26.010 6.784-27.942 24.627-31.219 31.987-31.334 0.166 0 0.333 0 0.499 0 21.12 0 44.736 21.235 51.763 46.656 6.31 22.784-2.202 42.854-23.322 55.053zM256 255.667c-10.765 0-19.533 8.768-19.533 19.533s8.768 19.533 19.533 19.533 19.533-8.768 19.533-19.533-8.768-19.533-19.533-19.533z" />
<glyph unicode="&#xe60e;" d="M334.157 315.712c-13.197 7.642-25.19 8.358-37.696 7.27-4.288 18.419-20.749 32.231-40.461 32.231-5.721 0-11.161-1.165-16.115-3.264-6.375 8.755-9.305 14.695-9.305 25.088 0 12.365 5.76 20.135 17.113 23.079 14.49 3.763 31.322-2.419 35.571-10.048 2.445-4.403 0.423-9.754-6.041-15.923l11.776-12.339c17.395 16.602 12.211 31.104 9.165 36.57-8.563 15.373-33.639 23.744-54.758 18.253-18.714-4.864-29.888-19.661-29.888-39.603 0-15.552 5.184-25.011 12.365-34.88-7.078-7.462-11.507-17.485-11.507-28.57 0-13.427 6.502-25.255 16.397-32.87-4.941-11.226-9.575-18.854-18.585-24.077-10.701-6.169-20.288-5.082-28.531 3.277-10.535 10.688-13.594 28.365-9.101 35.865 2.585 4.327 8.218 5.235 16.793 2.726l4.8 16.371c-23.078 6.784-33.037-4.979-36.237-10.342-9.049-15.117-3.738-41.037 11.584-56.601 7.975-8.102 17.613-12.224 27.725-12.224 7.078 0 14.4 2.035 21.517 6.131 13.632 7.898 20.185 19.482 25.434 31.411 3.161-0.781 6.425-1.305 9.831-1.305 20.301 0 37.209 14.643 40.832 33.907 11.891 1.127 19.725 0.269 28.787-4.966 10.701-6.183 14.553-15.065 11.418-26.381-4.007-14.451-17.997-25.753-26.471-25.792-5.031 0.089-8.653 4.518-10.752 13.184l-16.589-4.019c5.671-23.373 20.813-26.125 27.072-26.227 0.141 0 0.269 0 0.409 0 17.498 0 37.005 17.434 42.777 38.31 5.159 18.688-2.061 35.776-19.328 45.76zM256 289.049c-13.542 0-24.55 11.008-24.55 24.551s11.008 24.55 24.55 24.55 24.55-11.008 24.55-24.55-11.008-24.551-24.55-24.551zM405.299 313.575c0 82.355-66.983 149.351-149.312 149.351s-149.299-66.995-149.299-149.351c0-79.463 62.425-144.461 140.774-148.915v-137.063l-54.157 0.128-0.038-17.063 126.707-0.307 0.038 17.063-55.488 0.141v137.101c78.362 4.467 140.774 69.453 140.774 148.915zM256 181.299c-72.909 0-132.237 59.341-132.237 132.275-0.013 72.947 59.315 132.288 132.237 132.288s132.237-59.353 132.237-132.288c0-72.934-59.328-132.275-132.237-132.275z" />
<glyph unicode="&#xe60f;" d="M262.118 450.112c-99.968 0-181.299-81.344-181.299-181.338 0-74.675 46.029-141.798 115.162-168.896v-73.728c0-15.577 12.672-28.25 28.25-28.25h75.763c15.565 0 28.237 12.672 28.237 28.25v73.728c69.133 27.085 115.175 94.208 115.175 168.896 0 99.981-81.331 181.338-181.286 181.338zM316.839 113.83l-5.683-2.010v-85.683c0-6.157-5.005-11.187-11.161-11.187h-75.763c-6.157 0-11.174 5.017-11.174 11.187v85.683l-5.696 2.010c-65.485 23.181-109.478 85.44-109.478 154.931 0 90.586 73.677 164.275 164.237 164.275 90.547 0 164.224-73.702 164.224-164.275-0.013-69.517-44.007-131.776-109.504-154.931zM262.118 387.469c-65.447 0-118.681-53.261-118.681-118.707 0-65.472 53.235-118.733 118.681-118.733s118.681 53.261 118.681 118.733c0 65.459-53.248 118.707-118.682 118.707zM262.118 167.104c-56.025 0-101.606 45.606-101.606 101.657 0 56.038 45.581 101.645 101.606 101.645s101.606-45.607 101.606-101.645c0-56.051-45.581-101.657-101.606-101.657z" />
<glyph unicode="&#xe610;" d="M390.387 398.925c-8.231 0-14.925-6.695-14.925-14.925s6.695-14.925 14.925-14.925 14.925 6.695 14.925 14.925-6.695 14.925-14.925 14.925zM332.8 215.462c4.711 0 8.538 3.815 8.538 8.538v29.863h42.663c4.711 0 8.538 3.815 8.538 8.537s-3.827 8.538-8.538 8.538h-102.4c-4.711 0-8.538-3.815-8.538-8.538s3.827-8.537 8.538-8.537h42.663v-29.863c0-4.711 3.827-8.538 8.538-8.538zM433.702 40.704h-14.387c31.219 26.893 49.805 66.419 49.805 108.429 0 8.896-0.845 17.907-2.509 26.816-2.087 10.829-11.238 18.381-22.221 18.381h-236.365c-10.855 0-20.211-7.731-22.246-18.419-1.651-8.858-2.483-17.869-2.483-26.765 0-42.010 18.573-81.536 49.805-108.429h-37.248c-18.599 0-33.715 15.13-33.715 33.715v230.848h265.92c15.591 0 28.262 12.672 28.262 28.25v88.589c0 15.577-12.672 28.262-28.262 28.262h-370.087c-15.565 0-28.237-12.672-28.237-28.262v-108.301c0-0.064 0-0.141 0-0.218v-300.109c0-15.577 12.659-28.262 28.237-28.262h375.731c12.467 0 22.618 10.137 22.618 22.618v10.24c-0.013 12.48-10.163 22.618-22.618 22.618zM46.809 422.118c0 6.17 5.017 11.2 11.175 11.2h370.074c6.17 0 11.187-5.030 11.187-11.2v-88.589c0-6.157-5.017-11.187-11.187-11.187h-381.248v99.776zM439.232 7.846c0-3.059-2.471-5.555-5.543-5.555h-375.719c-6.157 0-11.175 5.031-11.175 11.2v291.789h98.266v-230.861c0-28.007 22.784-50.778 50.778-50.778h64.102c3.878 0 7.257 2.611 8.256 6.349 0.986 3.75-0.666 7.693-4.032 9.6-39.36 22.349-63.808 64.32-63.808 109.543 0 7.846 0.743 15.795 2.202 23.603 0.512 2.663 2.752 4.531 5.465 4.531h236.352c2.752 0 4.941-1.83 5.466-4.505 1.459-7.834 2.202-15.783 2.202-23.629 0-45.223-24.448-87.194-63.795-109.543-3.379-1.907-5.031-5.849-4.032-9.6 0.986-3.738 4.377-6.349 8.256-6.349h41.255c3.059 0 5.543-2.496 5.543-5.555v-10.24z" />
<glyph unicode="&#xe611;" d="M323.546 241.152h102.375l15.296 15.194-12.019 12.109-10.304-10.24h-102.438l-15.296-15.411 12.109-12.019 10.279 10.368zM152.627 267.776l-6.157-15.911c11.417-4.429 19.085-15.629 19.085-27.865 0-16.474-13.401-29.863-29.863-29.863s-29.875 13.389-29.875 29.863c0 12.288 7.386 23.194 18.816 27.75l-6.323 15.846c-17.959-7.155-29.555-24.281-29.555-43.597 0-25.882 21.056-46.938 46.938-46.938s46.938 21.056 46.938 46.938c-0.013 19.238-12.058 36.826-30.003 43.776zM453.888 399.027h-165.427c-15.577 0-28.25-12.672-28.25-28.249v-240.589h-21.325v176.589c0 15.577-12.672 28.25-28.25 28.25h-152.537c-15.565 0-28.25-12.672-28.25-28.25v-229.401c0-15.577 12.672-28.262 28.25-28.262h395.789c15.577 0 28.25 12.672 28.25 28.262v293.414c0 15.577-12.672 28.237-28.25 28.237zM46.925 306.778c0 6.157 5.017 11.187 11.175 11.187h152.537c6.157 0 11.187-5.018 11.187-11.187v-176.576h-174.899v176.576zM465.063 77.376c0-6.17-5.017-11.2-11.187-11.2h-395.776c-6.157 0-11.175 5.031-11.175 11.2v35.75h418.137v-35.75zM465.063 130.189h-85.337v93.811h-17.063v-93.811h-85.389v200.474h187.789v-200.474zM465.063 347.738h-187.789v23.053c0 6.157 5.017 11.187 11.187 11.187h165.427c6.157 0 11.187-5.017 11.187-11.187v-23.053z" />
<glyph unicode="&#xe612;" d="M453.645 258.073h-56.845v-17.062h56.845c6.17 0 11.187-5.018 11.187-11.187v-178.202c0-6.157-5.017-11.187-11.187-11.187h-27.213v-32.858c0-3.059-2.471-5.555-5.543-5.555h-22.797c-3.059 0-5.568 2.496-5.568 5.555v32.87h-273.063v-32.858c0-3.059-2.471-5.555-5.543-5.555h-23.194c-3.059 0-5.543 2.496-5.543 5.555v32.858h-27.213c-6.157 0-11.161 5.017-11.161 11.187v178.189c0 6.157 5.005 11.187 11.162 11.187h57.229v17.063h-57.229c-15.565 0-28.237-12.672-28.237-28.25v-178.201c0-15.577 12.672-28.25 28.237-28.25h10.138v-15.795c0-12.48 10.15-22.618 22.617-22.618h23.194c12.467 0 22.618 10.137 22.618 22.618v15.795h238.925v-15.795c0-12.48 10.151-22.618 22.643-22.618h22.797c12.467 0 22.618 10.137 22.618 22.618v15.795h10.137c15.591 0 28.262 12.672 28.262 28.25v178.202c-0.013 15.577-12.685 28.25-28.275 28.25zM104.806 279.475h116.864v-15.795c0-12.48 10.15-22.618 22.618-22.618h23.027c12.493 0 22.643 10.137 22.643 22.618v15.795h116.864c20.224 0 36.685 16.461 36.685 36.697v7.795c0 20.25-16.461 36.711-36.685 36.711h-78.49v40.115c0 20.237-16.461 36.697-36.685 36.697h-71.654c-20.237 0-36.71-16.461-36.71-36.697v-40.103h-78.464c-20.224 0-36.685-16.461-36.685-36.71v-7.795c-0.025-20.237 16.435-36.71 36.672-36.71zM85.184 323.981c0 10.829 8.806 19.648 19.609 19.648h95.539v57.165c0 10.829 8.806 19.635 19.635 19.635h71.654c10.816 0 19.61-8.806 19.61-19.635v-57.165h95.565c10.816 0 19.61-8.807 19.61-19.648v-7.795c0-10.829-8.806-19.635-19.61-19.635h-133.939v-32.858c0-3.059-2.496-5.555-5.568-5.555h-23.027c-3.059 0-5.542 2.496-5.542 5.555v32.858h-133.913c-10.816 0-19.609 8.807-19.609 19.635v7.795zM371.2 100.262c25.869 0 46.912 21.056 46.912 46.938 0 25.869-21.056 46.925-46.912 46.925-25.869 0-46.938-21.056-46.938-46.925s21.069-46.938 46.938-46.938zM371.2 177.063c16.461 0 29.837-13.389 29.837-29.863s-13.376-29.875-29.837-29.875-29.863 13.401-29.863 29.875c0 16.474 13.401 29.863 29.863 29.863zM256 194.137c-25.869 0-46.938-21.056-46.938-46.925 0-25.882 21.069-46.938 46.938-46.938s46.912 21.056 46.912 46.938c0 25.869-21.043 46.925-46.912 46.925zM256 117.337c-16.461 0-29.863 13.401-29.863 29.875 0 16.461 13.401 29.863 29.863 29.863s29.837-13.389 29.837-29.863c0-16.474-13.376-29.875-29.837-29.875zM93.888 147.213c0-25.882 21.069-46.938 46.938-46.938s46.912 21.056 46.912 46.938c0 25.869-21.056 46.925-46.912 46.925-25.882 0-46.938-21.056-46.938-46.925zM170.662 147.213c0-16.474-13.376-29.875-29.837-29.875s-29.862 13.401-29.862 29.875c0 16.461 13.401 29.863 29.862 29.863s29.837-13.401 29.837-29.863z" />
<glyph unicode="&#xe613;" d="M153.6 283.738c-4.71 0-8.537-3.815-8.537-8.537v-89.6c0-4.711 3.815-8.538 8.537-8.538s8.537 3.815 8.537 8.538v89.6c0 4.71-3.827 8.537-8.537 8.537zM365.786 257.575c-2.368 4.070-7.591 5.491-11.661 3.123l-25.139-14.515v29.017c0 4.71-3.815 8.537-8.538 8.537s-8.525-3.814-8.525-8.537v-29.030l-25.139 14.515c-4.096 2.368-9.305 0.947-11.661-3.123-2.355-4.083-0.96-9.305 3.123-11.661l25.139-14.515-25.139-14.515c-4.083-2.368-5.478-7.577-3.123-11.661 1.587-2.739 4.454-4.262 7.399-4.262 1.447 0 2.918 0.358 4.262 1.139l25.139 14.515v-29.031c0-4.711 3.815-8.538 8.538-8.538s8.538 3.815 8.538 8.538v29.031l25.139-14.515c1.344-0.781 2.816-1.139 4.262-1.139 2.944 0 5.824 1.523 7.399 4.262 2.355 4.083 0.96 9.305-3.123 11.661l-25.139 14.515 25.139 14.515c4.070 2.368 5.466 7.59 3.111 11.673zM389.683 450.368h-293.299c-15.578 0-28.249-12.672-28.249-28.262v-395.827c0-15.577 12.672-28.25 28.249-28.25h293.299c15.577 0 28.25 12.672 28.25 28.25v395.84c-0.013 15.577-12.672 28.25-28.25 28.25zM96.384 15.104c-6.157 0-11.187 5.017-11.187 11.187v395.827c0 6.17 5.017 11.2 11.187 11.2h112.525c0 0 0.627-417.101 0.679-418.202h-113.203zM400.858 26.291c0-6.157-5.017-11.187-11.175-11.187h-163.034c-0.038 1.664-0.679 418.202-0.679 418.202h163.712c6.157 0 11.175-5.031 11.175-11.2v-395.815z" />
<glyph unicode="&#xe614;" d="M106.022 333.581l-25.843-21.85c-3.187-2.675-7.603-2.675-10.637-0.141l-24.205 21.517-11.341-12.749 24.371-21.671c4.749-4.006 10.573-6.016 16.397-6.016s11.648 2.010 16.41 6.016l23.975 20.25 28.774-24.678 11.111 12.966-30.745 26.368c-5.273 4.429-12.954 4.441-18.266-0.013zM106.022 265.165l-25.856-21.824c-3.174-2.688-7.603-2.688-10.624-0.141l-24.205 21.517-11.341-12.762 24.358-21.645c4.761-4.006 10.585-6.029 16.41-6.029s11.648 2.010 16.41 6.029l23.975 20.237 28.774-24.678 11.111 12.966-30.745 26.355c-5.287 4.442-12.966 4.442-18.266-0.025zM466.624 424.448h-254.848c-15.565 0-28.237-12.672-28.237-28.262v-152.589c0-15.577 12.659-28.262 28.237-28.262l118.771 0.089-12.787-21.312h-20.365c-10.342 0-19.251-5.146-24.435-14.131l-28.928-50.074c-3.533-6.183-3.533-13.568 0.025-19.763 3.571-6.195 9.984-9.907 17.139-9.907h1.101l-25.19-42.675c-4.211-7.117-4.262-15.616-0.192-22.695 4.045-7.168 11.392-11.443 19.661-11.443h64.499c13.389 0 24.935 6.618 31.654 18.137l102.579 173.786h11.328c15.591 0 28.262 12.672 28.262 28.262v152.576c-0.013 15.577-12.685 28.262-28.275 28.262zM260.262 232.448l-48.487-0.038c-6.157 0-11.174 5.030-11.174 11.2v152.576c0 6.17 5.018 11.2 11.174 11.2h48.487v-174.938zM477.811 243.597c0-6.169-5.017-11.2-11.187-11.2h-21.069l-107.546-182.208c-3.635-6.259-9.664-9.702-16.921-9.702h-64.499c-2.15 0-3.763 0.921-4.839 2.829-1.049 1.843-1.037 3.699 0.064 5.555l40.397 68.429h-31.002c-1.088 0-1.817 0.423-2.355 1.357s-0.538 1.83-0.013 2.739l28.902 50.048c2.125 3.661 5.466 5.606 9.664 5.606h30.041l33.267 55.463-83.366-0.064v174.938h189.286c6.17 0 11.187-5.031 11.187-11.2v-152.589zM106.022 401.984l-25.856-21.837c-3.174-2.675-7.603-2.688-10.624-0.141l-24.205 21.504-11.328-12.749 24.358-21.645c4.749-4.019 10.573-6.029 16.41-6.029 5.824 0 11.648 2.010 16.409 6.029l23.975 20.25 28.774-24.678 11.111 12.953-30.745 26.368c-5.299 4.429-12.979 4.429-18.279-0.026z" />
<glyph unicode="&#xe615;" d="M382.528 53.248h-75.495v-17.063h75.495c3.059 0 5.543-2.483 5.543-5.555v-23.027c0-3.059-2.483-5.555-5.543-5.555h-266.189c-3.059 0-5.543 2.496-5.543 5.555v23.027c0 3.059 2.483 5.555 5.543 5.555h75.495v17.063h-75.495c-12.467 0-22.617-10.137-22.617-22.618v-23.027c0-12.48 10.138-22.618 22.618-22.618h266.176c12.467 0 22.605 10.137 22.605 22.618v23.027c0.013 12.48-10.125 22.618-22.592 22.618zM460.813 441.843c-5.337 5.337-12.416 8.269-19.917 8.269 0 0-0.013 0-0.026 0v0h-370.074c-0.013 0-0.013 0-0.038 0-7.501 0-14.592-2.931-19.93-8.269-5.35-5.351-8.282-12.454-8.282-19.981v-318.938c0-15.591 12.672-28.262 28.237-28.262h370.099c15.577 0 28.25 12.672 28.25 28.262v318.938c-0.013 7.539-2.969 14.643-8.32 19.981zM452.045 102.925c0-6.17-5.017-11.2-11.175-11.2h-370.087c-6.157 0-11.162 5.017-11.162 11.2v318.938c0 2.969 1.165 5.786 3.277 7.897 2.125 2.125 4.903 3.29 7.872 3.29 0 0 0 0 0.013 0h370.099c0.013 0 0.013 0 0.013 0 2.944 0 5.747-1.165 7.859-3.277 2.125-2.125 3.289-4.928 3.289-7.911v-318.938zM256 411.738c-43.955 0-83.418-19.2-110.771-49.536h-0.167v-0.179c-23.782-26.457-38.4-61.325-38.4-99.623 0-82.342 66.983-149.337 149.338-149.337s149.338 66.995 149.338 149.337-66.995 149.338-149.338 149.338zM145.063 190.618c-13.44 20.697-21.338 45.312-21.338 71.782s7.898 51.085 21.338 71.783v-143.565zM196.262 144.538c-12.672 6.451-24.218 14.797-34.137 24.793v186.137c9.92 9.997 21.465 18.343 34.137 24.793v-235.725zM247.463 130.573c-11.879 0.768-23.309 3.059-34.138 6.759v250.137c10.829 3.712 22.259 6.003 34.137 6.758v-263.654zM298.663 137.331c-10.829-3.712-22.259-6.003-34.137-6.759v263.654c11.878-0.768 23.309-3.059 34.137-6.759v-250.137zM349.863 169.331c-9.92-9.997-21.466-18.342-34.137-24.793v235.725c12.672-6.451 24.217-14.797 34.137-24.793v-186.138zM366.938 334.183c13.44-20.697 21.337-45.325 21.337-71.783s-7.897-51.085-21.337-71.782v143.565z" />
<glyph unicode="&#xe616;" d="M255.706 283.738c-51.737 0-93.837-42.112-93.837-93.863 0-6.375 0.64-12.685 1.869-18.791l1.395-6.822h181.12l1.395 6.822c1.241 6.106 1.869 12.416 1.869 18.791 0.026 51.75-42.074 93.863-93.811 93.863zM332.007 181.325h-69.747l-15.13 45.376-16.192-5.402 13.325-39.987h-64.858c-0.307 2.816-0.461 5.671-0.461 8.55 0 42.343 34.419 76.8 76.762 76.8s76.762-34.458 76.762-76.8c0-2.867-0.154-5.721-0.461-8.538zM363.981 450.163h-216.563c-15.565-0.013-28.224-12.697-28.224-28.262v-293.414c0-15.577 12.672-28.25 28.237-28.25h36.032v-48.538c0-6.17-5.005-11.2-11.161-11.2h-42.995v-17.063h42.995c15.565 0 28.237 12.672 28.237 28.262v48.538h110.925v-48.538c0-15.577 12.672-28.262 28.237-28.262h42.995v17.063h-42.995c-6.157 0-11.161 5.031-11.161 11.2v48.538h35.405c0 0 0.026 0 0.038 0 7.514 0 14.605 2.931 19.942 8.269 5.351 5.337 8.294 12.442 8.294 19.981v293.427c0 15.577-12.685 28.25-28.237 28.25zM375.142 128.499c0-2.983-1.165-5.786-3.289-7.911-2.112-2.112-4.915-3.277-7.885-3.277 0 0 0 0-0.013 0h-216.525c-6.157 0-11.161 5.017-11.161 11.187v293.414c0 6.157 5.018 11.187 11.174 11.2h216.537c6.157 0 11.161-5.031 11.161-11.2v-293.414zM255.975 343.475c11.763 0 21.338 9.561 21.338 21.325s-9.575 21.325-21.338 21.325c-11.75 0-21.312-9.562-21.312-21.325s9.561-21.325 21.312-21.325zM255.975 369.063c2.355 0 4.263-1.907 4.263-4.262s-1.907-4.262-4.262-4.262c-2.343 0-4.237 1.907-4.237 4.262s1.894 4.262 4.237 4.262z" />
<glyph unicode="&#xe617;" d="M180.262 65.229l24.678 28.787-12.953 11.111-26.368-30.745c-4.454-5.299-4.454-12.979 0-18.265l21.85-25.856c2.675-3.187 2.675-7.616 0.141-10.637l-21.517-24.179 12.749-11.341 21.657 24.346c8.038 9.51 8.038 23.322 0 32.832l-20.237 23.949zM248.679 65.229l24.665 28.774-12.954 11.111-26.355-30.733c-4.493-5.325-4.48-13.031 0-18.279l21.824-25.869c2.688-3.175 2.688-7.616 0.141-10.637l-21.517-24.179 12.749-11.341 21.645 24.346c8.051 9.51 8.051 23.322 0 32.832l-20.198 23.974zM111.847 65.229l24.678 28.774-12.954 11.123-26.394-30.759c-4.429-5.312-4.429-12.992 0.038-18.253l21.837-25.843c2.688-3.187 2.688-7.629 0.153-10.649l-21.504-24.179 12.749-11.341 21.645 24.346c8.025 9.51 8.025 23.309 0 32.832l-20.249 23.949zM328.026 394.816h138.496c15.577 0 28.25 12.672 28.25 28.262v11.763c0 15.577-12.672 28.25-28.25 28.25h-160.589c-10.087 0-18.829-3.61-25.933-10.752l-254.72-254.81c-5.415-5.389-8.282-12.301-8.282-19.981v-23.322c0-15.577 12.672-28.25 28.25-28.25h421.274c15.577 0 28.25 12.672 28.25 28.25v139.802c0 15.577-12.672 28.25-28.25 28.25h-61.337v2.995c0 12.467-10.137 22.605-22.605 22.605h-74.227c-12.467 0-22.605-10.137-22.605-22.605v-2.995h-34.867l69.248 69.273c2.24 2.227 4.749 3.264 7.897 3.264zM209.677 305.203h93.12v20.058c0 3.059 2.483 5.543 5.543 5.543h74.227c3.059 0 5.543-2.483 5.543-5.543v-20.058h78.4c6.157 0 11.187-5.017 11.187-11.187v-139.801c0-6.157-5.017-11.187-11.187-11.187h-421.261c-6.157 0-11.175 5.017-11.175 11.187v23.322c0 3.175 1.037 5.671 3.277 7.911l254.72 254.81c3.853 3.865 8.384 5.747 13.863 5.747h160.589c6.157 0 11.175-5.018 11.175-11.187v-11.763c0-6.17-5.017-11.2-11.175-11.2h-138.496c-7.654 0-14.553-2.867-19.968-8.269l-98.381-98.381zM317.082 65.229l24.678 28.774-12.954 11.111-26.355-30.733c-4.48-5.312-4.48-13.017 0-18.279l21.837-25.843c2.675-3.187 2.675-7.629 0.154-10.637l-21.529-24.192 12.749-11.353 21.671 24.358c8.013 9.51 8.013 23.309-0.013 32.832l-20.237 23.962zM385.075 65.229l24.678 28.774-12.954 11.111-26.355-30.733c-4.48-5.312-4.48-13.017 0-18.279l21.837-25.843c2.675-3.187 2.675-7.629 0.154-10.637l-21.529-24.192 12.749-11.353 21.671 24.358c8.013 9.51 8.013 23.309-0.013 32.832l-20.237 23.962z" />
<glyph unicode="&#xe618;" d="M224.038 424.307c4.685 2.701 8.051 6.758 9.229 11.161 0.883 3.303 0.499 6.669-1.101 9.433-3.789 6.618-13.657 8.090-21.927 3.328-6.669-3.853-11.059-12.096-12.608-16.371l-4.032-11.891 12.647 0.474c4.992 0.192 11.853 0.435 17.792 3.865zM462.336 115.789h-18.931v88.499c0 15.577-12.672 28.262-28.237 28.262h-99.738v21.325h2.983c12.467 0 22.605 10.137 22.605 22.605v10.24c0 12.48-10.137 22.617-22.605 22.617h-51.43c1.549 6.72 2.534 13.965 2.969 21.607 1.498 26.803-8.729 50.010-27.367 62.106-16.793 10.906-37.837 11.303-59.661 1.28-20.16 9.587-41.063 9.408-57.933-0.64-19.648-11.699-31.386-34.983-31.386-62.259 0-7.808 0.678-15.194 2.010-22.093h-56.166c-12.467 0-22.617-10.137-22.617-22.618v-10.24c0-12.467 10.137-22.605 22.617-22.605h2.983v-240.563c0-15.577 12.672-28.25 28.249-28.25h216.525c15.565 0 28.237 12.672 28.237 28.25v150.951h59.725v-48.474h-18.304c-10.918 0-19.789-8.87-19.789-19.789v-82.585c0-15.577 12.672-28.25 28.25-28.25h88.576c15.565 0 28.237 12.672 28.237 28.25v82.586c0 10.918-8.883 19.789-19.801 19.789zM133.734 379.021c12.864 7.667 28.877 7.053 45.056-1.728l3.968-2.15 4.006 2.073c17.575 9.049 34.112 9.6 46.553 1.523 13.44-8.717 20.774-26.227 19.609-46.822-0.461-8.218-1.638-15.769-3.52-22.579h-136.345c-1.587 6.695-2.394 14.106-2.394 22.093 0 21.209 8.627 39.002 23.066 47.59zM298.368 181.337v-168.025c0-6.157-5.017-11.187-11.175-11.187h-216.525c-6.157 0-11.175 5.017-11.175 11.187v257.625h-20.045c-3.059 0-5.555 2.483-5.555 5.543v10.24c0 3.059 2.483 5.555 5.555 5.555h278.976c3.046 0 5.543-2.496 5.543-5.555v-10.24c0-3.059-2.483-5.543-5.543-5.543h-20.058v-55.45h116.8c6.157 0 11.175-5.031 11.175-11.2v-88.499h-34.112v65.536h-93.863zM465.063 13.414c0-6.157-5.017-11.187-11.175-11.187h-88.576c-6.157 0-11.187 5.017-11.187 11.187v82.586c0 1.485 1.255 2.726 2.726 2.726h105.472c1.485 0 2.726-1.255 2.726-2.726v-82.586zM108.813 258.125c-8.23 0-14.925-6.695-14.925-14.925s6.681-14.925 14.925-14.925 14.925 6.695 14.925 14.925-6.695 14.925-14.925 14.925z" />
<glyph unicode="&#xe619;" d="M68.263 275.2h17.063v-89.6h-17.063v89.6zM388.915 80.601l24.666 28.774-12.954 11.111-26.368-30.745c-4.48-5.337-4.454-13.031 0.026-18.265l21.824-25.856c2.688-3.187 2.688-7.616 0.154-10.637l-21.517-24.179 12.749-11.341 21.645 24.346c8.038 9.51 8.038 23.322 0 32.832l-20.224 23.962zM115.686 80.601l24.691 28.774-12.954 11.123-26.394-30.771c-4.429-5.299-4.416-12.979 0.025-18.253l21.85-25.843c2.675-3.187 2.675-7.629 0.153-10.637l-21.529-24.192 12.749-11.353 21.671 24.358c8.013 9.51 8.013 23.309 0 32.832l-20.263 23.962zM119.463 275.2h17.063v-89.6h-17.063v89.6zM320.909 80.601l24.666 28.774-12.954 11.111-26.368-30.745c-4.48-5.337-4.454-13.031 0.026-18.265l21.824-25.856c2.688-3.187 2.688-7.616 0.154-10.637l-21.517-24.179 12.749-11.341 21.645 24.346c8.038 9.51 8.038 23.322 0 32.832l-20.224 23.962zM184.102 80.589l24.679 28.787-12.953 11.111-26.329-30.707c-4.506-5.312-4.518-13.005-0.025-18.304l21.837-25.856c2.688-3.175 2.688-7.616 0.141-10.637l-21.504-24.179 12.749-11.341 21.645 24.346c8.051 9.51 8.051 23.322 0 32.832l-20.237 23.949zM252.518 80.601l24.665 28.774-12.954 11.111-26.381-30.759c-4.454-5.337-4.429-13.031 0.025-18.253l21.824-25.856c2.688-3.187 2.688-7.629 0.154-10.649l-21.504-24.179 12.749-11.341 21.658 24.346c8.026 9.51 8.026 23.322-0.013 32.819l-20.224 23.987zM426.663 275.2h17.075v-89.6h-17.075v89.6zM466.675 322.137h-112.512v33.472l-25.6 25.6v81.805h-145.024v-81.817l-25.6-25.6v-33.472h-112.537c-15.565 0-28.237-12.672-28.237-28.262v-126.925c0-15.577 12.659-28.25 28.237-28.25h421.274c15.591 0 28.262 12.672 28.262 28.25v126.925c0 15.59-12.672 28.275-28.262 28.275zM175.001 348.544l25.6 25.6v71.808h110.887v-71.808l25.6-25.6v-26.406h-162.087v26.406zM477.863 166.95c0-6.157-5.017-11.187-11.187-11.187h-421.274c-6.157 0-11.175 5.017-11.175 11.187v126.925c0 6.169 5.017 11.2 11.175 11.2h421.274c6.17 0 11.187-5.031 11.187-11.2v-126.925zM375.462 275.2h17.075v-89.6h-17.075v89.6zM170.662 275.2h17.063v-89.6h-17.063v89.6zM221.863 275.2h17.063v-89.6h-17.063v89.6zM273.063 275.2h17.075v-89.6h-17.075v89.6zM324.262 275.2h17.075v-89.6h-17.075v89.6z" />
<glyph unicode="&#xe61a;" d="M184.102 80.589l24.679 28.787-12.953 11.111-26.343-30.707c-4.506-5.312-4.506-13.005-0.025-18.304l21.85-25.856c2.688-3.175 2.688-7.616 0.141-10.637l-21.517-24.179 12.749-11.341 21.645 24.346c8.051 9.51 8.051 23.322 0 32.832l-20.224 23.949zM115.686 80.601l24.691 28.774-12.954 11.123-26.394-30.771c-4.429-5.299-4.416-12.979 0.038-18.253l21.837-25.843c2.688-3.187 2.688-7.629 0.153-10.637l-21.529-24.192 12.749-11.353 21.67 24.358c8.013 9.51 8.013 23.309-0.013 32.832l-20.249 23.962zM252.518 80.601l24.665 28.774-12.954 11.111-26.381-30.759c-4.467-5.337-4.441-13.031 0.038-18.253l21.811-25.856c2.688-3.187 2.688-7.629 0.154-10.649l-21.517-24.179 12.749-11.341 21.657 24.346c8.026 9.51 8.026 23.322-0.013 32.819l-20.211 23.987zM388.915 80.601l24.666 28.774-12.954 11.111-26.368-30.745c-4.48-5.337-4.454-13.031 0.026-18.265l21.824-25.856c2.688-3.187 2.688-7.616 0.154-10.637l-21.517-24.179 12.749-11.341 21.645 24.346c8.038 9.51 8.038 23.322 0 32.832l-20.224 23.962zM471.257 225.523l-149.875 149.939c-3.853 3.853-5.721 8.384-5.721 13.863v73.69h-132.25v-73.677c0-5.466-1.869-10.010-5.747-13.875l-149.875-149.939c-7.13-7.13-10.752-15.859-10.752-25.945v-32.627c0-15.577 12.672-28.25 28.262-28.25h408.474c15.565 0 28.237 12.672 28.237 28.25v32.627c0 10.112-3.623 18.841-10.752 25.946zM464.935 166.95c0-6.157-5.005-11.187-11.161-11.187h-408.474c-6.169 0-11.187 5.017-11.187 11.187v32.627c0 5.466 1.869 10.010 5.747 13.875l149.875 149.939c7.027 7.027 10.752 16 10.752 25.946v56.614h98.099v-56.614c0-9.971 3.725-18.944 10.752-25.946l149.875-149.952c3.853-3.853 5.721-8.384 5.721-13.863v-32.627zM320.909 80.601l24.666 28.774-12.954 11.111-26.368-30.745c-4.48-5.337-4.454-13.031 0.026-18.265l21.824-25.856c2.688-3.187 2.688-7.616 0.154-10.637l-21.517-24.179 12.749-11.341 21.645 24.346c8.038 9.51 8.038 23.322 0 32.832l-20.224 23.962z" />
<glyph unicode="&#xe61b;" d="M366.938 211.2v51.2h-17.063v-51.2h17.063zM275.75 307.942c4.058 5.504 6.131 11.827 6.131 18.791 0 8.397-2.663 15.437-7.897 20.928-5.043 5.261-12.877 8.409-20.941 8.409-1.869 0-4.109-0.217-6.489-0.601l2.317 13.401h32.743v17.063h-39.923l-8.41-7.079-5.927-34.214 12.903-8.717c2.125 1.318 8.819 3.072 12.787 3.072 3.353 0 6.822-1.267 8.601-3.136 2.163-2.266 3.161-5.159 3.161-9.127 0-3.277-0.909-6.118-2.791-8.653-2.419-3.29-5.517-4.762-9.997-4.762-3.712 0-6.515 0.845-8.55 2.586-2.023 1.715-3.149 3.968-3.571 7.091l-16.909-2.266c0.973-7.334 4.147-13.338 9.408-17.817 5.184-4.429 11.789-6.669 19.623-6.669 9.882 0.013 18.099 4.045 23.731 11.699zM256.064 433.075c67.034 0 161.523-107.917 170.035-222.541l17.011 1.267c-8.589 115.827-104.743 238.336-187.046 238.336-82.317 0-178.47-122.509-187.059-238.336l17.011-1.267c8.512 114.637 103.014 222.541 170.048 222.541zM215.411 61.863h81.293c5.504 0 10.406 3.059 12.787 7.911 2.457 4.928 1.894 10.688-1.433 15.040l-40.64 53.184c-5.414 7.117-17.203 7.155-22.681 0.026l-40.679-53.235c-3.315-4.352-3.865-10.099-1.434-14.989 2.406-4.889 7.309-7.936 12.787-7.936zM256.051 124.762l35.021-45.824h-70.041l35.021 45.824zM68.237 194.099l0.307-8.832c4.007-112.115 79.36-187.443 187.52-187.443 108.147 0 183.501 75.328 187.507 187.443l0.307 8.832h-375.642zM256.064 14.887c-95.45 0-162.791 64.781-169.984 162.151h339.955c-7.193-97.37-74.534-162.15-169.971-162.15zM162.137 211.2v51.2h-17.063v-51.2h17.063zM247.463 211.2h17.062v51.2h-17.063v-51.2z" />
<glyph unicode="&#xe61c;" d="M241.088 217.6c0-8.231 6.681-14.925 14.912-14.925s14.912 6.695 14.912 14.925-6.681 14.925-14.912 14.925-14.912-6.695-14.912-14.925zM354.137 398.938h-196.25l-0.371-119.629h196.621v119.629zM337.063 296.371h-64.025l-48.781 60.966-13.325-10.662 40.243-50.304h-76.531l0.269 85.504h162.15v-85.504zM339.213 232.537c-8.231 0-14.925-6.695-14.925-14.937s6.695-14.938 14.925-14.938c8.243 0 14.938 6.695 14.938 14.938s-6.695 14.938-14.938 14.938zM376.704 450.317h-242.099c-15.591 0-28.263-12.672-28.263-28.262v-395.815c0-15.577 12.672-28.25 28.263-28.25h242.099c15.591 0 28.262 12.672 28.262 28.25v395.827c0 15.577-12.685 28.25-28.262 28.25zM387.891 26.24c0-6.157-5.017-11.187-11.187-11.187h-242.099c-6.169 0-11.187 5.017-11.187 11.187v395.827c0 6.169 5.017 11.2 11.187 11.2h242.099c6.17 0 11.187-5.031 11.187-11.2v-395.827zM256.013 142.938c-25.881 0-46.951-21.056-46.951-46.938s21.069-46.938 46.951-46.938c25.869 0 46.925 21.056 46.925 46.938s-21.056 46.938-46.925 46.938zM256.013 66.137c-16.474 0-29.875 13.401-29.875 29.863s13.401 29.863 29.875 29.863c16.461 0 29.849-13.401 29.849-29.863s-13.389-29.863-29.849-29.863zM172.787 232.525c-8.231 0-14.925-6.695-14.925-14.925s6.695-14.925 14.925-14.925 14.925 6.695 14.925 14.925-6.695 14.925-14.925 14.925z" />
<glyph unicode="&#xe61d;" d="M415.987 155.738c-8.231 0-14.925-6.695-14.925-14.925s6.682-14.925 14.925-14.925 14.925 6.695 14.925 14.925-6.695 14.925-14.925 14.925zM273.625 214.771l-18.202-18.202c-2.073-2.087-5.76-2.087-7.846 0l-18.189 18.202c-6.4 6.4-17.613 6.4-24 0l-18.202-18.189c-2.087-2.087-5.76-2.099-7.846 0l-18.189 18.202c-6.4 6.4-17.6 6.413-24.025 0l-19.699-19.725 12.070-12.058 19.571 19.725 18.202-18.202c8.537-8.538 23.45-8.538 31.987 0l18.061 18.202 18.202-18.202c4.262-4.262 9.946-6.618 16-6.618s11.737 2.355 16 6.618l18.061 18.202 20.365-20.352 12.058 12.058-20.352 20.352c-6.425 6.387-17.639 6.387-24.026-0.013zM273.625 279.001l-18.202-18.202c-2.073-2.087-5.76-2.087-7.846 0l-18.189 18.202c-6.4 6.4-17.613 6.4-24 0l-18.202-18.189c-2.087-2.087-5.76-2.099-7.846 0l-18.189 18.202c-6.4 6.4-17.6 6.413-24.025 0l-19.699-19.712 12.070-12.071 19.571 19.725 18.202-18.202c8.537-8.537 23.45-8.537 31.987 0l18.061 18.202 18.202-18.202c4.262-4.262 9.946-6.618 16-6.618s11.737 2.355 16 6.618l18.061 18.202 20.365-20.352 12.058 12.058-20.352 20.352c-6.425 6.4-17.639 6.387-24.026-0.013zM81.063 125.863h273.063v209.075h-273.063v-209.075zM98.138 317.863h238.938v-174.938h-238.938v174.938zM415.987 215.462c-8.231 0-14.925-6.695-14.925-14.938s6.695-14.925 14.925-14.925 14.925 6.695 14.925 14.938-6.695 14.925-14.925 14.925zM415.987 334.938c-8.231 0-14.925-6.695-14.925-14.925s6.682-14.925 14.925-14.925 14.925 6.695 14.925 14.925-6.695 14.925-14.925 14.925zM453.606 386.355h-395.687c-15.565 0-28.25-12.672-28.25-28.25v-255.014c0-15.577 12.672-28.262 28.25-28.262h395.687c15.577 0 28.25 12.672 28.25 28.262v255.027c0 15.565-12.672 28.237-28.25 28.237zM464.781 103.104c0-6.17-5.017-11.2-11.175-11.2h-395.687c-6.157 0-11.175 5.031-11.175 11.2v255.014c0 6.157 5.017 11.187 11.175 11.187h395.687c6.157 0 11.175-5.017 11.175-11.187v-255.014zM415.987 275.2c-8.231 0-14.925-6.695-14.925-14.925s6.682-14.925 14.925-14.925 14.925 6.695 14.925 14.925-6.695 14.925-14.925 14.925z" />
<glyph unicode="&#xe61e;" d="M428.070 450.24l-357.299-0.013c-15.578 0-28.249-12.672-28.249-28.25v-203.801c0-15.577 12.672-28.25 28.249-28.25h109.401c10.073 0 18.791 3.61 25.933 10.752l47.488 47.488c3.891 3.891 8.435 5.773 13.875 5.773h57.869v-43.072c-3.353-3.251-10.227-9.28-15.142-13.594-6.387-5.594-12.416-10.88-16-14.425-24.269-24.154-57.511-57.216-57.511-96.269 0-59.725 50.355-86.925 97.126-86.925s97.113 27.341 97.113 87.385c0 38.745-33.229 71.731-57.51 95.808-3.43 3.379-9.357 8.601-15.642 14.131-4.992 4.39-11.981 10.56-15.36 13.863v43.111h85.645c15.577 0 28.237 12.672 28.237 28.25v139.789c0.013 15.577-12.647 28.25-28.224 28.25zM253.76 86.605c0 31.949 29.094 60.903 52.595 84.262 3.072 3.046 9.19 8.397 15.091 13.581 1.433 1.255 2.624 2.304 3.904 3.43v-168.678c0-0.755 0.256-1.447 0.435-2.137-37.043 2.726-72.025 24.538-72.025 69.543zM346.509 184.205c5.824-5.12 11.84-10.432 14.912-13.453 23.36-23.181 52.454-52.032 52.454-83.686 0-44.915-35.853-67.059-71.872-69.965 0.179 0.691 0.423 1.344 0.423 2.099v168.614c1.331-1.178 2.573-2.279 4.083-3.61zM439.245 282.202c0-6.157-5.017-11.187-11.175-11.187h-160.601c-10.061 0-18.778-3.61-25.946-10.765l-47.488-47.488c-3.879-3.865-8.41-5.76-13.863-5.76h-109.401c-6.157 0-11.175 5.017-11.175 11.187v203.801c0 6.157 5.018 11.187 11.175 11.187l357.299 0.013c6.157 0 11.175-5.031 11.175-11.2v-139.789zM377.613 398.925c-8.243 0-14.925-6.695-14.925-14.925s6.682-14.925 14.925-14.925c8.231 0 14.912 6.695 14.912 14.925s-6.682 14.925-14.912 14.925zM375.462 384c0 1.178 0.96 2.137 2.151 2.137 1.178 0 2.137-0.96 2.137-2.137 0-2.368-4.288-2.368-4.288 0zM93.862 317.952h221.606v81.075h-221.607v-81.075zM110.938 381.965h34.137v-4.365c0-4.711 3.815-8.538 8.537-8.538s8.525 3.827 8.525 8.538v4.365h34.137v-4.365c0-4.711 3.815-8.538 8.537-8.538s8.525 3.827 8.525 8.538v4.365h34.137v-4.365c0-4.711 3.815-8.538 8.538-8.538s8.525 3.827 8.525 8.538v4.365h33.882v-46.951h-187.482v46.951z" />
<glyph unicode="&#xe61f;" d="M364.813 241.063c8.231 0 14.925 6.695 14.925 14.925s-6.681 14.925-14.925 14.925-14.925-6.695-14.925-14.925 6.695-14.925 14.925-14.925zM119.463 36.262h273.063v170.675h-273.063v-170.675zM136.537 189.863h34.138v-68.262h17.063v68.262h34.137v-106.662h17.063v106.663h34.137v-81.063h17.063v81.063h34.137v-93.863h17.063v93.863h34.137v-136.538h-238.938v136.538zM415.399 322.137h-22.95v64c-0.064 5.261-2.061 10.010-5.798 13.747l-57.382 57.408c-3.699 3.699-8.397 5.696-13.606 5.798h-167.975c-15.565 0-28.237-12.672-28.237-28.25v-112.717h-22.951c-15.578 0-28.237-12.672-28.237-28.25v-280.474c0-15.577 12.659-28.262 28.237-28.262h318.899c15.577 0 28.25 12.672 28.25 28.262v280.486c0 15.577-12.685 28.25-28.25 28.25zM315.738 446.003c0.576-0.077 0.998-0.294 1.459-0.781l57.382-57.408c0.499-0.499 0.729-0.921 0.793-1.536h-59.635v59.725zM136.512 434.855c0 6.157 5.018 11.187 11.174 11.187h150.925v-68.275l0.064-8.538 76.71-0.153v-46.938h-238.874v112.717zM426.573 13.414c0-6.17-5.017-11.2-11.187-11.2h-318.887c-6.157 0-11.174 5.031-11.174 11.2v280.474c0 6.157 5.017 11.187 11.174 11.187h318.899c6.17 0 11.187-5.017 11.187-11.187l-0.013-280.474z" />
<glyph unicode="&#xe620;" d="M157.773 371.853c2.688-3.187 2.688-7.616 0.141-10.637l-21.517-24.179 12.749-11.341 21.645 24.345c8.038 9.511 8.051 23.309 0 32.832l-20.237 23.974 24.679 28.775-12.953 11.111-26.368-30.746c-4.467-5.325-4.454-13.017 0.013-18.265l21.85-25.869zM226.176 371.853c2.688-3.187 2.688-7.629 0.154-10.637l-21.529-24.179 12.749-11.354 21.671 24.359c8.025 9.51 8.025 23.321 0 32.832l-20.25 23.962 24.679 28.774-12.953 11.111-26.368-30.745c-4.454-5.312-4.454-12.992 0.013-18.266l21.837-25.856zM363.008 371.853c2.688-3.187 2.688-7.629 0.154-10.65l-21.517-24.179 12.749-11.341 21.658 24.346c8.013 9.51 8.013 23.309 0 32.832l-20.25 23.962 24.678 28.774-12.954 11.111-26.368-30.745c-4.467-5.325-4.454-13.017 0.013-18.265l21.837-25.843zM294.605 371.853c2.675-3.187 2.675-7.616 0.141-10.637l-21.517-24.179 12.749-11.341 21.658 24.345c8.038 9.511 8.038 23.322 0 32.832l-20.237 23.974 24.666 28.775-12.954 11.111-26.355-30.733c-4.493-5.325-4.48-13.031 0.013-18.279l21.837-25.869zM431.002 371.853c2.688-3.187 2.688-7.629 0.154-10.65l-21.517-24.179 12.762-11.341 21.657 24.346c8.013 9.51 8.013 23.309 0 32.832l-20.25 23.962 24.678 28.774-12.954 11.111-26.368-30.745c-4.467-5.325-4.454-13.017 0.013-18.265l21.824-25.843zM413.863 70.4h17.063v192h-17.063v-192zM311.462 70.4h17.063v192h-17.063v-192zM362.663 70.4h17.063v192h-17.063v-192zM453.619 309.389h-318.733c-15.565 0-28.237-12.672-28.237-28.25v-10.15h-41.37c-12.467 0-22.605-10.138-22.605-22.618v-11.571c0-12.48 10.138-22.618 22.605-22.618h2.995v-20.007h-2.995c-12.467 0-22.605-10.137-22.605-22.605v-10.24c0-12.48 10.138-22.618 22.605-22.618h2.995v-21.337h-2.995c-12.467 0-22.605-10.137-22.605-22.618v-10.24c0-12.467 10.138-22.605 22.605-22.605h41.37v-54.208c0-12.48 10.138-22.618 22.618-22.618h23.053c12.467 0 22.605 10.137 22.605 22.618v15.795h238.938v-15.795c0-12.48 10.137-22.618 22.605-22.618h22.759c12.48 0 22.63 10.137 22.63 22.618v273.447c0 15.577-12.659 28.237-28.237 28.237zM106.65 78.963h-41.37c-3.059 0-5.543 2.483-5.543 5.543v10.24c0 3.059 2.483 5.555 5.543 5.555h20.058v55.462h-20.058c-3.059 0-5.543 2.496-5.543 5.555v10.24c0 3.059 2.483 5.543 5.543 5.543h20.058v54.131h-20.058c-3.059 0-5.543 2.496-5.543 5.555v11.571c0 3.059 2.483 5.555 5.543 5.555h41.37v-174.95zM464.793 7.705c0-3.059-2.496-5.555-5.568-5.555h-22.745c-3.059 0-5.543 2.496-5.543 5.555v32.858h-273.075v-32.858c0-3.059-2.483-5.555-5.542-5.555h-23.053c-3.059 0-5.555 2.496-5.555 5.555v273.447c0 6.157 5.005 11.187 11.161 11.187h318.733c6.157 0 11.175-5.017 11.175-11.187v-273.447zM260.262 70.4h17.063v192h-17.063v-192zM157.863 70.4h17.063v192h-17.063v-192zM209.063 70.4h17.063v192h-17.063v-192z" />
<glyph unicode="&#xe621;" d="M307.738 369.075c-2.368 4.083-7.591 5.491-11.661 3.123l-31.539-18.214v36.416c0 4.711-3.815 8.538-8.538 8.538s-8.537-3.815-8.537-8.538v-36.416l-31.539 18.202c-4.096 2.368-9.305 0.96-11.661-3.123s-0.96-9.305 3.123-11.661l31.552-18.202-31.539-18.202c-4.083-2.355-5.478-7.577-3.123-11.661 1.587-2.739 4.454-4.262 7.399-4.262 1.446 0 2.918 0.371 4.262 1.139l31.539 18.202v-36.416c0-4.711 3.815-8.538 8.538-8.538s8.538 3.815 8.538 8.538v36.416l31.539-18.202c1.344-0.781 2.816-1.139 4.262-1.139 2.944 0 5.824 1.536 7.399 4.262 2.355 4.083 0.96 9.305-3.123 11.661l-31.565 18.202 31.539 18.214c4.096 2.355 5.491 7.577 3.136 11.661zM179.2 125.863c4.71 0 8.537 3.815 8.537 8.538v25.6c0 4.711-3.815 8.538-8.537 8.538s-8.537-3.827-8.537-8.538v-25.6c0-4.711 3.827-8.538 8.537-8.538zM363.981 450.368h-216.525c-15.578 0-28.249-12.672-28.249-28.262v-395.827c0-15.577 12.672-28.25 28.249-28.25l216.525-0.013c15.565 0 28.25 12.672 28.25 28.262v395.84c-0.013 15.577-12.685 28.25-28.25 28.25zM375.155 26.291c0-6.17-5.017-11.2-11.175-11.2l-216.525 0.013c-6.157 0-11.187 5.017-11.187 11.187v189.376h238.887v-189.376zM375.155 232.73h-238.887v189.389c0 6.169 5.018 11.2 11.187 11.2h216.525c6.157 0 11.175-5.031 11.175-11.2v-189.389z" />
<glyph unicode="&#xe622;" d="M428.070 271.065h-74.137v59.699h10.137c15.577 0 28.25 12.672 28.25 28.25v11.776c0 15.578-12.672 28.25-28.25 28.25h-99.725v8.576h2.983c12.467 0 22.605 10.137 22.605 22.618v10.24c0 12.48-10.137 22.618-22.605 22.618h-99.815c-12.467 0-22.618-10.138-22.618-22.618v-10.24c0-12.48 10.137-22.618 22.618-22.618h2.97v-8.589h-99.699c-15.578 0-28.249-12.672-28.249-28.25v-11.776c0-15.577 12.672-28.25 28.249-28.25h10.138v-202.189c0-15.577 12.672-28.25 28.249-28.25h48.538v-21.351h-35.737c-15.578 0-28.249-12.672-28.249-28.25v-43.008c0-12.48 10.138-22.618 22.618-22.618h23.027c12.467 0 22.618 10.137 22.618 22.618v15.795h21.325v-15.795c0-12.48 10.137-22.618 22.618-22.618h23.027c12.467 0 22.618 10.137 22.618 22.618v15.795h21.312v-15.795c0-12.48 10.151-22.618 22.618-22.618h23.027c12.467 0 22.618 10.137 22.618 22.618v43.008c0 15.577-12.672 28.25-28.25 28.25h-35.738v21.351h48.538c15.577 0 28.25 12.672 28.25 28.25v74.214h34.112v-25.6h68.262v65.638c0 15.578-12.672 28.249-28.25 28.249zM439.245 194.253h-34.125v25.6h-68.25v-91.277c0-6.157-5.017-11.187-11.187-11.187h-65.587v-55.475h52.8c6.157 0 11.175-5.017 11.175-11.187v-43.008c0-3.059-2.483-5.555-5.543-5.555h-23.027c-3.059 0-5.555 2.496-5.555 5.555v32.858h-55.45v-32.858c0-3.059-2.496-5.555-5.555-5.555h-23.027c-3.059 0-5.542 2.496-5.542 5.555v32.858h-55.463v-32.858c0-3.059-2.496-5.555-5.555-5.555h-23.014c-3.059 0-5.555 2.496-5.555 5.555v43.008c0 6.157 5.017 11.187 11.187 11.187h52.8v55.475h-65.587c-6.157 0-11.187 5.017-11.187 11.187v219.251h-27.213c-6.157 0-11.187 5.018-11.187 11.187v11.776c0 6.157 5.017 11.187 11.187 11.187h116.8l-0.013 42.714h-20.032c-3.059 0-5.555 2.496-5.555 5.555v10.24c0 3.059 2.496 5.555 5.555 5.555h99.815c3.046 0 5.543-2.496 5.543-5.555v-10.24c0-3.059-2.483-5.555-5.543-5.555h-20.058l0.013-42.714h116.787c6.157 0 11.187-5.017 11.187-11.187v-11.776c0-6.157-5.017-11.187-11.187-11.187h-27.2v-93.824h91.2c6.157 0 11.175-5.030 11.175-11.2v-48.55z" />
<glyph unicode="&#xe623;" d="M446.502 437.491h-23.053c-12.467 0-22.618-10.137-22.618-22.617v-3.149h-264.448v3.149c0 12.48-10.15 22.617-22.643 22.617h-23.014c-12.467 0-22.618-10.137-22.618-22.617v-12.647c0-10.073 3.623-18.803 10.752-25.958l34.688-34.688c7.117-7.143 15.833-10.765 25.946-10.765h18.189v-52.467c-32.576-30.605-51.174-73.472-51.174-118.221s18.599-87.629 51.174-118.233v-15.68c0-15.577 12.672-28.25 28.262-28.25h165.325c15.591 0 28.262 12.672 28.262 28.25v15.68c32.576 30.618 51.175 73.485 51.175 118.233s-18.599 87.629-51.175 118.221v52.467h18.189c10.112 0 18.841 3.623 25.933 10.752l34.701 34.701c7.13 7.142 10.752 15.872 10.752 25.945v12.659c0 12.48-10.151 22.618-22.605 22.618zM413.632 160.128c0-41.19-17.613-80.601-48.32-108.135l-2.854-2.547v-23.232c0-6.157-5.017-11.187-11.187-11.187h-165.325c-6.169 0-11.187 5.017-11.187 11.187v23.232l-2.855 2.547c-30.707 27.52-48.32 66.931-48.32 108.135s17.613 80.601 48.32 108.121l2.855 2.547v60.032h187.699v-60.032l2.854-2.547c30.707-27.52 48.32-66.931 48.32-108.121zM452.032 402.227c0-5.465-1.869-10.022-5.747-13.888l-34.714-34.714c-3.84-3.865-8.371-5.735-13.849-5.735h-258.227c-5.478 0-10.010 1.869-13.862 5.747l-34.701 34.688c-3.865 3.878-5.747 8.435-5.747 13.901v12.647c0 3.059 2.471 5.555 5.543 5.555h23.027c3.059 0 5.568-2.496 5.568-5.555v-20.211h298.599v20.211c0 3.059 2.471 5.555 5.543 5.555h23.053c3.059 0 5.543-2.496 5.543-5.555v-12.647zM268.8 232.537c-4.711 0-8.538-3.815-8.538-8.537v-64c0-4.711 3.827-8.538 8.538-8.538s8.538 3.815 8.538 8.538v64c0 4.71-3.827 8.537-8.538 8.537zM268.621 281.907c-67.136 0-121.767-54.631-121.767-121.779s54.63-121.779 121.767-121.779c67.123 0 121.741 54.63 121.741 121.779s-54.618 121.779-121.741 121.779zM268.621 55.411c-57.728 0-104.691 46.976-104.691 104.717s46.963 104.717 104.691 104.717c57.715 0 104.666-46.976 104.666-104.717s-46.95-104.717-104.666-104.717z" />
<glyph unicode="&#xe624;" d="M440.755 450.291h-382.899c-15.565 0-28.237-12.672-28.237-28.25v-395.84c0-15.577 12.672-28.25 28.237-28.25h382.899c15.565 0 28.237 12.672 28.237 28.25v395.853c0 15.565-12.685 28.237-28.237 28.237zM451.917 26.214c0-6.157-5.005-11.187-11.161-11.187h-382.899c-6.157 0-11.162 5.017-11.162 11.187v395.84c0 6.157 5.005 11.187 11.162 11.187h382.899c6.157 0 11.161-5.018 11.161-11.187v-395.84zM272.768 259.008l56.179-56.205h89.203v196.135h-145.382v-139.929zM289.843 381.863h111.219v-161.997h-65.049l-46.169 46.195v115.801zM225.843 259.008v139.929h-144.781v-196.121h88.602l56.179 56.192zM98.138 219.865v161.997h110.63v-115.801l-46.169-46.195h-64.461zM248.576 191.936c-53.465 0-96.96-43.495-96.96-96.973 0-19.738 5.901-38.72 17.037-54.899l2.535-3.699h59.328l19.392 56.32 19.367-56.32h56.704l2.547 3.699c11.123 16.205 16.998 35.187 16.998 54.899-0.013 53.466-43.495 96.973-96.947 96.973zM316.839 53.427h-35.405l-31.539 91.738-31.565-91.738h-38.029c-7.629 12.493-11.623 26.752-11.623 41.536 0 44.058 35.84 79.911 79.885 79.911 44.032 0 79.859-35.853 79.859-79.911 0.013-14.771-3.981-29.031-11.584-41.536z" />
<glyph unicode="&#xe625;" d="M472.205 373.337h-2.983v10.304c0 15.577-12.672 28.25-28.237 28.25h-22.938v2.983c0 12.48-10.151 22.617-22.618 22.617h-35.827c-12.467 0-22.618-10.137-22.618-22.617v-2.995h-187.699v2.995c0 12.48-10.15 22.617-22.618 22.617h-35.815c-12.467 0-22.618-10.137-22.618-22.617v-2.995h-22.938c-15.59 0-28.262-12.672-28.262-28.25v-101.389c0-15.577 12.672-28.25 28.262-28.25h48.563v-81.19h17.075v81.216h48.537c15.59 0 28.262 12.672 28.262 28.25v22.95h98.048v-162.163h-240.487c-15.59 0-28.262-12.672-28.262-28.25v-62.976c0-15.577 12.672-28.262 28.262-28.262h395.673c15.565 0 28.237 12.672 28.237 28.262v176.423h2.983c12.467 0 22.618 10.137 22.618 22.618v99.853c0 12.467-10.151 22.618-22.605 22.618zM477.735 250.867c0-3.059-2.471-5.555-5.543-5.555h-20.058v-193.485c0-6.17-5.005-11.2-11.161-11.2h-395.673c-6.169 0-11.187 5.031-11.187 11.2v62.976c0 6.157 5.017 11.187 11.187 11.187h257.562v196.275h-132.198v-40.013c0-6.157-5.018-11.187-11.187-11.187h-114.176c-6.169 0-11.187 5.017-11.187 11.187v101.389c0 6.157 5.017 11.187 11.187 11.187h40.013v20.045c0 3.059 2.471 5.555 5.543 5.555h35.827c3.059 0 5.543-2.496 5.543-5.555v-20.058h221.85v20.058c0 3.059 2.471 5.555 5.543 5.555h35.827c3.059 0 5.543-2.496 5.543-5.555v-20.058h40.013c6.157 0 11.161-5.017 11.161-11.187v-27.367h20.058c3.059 0 5.543-2.496 5.543-5.555v-99.84zM377.613 309.337c-8.231 0-14.925-6.694-14.925-14.925s6.695-14.925 14.925-14.925 14.925 6.695 14.925 14.925-6.695 14.925-14.925 14.925zM377.613 219.725c-8.231 0-14.925-6.695-14.925-14.925s6.695-14.925 14.925-14.925 14.925 6.695 14.925 14.925-6.695 14.925-14.925 14.925z" />
<glyph unicode="&#xe626;" d="M121.613 373.337c-8.231 0-14.925-6.694-14.925-14.925s6.681-14.925 14.925-14.925 14.925 6.695 14.925 14.925-6.695 14.925-14.925 14.925zM371.2 245.338h-230.4v-17.063h230.4v17.063zM188.8 373.337c-8.231 0-14.925-6.694-14.925-14.925s6.695-14.925 14.925-14.925 14.925 6.695 14.925 14.925-6.695 14.925-14.925 14.925zM256 373.337c-8.231 0-14.925-6.694-14.925-14.925s6.681-14.925 14.925-14.925 14.925 6.695 14.925 14.925-6.695 14.925-14.925 14.925zM390.387 373.337c-8.231 0-14.925-6.694-14.925-14.925s6.682-14.925 14.925-14.925 14.925 6.695 14.925 14.925-6.695 14.925-14.925 14.925zM435.277 416.499c-5.337 5.337-12.403 8.269-19.917 8.269-0.013 0-0.013 0-0.026 0h-23.014v5.798c0 10.918-8.883 19.801-19.789 19.801h-79.846c-10.918 0-19.801-8.883-19.801-19.801v-5.811h-34.061v5.811c0 10.918-8.87 19.801-19.789 19.801h-79.846c-10.918 0-19.789-8.883-19.789-19.801v-5.811h-22.963c-15.565 0-28.237-12.672-28.237-28.25v-370.227c0-15.577 12.672-28.25 28.237-28.25h318.912c15.565 0 28.237 12.672 28.237 28.25v370.24c-0.013 7.539-2.957 14.643-8.307 19.981zM426.509 26.291c0-6.157-5.017-11.187-11.175-11.187h-318.899c-6.157 0-11.174 5.017-11.174 11.187v266.189h341.248v-266.189zM426.509 309.543h-341.248v86.976c0 6.157 5.017 11.187 11.174 11.187h40.013v22.861c0 1.51 1.229 2.739 2.726 2.739h79.846c1.485 0 2.726-1.255 2.726-2.739v-22.874h68.199v22.873c0 1.511 1.229 2.739 2.726 2.739h79.846c1.51 0 2.726-1.229 2.726-2.739v-22.873h40.077c0 0 0.013 0 0.013 0 2.957 0 5.76-1.165 7.872-3.277 2.125-2.125 3.289-4.928 3.289-7.911v-86.963zM323.2 373.337c-8.231 0-14.925-6.694-14.925-14.925s6.695-14.925 14.925-14.925 14.925 6.695 14.925 14.925-6.707 14.925-14.925 14.925z" />
<glyph unicode="&#xe627;" d="M329.715 359.539c2.688-3.187 2.688-7.629 0.154-10.649l-21.517-24.192 12.749-11.341 21.658 24.346c8.026 9.498 8.026 23.309 0 32.819l-20.25 23.974 24.678 28.774-12.954 11.111-26.368-30.733c-4.467-5.312-4.454-13.005 0.013-18.278l21.837-25.831zM261.299 359.526c2.688-3.175 2.688-7.616 0.141-10.637l-21.517-24.192 12.749-11.341 21.645 24.346c8.051 9.51 8.051 23.322 0 32.832l-20.25 23.962 24.678 28.774-12.954 11.111-26.355-30.733c-4.48-5.325-4.467-13.017 0.013-18.278l21.849-25.843zM472.333 258.202h-41.395v10.163c0 15.577-12.672 28.25-28.237 28.25h-357.286c-15.578 0-28.237-12.672-28.237-28.25v-196.634c0-12.467 10.137-22.605 22.605-22.605h10.24c12.467 0 22.618 10.137 22.618 22.605v15.783h302.835v-15.783c0-12.467 10.137-22.605 22.618-22.605h10.227c12.467 0 22.605 10.137 22.605 22.605v131.008h41.395c12.467 0 22.618 10.137 22.618 22.618v10.24c0 12.467-10.137 22.605-22.605 22.605zM413.863 71.731c0-3.059-2.483-5.543-5.543-5.543h-10.227c-3.059 0-5.555 2.483-5.555 5.543v32.845h-336.96v-32.845c0-3.059-2.483-5.543-5.543-5.543h-10.24c-3.059 0-5.542 2.483-5.542 5.543v196.647c0 6.157 5.017 11.187 11.175 11.187h357.261c6.157 0 11.175-5.017 11.175-11.187v-196.647zM477.875 225.357c0-3.059-2.483-5.555-5.555-5.555h-41.395v21.338h41.395c3.059 0 5.555-2.483 5.555-5.542v-10.24zM192.896 359.526c2.688-3.187 2.688-7.616 0.141-10.637l-21.517-24.192 12.749-11.341 21.657 24.346c8.025 9.51 8.025 23.309 0 32.819l-20.25 23.962 24.678 28.774-12.953 11.111-26.368-30.733c-4.454-5.299-4.454-12.979 0-18.279l21.863-25.831zM124.48 359.526c2.688-3.187 2.688-7.629 0.141-10.637l-21.517-24.192 12.749-11.341 21.657 24.346c8.038 9.51 8.038 23.309 0 32.819l-20.237 23.987 24.678 28.775-12.953 11.111-26.381-30.745c-4.442-5.312-4.429-12.992 0.025-18.266l21.837-25.856z" />
<glyph unicode="&#xe628;" d="M115.225 168.538c-47.040 0-85.312-38.272-85.312-85.325s38.259-85.338 85.312-85.338 85.312 38.285 85.312 85.337c0 47.040-38.272 85.325-85.312 85.325zM115.225 14.938c-37.619 0-68.249 30.63-68.249 68.275 0 37.632 30.618 68.262 68.249 68.262s68.249-30.618 68.249-68.262c-0.013-37.645-30.631-68.275-68.249-68.275zM431.104 232.537h-25.69v105.344c0 60.851-50.906 112.256-111.142 112.256-60.736 0-110.439-49.753-110.797-111.002l0.025-4.198h-26.061c-14.016 0-25.408-11.405-25.408-25.421v-13.312h-22.567c-15.578 0-28.249-12.672-28.249-28.25v-72.487h17.063v72.486c0 6.157 5.017 11.187 11.187 11.187h31.079c4.723 0 8.537 3.815 8.537 8.538v21.837c0 4.608 3.738 8.358 9.152 8.358h68.493c4.608 0 8.345-3.75 8.345-8.358v-21.837c0-4.711 3.815-8.538 8.537-8.538h31.078c6.17 0 11.187-5.017 11.187-11.187v-242.022c0-6.157-5.017-11.187-11.187-11.187h-73.959v-17.063h73.959c15.577 0 28.25 12.672 28.25 28.25v242.035c0 15.577-12.672 28.25-28.25 28.25h-22.553v13.312c0 14.016-11.405 25.421-26.214 25.421h-25.357l-0.025 4.199c0.307 51.801 42.368 93.939 93.734 93.939 50.983 0 94.080-43.584 94.080-95.194v-105.344h-25.92c-14.029 0-25.433-11.405-25.433-25.433v-17.408c0-14.016 11.405-25.421 25.433-25.421h68.672c14.029 0 25.433 11.405 25.433 25.421v17.408c0 14.003-11.418 25.421-25.433 25.421zM439.462 189.683c0-4.608-3.75-8.358-8.371-8.358h-68.672c-4.621 0-8.371 3.75-8.371 8.358v17.408c0 4.608 3.75 8.371 8.371 8.371h68.672c4.621 0 8.371-3.75 8.371-8.371v-17.408z" />
<glyph unicode="&#xe629;" d="M196.71 246.605l18.099 18.099-12.058 12.058-18.099-18.099 12.058-12.058zM196.71 176.435l18.099 18.099-12.058 12.070-18.099-18.099 12.058-12.070zM202.739 349.069l-18.099-18.099 12.058-12.071 18.099 18.099-12.058 12.070zM290.112 211.801l18.099 18.099-12.058 12.071-18.099-18.099 12.058-12.070zM230.349 381.913h63.987v17.063h-63.987v-17.063zM296.141 312.141l-18.099-18.099 12.058-12.058 18.099 18.099-12.058 12.058zM134.029 246.605l18.099 18.099-12.058 12.058-18.099-18.099 12.057-12.058zM68.249 52.109c0-15.577 12.672-28.25 28.237-28.25h10.15v-15.795c0-12.467 10.138-22.605 22.617-22.605h10.227c12.467 0 22.618 10.137 22.618 22.605v15.795h200.487v-15.846c0-12.48 10.137-22.618 22.618-22.618h10.24c12.467 0 22.618 10.137 22.618 22.618v15.846h10.137c15.577 0 28.25 12.672 28.25 28.25v90.816h-388.199v-90.816zM85.325 125.863h354.048v-73.753c0-6.157-5.017-11.187-11.187-11.187h-27.213v-32.909c0-3.059-2.483-5.555-5.543-5.555h-10.24c-3.059 0-5.543 2.496-5.543 5.555v32.909h-234.624v-32.858c0-3.059-2.483-5.543-5.542-5.543h-10.227c-3.059 0-5.555 2.483-5.555 5.543v32.858h-27.213c-6.157 0-11.174 5.017-11.174 11.187v73.754zM140.071 349.069l-18.099-18.099 12.057-12.071 18.099 18.099-12.058 12.070zM134.029 176.435l18.099 18.099-12.058 12.070-18.099-18.099 12.057-12.070zM164.762 211.801l18.099 18.099-12.058 12.071-18.099-18.099 12.058-12.070zM170.791 312.141l-18.099-18.099 12.058-12.058 18.099 18.099-12.058 12.058zM227.43 211.801l18.099 18.099-12.058 12.071-18.099-18.099 12.058-12.070zM390.771 349.069l-18.099-18.099 12.058-12.071 18.099 18.099-12.058 12.070zM384.729 246.605l18.099 18.099-12.058 12.058-18.099-18.099 12.058-12.058zM358.822 312.141l-18.099-18.099 12.058-12.058 18.099 18.099-12.058 12.058zM384.729 176.435l18.099 18.099-12.058 12.070-18.099-18.099 12.058-12.070zM352.781 211.801l18.099 18.099-12.058 12.071-18.099-18.099 12.058-12.070zM428.185 398.976h-86.938v35.763c0 15.578-12.672 28.263-28.25 28.263h-101.338c-15.578 0-28.237-12.672-28.237-28.263v-35.763h-86.925c0 0-0.013 0-0.025 0-7.513 0-14.592-2.931-19.917-8.269-5.35-5.337-8.307-12.429-8.307-19.981v-210.726h17.063v210.726c0 2.983 1.165 5.798 3.29 7.923 2.112 2.112 4.903 3.277 7.872 3.277 0 0 0 0 0.013 0h104v52.813c0 6.169 5.018 11.2 11.174 11.2h101.338c6.157 0 11.187-5.031 11.187-11.2v-52.813h104c6.157 0 11.187-5.031 11.187-11.2v-210.726h17.063v210.726c0 15.577-12.672 28.25-28.25 28.25zM328.089 349.069l-18.099-18.099 12.058-12.071 18.099 18.099-12.058 12.070zM227.43 281.984l18.099 18.099-12.058 12.058-18.099-18.099 12.058-12.058zM265.421 349.069l-18.099-18.099 12.058-12.071 18.099 18.099-12.058 12.070zM259.379 176.435l18.099 18.099-12.058 12.070-18.099-18.099 12.058-12.070zM322.061 176.435l18.099 18.099-12.058 12.070-18.099-18.099 12.058-12.070zM322.061 246.605l18.099 18.099-12.058 12.058-18.099-18.099 12.058-12.058zM265.421 276.774l-18.099-18.099 12.058-12.058 18.099 18.099-12.058 12.058z" />
<glyph unicode="&#xe62a;" d="M121.613 424.538c-8.231 0-14.925-6.695-14.925-14.925s6.681-14.925 14.925-14.925 14.925 6.695 14.925 14.925-6.695 14.925-14.925 14.925zM252.57 49.037c75.264 0 136.499 61.261 136.499 136.55s-61.235 136.538-136.499 136.538c-75.277 0-136.512-61.248-136.512-136.538 0-75.303 61.235-136.55 136.512-136.55zM252.57 305.063c65.856 0 119.437-53.606 119.437-119.475 0-65.882-53.581-119.488-119.437-119.488-65.869 0-119.45 53.606-119.45 119.488s53.581 119.475 119.45 119.475zM326.413 424.538c-8.231 0-14.925-6.695-14.925-14.925s6.681-14.925 14.925-14.925 14.925 6.695 14.925 14.925-6.695 14.925-14.925 14.925zM415.053 462.759h-318.912c-15.578 0-28.237-12.659-28.237-28.237v-408.64c0-15.577 12.659-28.25 28.237-28.25h318.912c15.565 0 28.25 12.672 28.25 28.25v408.64c-0.013 15.577-12.672 28.237-28.25 28.237zM426.227 25.882c0-6.157-5.017-11.187-11.175-11.187h-318.912c-6.157 0-11.174 5.017-11.174 11.187v330.214h341.261v-330.214zM426.227 373.159h-341.261v61.363c0 6.157 5.017 11.175 11.174 11.175h318.912c6.157 0 11.187-5.018 11.187-11.175v-61.363zM262.413 424.538c-8.231 0-14.925-6.695-14.925-14.925s6.681-14.925 14.925-14.925 14.925 6.695 14.925 14.925-6.695 14.925-14.925 14.925zM390.387 424.538c-8.231 0-14.925-6.695-14.925-14.925s6.682-14.925 14.925-14.925 14.925 6.695 14.925 14.925-6.695 14.925-14.925 14.925z" />
<glyph unicode="&#xe62b;" d="M101.005 100.39h54.131c10.931 0 19.815 8.87 19.815 19.789v130.957c0 10.918-8.883 19.789-19.815 19.789h-54.131c-10.918 0-19.789-8.87-19.789-19.789v-130.944c0-10.918 8.871-19.801 19.789-19.801zM98.291 251.136c0 1.485 1.242 2.726 2.713 2.726h54.131c1.485 0 2.739-1.255 2.739-2.726v-31.398h-59.584v31.399zM98.291 202.675h59.571v-82.496c0-1.485-1.255-2.726-2.739-2.726h-54.118c-1.472 0-2.713 1.255-2.713 2.726v82.496zM466.777 450.137h-421.453c-15.59 0-28.262-12.672-28.262-28.25v-344.499c0-15.577 12.672-28.25 28.262-28.25h10.138v-15.757c0-12.48 10.15-22.618 22.617-22.618h23.040c12.467 0 22.618 10.137 22.618 22.618v15.757h251.725v-15.757c0-12.48 10.151-22.618 22.618-22.618h23.13c12.467 0 22.618 10.137 22.618 22.618v15.757h22.963c15.565 0 28.237 12.672 28.237 28.25v344.499c-0.013 15.577-12.685 28.25-28.25 28.25zM477.939 77.389c0-6.157-5.005-11.187-11.161-11.187h-40.038v-32.819c0-3.059-2.471-5.555-5.543-5.555h-23.117c-3.059 0-5.543 2.496-5.543 5.555v32.819h-285.875v-32.819c0-3.059-2.471-5.555-5.543-5.555h-23.040c-3.059 0-5.543 2.496-5.543 5.555v32.819h-27.213c-6.169 0-11.187 5.017-11.187 11.187v240.474h443.801v-240.474zM477.939 334.938h-443.801v86.951c0 6.157 5.017 11.187 11.187 11.187h421.453c6.157 0 11.161-5.017 11.161-11.187v-86.951zM356.851 100.39h54.131c10.931 0 19.815 8.87 19.815 19.789v130.957c0 10.918-8.883 19.789-19.815 19.789h-54.131c-10.918 0-19.789-8.87-19.789-19.789v-130.944c0-10.918 8.87-19.801 19.789-19.801zM354.137 251.136c0 1.485 1.241 2.726 2.714 2.726h54.131c1.485 0 2.739-1.255 2.739-2.726v-31.398h-59.571v31.399zM354.137 202.675h59.571v-82.496c0-1.485-1.255-2.726-2.739-2.726h-54.131c-1.472 0-2.714 1.255-2.714 2.726v82.496zM256.013 398.925c-8.231 0-14.925-6.695-14.925-14.925s6.695-14.925 14.925-14.925 14.925 6.695 14.925 14.925-6.695 14.925-14.925 14.925zM228.851 100.39h54.131c10.931 0 19.815 8.87 19.815 19.789v130.957c0 10.918-8.883 19.789-19.815 19.789h-54.131c-10.918 0-19.789-8.87-19.789-19.789v-130.944c0-10.918 8.87-19.801 19.789-19.801zM226.137 251.136c0 1.485 1.242 2.726 2.714 2.726h54.131c1.485 0 2.739-1.255 2.739-2.726v-31.398h-59.571v31.399zM226.137 202.675h59.571v-82.496c0-1.485-1.255-2.726-2.739-2.726h-54.131c-1.472 0-2.714 1.255-2.714 2.726v82.496z" />
<glyph unicode="&#xe62c;" d="M185.6 104.538c-8.231 0-14.938-6.695-14.938-14.938s6.695-14.938 14.938-14.938c8.231 0 14.938 6.695 14.938 14.938s-6.707 14.938-14.938 14.938zM183.463 89.6c0 1.178 0.96 2.137 2.137 2.137s2.137-0.96 2.137-2.137c0-2.355-4.275-2.355-4.275 0zM262.4 104.538c-8.231 0-14.938-6.695-14.938-14.938s6.695-14.938 14.938-14.938c8.231 0 14.938 6.695 14.938 14.938s-6.707 14.938-14.938 14.938zM260.262 89.6c0 1.178 0.96 2.137 2.137 2.137s2.137-0.96 2.137-2.137c0-2.355-4.275-2.355-4.275 0zM262.4 364.007c-55.949 0-101.478-45.517-101.478-101.478 0-55.949 45.517-101.466 101.478-101.466 55.949 0 101.466 45.517 101.466 101.466 0 55.962-45.517 101.478-101.466 101.478zM262.4 178.137c-46.541 0-84.403 37.863-84.403 84.403s37.863 84.403 84.403 84.403c46.541 0 84.403-37.863 84.403-84.403s-37.863-84.403-84.403-84.403zM339.2 104.538c-8.231 0-14.938-6.695-14.938-14.938s6.695-14.938 14.938-14.938c8.231 0 14.938 6.695 14.938 14.938s-6.707 14.938-14.938 14.938zM337.063 89.6c0 1.178 0.96 2.137 2.137 2.137s2.137-0.96 2.137-2.137c0-2.355-4.275-2.355-4.275 0zM300.8 296.538c-8.231 0-14.938-6.695-14.938-14.938s6.695-14.938 14.938-14.938c8.231 0 14.938 6.694 14.938 14.938s-6.707 14.938-14.938 14.938zM298.663 281.6c0 1.178 0.96 2.137 2.137 2.137s2.137-0.96 2.137-2.137c0-2.355-4.275-2.355-4.275 0zM390.208 462.938c-15.181 0-27.546-12.352-27.546-27.546v-10.854h-209.063c-25.882 0-46.938-21.056-46.938-46.938v-332.8c0-25.882 21.056-46.938 46.938-46.938h217.6c25.882 0 46.938 21.056 46.938 46.938v390.592c0 15.181-12.365 27.546-27.93 27.546zM401.063 44.8c0-16.461-13.401-29.863-29.863-29.863h-217.6c-16.461 0-29.862 13.401-29.862 29.863v332.8c0 16.461 13.402 29.863 29.862 29.863h226.137v27.93c0 5.773 4.697 10.47 10.854 10.47 5.773 0 10.471-4.697 10.471-10.47v-390.592zM262.464 224.947c-7.437 0-14.003 4.058-16.717 10.355l-15.68-6.745c5.415-12.557 18.125-20.672 32.384-20.672s26.969 8.115 32.384 20.672l-15.68 6.745c-2.688-6.285-9.255-10.355-16.691-10.355zM238.938 281.6c0 8.231-6.695 14.938-14.938 14.938-8.231 0-14.938-6.695-14.938-14.938s6.695-14.938 14.938-14.938c8.231 0 14.938 6.707 14.938 14.938zM221.863 281.6c0 1.178 0.96 2.137 2.137 2.137s2.137-0.96 2.137-2.137c0-2.355-4.275-2.355-4.275 0z" />
<glyph unicode="&#xe62d;" d="M352 257.063c31.181 0 56.538 25.357 56.538 56.538s-25.357 56.537-56.538 56.537c-7.104 0-14.157-1.382-20.966-4.109l6.336-15.846c4.787 1.907 9.702 2.88 14.63 2.88 21.76 0 39.462-17.703 39.462-39.463s-17.702-39.463-39.462-39.463c-21.76 0-39.462 17.703-39.462 39.463 0 4.915 0.973 9.843 2.88 14.643l-15.846 6.323c-2.714-6.822-4.096-13.863-4.096-20.966-0.013-31.168 25.344-56.537 56.525-56.537zM352 204.262c60.288 0 109.337 49.049 109.337 109.338s-49.050 109.337-109.337 109.337c-60.288 0-109.338-49.049-109.338-109.337s49.049-109.338 109.338-109.338zM352 405.863c50.88 0 92.262-41.395 92.262-92.262s-41.395-92.263-92.262-92.263c-50.88 0-92.262 41.395-92.262 92.262s41.382 92.262 92.262 92.262zM157.863 83.2h17.063v25.6h-17.063v-25.6zM81.063 83.2h17.063v25.6h-17.063v-25.6zM453.696 91.738h-13.517l-53.543 94.451-14.848-8.423 58.445-103.104h23.462c12.941 0 23.462-10.522 23.462-23.462s-10.522-23.462-23.462-23.462h-204.096c-12.941 0-23.463 10.534-23.463 23.462 0 12.941 10.522 23.462 23.463 23.462h23.424l59.161 103.053-14.797 8.499-54.246-94.49h-13.542c-8.768 0-16.832-2.867-23.463-7.603v210.279c0 14.567-11.315 26.406-25.6 27.52v55.68h-17.063v-55.463h-126.067c-15.181 0-27.546-12.352-27.546-27.546v-256.384c0-15.181 12.352-27.546 27.546-27.546h141.184c9.305 0 17.523 4.672 22.502 11.763 7.334-7.257 17.395-11.763 28.506-11.763h204.096c22.349 0 40.538 18.189 40.538 40.538s-18.189 40.538-40.538 40.538zM209.063 38.208c0-5.773-4.697-10.471-10.47-10.471h-141.184c-5.773 0-10.471 4.697-10.471 10.471v256.384c0 5.773 4.697 10.47 10.471 10.47h140.992c5.888 0 10.662-4.787 10.662-10.662v-256.192zM81.063 164.262h93.863v106.662h-93.862v-106.662zM98.138 253.863h59.737v-72.537h-59.737v72.537z" />
<glyph unicode="&#xe62e;" d="M256.397 441.6c-120.179 0-217.6-97.421-217.6-217.6s97.421-217.6 217.6-217.6c120.179 0 217.6 97.421 217.6 217.6s-97.421 217.6-217.6 217.6zM256.397 424.538c109.734 0 199.117-88.615 200.474-198.029-45.581-21.85-119.962-34.829-200.781-34.829-80.589 0-154.547 12.851-200.167 34.522 1.191 109.555 90.637 198.336 200.473 198.336zM256.397 23.462c-104.909 0-191.207 80.999-199.782 183.731 48.205-20.531 121.011-32.589 199.463-32.589 78.682 0 151.898 12.173 200.102 32.87-8.423-102.873-94.771-184.013-199.783-184.013z" />
<glyph unicode="&#xe62f;" d="M352 450.137c-70.874 0-128.537-57.664-128.537-128.537s57.664-128.538 128.537-128.538c70.874 0 128.538 57.664 128.538 128.538s-57.664 128.537-128.538 128.537zM420.902 234.15c-18.983-14.989-42.893-24.013-68.902-24.013-61.466 0-111.463 50.010-111.463 111.463 0 25.869 8.934 49.638 23.77 68.569h11.763v-14.861c0-11.763 9.562-21.337 21.337-21.337h14.887v-14.874c0-11.763 9.562-21.337 21.337-21.337h14.861v-14.874c0-11.763 9.562-21.337 21.337-21.337h14.861v-14.861c0-11.763 9.562-21.338 21.337-21.338h14.873v-11.2zM437.965 250.726v11.712h-31.936c-2.355 0-4.262 1.907-4.262 4.262v31.923h-31.936c-2.355 0-4.262 1.907-4.262 4.262v31.936h-31.936c-2.355 0-4.262 1.907-4.262 4.262v31.962h-31.949c-2.355 0-4.262 1.907-4.262 4.263v31.936h-12.377c19.328 16.103 44.16 25.83 71.232 25.83 61.466 0 111.462-50.010 111.462-111.462-0.013-26.905-9.587-51.61-25.51-70.887zM242.279 222.349l-82.253-82.253c-12.352 9.753-27.904 15.629-44.839 15.629-39.987 0-72.537-32.538-72.537-72.538s32.563-72.525 72.55-72.525c39.987 0 72.537 32.538 72.537 72.538 0 16.921-5.875 32.486-15.629 44.839l82.253 82.253-12.083 12.058zM115.2 27.738c-30.579 0-55.462 24.883-55.462 55.462s24.883 55.462 55.462 55.462 55.462-24.883 55.462-55.462-24.883-55.462-55.463-55.462z" />
<glyph unicode="&#xe630;" d="M371.2 450.137h-64.704c-18.432 0-33.433-15.002-33.433-33.894 0-12.697 7.334-24.231 19.136-30.131 32.729-16.358 50.176-51.789 43.418-88.141-5.952-31.975-31.36-57.625-63.232-63.834-5.44-1.063-10.957-1.6-16.384-1.6v0c-21.657 0-42.010 8.435-57.319 23.744s-23.744 35.673-23.744 57.331c0 30.822 17.139 58.573 44.71 72.435 11.891 5.978 19.29 17.575 19.29 30.669 0 18.432-15.001 33.434-33.434 33.434h-64.704c-54.118 0-98.138-44.019-98.138-98.137v-268.8c0-54.118 44.019-98.137 98.138-98.137h230.4c54.118 0 98.137 44.019 98.137 98.137v268.787c0 54.118-44.019 98.137-98.137 98.137zM452.262 83.2c0-44.697-36.365-81.063-81.063-81.063h-230.4c-44.697 0-81.063 36.365-81.063 81.063v268.8c0 44.697 36.365 81.063 81.063 81.063h64.704c9.024 0 16.358-7.347 16.358-16.781 0-6.195-3.789-11.942-9.881-15.002-33.382-16.781-54.119-50.381-54.119-87.68 0-26.215 10.214-50.855 28.736-69.389 18.535-18.535 43.174-28.736 69.389-28.736h0.013c6.515 0 13.12 0.64 19.635 1.907 38.695 7.526 69.543 38.656 76.762 77.466 8.166 43.917-12.954 86.733-52.557 106.534-5.978 2.983-9.69 8.679-9.69 15.334 0 9.024 7.347 16.359 16.358 16.359h64.691c44.697 0 81.063-36.365 81.063-81.063v-268.813zM308.109 130.471c7.079 16.346 3.738 25.063-0.819 29.619-2.24 2.24-6.31 4.902-12.979 4.902-4.8 0-10.368-1.37-16.64-4.096-6.553 16.615-15.155 20.429-21.671 20.429s-15.117-3.815-21.671-20.429c-6.272 2.726-11.84 4.096-16.64 4.096-6.669 0-10.739-2.663-12.979-4.902-4.557-4.557-7.898-13.274-0.819-29.619-16.614-6.553-20.429-15.155-20.429-21.671s3.815-15.117 20.429-21.671c-7.078-16.346-3.738-25.063 0.819-29.619 2.24-2.24 6.31-4.902 12.979-4.902 4.8 0 10.381 1.37 16.64 4.096 6.553-16.615 15.155-20.429 21.671-20.429s15.117 3.815 21.671 20.429c6.272-2.726 11.84-4.096 16.64-4.096 6.669 0 10.739 2.663 12.979 4.902 4.557 4.557 7.897 13.274 0.819 29.619 16.615 6.553 20.429 15.155 20.429 21.671s-3.827 15.117-20.429 21.671zM293.786 100.403l-10.739-2.867 5.543-9.625c6.707-11.661 6.861-17.51 6.938-18.099 0 0-0.346-0.141-1.216-0.141-1.83 0-7.168 0.64-17.421 6.528l-9.625 5.543-2.867-10.739c-3.213-12.019-6.925-16.55-8.397-17.536-1.472 0.998-5.184 5.529-8.397 17.536l-2.867 10.739-9.625-5.543c-10.24-5.888-15.59-6.528-17.421-6.528-0.358 0-0.64 0-0.781 0.013-0.281 1.805 0.384 7.603 6.489 18.227l5.542 9.625-10.739 2.867c-13.069 3.495-17.28 7.577-17.715 8.064 0.448 1.152 4.659 5.235 17.715 8.729l10.739 2.867-5.542 9.625c-6.707 11.661-6.861 17.51-6.938 18.099 0 0 0.345 0.141 1.216 0.141 1.831 0 7.168-0.64 17.421-6.528l9.625-5.543 2.867 10.739c3.494 13.069 7.577 17.28 8.064 17.728 1.152-0.448 5.235-4.659 8.729-17.728l2.867-10.739 9.625 5.543c10.24 5.888 15.591 6.528 17.421 6.528 0.358 0 0.653-0.013 0.781-0.013 0.281-1.805-0.384-7.603-6.49-18.227l-5.543-9.625 10.739-2.867c13.069-3.495 17.28-7.577 17.715-8.064-0.435-1.152-4.647-5.235-17.715-8.729z" />
<glyph unicode="&#xe631;" d="M474.624 128.051c-5.069 29.414-29.159 53.491-58.573 58.573-20.147 3.481-40.397-1.792-56.192-13.517l-9.498 9.728 13.389 90.227h23.923c17.498 0 31.731 14.233 31.731 31.731v12.006h-17.063v-12.006c0-8.090-6.579-14.669-14.669-14.669h-66.394v-17.063h25.229l-11.111-74.88-145.19 148.8c5.965 16.691 21.913 28.48 40.231 28.48h31.962v17.075h-31.962c-29.811 0-55.309-22.285-59.29-51.827l-12.083-89.255c-1.817 0.089-3.623 0.281-5.465 0.281-57.638 0-104.537-46.887-104.537-104.538 0-57.639 46.886-104.538 104.537-104.538 57.638 0 104.537 46.887 104.537 104.538 0 49.959-35.238 91.776-82.15 102.055l10.445 77.159 161.062-165.069c-1.382-1.651-2.816-3.251-4.058-5.056-13.837-20.083-16.563-45.274-7.475-69.107 6.784-17.792 21.453-32.461 39.245-39.245 9.203-3.507 18.624-5.286 28.007-5.286 21.44 0 41.677 9.421 55.501 25.83 13.811 16.435 19.61 38.131 15.911 59.571zM241.063 147.2c0-48.231-39.232-87.463-87.463-87.463s-87.463 39.232-87.463 87.462 39.232 87.463 87.463 87.463c1.063 0 2.112-0.128 3.161-0.167l-12.416-91.763 16.909-2.291 12.429 91.789c38.566-9.088 67.379-43.725 67.379-85.031zM445.645 79.501c-15.283-18.137-40.793-24.589-64.371-15.591-13.312 5.069-24.294 16.064-29.376 29.376-7.065 18.509-5.031 37.939 5.581 53.337 0.601 0.87 1.305 1.651 1.945 2.496l40.858-41.869 12.211 11.917-40.73 41.741c9.127 6.272 20.045 9.767 31.411 9.767 3.289 0 6.643-0.295 9.959-0.858 22.425-3.865 40.781-22.233 44.647-44.647 2.906-16.73-1.408-32.947-12.135-45.671z" />
<glyph unicode="&#xe632;" d="M208.986 357.197l-21.504 73.728-16.384-4.775 21.504-73.728 16.384 4.774zM277.427 441.331h-17.075v-76.8h17.063v76.8zM104.051 395.75l-14.387-9.178 41.28-64.755 14.387 9.178-41.28 64.755zM366.682 426.137l-16.384 4.787-21.504-73.728 16.384-4.787 21.504 73.728zM268.403 223.117c32.512 0 58.957 26.445 58.957 58.957s-26.445 58.969-58.957 58.969-58.957-26.457-58.957-58.969c0-32.499 26.458-58.957 58.957-58.957zM268.403 323.981c23.104 0 41.894-18.791 41.894-41.894s-18.791-41.894-41.894-41.894-41.894 18.791-41.894 41.894c0.013 23.104 18.803 41.894 41.894 41.894zM215.539 163.725l-12.071 12.070-35.623-35.623c-2.739-2.726-7.194-2.726-9.869-0.051-2.88 2.918-2.97 7.36-0.218 10.112l52.263 52.262c5.671 5.671 12.083 8.973 19.584 10.087l-2.496 16.883c-11.097-1.651-20.903-6.656-29.145-14.899l-52.262-52.262c-9.485-9.485-9.421-24.486 0.179-34.214 4.685-4.685 10.841-7.014 17.011-7.014 6.157 0 12.327 2.342 17.011 7.027l35.635 35.623zM338.854 214.567c-8.089 8.077-17.69 13.056-28.531 14.797l-2.714-16.845c7.347-1.178 13.619-4.454 19.187-10.022l52.25-52.275c1.318-1.318 2.035-3.072 2.035-4.941 0-1.882-0.717-3.635-2.035-4.954-1.395-1.408-3.251-2.189-5.197-2.189-1.83 0-3.558 0.717-4.864 2.010l-35.43 35.443-12.070-12.070 35.43-35.443c4.531-4.519 10.534-7.014 16.921-7.014 0 0 0.013 0 0.013 0 6.502 0 12.647 2.56 17.255 7.181 4.544 4.544 7.027 10.586 7.027 17.024s-2.496 12.48-7.027 17.011l-52.25 52.288zM433.728 395.75l-41.28-64.755 14.387-9.178 41.28 64.755-14.387 9.178zM319.834 133.773l-45.274-45.274 22.247-22.247-21.005-21.581c-3.187-3.175-5.197-7.053-5.965-11.251-0.743 4.595-2.88 8.896-6.425 12.442l-21.095 21.671 20.967 20.966-45.274 45.274-39.373-39.36c-12.723-12.723-12.826-33.523-0.231-46.349l42.778-43.635c4.595-4.595 10.406-6.861 16.537-6.861 7.59 0 15.655 3.481 22.464 10.279 5.414 5.427 8.653 11.673 9.625 17.83 0.128-0.755 0.295-1.51 0.486-2.253 2.931-10.944 13.337-21.107 24.755-24.166 8.231-2.202 16.089-0.32 21.632 5.223l42.739 43.571c12.595 12.825 12.493 33.625-0.231 46.361l-39.36 39.36zM248.128 19.917c-2.701-2.701-5.939-4.557-8.896-5.094-3.213-0.589-4.889 0.589-5.913 1.613l-42.726 43.571c-6.080 6.183-6.016 16.205 0.102 22.336l27.303 27.303 21.145-21.133-20.8-20.813 32.909-33.805c1.587-1.587 2.112-3.315 1.702-5.619-0.487-2.739-2.24-5.773-4.826-8.358zM347.238 59.993l-42.675-43.507c-0.461-0.461-1.639-1.677-5.094-0.755-5.414 1.447-11.341 7.104-12.685 12.096-0.678 2.56 0.103 3.801 1.152 4.851l32.819 33.728-22.080 22.093 21.146 21.133 27.289-27.289c6.144-6.144 6.195-16.154 0.128-22.349zM228.262 138.663h80.678v17.063h-80.678v-17.063z" />
<glyph unicode="&#xe633;" d="M448 232.537h-73.011c2.944 5.043 4.749 10.816 4.749 17.063v166.4c0 18.816-15.309 34.137-34.137 34.137h-166.4c-18.829 0-34.138-15.309-34.138-34.137v-166.4c0-6.246 1.805-12.019 4.749-17.063h-85.811c-18.829 0-34.138-15.309-34.138-34.138v-166.4c0-18.816 15.309-34.137 34.138-34.137h166.4c10.24 0 19.341 4.634 25.6 11.789 6.259-7.168 15.36-11.789 25.6-11.789h166.4c18.829 0 34.137 15.309 34.137 34.137v166.4c0 18.816-15.309 34.137-34.137 34.137zM247.463 32c0-9.408-7.655-17.063-17.063-17.063h-166.4c-9.408 0-17.063 7.654-17.063 17.063v166.4c0 9.408 7.654 17.063 17.063 17.063h166.4c9.408 0 17.063-7.654 17.063-17.063v-166.4zM179.2 232.537c-9.408 0-17.063 7.655-17.063 17.063v166.4c0 9.408 7.655 17.063 17.063 17.063h166.4c9.408 0 17.063-7.654 17.063-17.063v-166.4c0-9.408-7.654-17.063-17.063-17.063h-166.4zM465.063 32c0-9.408-7.654-17.063-17.063-17.063h-166.4c-9.408 0-17.063 7.654-17.063 17.063v166.4c0 9.408 7.654 17.063 17.063 17.063h166.4c9.408 0 17.063-7.654 17.063-17.063v-166.4z" />
<glyph unicode="&#xe634;" d="M437.325 431.783l-94.259 5.888-2.483-5.184c-15.552-32.423-48.755-53.389-84.582-53.389s-69.031 20.954-84.582 53.389l-2.483 5.184-94.259-5.888c-17.945-1.127-32-16.090-32-34.061v-71.322c0-18.816 15.309-34.137 34.138-34.137h29.862v-158.758c0-18.329 14.912-33.241 33.242-33.241h0.883c30.579 0 55.463-24.883 55.463-55.462v-0.896c0-18.329 14.912-33.242 33.242-33.242h52.992c18.329 0 33.242 14.912 33.242 33.241v0.896c0 30.579 24.883 55.462 55.462 55.462h0.896c18.329 0 33.242 14.912 33.242 33.242v158.759h29.863c18.816 0 34.137 15.309 34.137 34.137v71.322c0 17.984-14.067 32.947-32.013 34.061zM452.262 326.4c0-9.408-7.654-17.063-17.063-17.063h-46.938v-175.833c0-8.921-7.257-16.166-16.166-16.166h-0.896c-40 0-72.537-32.538-72.537-72.537v-0.896c0-8.921-7.257-16.166-16.166-16.166h-52.992c-8.922 0-16.167 7.257-16.167 16.166v0.896c0 40-32.537 72.538-72.537 72.538h-0.896c-8.922 0-16.166 7.257-16.166 16.166v175.834h-46.938c-9.408 0-17.063 7.654-17.063 17.063v71.321c0 8.998 7.027 16.474 16 17.037l82.944 5.184c19.328-35.353 56.909-57.894 97.319-57.894s77.99 22.541 97.319 57.894l82.944-5.184c8.973-0.563 16-8.038 16-17.037v-71.322z" />
<glyph unicode="&#xe635;" d="M390.592 296.538h-24.397c-5.555 45.542-35.085 83.174-76.058 96.806v21.286c0 17.331-12.237 32.397-28.467 35.034-21.286 3.443-39.808-12.979-39.808-33.664v-22.541c-42.841-13.824-73.037-52.199-76.48-96.921h-23.975c-15.181 0-27.546-12.352-27.546-27.929 0-15.181 12.352-27.546 27.546-27.546h269.184c15.181 0 27.546 12.352 27.546 27.929 0 15.181-12.365 27.546-27.546 27.546zM390.592 258.137h-269.184c-5.773 0-10.471 4.697-10.471 10.854 0 5.773 4.698 10.471 10.471 10.471h40.73v8.538c0 42.752 28.953 80.089 70.4 90.777l6.4 1.651v35.571c0 10.368 9.344 18.522 19.994 16.832 8.064-1.318 14.131-9.139 14.131-18.201v-34.215l6.349-1.689c39.565-10.471 67.878-47.143 70.464-91.239l0.461-8.038h40.243c5.773 0 10.471-4.697 10.471-10.855 0.013-5.76-4.685-10.457-10.457-10.457zM362.663 32c0-9.408-7.654-17.063-17.063-17.063h-179.2c-9.408 0-17.063 7.654-17.063 17.063v192h-17.063v-192c0-18.816 15.309-34.137 34.137-34.137h179.2c18.816 0 34.137 15.309 34.137 34.137v192h-17.063v-192zM179.2 125.863h64v17.063h-64v-17.063zM243.2 194.137h-64v-17.063h64v17.063zM179.2 74.663h64v17.063h-64v-17.063z" />
<glyph unicode="&#xe636;" d="M224.845 221.197c0 13.312-10.931 24.141-24.345 24.141-13.427 0-24.358-10.829-24.358-24.141s10.931-24.141 24.358-24.141c13.427 0 24.346 10.829 24.346 24.141zM193.203 221.197c0 3.904 3.277 7.065 7.296 7.065s7.283-3.174 7.283-7.065-3.264-7.065-7.283-7.065-7.296 3.161-7.296 7.065zM256 117.337c-17.664 0-33.331 10.624-39.936 27.085l-15.833-6.361c9.216-22.963 31.104-37.786 55.769-37.786s46.553 14.835 55.769 37.786l-15.834 6.361c-6.605-16.461-22.272-27.085-39.936-27.085zM375.974 302.016c-13.504-3.635-27.699-5.478-42.189-5.478-48.563 0-117.952 19.917-134.631 45.581l-8.167 12.57-6.631-13.44c-9.638-19.507-35.929-37.619-54.464-42.291l4.185-16.55c18.829 4.762 44.377 20.839 59.021 40.653 29.594-28.173 98.611-43.584 140.697-43.584 15.987 0 31.667 2.035 46.618 6.080l-4.442 16.461zM312.154 245.338c-13.427 0-24.346-10.829-24.346-24.141s10.918-24.141 24.346-24.141c13.427 0 24.358 10.829 24.358 24.141s-10.931 24.141-24.358 24.141zM312.154 214.131c-4.019 0-7.283 3.175-7.283 7.065s3.264 7.065 7.283 7.065 7.296-3.174 7.296-7.065-3.277-7.065-7.296-7.065zM256 411.738c-103.513 0-187.738-84.224-187.738-187.738s84.224-187.738 187.738-187.738 187.738 84.224 187.738 187.738-84.224 187.738-187.738 187.738zM256 53.337c-94.106 0-170.662 76.557-170.662 170.663s76.557 170.663 170.662 170.663c94.106 0 170.663-76.57 170.663-170.663s-76.557-170.663-170.663-170.663z" />
<glyph unicode="&#xe637;" d="M113.063 217.6c0-22.349 18.189-40.538 40.537-40.538s40.537 18.189 40.537 40.538-18.189 40.538-40.537 40.538c-22.349 0-40.537-18.189-40.537-40.538zM177.063 217.6c0-12.941-10.522-23.462-23.463-23.462s-23.463 10.522-23.463 23.462 10.522 23.463 23.463 23.463c12.941 0 23.463-10.522 23.463-23.463zM358.4 177.063c22.349 0 40.538 18.189 40.538 40.538s-18.189 40.538-40.538 40.538c-22.349 0-40.538-18.189-40.538-40.538s18.189-40.538 40.538-40.538zM358.4 241.063c12.941 0 23.462-10.522 23.462-23.462s-10.522-23.462-23.462-23.462c-12.941 0-23.462 10.522-23.462 23.462s10.522 23.463 23.462 23.463zM358.4 347.738v-17.063c62.336 0 113.063-50.726 113.063-113.063s-50.726-113.075-113.063-113.075c-38.63 0-74.227 19.571-95.219 52.352l-7.181 11.226-7.181-11.226c-20.979-32.781-56.589-52.352-95.219-52.352-62.336 0-113.063 50.726-113.063 113.063s50.727 113.063 113.063 113.063v17.063c-71.757 0-130.137-58.381-130.137-130.137s58.381-130.125 130.137-130.125c40.333 0 77.773 18.509 102.4 50.061 24.627-31.552 62.067-50.061 102.4-50.061 71.757 0 130.137 58.381 130.137 130.137s-58.381 130.137-130.137 130.137z" />
<glyph unicode="&#xe638;" d="M256 317.863c34.841 0 65.702-9.395 80.55-24.512l12.173 11.955c-18.214 18.547-52.877 29.619-92.723 29.619s-74.522-11.072-92.723-29.619l12.173-11.955c14.848 15.13 45.709 24.512 80.55 24.512zM311.104 236.506c92.8 23.398 156.992 101.517 156.992 192.294 0 15.296-12.442 27.738-27.738 27.738v-17.063c5.888 0 10.663-4.787 10.663-10.663 0-84.979-61.952-157.888-150.643-177.28l-7.488-1.638 0.832-7.616c0.064-0.601 0.154-1.165 0.243-1.728 0.064-0.345 0.141-0.704 0.141-1.126 0-20.032-17.101-36.326-38.118-36.326s-38.118 16.295-38.118 36.327c0 0.423 0.089 0.768 0.141 1.126 0.089 0.563 0.179 1.139 0.243 1.728l0.832 7.616-7.488 1.638c-88.678 19.379-150.631 92.288-150.631 177.267 0 5.888 4.787 10.662 10.662 10.662v17.075c-15.283 0-27.725-12.441-27.725-27.737 0-90.778 64.192-168.896 156.992-192.295 1.498-26.957 23.769-48.615 51.559-50.329l-4.237-8.461c-10.432-20.877-20.774-37.197-29.913-51.61-14.887-23.488-26.637-42.035-26.637-63.501 0-35.392 28.787-64.179 64.179-64.179s64.179 28.787 64.179 64.179c0 21.466-11.75 40.013-26.637 63.501-9.127 14.4-19.469 30.733-29.913 51.61l-4.224 8.448c27.93 1.6 50.342 23.296 51.853 50.343zM278.989 116.979c13.926-21.965 23.987-37.849 23.987-54.361 0-25.984-21.133-47.117-47.117-47.117s-47.117 21.133-47.117 47.117c0 16.512 10.061 32.397 23.987 54.361 7.143 11.264 15.001 23.667 23.13 38.528 8.128-14.873 15.987-27.277 23.129-38.528z" />
<glyph unicode="&#xe639;" d="M366.938 194.137v96.448l-110.925 166.4-110.938-166.4v-96.448h-64.422v-197.184h107.085v60.647c0 37.645 30.631 68.262 68.263 68.262 37.645 0 68.262-30.63 68.262-68.262v-60.647h106.214v197.184h-63.539zM256.013 426.214l86.451-129.69h-172.915l86.464 129.69zM247.463 142.502c-43.059-4.301-76.8-40.729-76.8-84.902v-43.584h-72.947v163.046h149.747v-34.56zM162.137 194.137v85.338h187.738v-85.338h-187.738zM413.414 14.016h-72.089v43.584c0 44.173-33.741 80.601-76.8 84.903v34.56h148.889v-163.046z" />
</font>
</defs>
</svg>
