<?xml version="1.0" encoding="utf-8"?>
<!-- Generator: Adobe Illustrator 16.0.0, SVG Export Plug-In . SVG Version: 6.00 Build 0)  -->
<!DOCTYPE svg PUBLIC "-//W3C//DTD SVG 1.1//EN" "http://www.w3.org/Graphics/SVG/1.1/DTD/svg11.dtd">
<svg version="1.1" id="Layer_1" xmlns="http://www.w3.org/2000/svg" xmlns:xlink="http://www.w3.org/1999/xlink" x="0px" y="0px"
	 width="371px" height="215px" viewBox="0 0 371 215" enable-background="new 0 0 371 215" xml:space="preserve">
<path fill="#4C4C4C" d="M249.059,132.566c0-0.408,0.33-0.74,0.737-0.74l15.062-0.001c5.685,0,10.291-4.607,10.291-10.291v-19
	c0-5.683-4.606-10.29-10.291-10.29h-19.006c-5.686,0-10.291,4.607-10.291,10.29v58.245c0,0.41-0.332,0.74-0.738,0.74h-1.16
	c-0.407,0-0.739-0.33-0.739-0.74l-0.002-58.245c0-7.141,5.789-12.929,12.931-12.929h19.008c7.141,0,12.93,5.788,12.93,12.929v19
	c0,7.141-5.789,12.929-12.93,12.929h-15.062c-0.406,0-0.738-0.331-0.738-0.738V132.566 M249.059,127.289
	c0-0.408,0.33-0.739,0.737-0.739l14.534-0.002c3.061,0,5.542-2.481,5.542-5.541v-17.943c0-3.062-2.481-5.542-5.542-5.542h-17.951
	c-3.062,0-5.542,2.48-5.542,5.542l0.001,57.717c0,0.408-0.33,0.738-0.738,0.738h-1.158c-0.408,0-0.74-0.33-0.74-0.738l-0.002-57.717
	c0-4.519,3.662-8.181,8.181-8.181h17.951c4.519,0,8.18,3.662,8.18,8.181v17.943c0,4.517-3.661,8.179-8.18,8.179l-14.534,0.002
	c-0.406,0-0.738-0.332-0.738-0.742V127.289L249.059,127.289z M249.059,122.011c0-0.409,0.33-0.739,0.737-0.739l14.007-0.002
	c0.438,0,0.793-0.354,0.793-0.791V103.59c0-0.437-0.354-0.792-0.793-0.792h-16.896c-0.438,0-0.792,0.355-0.792,0.792l0.001,57.189
	c0,0.41-0.331,0.74-0.739,0.74h-1.158c-0.408,0-0.74-0.33-0.74-0.74V103.59c0-1.895,1.535-3.43,3.43-3.43h16.896
	c1.894,0,3.43,1.535,3.43,3.43v16.889c0,1.894-1.537,3.431-3.43,3.431h-14.008c-0.406,0-0.738-0.331-0.738-0.74V122.011
	L249.059,122.011z M214.122,144.287c0,0.408-0.331,0.738-0.739,0.738h-1.158c-0.408,0-0.74-0.33-0.74-0.738l-0.002-42.807
	c0-10.93-8.859-19.79-19.789-19.79h-21.125c-10.932,0-19.793,8.86-19.793,19.79v21.11c0,10.93,8.861,19.79,19.793,19.79h14.363
	c0.408,0,0.739,0.332,0.739,0.74v1.157c0,0.408-0.331,0.74-0.739,0.74h-14.363c-12.39,0-22.431-10.041-22.431-22.428v-21.11
	c0-12.387,10.041-22.429,22.431-22.429h21.125c12.388,0,22.429,10.042,22.429,22.429V144.287z M207.084,144.287
	c0,0.408-0.331,0.738-0.738,0.738h-1.158c-0.408,0-0.74-0.33-0.74-0.738l-0.002-42.104c0-7.433-6.023-13.458-13.457-13.458h-19.717
	c-7.435,0-13.459,6.025-13.459,13.458v19.702c0,7.434,6.024,13.457,13.459,13.457l13.66,0.002c0.408,0,0.739,0.331,0.739,0.739
	v1.159c0,0.408-0.331,0.738-0.739,0.738h-13.66c-8.892,0-16.098-7.207-16.098-16.096v-19.702c0-8.89,7.206-16.096,16.098-16.096
	h19.717c8.891,0,16.097,7.206,16.097,16.096L207.084,144.287L207.084,144.287z M200.048,144.287c0,0.408-0.331,0.738-0.739,0.738
	h-1.158c-0.408,0-0.74-0.33-0.74-0.738v-41.401c0-3.934-3.189-7.124-7.125-7.124h-18.31c-3.937,0-7.128,3.189-7.128,7.124v18.296
	c0,3.935,3.191,7.125,7.128,7.125h12.956c0.408,0,0.739,0.332,0.739,0.74v1.159c0,0.408-0.331,0.739-0.739,0.739h-12.956
	c-5.396,0-9.767-4.371-9.767-9.764v-18.295c0-5.391,4.371-9.762,9.767-9.762h18.31c5.392,0,9.764,4.371,9.764,9.762L200.048,144.287
	L200.048,144.287z M193.012,144.287c0,0.408-0.33,0.738-0.74,0.738h-1.158c-0.408,0-0.738-0.33-0.738-0.738l-0.002-40.697
	c0-0.437-0.354-0.792-0.792-0.792H172.68c-0.438,0-0.793,0.355-0.793,0.792v16.889c0,0.437,0.355,0.791,0.793,0.791l12.252,0.002
	c0.408,0,0.739,0.33,0.739,0.739v1.158c0,0.409-0.331,0.74-0.739,0.74H172.68c-1.896,0-3.432-1.537-3.432-3.431V103.59
	c0-1.895,1.535-3.43,3.432-3.43h16.901c1.896,0,3.431,1.535,3.431,3.43V144.287L193.012,144.287z M49.579,121.271h0.397
	c0.409,0,0.739,0.33,0.739,0.739v1.158c0,0.409-0.331,0.74-0.739,0.74h-9.25c-1.895,0-3.431-1.537-3.431-3.431V103.59
	c0-1.895,1.536-3.43,3.431-3.43h16.896c1.894,0,3.43,1.535,3.43,3.43v40.697c0,0.408-0.332,0.738-0.74,0.738h-1.159
	c-0.408,0-0.739-0.33-0.739-0.738v-0.396V103.59c0-0.437-0.354-0.792-0.792-0.792H40.726c-0.438,0-0.792,0.355-0.792,0.792v16.889
	c0,0.437,0.354,0.791,0.792,0.791L49.579,121.271z M49.579,142.38h0.397c0.409,0,0.739,0.332,0.739,0.74v1.157
	c0,0.408-0.331,0.74-0.739,0.74h-11.36c-12.388,0-22.43-10.041-22.43-22.428v-21.11c0-12.387,10.042-22.429,22.43-22.429h21.117
	c12.388,0,22.429,10.042,22.429,22.429v42.807c0,0.408-0.331,0.738-0.739,0.738h-1.158c-0.409,0-0.74-0.33-0.74-0.738v-0.396
	l-0.001-42.411c0-10.93-8.859-19.79-19.79-19.79H38.616c-10.93,0-19.791,8.86-19.791,19.79v21.11c0,10.93,8.861,19.79,19.791,19.79
	H49.579z M114.157,160.781c0,0.408-0.332,0.738-0.74,0.738h-1.158c-0.408,0-0.739-0.33-0.739-0.738l-0.002-36.081
	c0-1.896,1.536-3.431,3.431-3.431l23.806,0.002h0.397c0.409,0,0.74,0.33,0.74,0.739v1.158c0,0.409-0.331,0.74-0.74,0.74h-0.397
	l-23.806-0.002c-0.438,0-0.792,0.354-0.792,0.793V160.781z M103.602,160.781c0,0.408-0.332,0.738-0.74,0.738h-1.158
	c-0.408,0-0.74-0.33-0.74-0.738l-0.001-37.137c0-7.141,5.789-12.929,12.93-12.929h24.861h0.397c0.409,0,0.74,0.332,0.74,0.74v1.158
	c0,0.407-0.331,0.739-0.74,0.739h-0.397h-24.861c-5.683,0-10.292,4.606-10.292,10.291L103.602,160.781z M93.047,160.781
	c0,0.408-0.331,0.738-0.74,0.738h-1.158c-0.409,0-0.74-0.33-0.74-0.738l-0.001-38.191c0-3.816,0.953-7.408,2.633-10.556
	c-1.68-3.146-2.633-6.738-2.633-10.554v-5.277v-5.277c0-12.387,10.042-22.429,22.429-22.429l25.917,0.001h0.397
	c0.409,0,0.74,0.331,0.74,0.739v1.159c0,0.408-0.331,0.739-0.74,0.739h-26.313c-10.93,0-19.79,8.861-19.79,19.791v5.277v5.277
	c0,2.816,0.588,5.495,1.648,7.918c1.77-2.431,4.017-4.49,6.601-6.044c-0.218-0.941-0.333-1.921-0.333-2.929l0.001-4.222
	l-0.001-4.222c0-7.141,5.789-12.93,12.93-12.93h24.861h0.397c0.409,0,0.74,0.332,0.74,0.74v1.158c0,0.409-0.331,0.74-0.74,0.74
	h-0.397l-24.861,0.002c-5.683,0-10.292,4.606-10.292,10.29l0.001,4.223l-0.001,4.222c0,0.565,0.046,1.12,0.133,1.66
	c2.782-1.236,5.862-1.924,9.103-1.924c-0.83-1.104-1.32-2.472-1.32-3.958c0-3.643,2.954-6.597,6.597-6.597h20.588l0.448-0.001
	c0.409,0,0.74,0.331,0.74,0.74v1.158c0,0.409-0.331,0.74-0.74,0.74h-0.397c-18.514-0.001-20.639,0.002-20.639,0.002
	c-2.186,0-3.958,1.772-3.958,3.958s1.772,3.958,3.958,3.958h1.32l19.319,0.001h0.397c0.409,0,0.74,0.331,0.74,0.739v1.158
	c0,0.409-0.331,0.739-0.74,0.739h-0.397l-19.319,0.001h-1.32l-5.277-0.001c-10.93,0-19.79,8.861-19.79,19.791L93.047,160.781
	L93.047,160.781z M225.005,160.779c0,0.41-0.33,0.74-0.737,0.74h-1.158c-0.408,0-0.739-0.33-0.739-0.74l-0.002-59.299
	c0-12.387,10.041-22.429,22.429-22.429h21.117c12.388,0,22.429,10.042,22.429,22.429v21.11c0,12.387-10.041,22.428-22.429,22.428
	h-16.117c-0.406,0-0.738-0.332-0.738-0.74v-1.157c0-0.408,0.332-0.741,0.738-0.741l16.117,0.001c10.93,0,19.791-8.86,19.791-19.79
	v-21.11c0-10.93-8.861-19.79-19.791-19.79h-21.117c-10.93,0-19.791,8.86-19.791,19.79L225.005,160.779L225.005,160.779z
	 M249.059,137.844c0-0.408,0.33-0.738,0.737-0.738l15.591-0.004c8.307,0,15.04-6.732,15.04-15.039v-20.055
	c0-8.308-6.733-15.041-15.041-15.041h-20.062c-8.307,0-15.041,6.733-15.041,15.041l0.001,58.771c0,0.41-0.331,0.74-0.739,0.74
	h-1.158c-0.408,0-0.74-0.33-0.74-0.74v-58.771c0-9.765,7.914-17.68,17.679-17.68h20.062c9.764,0,17.68,7.915,17.68,17.68v20.055
	c0,9.764-7.916,17.679-17.68,17.679l-15.59,0.001c-0.406,0-0.738-0.331-0.738-0.739V137.844L249.059,137.844z"/>
<path fill="#4C4C4C" d="M264.867,23.571c-0.418-0.369-0.967-0.515-1.557-0.515c-0.967,0-1.539,0.571-1.539,1.556v2.411
	c0,0.984,0.572,1.555,1.539,1.555c0.539,0,1.066-0.076,1.557-0.216V23.571 M264.867,22.244v-2.66c0-0.347,0.275-0.622,0.622-0.622
	s0.622,0.275,0.622,0.622v9.032c0,0.346-0.223,0.658-0.555,0.763c-0.713,0.238-1.457,0.371-2.246,0.371
	c-1.662,0-2.785-1.138-2.785-2.8v-2.265c0-1.691,1.094-2.8,2.785-2.8C263.861,21.885,264.386,22.015,264.867,22.244z
	 M254.755,29.128c0,0.347-0.274,0.622-0.622,0.622c-0.347,0-0.623-0.275-0.623-0.622v-6.109c0-0.351,0.229-0.643,0.551-0.761
	c0.703-0.254,1.463-0.373,2.25-0.373c1.662,0,2.785,1.139,2.785,2.8v4.443c0,0.347-0.275,0.622-0.623,0.622
	c-0.347,0-0.621-0.275-0.621-0.622v-4.516c0-0.984-0.572-1.556-1.541-1.556c-0.539,0-1.064,0.076-1.556,0.217V29.128L254.755,29.128
	z M249.003,28.578c0.524,0,1.052-0.076,1.54-0.216v-2.148h-1.54c-1.414,0-1.555,0.638-1.555,1.161
	C247.449,27.902,247.594,28.578,249.003,28.578z M246.889,29.09c-0.457-0.41-0.687-1.001-0.687-1.716
	c0-0.716,0.229-1.293,0.685-1.715c0.486-0.44,1.213-0.618,2.116-0.618h1.54v-0.795c0-0.771-0.547-1.19-1.423-1.19
	c-0.558,0-1.076,0.166-1.617,0.479c-0.085,0.051-0.179,0.09-0.299,0.09c-0.313,0-0.622-0.217-0.622-0.593
	c0-0.22,0.111-0.42,0.309-0.545c0.711-0.438,1.494-0.604,2.229-0.604c1.414,0,2.669,0.762,2.669,2.347v4.385
	c0,0.346-0.225,0.658-0.557,0.763c-0.713,0.238-1.457,0.371-2.229,0.371C248.094,29.75,247.373,29.527,246.889,29.09z
	 M153.034,43.11h-3.706l-0.861,2.558c-0.09,0.252-0.325,0.417-0.581,0.417c-0.311,0-0.617-0.269-0.617-0.617l3.243-9.678
	c0.092-0.273,0.374-0.461,0.67-0.461c0.295,0,0.577,0.188,0.668,0.461l3.21,9.483c0.029,0.123,0.034,0.156,0.034,0.195
	c0,0.31-0.268,0.617-0.617,0.617c-0.256,0-0.491-0.165-0.58-0.417L153.034,43.11z M151.181,37.542l-1.438,4.349h2.873
	L151.181,37.542z M160.129,45.673c-0.481,0.282-1.006,0.412-1.54,0.412c-1.672,0-2.791-1.134-2.791-2.79v-2.26
	c0-1.656,1.119-2.79,2.791-2.79c0.77,0,1.527,0.119,2.228,0.372c0.32,0.117,0.546,0.408,0.546,0.755v7.029
	c0,1.671-1.118,2.789-2.773,2.789c-0.734,0-1.421-0.164-2.075-0.446c-0.22-0.092-0.365-0.311-0.365-0.549
	c0-0.327,0.256-0.602,0.603-0.602c0.096,0,0.158,0.021,0.234,0.053c0.505,0.215,1.058,0.384,1.604,0.384
	c0.96,0,1.54-0.637,1.54-1.628v-0.729H160.129z M160.129,39.623c-0.489-0.141-1.015-0.217-1.54-0.217
	c-0.984,0-1.557,0.573-1.557,1.556v2.406c0,0.983,0.572,1.556,1.557,1.556c0.564,0,1.115-0.209,1.54-0.588V39.623z M163.164,40.379
	c0-1.291,0.912-2.134,2.03-2.134c0.358,0,0.716,0.045,1.074,0.119c0.294,0.056,0.491,0.328,0.491,0.6
	c0,0.337-0.281,0.588-0.617,0.588l-0.27-0.046c-0.225-0.042-0.438-0.071-0.679-0.071c-0.437,0-0.797,0.319-0.797,0.9v5.134
	c0,0.343-0.273,0.617-0.617,0.617c-0.344,0-0.616-0.273-0.616-0.617L163.164,40.379L163.164,40.379z M167.917,38.862
	c0-0.327,0.271-0.617,0.618-0.617c0.346,0,0.617,0.29,0.617,0.617v6.606c0,0.343-0.273,0.617-0.617,0.617
	c-0.345,0-0.618-0.273-0.618-0.617V38.862z M167.756,36.106c0-0.432,0.347-0.777,0.778-0.777c0.431,0,0.777,0.345,0.777,0.777
	c0,0.428-0.343,0.792-0.777,0.792C168.099,36.898,167.756,36.533,167.756,36.106z M171.664,45.714
	c-0.33-0.103-0.551-0.414-0.551-0.756v-9.013c0-0.343,0.272-0.616,0.617-0.616c0.344,0,0.616,0.273,0.616,0.616v2.661
	c0.48-0.23,1.006-0.361,1.556-0.361c1.688,0,2.778,1.105,2.778,2.79v2.26c0,1.656-1.119,2.79-2.778,2.79
	C173.116,46.085,172.375,45.952,171.664,45.714z M175.446,40.962c0-0.984-0.574-1.556-1.544-1.556c-0.588,0-1.137,0.146-1.556,0.516
	v4.785c0.49,0.141,1.018,0.217,1.556,0.217c0.97,0,1.544-0.571,1.544-1.556V40.962z M182.521,38.862
	c0-0.327,0.271-0.617,0.617-0.617c0.348,0,0.617,0.29,0.617,0.617v6.096c0,0.342-0.221,0.652-0.535,0.756
	c-0.711,0.238-1.468,0.371-2.241,0.371c-1.717,0-2.791-1.105-2.791-2.79v-4.433c0-0.327,0.271-0.617,0.617-0.617
	c0.347,0,0.617,0.29,0.617,0.617v4.506c0,0.983,0.573,1.556,1.557,1.556c0.526,0,1.052-0.076,1.542-0.217V38.862L182.521,38.862z
	 M186.535,42.313c-0.717-0.305-1.345-0.865-1.345-1.963c0-1.301,1.146-2.104,2.483-2.104c0.733,0,1.318,0.149,1.829,0.376
	c0.23,0.105,0.379,0.322,0.379,0.576c0,0.342-0.285,0.574-0.617,0.574c-0.078,0-0.156-0.022-0.238-0.054
	c-0.42-0.196-0.93-0.311-1.469-0.311c-0.551,0-1.133,0.263-1.133,0.9c0,0.511,0.354,0.771,0.653,0.893l1.371,0.555
	c0.907,0.364,1.534,1.101,1.534,2.052c0,1.285-1.055,2.279-2.455,2.279c-0.776,0-1.405-0.165-1.977-0.435
	c-0.232-0.106-0.362-0.31-0.362-0.562c0-0.334,0.264-0.588,0.617-0.588l0.252,0.068c0.457,0.2,0.953,0.354,1.512,0.354
	c0.648,0,1.178-0.38,1.178-0.958c0-0.546-0.258-0.833-0.844-1.084L186.535,42.313z M191.592,38.862c0-0.327,0.271-0.617,0.618-0.617
	s0.616,0.29,0.616,0.617v6.606c0,0.343-0.273,0.617-0.616,0.617c-0.345,0-0.618-0.273-0.618-0.617V38.862z M191.432,36.106
	c0-0.432,0.346-0.777,0.778-0.777c0.431,0,0.776,0.345,0.776,0.777c0,0.428-0.342,0.792-0.776,0.792S191.432,36.533,191.432,36.106z
	 M199.118,40.962c0-0.984-0.573-1.556-1.542-1.556c-0.539,0-1.066,0.076-1.555,0.217v5.845c0,0.343-0.274,0.617-0.619,0.617
	c-0.344,0-0.615-0.273-0.615-0.617v-6.096c0-0.347,0.227-0.638,0.546-0.755c0.7-0.253,1.458-0.372,2.243-0.372
	c1.656,0,2.775,1.135,2.775,2.79v4.433c0,0.343-0.272,0.617-0.617,0.617c-0.344,0-0.616-0.273-0.616-0.617V40.962L199.118,40.962z
	 M203.02,42.599v0.696c0,0.991,0.58,1.629,1.557,1.629c0.561,0,1.098-0.168,1.615-0.398c0.082-0.033,0.158-0.053,0.25-0.053
	c0.338,0,0.619,0.251,0.619,0.587c0,0.238-0.131,0.438-0.347,0.546c-0.674,0.33-1.394,0.479-2.139,0.479
	c-1.673,0-2.789-1.134-2.789-2.79v-2.26c0-1.656,1.116-2.79,2.789-2.79c1.657,0,2.774,1.135,2.774,2.79v0.758
	c0,0.446-0.36,0.806-0.808,0.806H203.02z M206.117,40.962c0-0.984-0.573-1.556-1.541-1.556c-0.984,0-1.557,0.573-1.557,1.556v0.477
	h3.098V40.962z M209.836,42.313c-0.715-0.305-1.343-0.865-1.343-1.963c0-1.301,1.146-2.104,2.483-2.104
	c0.732,0,1.317,0.149,1.828,0.376c0.23,0.105,0.379,0.322,0.379,0.576c0,0.342-0.287,0.574-0.617,0.574
	c-0.08,0-0.157-0.022-0.237-0.054c-0.422-0.196-0.931-0.311-1.47-0.311c-0.551,0-1.133,0.263-1.133,0.9
	c0,0.511,0.354,0.771,0.653,0.893l1.37,0.555c0.91,0.364,1.533,1.101,1.533,2.052c0,1.285-1.053,2.279-2.453,2.279
	c-0.777,0-1.406-0.165-1.977-0.435c-0.232-0.106-0.361-0.31-0.361-0.562c0-0.334,0.264-0.588,0.617-0.588l0.25,0.068
	c0.459,0.2,0.953,0.354,1.515,0.354c0.647,0,1.177-0.38,1.177-0.958c0-0.546-0.259-0.833-0.844-1.084L209.836,42.313z
	 M215.714,42.313c-0.716-0.305-1.344-0.865-1.344-1.963c0-1.301,1.146-2.104,2.483-2.104c0.731,0,1.318,0.149,1.828,0.376
	c0.23,0.105,0.379,0.322,0.379,0.576c0,0.342-0.287,0.574-0.619,0.574c-0.077,0-0.155-0.022-0.236-0.054
	c-0.421-0.196-0.932-0.311-1.469-0.311c-0.549,0-1.133,0.263-1.133,0.9c0,0.511,0.354,0.771,0.653,0.893l1.37,0.555
	c0.909,0.364,1.534,1.101,1.534,2.052c0,1.285-1.054,2.279-2.454,2.279c-0.777,0-1.407-0.165-1.977-0.435
	c-0.231-0.106-0.361-0.31-0.361-0.562c0-0.334,0.263-0.588,0.617-0.588l0.25,0.068c0.459,0.2,0.955,0.354,1.515,0.354
	c0.647,0,1.177-0.38,1.177-0.958c0-0.546-0.258-0.833-0.846-1.084L215.714,42.313z M224.332,36.281c0-0.446,0.359-0.807,0.807-0.807
	h2.305c0.9,0,1.662,0.287,2.229,0.852c0.564,0.566,0.866,1.356,0.866,2.273c0,0.887-0.286,1.649-0.823,2.186
	c-0.564,0.551-1.343,0.837-2.271,0.837h-1.848v3.846c0,0.348-0.291,0.617-0.632,0.617c-0.34,0-0.631-0.269-0.631-0.617
	L224.332,36.281L224.332,36.281z M227.412,40.404c0.604,0,1.081-0.182,1.402-0.491c0.293-0.292,0.461-0.752,0.461-1.313
	c0-0.603-0.183-1.08-0.504-1.402c-0.324-0.324-0.787-0.503-1.359-0.503h-1.818v3.709H227.412z M236.662,44.958
	c0,0.343-0.223,0.653-0.551,0.756c-0.711,0.238-1.451,0.371-2.225,0.371c-0.906,0-1.626-0.223-2.107-0.658
	c-0.454-0.407-0.682-0.997-0.682-1.708c0-0.714,0.229-1.288,0.68-1.708c0.486-0.438,1.209-0.615,2.109-0.615h1.541v-0.799
	c0-0.771-0.548-1.19-1.424-1.19c-0.559,0-1.074,0.166-1.615,0.479c-0.084,0.05-0.179,0.089-0.296,0.089
	c-0.313,0-0.616-0.215-0.616-0.587c0-0.218,0.11-0.417,0.305-0.54c0.709-0.438,1.49-0.603,2.224-0.603
	c1.409,0,2.657,0.759,2.657,2.337V44.958L236.662,44.958z M235.428,42.556h-1.541c-1.414,0-1.557,0.639-1.557,1.163
	c0,0.528,0.146,1.205,1.557,1.205c0.525,0,1.053-0.076,1.541-0.217V42.556z M238.389,40.379c0-1.291,0.913-2.134,2.03-2.134
	c0.358,0,0.715,0.045,1.074,0.119c0.295,0.056,0.489,0.328,0.489,0.6c0,0.337-0.278,0.588-0.615,0.588l-0.27-0.046
	c-0.226-0.042-0.438-0.071-0.68-0.071c-0.438,0-0.797,0.319-0.797,0.9v5.134c0,0.343-0.273,0.617-0.617,0.617
	s-0.617-0.273-0.617-0.617v-5.09H238.389z M242.982,35.945c0-0.343,0.271-0.616,0.617-0.616c0.344,0,0.616,0.273,0.616,0.616v2.445
	h1.556c0.326,0,0.604,0.256,0.604,0.603c0,0.352-0.281,0.587-0.604,0.587h-1.556v4.415c0,0.565,0.357,0.885,0.798,0.885
	c0.219,0,0.627-0.058,0.771-0.058c0.257,0,0.589,0.215,0.589,0.588c0,0.291-0.203,0.546-0.51,0.601
	c-0.283,0.044-0.567,0.074-0.851,0.074c-1.121,0-2.033-0.873-2.033-2.119v-8.021H242.982z M251.921,40.962
	c0-0.984-0.573-1.556-1.542-1.556c-0.539,0-1.066,0.076-1.556,0.217v5.845c0,0.343-0.273,0.617-0.617,0.617
	c-0.343,0-0.616-0.273-0.616-0.617v-6.096c0-0.347,0.227-0.638,0.547-0.755c0.699-0.253,1.457-0.372,2.242-0.372
	c1.658,0,2.775,1.135,2.775,2.79v4.433c0,0.343-0.272,0.617-0.616,0.617c-0.347,0-0.617-0.273-0.617-0.617V40.962L251.921,40.962z
	 M255.823,42.599v0.696c0,0.991,0.579,1.629,1.557,1.629c0.56,0,1.099-0.168,1.614-0.398c0.084-0.033,0.158-0.053,0.252-0.053
	c0.338,0,0.617,0.251,0.617,0.587c0,0.238-0.131,0.438-0.346,0.546c-0.674,0.33-1.394,0.479-2.139,0.479
	c-1.672,0-2.79-1.134-2.79-2.79v-2.26c0-1.656,1.118-2.79,2.79-2.79c1.657,0,2.775,1.135,2.775,2.79v0.758
	c0,0.446-0.36,0.806-0.807,0.806H255.823z M258.921,40.962c0-0.984-0.575-1.556-1.542-1.556c-0.982,0-1.557,0.573-1.557,1.556v0.477
	h3.099V40.962z M261.663,40.379c0-1.291,0.914-2.134,2.03-2.134c0.358,0,0.716,0.045,1.074,0.119c0.295,0.056,0.491,0.328,0.491,0.6
	c0,0.337-0.28,0.588-0.616,0.588l-0.271-0.046c-0.226-0.042-0.438-0.071-0.681-0.071c-0.438,0-0.797,0.319-0.797,0.9v5.134
	c0,0.343-0.272,0.617-0.617,0.617c-0.344,0-0.615-0.273-0.615-0.617L261.663,40.379L261.663,40.379z M267.234,42.313
	c-0.717-0.305-1.344-0.865-1.344-1.963c0-1.301,1.146-2.104,2.483-2.104c0.731,0,1.317,0.149,1.828,0.376
	c0.229,0.105,0.379,0.322,0.379,0.576c0,0.342-0.286,0.574-0.617,0.574c-0.08,0-0.157-0.022-0.237-0.054
	c-0.422-0.196-0.931-0.311-1.469-0.311c-0.551,0-1.133,0.263-1.133,0.9c0,0.511,0.354,0.771,0.652,0.893l1.369,0.555
	c0.91,0.364,1.535,1.101,1.535,2.052c0,1.285-1.054,2.279-2.453,2.279c-0.777,0-1.406-0.165-1.978-0.435
	c-0.231-0.106-0.36-0.31-0.36-0.562c0-0.334,0.262-0.588,0.615-0.588l0.252,0.068c0.457,0.2,0.952,0.354,1.514,0.354
	c0.647,0,1.177-0.38,1.177-0.958c0-0.546-0.259-0.833-0.845-1.084L267.234,42.313z M276.463,40.962c0-0.984-0.572-1.556-1.541-1.556
	c-0.579,0-1.132,0.209-1.555,0.589l-0.002,5.473c0,0.343-0.272,0.617-0.616,0.617s-0.617-0.273-0.617-0.617v-9.523
	c0-0.343,0.273-0.616,0.617-0.616s0.616,0.273,0.616,0.616v2.661c0.479-0.23,1.006-0.361,1.557-0.361
	c1.657,0,2.773,1.135,2.773,2.79v4.433c0,0.343-0.272,0.617-0.615,0.617c-0.346,0-0.617-0.273-0.617-0.617V40.962z M279.584,38.862
	c0-0.327,0.271-0.617,0.616-0.617c0.348,0,0.616,0.29,0.616,0.617v6.606c0,0.343-0.271,0.617-0.616,0.617s-0.616-0.273-0.616-0.617
	V38.862z M279.424,36.106c0-0.432,0.346-0.777,0.776-0.777c0.432,0,0.776,0.345,0.776,0.777c0,0.428-0.342,0.792-0.776,0.792
	C279.768,36.898,279.424,36.533,279.424,36.106z M282.779,39.373c0-0.347,0.226-0.638,0.547-0.755
	c0.713-0.253,1.472-0.372,2.24-0.372c1.658,0,2.775,1.135,2.775,2.79v2.26c0,1.656-1.117,2.79-2.775,2.79
	c-0.549,0-1.074-0.132-1.556-0.36v2.85c0,0.343-0.271,0.616-0.616,0.616c-0.345,0-0.615-0.273-0.615-0.616V39.373z M287.107,40.962
	c0-0.984-0.572-1.556-1.541-1.556c-0.539,0-1.053,0.077-1.555,0.217v4.785c0.418,0.37,0.967,0.516,1.555,0.516
	c0.969,0,1.541-0.571,1.541-1.556V40.962z M153.034,26.741h-3.706l-0.861,2.558c-0.09,0.252-0.325,0.416-0.581,0.416
	c-0.311,0-0.617-0.268-0.617-0.616l3.243-9.678c0.092-0.272,0.374-0.461,0.67-0.461c0.295,0,0.577,0.189,0.668,0.461l3.21,9.483
	c0.029,0.123,0.034,0.157,0.034,0.195c0,0.31-0.268,0.616-0.617,0.616c-0.256,0-0.491-0.164-0.58-0.416L153.034,26.741z
	 M151.181,21.173l-1.438,4.349h2.873L151.181,21.173z M156.09,20.99c0-1.116,0.915-2.031,2.032-2.031
	c0.285,0,0.571,0.031,0.856,0.091c0.296,0.07,0.503,0.304,0.503,0.599c0,0.39-0.319,0.587-0.602,0.587
	c-0.248,0-0.423-0.087-0.758-0.087c-0.444,0-0.798,0.354-0.798,0.798v1.074h1.556c0.327,0,0.602,0.256,0.602,0.603
	c0,0.351-0.279,0.588-0.602,0.588h-1.556v5.887c0,0.344-0.273,0.616-0.617,0.616c-0.344,0-0.617-0.272-0.617-0.616L156.09,20.99
	L156.09,20.99z M160.48,24.009c0-1.29,0.913-2.133,2.031-2.133c0.358,0,0.715,0.044,1.074,0.119c0.294,0.055,0.49,0.328,0.49,0.6
	c0,0.337-0.279,0.588-0.617,0.588l-0.269-0.046c-0.226-0.042-0.438-0.07-0.679-0.07c-0.438,0-0.798,0.318-0.798,0.899v5.133
	c0,0.344-0.272,0.616-0.616,0.616c-0.344,0-0.617-0.272-0.617-0.616L160.48,24.009L160.48,24.009z M165.234,22.492
	c0-0.326,0.271-0.616,0.617-0.616c0.346,0,0.616,0.29,0.616,0.616v6.606c0,0.344-0.272,0.616-0.616,0.616
	c-0.345,0-0.617-0.272-0.617-0.616V22.492z M165.074,19.736c0-0.431,0.346-0.777,0.777-0.777s0.776,0.346,0.776,0.777
	c0,0.428-0.343,0.792-0.776,0.792C165.416,20.528,165.074,20.165,165.074,19.736z M168.136,24.665c0-1.655,1.118-2.789,2.791-2.789
	c0.688,0,1.35,0.149,1.965,0.45c0.216,0.107,0.344,0.325,0.344,0.546c0,0.336-0.279,0.588-0.616,0.588
	c-0.089,0-0.183-0.02-0.269-0.055c-0.455-0.228-0.936-0.369-1.424-0.369c-0.984,0-1.557,0.573-1.557,1.557v2.405
	c0,0.983,0.572,1.556,1.557,1.556c0.489,0,0.995-0.14,1.419-0.352c0.067-0.034,0.175-0.071,0.273-0.071
	c0.319,0,0.616,0.249,0.616,0.587c0,0.238-0.131,0.44-0.344,0.547c-0.615,0.3-1.276,0.449-1.965,0.449
	c-1.673,0-2.791-1.133-2.791-2.789v-2.26H168.136z M179.583,28.588c0,0.343-0.222,0.653-0.55,0.757
	c-0.711,0.236-1.453,0.369-2.227,0.369c-0.907,0-1.626-0.222-2.109-0.657c-0.453-0.407-0.682-0.997-0.682-1.708
	c0-0.713,0.23-1.288,0.682-1.708c0.485-0.438,1.209-0.615,2.109-0.615h1.543v-0.797c0-0.772-0.548-1.192-1.426-1.192
	c-0.558,0-1.075,0.166-1.616,0.479c-0.084,0.05-0.178,0.09-0.295,0.09c-0.315,0-0.617-0.215-0.617-0.587
	c0-0.218,0.111-0.417,0.305-0.541c0.708-0.437,1.491-0.602,2.224-0.602c1.411,0,2.659,0.759,2.659,2.338V28.588L179.583,28.588z
	 M178.349,26.187h-1.543c-1.413,0-1.557,0.639-1.557,1.163c0,0.528,0.147,1.206,1.557,1.206c0.526,0,1.053-0.076,1.543-0.217V26.187
	z M185.643,24.594c0-0.985-0.573-1.557-1.541-1.557c-0.541,0-1.067,0.077-1.558,0.217v5.845c0,0.344-0.272,0.616-0.617,0.616
	c-0.343,0-0.617-0.272-0.617-0.616v-6.096c0-0.347,0.227-0.638,0.547-0.755c0.7-0.254,1.459-0.372,2.245-0.372
	c1.657,0,2.774,1.134,2.774,2.789v4.434c0,0.344-0.271,0.616-0.617,0.616c-0.344,0-0.616-0.272-0.616-0.616V24.594L185.643,24.594z
	 M193.584,24.757v4.341c0,0.349-0.292,0.616-0.632,0.616c-0.339,0-0.632-0.268-0.632-0.616v-9.187c0-0.446,0.359-0.806,0.808-0.806
	h4.185c0.346,0,0.617,0.272,0.617,0.616c0,0.332-0.273,0.602-0.617,0.602h-3.729v3.214h3.54c0.342,0,0.616,0.273,0.616,0.617
	c0,0.332-0.276,0.602-0.616,0.602L193.584,24.757L193.584,24.757z M199.87,26.23v0.695c0,0.991,0.58,1.629,1.556,1.629
	c0.561,0,1.098-0.168,1.615-0.398c0.083-0.034,0.159-0.054,0.252-0.054c0.336,0,0.617,0.251,0.617,0.588
	c0,0.237-0.131,0.439-0.344,0.546c-0.676,0.33-1.396,0.479-2.142,0.479c-1.671,0-2.788-1.133-2.788-2.789v-2.261
	c0-1.655,1.117-2.789,2.788-2.789c1.658,0,2.775,1.134,2.775,2.789v0.759c0,0.446-0.36,0.807-0.806,0.807L199.87,26.23L199.87,26.23
	z M202.967,24.594c0-0.985-0.572-1.557-1.542-1.557c-0.983,0-1.556,0.573-1.556,1.557v0.476h3.098V24.594z M205.708,24.009
	c0-1.29,0.914-2.133,2.03-2.133c0.359,0,0.717,0.044,1.074,0.119c0.295,0.055,0.49,0.328,0.49,0.6c0,0.337-0.279,0.588-0.615,0.588
	l-0.27-0.046c-0.227-0.042-0.439-0.07-0.682-0.07c-0.437,0-0.795,0.318-0.795,0.899v5.133c0,0.344-0.273,0.616-0.617,0.616
	s-0.617-0.272-0.617-0.616L205.708,24.009L205.708,24.009z M210.302,19.576c0-0.344,0.273-0.617,0.617-0.617
	c0.345,0,0.616,0.273,0.616,0.617v2.445h1.556c0.327,0,0.604,0.256,0.604,0.603c0,0.351-0.281,0.588-0.604,0.588h-1.556v4.414
	c0,0.565,0.357,0.886,0.797,0.886c0.219,0,0.628-0.059,0.773-0.059c0.256,0,0.588,0.214,0.588,0.588c0,0.291-0.202,0.546-0.51,0.6
	c-0.285,0.044-0.567,0.074-0.853,0.074c-1.118,0-2.03-0.872-2.03-2.118L210.302,19.576L210.302,19.576z M215.07,22.492
	c0-0.326,0.271-0.616,0.617-0.616s0.617,0.29,0.617,0.616v6.606c0,0.344-0.273,0.616-0.617,0.616c-0.345,0-0.617-0.272-0.617-0.616
	V22.492z M214.91,19.736c0-0.431,0.346-0.777,0.777-0.777s0.776,0.346,0.776,0.777c0,0.428-0.342,0.792-0.776,0.792
	C215.251,20.528,214.91,20.165,214.91,19.736z M218.337,19.576c0-0.344,0.272-0.617,0.615-0.617c0.346,0,0.616,0.273,0.616,0.617
	v9.522c0,0.344-0.271,0.616-0.616,0.616c-0.343,0-0.615-0.272-0.615-0.616V19.576z M221.604,22.492c0-0.326,0.271-0.616,0.615-0.616
	c0.348,0,0.618,0.29,0.618,0.616v6.606c0,0.344-0.272,0.616-0.618,0.616c-0.344,0-0.615-0.272-0.615-0.616V22.492z M221.443,19.736
	c0-0.431,0.346-0.777,0.775-0.777c0.434,0,0.778,0.346,0.778,0.777c0,0.428-0.343,0.792-0.778,0.792
	C221.786,20.528,221.443,20.165,221.443,19.736z M224.918,29.57c-0.389,0-0.704-0.317-0.704-0.705c0-0.134,0.032-0.292,0.124-0.42
	l3.77-5.233h-3.232c-0.334,0-0.617-0.235-0.617-0.588c0-0.349,0.277-0.603,0.617-0.603h4.141c0.402,0,0.721,0.316,0.721,0.719
	c0,0.137-0.034,0.28-0.125,0.407l-3.784,5.232h3.336c0.336,0,0.616,0.251,0.616,0.587c0,0.35-0.277,0.603-0.616,0.603L224.918,29.57
	L224.918,29.57z M231.938,26.23v0.695c0,0.991,0.578,1.629,1.555,1.629c0.561,0,1.098-0.168,1.615-0.398
	c0.084-0.034,0.158-0.054,0.252-0.054c0.336,0,0.615,0.251,0.615,0.588c0,0.237-0.131,0.439-0.343,0.546
	c-0.675,0.33-1.396,0.479-2.141,0.479c-1.671,0-2.789-1.133-2.789-2.789v-2.261c0-1.655,1.118-2.789,2.789-2.789
	c1.657,0,2.774,1.134,2.774,2.789v0.759c0,0.446-0.359,0.807-0.806,0.807L231.938,26.23L231.938,26.23z M235.035,24.594
	c0-0.985-0.574-1.557-1.543-1.557c-0.982,0-1.555,0.573-1.555,1.557v0.476h3.098V24.594L235.035,24.594z M237.775,24.009
	c0-1.29,0.914-2.133,2.031-2.133c0.357,0,0.715,0.044,1.073,0.119c0.295,0.055,0.49,0.328,0.49,0.6c0,0.337-0.279,0.588-0.616,0.588
	l-0.27-0.046c-0.227-0.042-0.438-0.07-0.678-0.07c-0.438,0-0.799,0.318-0.799,0.899v5.133c0,0.344-0.273,0.616-0.617,0.616
	s-0.617-0.272-0.617-0.616v-5.09H237.775z M354.012,191.48c-0.476,0-0.872-0.399-0.872-0.887c0-0.49,0.4-0.869,0.872-0.869
	c0.483,0,0.886,0.377,0.886,0.869C354.897,191.084,354.5,191.48,354.012,191.48z M349.895,191.184l-2.486-6.929l-0.036-0.208
	c0-0.326,0.251-0.66,0.66-0.66c0.268,0,0.522,0.154,0.622,0.43l1.899,5.424l1.634-5.401c0.079-0.278,0.352-0.468,0.625-0.468
	c0.342,0,0.676,0.266,0.676,0.661l-0.035,0.206l-2.669,8.457c-0.38,1.188-1.413,1.979-2.781,1.979c-0.348,0-0.647-0.257-0.647-0.646
	c0-0.346,0.303-0.611,0.639-0.629c0.818-0.043,1.341-0.401,1.559-1.094L349.895,191.184z M343.219,181.033
	c0-0.368,0.294-0.66,0.661-0.66c0.369,0,0.662,0.292,0.662,0.66v2.486h1.571c0.351,0,0.646,0.273,0.646,0.646
	c0,0.376-0.303,0.631-0.646,0.631h-1.571v4.511c0,0.566,0.357,0.883,0.793,0.883c0.223,0,0.643-0.061,0.793-0.061
	c0.274,0,0.631,0.229,0.631,0.63c0,0.312-0.218,0.587-0.546,0.644c-0.293,0.047-0.587,0.078-0.878,0.078
	c-1.166,0-2.116-0.91-2.116-2.205V181.033L343.219,181.033z M339.624,181.198c0-0.458,0.367-0.825,0.825-0.825
	s0.825,0.367,0.825,0.825c0,0.454-0.363,0.841-0.825,0.841C339.986,182.039,339.624,181.652,339.624,181.198z M339.788,184.031
	c0-0.35,0.29-0.661,0.661-0.661c0.372,0,0.66,0.312,0.66,0.661v6.789c0,0.369-0.291,0.66-0.66,0.66c-0.368,0-0.661-0.291-0.661-0.66
	V184.031z M334.902,185.589c0-1.341,0.949-2.219,2.114-2.219c0.37,0,0.738,0.045,1.107,0.123c0.318,0.06,0.527,0.351,0.527,0.644
	c0,0.361-0.303,0.631-0.661,0.631c-0.512-0.092-0.729-0.121-0.975-0.121c-0.434,0-0.793,0.314-0.793,0.898v5.275
	c0,0.369-0.293,0.66-0.661,0.66c-0.367,0-0.66-0.291-0.66-0.66L334.902,185.589L334.902,185.589z M332.235,186.188
	c0-0.996-0.578-1.571-1.559-1.571c-0.994,0-1.571,0.577-1.571,1.571v0.465h3.13V186.188z M329.105,187.898v0.688
	c0,1.004,0.586,1.646,1.571,1.646c0.569,0,1.119-0.172,1.65-0.407c0.086-0.034,0.168-0.058,0.268-0.058
	c0.359,0,0.661,0.27,0.661,0.631c0,0.254-0.14,0.471-0.368,0.584c-0.697,0.342-1.439,0.496-2.211,0.496
	c-1.732,0-2.895-1.177-2.895-2.894v-2.324c0-1.716,1.161-2.893,2.895-2.893c1.72,0,2.879,1.178,2.879,2.893v0.78
	c0,0.475-0.383,0.855-0.854,0.855h-3.596V187.898z M325.34,186.188c0-0.996-0.577-1.571-1.558-1.571
	c-0.545,0-1.064,0.077-1.571,0.218v4.885c0.422,0.368,0.976,0.516,1.571,0.516c0.979,0,1.558-0.575,1.558-1.572V186.188z
	 M320.889,184.555c0-0.369,0.242-0.676,0.579-0.801c0.738-0.261,1.521-0.383,2.314-0.383c1.718,0,2.88,1.178,2.88,2.893v2.324
	c0,1.717-1.162,2.895-2.88,2.895c-0.556,0-1.086-0.129-1.571-0.355v2.887c0,0.368-0.292,0.661-0.661,0.661
	c-0.368,0-0.661-0.293-0.661-0.661V184.555L320.889,184.555z M316.021,187.604c-0.741-0.315-1.396-0.9-1.396-2.043
	c0-1.357,1.194-2.189,2.579-2.189c0.757,0,1.363,0.154,1.891,0.388c0.246,0.113,0.405,0.345,0.405,0.617
	c0,0.368-0.31,0.616-0.663,0.616c-0.086,0-0.169-0.023-0.254-0.059c-0.429-0.199-0.95-0.316-1.498-0.316
	c-0.562,0-1.138,0.267-1.138,0.898c0,0.51,0.351,0.77,0.654,0.894l1.409,0.569c0.94,0.377,1.593,1.144,1.593,2.133
	c0,1.338-1.097,2.369-2.551,2.369c-0.802,0-1.452-0.17-2.041-0.447c-0.249-0.115-0.388-0.333-0.388-0.602
	c0-0.359,0.283-0.632,0.661-0.632c0.737,0.277,1.243,0.435,1.812,0.435c0.658,0,1.185-0.385,1.185-0.957
	c0-0.549-0.256-0.834-0.854-1.09L316.021,187.604z M312.482,186.339c0-1.087-0.624-1.723-1.707-1.723
	c-1.084,0-1.708,0.636-1.708,1.723v2.175c0,1.086,0.624,1.721,1.708,1.721c1.083,0,1.707-0.635,1.707-1.721V186.339z
	 M313.802,188.438c0,1.807-1.22,3.043-3.026,3.043c-1.81,0-3.029-1.236-3.029-3.043v-2.022c0-1.808,1.221-3.044,3.029-3.044
	c1.808,0,3.026,1.236,3.026,3.044V188.438z M303.775,185.589c0-1.341,0.949-2.219,2.113-2.219c0.37,0,0.738,0.045,1.108,0.123
	c0.316,0.06,0.526,0.351,0.526,0.644c0,0.361-0.304,0.631-0.66,0.631c-0.514-0.092-0.729-0.121-0.975-0.121
	c-0.435,0-0.793,0.314-0.793,0.898v5.275c0,0.369-0.294,0.66-0.662,0.66c-0.367,0-0.66-0.291-0.66-0.66v-5.231H303.775z
	 M300.014,185.589c0.613,0,1.098-0.185,1.424-0.498c0.293-0.293,0.463-0.759,0.463-1.329c0-0.615-0.186-1.098-0.51-1.422
	c-0.326-0.326-0.795-0.511-1.377-0.511h-1.843v3.76H300.014L300.014,185.589z M296.82,181.378c0-0.474,0.383-0.854,0.854-0.854
	h2.368c0.934,0,1.723,0.295,2.311,0.884c0.588,0.587,0.898,1.405,0.898,2.354c0,0.918-0.297,1.709-0.854,2.266
	c-0.588,0.572-1.394,0.867-2.354,0.867h-1.872v3.926c0,0.373-0.312,0.66-0.676,0.66c-0.361,0-0.676-0.287-0.676-0.66V181.378z
	 M292.834,191.48c-0.477,0-0.87-0.399-0.87-0.887c0-0.49,0.399-0.869,0.87-0.869c0.484,0,0.887,0.377,0.887,0.869
	C293.721,191.084,293.323,191.48,292.834,191.48z M288.719,191.184l-2.488-6.929l-0.037-0.208c0-0.326,0.252-0.66,0.662-0.66
	c0.268,0,0.522,0.154,0.621,0.43l1.899,5.424l1.634-5.401c0.079-0.278,0.352-0.468,0.626-0.468c0.341,0,0.677,0.266,0.677,0.661
	l-0.037,0.206l-2.668,8.457c-0.381,1.188-1.412,1.979-2.781,1.979c-0.348,0-0.647-0.257-0.647-0.646c0-0.346,0.304-0.611,0.64-0.629
	c0.817-0.043,1.338-0.401,1.558-1.094L288.719,191.184z M282.193,181.033c0-0.368,0.291-0.66,0.66-0.66s0.66,0.292,0.66,0.66v2.486
	h1.573c0.351,0,0.646,0.273,0.646,0.646c0,0.376-0.301,0.631-0.646,0.631h-1.573v4.511c0,0.566,0.358,0.883,0.793,0.883
	c0.227,0,0.646-0.061,0.795-0.061c0.274,0,0.631,0.229,0.631,0.63c0,0.312-0.217,0.587-0.545,0.644
	c-0.293,0.047-0.588,0.078-0.881,0.078c-1.164,0-2.113-0.91-2.113-2.205V181.033z M278.596,181.198c0-0.458,0.367-0.825,0.825-0.825
	s0.826,0.367,0.826,0.825c0,0.454-0.363,0.841-0.826,0.841S278.596,181.652,278.596,181.198z M278.759,184.031
	c0-0.35,0.291-0.661,0.662-0.661s0.661,0.312,0.661,0.661v6.789c0,0.369-0.292,0.66-0.661,0.66s-0.662-0.291-0.662-0.66V184.031z
	 M271.588,184.238l-0.036-0.209c0-0.348,0.271-0.66,0.66-0.66c0.274,0,0.527,0.178,0.623,0.445l1.74,5.264l1.612-5.241
	c0.078-0.272,0.33-0.468,0.61-0.468c0.356,0,0.677,0.25,0.677,0.66l-0.037,0.207l-2.129,6.703c-0.094,0.318-0.393,0.541-0.729,0.541
	c-0.34,0-0.621-0.225-0.714-0.523L271.588,184.238z M268.779,181.198c0-0.458,0.367-0.825,0.826-0.825s0.824,0.367,0.824,0.825
	c0,0.454-0.361,0.841-0.824,0.841S268.779,181.652,268.779,181.198z M268.943,184.031c0-0.35,0.291-0.661,0.662-0.661
	s0.66,0.312,0.66,0.661v6.789c0,0.369-0.291,0.66-0.66,0.66s-0.662-0.291-0.662-0.66V184.031z M263.895,181.033
	c0-0.368,0.293-0.66,0.66-0.66c0.368,0,0.661,0.292,0.661,0.66v2.486h1.572c0.351,0,0.646,0.273,0.646,0.646
	c0,0.376-0.302,0.631-0.646,0.631h-1.572v4.511c0,0.566,0.357,0.883,0.793,0.883c0.226,0,0.646-0.061,0.794-0.061
	c0.273,0,0.631,0.229,0.631,0.63c0,0.312-0.218,0.587-0.545,0.644c-0.293,0.047-0.589,0.078-0.88,0.078
	c-1.165,0-2.114-0.91-2.114-2.205V181.033L263.895,181.033z M257.555,186.264c0-1.717,1.16-2.894,2.895-2.894
	c0.712,0,1.395,0.155,2.029,0.465c0.23,0.116,0.369,0.349,0.369,0.585c0,0.363-0.303,0.631-0.662,0.631
	c-0.095,0-0.193-0.021-0.285-0.057c-0.465-0.233-0.955-0.377-1.451-0.377c-0.996,0-1.573,0.578-1.573,1.572v2.473
	c0,0.996,0.577,1.572,1.573,1.572c0.496,0,1.014-0.143,1.445-0.358c0.071-0.036,0.187-0.076,0.291-0.076
	c0.344,0,0.662,0.267,0.662,0.632c0,0.254-0.142,0.469-0.369,0.584c-0.636,0.311-1.317,0.465-2.029,0.465
	c-1.733,0-2.895-1.176-2.895-2.894V186.264z M254.887,184.031c0-0.35,0.288-0.661,0.66-0.661c0.371,0,0.661,0.312,0.661,0.661v6.264
	c0,0.363-0.233,0.691-0.567,0.803c-0.733,0.245-1.516,0.383-2.312,0.383c-1.776,0-2.896-1.147-2.896-2.894v-4.556
	c0-0.35,0.291-0.661,0.662-0.661s0.66,0.312,0.66,0.661v4.63c0,0.996,0.576,1.571,1.572,1.571c0.531,0,1.062-0.075,1.559-0.215
	V184.031L254.887,184.031z M244.562,188.661c0,0.997,0.58,1.571,1.559,1.571c0.545,0,1.077-0.075,1.572-0.215v-4.886
	c-0.422-0.368-0.976-0.516-1.572-0.516c-0.979,0-1.559,0.575-1.559,1.571V188.661z M243.242,188.587v-2.323
	c0-1.746,1.131-2.894,2.879-2.894c0.556,0,1.087,0.129,1.572,0.354v-2.691c0-0.368,0.293-0.66,0.662-0.66
	c0.367,0,0.66,0.292,0.66,0.66v9.262c0,0.365-0.236,0.693-0.584,0.805c-0.734,0.244-1.498,0.381-2.312,0.381
	C244.402,191.48,243.242,190.303,243.242,188.587z M240.725,186.339c0-1.087-0.623-1.723-1.707-1.723s-1.707,0.636-1.707,1.723
	v2.175c0,1.086,0.623,1.721,1.707,1.721s1.707-0.635,1.707-1.721V186.339z M242.045,188.438c0,1.807-1.221,3.043-3.027,3.043
	c-1.81,0-3.029-1.236-3.029-3.043v-2.022c0-1.808,1.221-3.044,3.029-3.044c1.808,0,3.027,1.236,3.027,3.044V188.438z
	 M231.867,185.589c0-1.341,0.951-2.219,2.113-2.219c0.371,0,0.74,0.045,1.108,0.123c0.317,0.06,0.527,0.351,0.527,0.644
	c0,0.361-0.302,0.631-0.661,0.631c-0.512-0.092-0.729-0.121-0.977-0.121c-0.433,0-0.791,0.314-0.791,0.898v5.275
	c0,0.369-0.293,0.66-0.66,0.66c-0.368,0-0.661-0.291-0.661-0.66L231.867,185.589L231.867,185.589z M227.957,185.589
	c0.613,0,1.098-0.185,1.424-0.498c0.291-0.293,0.463-0.759,0.463-1.329c0-0.615-0.186-1.098-0.511-1.422
	c-0.325-0.326-0.794-0.511-1.376-0.511h-1.842v3.76H227.957L227.957,185.589z M224.764,181.378c0-0.474,0.383-0.854,0.854-0.854
	h2.366c0.934,0,1.725,0.295,2.312,0.884c0.587,0.587,0.897,1.405,0.897,2.354c0,0.918-0.297,1.709-0.854,2.266
	c-0.588,0.572-1.395,0.867-2.355,0.867h-1.871v3.926c0,0.373-0.312,0.66-0.676,0.66c-0.362,0-0.676-0.287-0.676-0.66v-9.442H224.764
	z M220.777,191.48c-0.476,0-0.869-0.399-0.869-0.887c0-0.49,0.398-0.869,0.869-0.869c0.483,0,0.887,0.377,0.887,0.869
	C221.664,191.084,221.266,191.48,220.777,191.48z M215.159,187.604c-0.741-0.315-1.396-0.9-1.396-2.043
	c0-1.357,1.193-2.189,2.578-2.189c0.756,0,1.363,0.154,1.891,0.388c0.246,0.113,0.404,0.345,0.404,0.617
	c0,0.368-0.309,0.616-0.662,0.616c-0.086,0-0.17-0.023-0.254-0.059c-0.429-0.199-0.949-0.316-1.498-0.316
	c-0.562,0-1.139,0.267-1.139,0.898c0,0.51,0.352,0.77,0.654,0.894l1.408,0.569c0.941,0.377,1.595,1.144,1.595,2.133
	c0,1.338-1.097,2.369-2.55,2.369c-0.803,0-1.453-0.17-2.041-0.447c-0.248-0.115-0.389-0.333-0.389-0.602
	c0-0.359,0.284-0.632,0.661-0.632c0.736,0.277,1.242,0.435,1.813,0.435c0.658,0,1.183-0.385,1.183-0.957
	c0-0.549-0.256-0.834-0.853-1.09L215.159,187.604z M211.245,186.188c0-0.996-0.578-1.571-1.558-1.571
	c-0.545,0-1.064,0.077-1.571,0.218v4.885c0.422,0.368,0.976,0.516,1.571,0.516c0.979,0,1.558-0.575,1.558-1.572V186.188z
	 M206.794,184.555c0-0.369,0.24-0.676,0.578-0.801c0.737-0.261,1.521-0.383,2.313-0.383c1.719,0,2.879,1.178,2.879,2.893v2.324
	c0,1.717-1.16,2.895-2.879,2.895c-0.556,0-1.086-0.129-1.57-0.355v2.887c0,0.368-0.295,0.661-0.662,0.661
	c-0.368,0-0.659-0.293-0.659-0.661V184.555z M203.346,181.198c0-0.458,0.367-0.825,0.826-0.825c0.458,0,0.825,0.367,0.825,0.825
	c0,0.454-0.363,0.841-0.825,0.841C203.709,182.039,203.346,181.652,203.346,181.198z M203.512,184.031
	c0-0.35,0.289-0.661,0.66-0.661s0.66,0.312,0.66,0.661v6.789c0,0.369-0.292,0.66-0.66,0.66c-0.367,0-0.66-0.291-0.66-0.66V184.031z
	 M200.303,186.188c0-0.996-0.576-1.571-1.556-1.571c-0.586,0-1.144,0.21-1.573,0.591v5.611c0,0.369-0.292,0.662-0.66,0.662
	c-0.369,0-0.66-0.293-0.66-0.662v-9.785c0-0.368,0.291-0.66,0.66-0.66c0.368,0,0.66,0.292,0.66,0.66v2.691
	c0.486-0.227,1.018-0.354,1.573-0.354c1.717,0,2.878,1.178,2.878,2.894v4.555c0,0.369-0.292,0.662-0.661,0.662
	c-0.366,0-0.661-0.293-0.661-0.662V186.188L200.303,186.188z M190.984,187.604c-0.741-0.315-1.396-0.9-1.396-2.043
	c0-1.357,1.194-2.189,2.579-2.189c0.759,0,1.362,0.154,1.892,0.388c0.244,0.113,0.404,0.345,0.404,0.617
	c0,0.368-0.309,0.616-0.662,0.616c-0.085,0-0.17-0.023-0.254-0.059c-0.428-0.199-0.949-0.316-1.499-0.316
	c-0.562,0-1.138,0.267-1.138,0.898c0,0.51,0.352,0.77,0.654,0.894l1.41,0.569c0.939,0.377,1.592,1.144,1.592,2.133
	c0,1.338-1.096,2.369-2.549,2.369c-0.804,0-1.453-0.17-2.043-0.447c-0.248-0.115-0.388-0.333-0.388-0.602
	c0-0.359,0.284-0.632,0.662-0.632c0.735,0.277,1.242,0.435,1.812,0.435c0.658,0,1.184-0.385,1.184-0.957
	c0-0.549-0.254-0.834-0.852-1.09L190.984,187.604z M185.392,185.589c0-1.341,0.95-2.219,2.114-2.219c0.37,0,0.739,0.045,1.107,0.123
	c0.318,0.06,0.527,0.351,0.527,0.644c0,0.361-0.303,0.631-0.662,0.631c-0.511-0.092-0.729-0.121-0.974-0.121
	c-0.435,0-0.792,0.314-0.792,0.898v5.275c0,0.369-0.294,0.66-0.662,0.66c-0.367,0-0.66-0.291-0.66-0.66L185.392,185.589
	L185.392,185.589z M182.574,186.188c0-0.996-0.578-1.571-1.559-1.571c-0.995,0-1.572,0.577-1.572,1.571v0.465h3.131V186.188
	L182.574,186.188z M179.443,187.898v0.688c0,1.004,0.586,1.646,1.572,1.646c0.571,0,1.121-0.172,1.652-0.407
	c0.086-0.034,0.168-0.058,0.268-0.058c0.359,0,0.66,0.27,0.66,0.631c0,0.254-0.14,0.471-0.367,0.584
	c-0.698,0.342-1.441,0.496-2.213,0.496c-1.732,0-2.895-1.177-2.895-2.894v-2.324c0-1.716,1.162-2.893,2.895-2.893
	c1.721,0,2.881,1.178,2.881,2.893v0.78c0,0.475-0.383,0.855-0.855,0.855h-3.598V187.898z M175.377,186.188
	c0-0.996-0.579-1.571-1.559-1.571c-0.545,0-1.077,0.077-1.573,0.217v5.985c0,0.369-0.293,0.662-0.661,0.662
	s-0.661-0.293-0.661-0.662v-6.264c0-0.369,0.24-0.677,0.579-0.802c0.724-0.261,1.507-0.383,2.316-0.383
	c1.718,0,2.88,1.178,2.88,2.894v4.555c0,0.369-0.293,0.662-0.66,0.662c-0.369,0-0.661-0.293-0.661-0.662V186.188z M166.185,181.033
	c0-0.368,0.293-0.66,0.661-0.66c0.368,0,0.661,0.292,0.661,0.66v2.486h1.573c0.351,0,0.646,0.273,0.646,0.646
	c0,0.376-0.302,0.631-0.646,0.631h-1.573v4.511c0,0.566,0.358,0.883,0.793,0.883c0.226,0,0.645-0.061,0.796-0.061
	c0.274,0,0.63,0.229,0.63,0.63c0,0.312-0.218,0.587-0.546,0.644c-0.292,0.047-0.587,0.078-0.88,0.078
	c-1.165,0-2.115-0.91-2.115-2.205V181.033L166.185,181.033z M161.464,185.589c0-1.341,0.951-2.219,2.115-2.219
	c0.37,0,0.738,0.045,1.108,0.123c0.316,0.06,0.526,0.351,0.526,0.644c0,0.361-0.302,0.631-0.661,0.631
	c-0.511-0.092-0.729-0.121-0.974-0.121c-0.434,0-0.793,0.314-0.793,0.898v5.275c0,0.369-0.293,0.66-0.66,0.66
	c-0.369,0-0.662-0.291-0.662-0.66L161.464,185.589L161.464,185.589z M158.572,187.854h-1.557c-1.437,0-1.572,0.643-1.572,1.168
	c0,0.531,0.142,1.211,1.572,1.211c0.53,0,1.062-0.075,1.557-0.215V187.854z M159.894,190.295c0,0.365-0.235,0.693-0.584,0.805
	c-0.733,0.243-1.498,0.381-2.295,0.381c-0.937,0-1.683-0.229-2.184-0.684c-0.475-0.424-0.711-1.038-0.711-1.775
	c0-0.739,0.239-1.336,0.709-1.774c0.506-0.457,1.256-0.64,2.186-0.64h1.557v-0.793c0-0.772-0.545-1.197-1.437-1.197
	c-0.567,0-1.094,0.169-1.647,0.488c-0.088,0.054-0.189,0.096-0.316,0.096c-0.334,0-0.66-0.23-0.66-0.631
	c0-0.233,0.119-0.446,0.325-0.578c0.733-0.452,1.542-0.622,2.299-0.622c1.458,0,2.759,0.787,2.759,2.429L159.894,190.295
	L159.894,190.295z M150.511,185.589c0.614,0,1.096-0.185,1.423-0.498c0.294-0.293,0.464-0.759,0.464-1.329
	c0-0.615-0.186-1.098-0.511-1.422c-0.326-0.326-0.795-0.511-1.376-0.511h-1.843v3.76H150.511L150.511,185.589z M147.318,181.378
	c0-0.474,0.382-0.854,0.854-0.854h2.368c0.933,0,1.723,0.295,2.311,0.884c0.587,0.587,0.898,1.405,0.898,2.354
	c0,0.918-0.297,1.709-0.854,2.266c-0.588,0.572-1.394,0.867-2.354,0.867h-1.872v3.926c0,0.373-0.313,0.66-0.676,0.66
	c-0.363,0-0.675-0.287-0.675-0.66V181.378z"/>
</svg>
