<?xml version="1.0" encoding="utf-8"?>
<!-- Generator: Adobe Illustrator 16.0.0, SVG Export Plug-In . SVG Version: 6.00 Build 0)  -->
<!DOCTYPE svg PUBLIC "-//W3C//DTD SVG 1.1//EN" "http://www.w3.org/Graphics/SVG/1.1/DTD/svg11.dtd">
<svg version="1.1" id="Layer_1" xmlns="http://www.w3.org/2000/svg" xmlns:xlink="http://www.w3.org/1999/xlink" x="0px" y="0px"
	 width="48px" height="22.5px" viewBox="0 0 48 22.5" enable-background="new 0 0 48 22.5" xml:space="preserve">
<path fill="#E4E4E4" d="M3.582,19.653c1.54-5.615,8.596-12.991,19.396-16.557H2.403v16.557H3.582z"/>
<path fill="#9FA0A0" d="M34.299,3.097c-15.479,0-27.882,9.034-30.565,16.556h40.708V3.097H34.299z"/>
<path fill="#FFFFFF" d="M25.57,15.995c-0.264-0.102-0.486-0.307-0.588-0.58c-0.351,0.393-0.726,0.511-1.187,0.511
	c-0.989,0-1.432-0.528-1.432-1.278c0-0.998,0.75-1.5,2.131-1.5h0.29v-0.23c0-0.494-0.084-0.759-0.597-0.759
	c-0.622,0-1.287,0.495-1.287,0.495l-0.418-0.673c0.648-0.41,1.187-0.589,1.833-0.589c0.674,0,1.125,0.248,1.313,0.717
	c0.077,0.187,0.077,0.417,0.066,1.057L25.682,14.4c-0.009,0.58,0.043,0.767,0.375,0.998L25.57,15.995z M24.6,13.778
	c-0.938,0-1.221,0.273-1.221,0.817c0,0.409,0.222,0.648,0.598,0.648c0.299,0,0.587-0.162,0.775-0.435l0.018-1.022
	C24.77,13.787,24.667,13.778,24.6,13.778"/>
<path fill="#FFFFFF" d="M28.887,12.32c-0.094-0.034-0.162-0.06-0.273-0.06c-0.393,0-0.725,0.29-0.811,0.64v2.916h-0.929v-3.043
	c0-0.546-0.06-0.896-0.153-1.16l0.86-0.221c0.104,0.196,0.163,0.443,0.163,0.681c0.34-0.468,0.682-0.69,1.099-0.69
	c0.136,0,0.224,0.017,0.333,0.068L28.887,12.32z"/>
<path fill="#FFFFFF" d="M33.795,11.911c-0.271,0.239-0.546,0.281-0.751,0.281c-0.119,0-0.213-0.017-0.323-0.042
	c0.246,0.29,0.272,0.597,0.272,0.742c0,0.367-0.128,0.648-0.351,0.87c-0.322,0.324-0.817,0.47-1.287,0.46
	c-0.018,0.01-0.203,0.078-0.365,0.171c-0.086,0.052-0.215,0.136-0.215,0.239c0,0.051,0.019,0.085,0.043,0.11
	c0.033,0.034,0.121,0.052,0.385,0.06l0.443,0.008c0.426,0.008,0.955,0.026,1.319,0.401c0.163,0.162,0.317,0.417,0.317,0.827
	c0,0.443-0.18,0.733-0.359,0.912c-0.298,0.298-0.818,0.502-1.576,0.502c-0.605,0-1.271-0.119-1.627-0.477
	c-0.23-0.229-0.283-0.494-0.283-0.7c0-0.152,0.035-0.324,0.086-0.46h0.826c-0.009,0.051-0.017,0.146-0.017,0.213
	c0,0.129,0.017,0.342,0.181,0.495c0.211,0.205,0.586,0.222,0.766,0.222c0.479,0,0.74-0.136,0.879-0.282
	c0.109-0.119,0.152-0.247,0.152-0.392c0-0.197-0.076-0.307-0.145-0.375c-0.096-0.085-0.266-0.171-0.614-0.205
	c-0.137-0.009-0.264-0.018-0.399-0.018c-0.18,0-0.358,0-0.539-0.017c-0.526-0.042-0.697-0.179-0.758-0.231
	c-0.127-0.119-0.152-0.272-0.152-0.391c0-0.171,0.033-0.298,0.169-0.435c0.171-0.17,0.505-0.281,0.647-0.324
	c-0.375-0.103-0.597-0.316-0.647-0.358c-0.246-0.247-0.332-0.537-0.332-0.87c0-0.417,0.153-0.725,0.358-0.946
	c0.281-0.307,0.769-0.511,1.354-0.511c0.386,0,0.674,0.084,0.86,0.136c0.137,0.035,0.299,0.085,0.479,0.085
	c0.271,0,0.555-0.111,0.768-0.298L33.795,11.911z M31.809,12.286c-0.17-0.171-0.426-0.188-0.555-0.188
	c-0.16,0-0.393,0.034-0.555,0.196c-0.17,0.179-0.186,0.418-0.186,0.554c0,0.17,0.023,0.392,0.194,0.554
	c0.171,0.162,0.417,0.179,0.545,0.179c0.119,0,0.375-0.008,0.554-0.188c0.172-0.17,0.188-0.426,0.188-0.554
	C31.996,12.669,31.963,12.439,31.809,12.286"/>
<path fill="#FFFFFF" d="M37.203,15.952c-0.188-0.136-0.299-0.291-0.375-0.554c-0.314,0.357-0.732,0.528-1.229,0.528
	c-0.486,0-0.861-0.171-1.074-0.426c-0.17-0.205-0.238-0.486-0.238-1.023v-2.908l0.929-0.17v2.891c0,0.537,0.077,0.93,0.606,0.93
	c0.308,0,0.691-0.256,0.835-0.563V11.57l0.93-0.17v3.249c0,0.648,0.265,0.861,0.265,0.861L37.203,15.952z"/>
<path fill="#FFFFFF" d="M40.175,15.935c-0.528,0-1.101-0.17-1.653-0.478l0.332-0.673c0.385,0.221,0.912,0.453,1.398,0.453
	c0.408,0,0.698-0.248,0.698-0.605c0-0.332-0.214-0.503-0.698-0.606l-0.521-0.11c-0.646-0.136-1.03-0.58-1.03-1.186
	c0-0.809,0.646-1.338,1.603-1.338c0.588,0,1.057,0.179,1.424,0.376l-0.307,0.648c-0.4-0.222-0.718-0.325-1.059-0.325
	c-0.4,0-0.655,0.188-0.655,0.521c0,0.272,0.146,0.409,0.58,0.52l0.537,0.136c0.868,0.222,1.1,0.699,1.1,1.203
	C41.923,15.338,41.216,15.935,40.175,15.935"/>
<polyline fill="none" points="46.199,3.097 2.403,3.097 2.403,28.977 "/>
</svg>
