<?xml version="1.0" encoding="utf-8"?>
<!-- Generator: Adobe Illustrator 16.0.0, SVG Export Plug-In . SVG Version: 6.00 Build 0)  -->
<!DOCTYPE svg PUBLIC "-//W3C//DTD SVG 1.1//EN" "http://www.w3.org/Graphics/SVG/1.1/DTD/svg11.dtd">
<svg version="1.1" id="Layer_1" xmlns="http://www.w3.org/2000/svg" xmlns:xlink="http://www.w3.org/1999/xlink" x="0px" y="0px"
	 width="306px" height="279.5px" viewBox="0 0 306 279.5" enable-background="new 0 0 306 279.5" xml:space="preserve">
<g>
	<g>
		<g>
			<g>
				<defs>
					<rect id="SVGID_1_" x="35.162" y="19.25" width="235.676" height="235.293"/>
				</defs>
				<clipPath id="SVGID_2_">
					<use xlink:href="#SVGID_1_"  overflow="visible"/>
				</clipPath>
				<path clip-path="url(#SVGID_2_)" fill="#918F8D" d="M254.355,178.897c0,0-2.152-3.1-1.196-5.248
					c0.96-2.386,1.675-3.105,0.715-4.776c-0.949-1.673-1.43-2.388-2.863-3.105l-0.237-2.387c0,0,0.718-0.951,1.911,0.482
					c1.192,1.434,1.192,2.384,1.914,2.625c0.482,0.238,1.43-0.957,1.43-2.148c0-1.431-0.477-2.867-1.906-3.582c-1.438-0.96,0,0,0,0
					s-1.676-0.96-1.915-1.91c-0.235-1.194-0.477-3.102,0.954-2.387l2.39,2.387c0.719,0.948,1.67,1.195,1.67-0.482
					c0.245-1.907,0.715-2.863-0.716-4.062c0,0-2.151-1.906-2.866-2.384c0,0-0.954-2.148,0.234-2.148
					c1.202,0,1.914-0.236,2.394,0.718c0.238,0.716,0,1.672,0.719,1.672c0.95,0,1.672-0.724,1.672-1.672
					c0.232-0.954,0.712-1.437,0-2.384c-0.722-0.719-3.108-2.632-3.823-3.585c0,0-1.195-1.669-0.239-1.913
					c0.954-0.479,1.431-0.956,1.91,0.239c0.716,0.953,1.431,1.909,1.913,2.148c0.712,0.238,1.192-0.719,1.192-2.148
					c0,0,0.724-2.628,0-3.103c-0.949-0.481-3.818-1.912-4.06-2.63c-0.24-0.718,0-2.148,0.954-1.914
					c0.716,0.245,1.194,0.715,1.913,1.437c0.951,0.715,1.669,1.195,1.916,0.957c0.474-0.242,0.474-5.257-0.242-5.73
					c-0.481-0.242-3.102-1.196-3.581-1.917c-0.957-0.712-0.957-2.857-0.239-2.857c0.719,0,2.149,0.95,2.626,1.43
					c0.715,0.715,1.195,0.957,1.195,0.957s1.671-2.867,0.715-4.304c-1.195-1.43-3.814-2.387-4.297-2.864
					c-0.719-0.718-1.91-2.625-0.955-2.867c0.719,0,1.67,0.48,2.867,1.195c0.951,0.718,1.192,1.199,1.67,0.718
					c0.241-0.718,0.476-3.347,0-3.819c-0.48-0.48-2.389-1.196-3.582-1.914c-1.195-0.715-2.385-1.434-1.67-2.148
					c0.715-0.715,0.24-1.192,1.67-0.957c0,0,1.43,1.672,2.152,1.672c0.711-0.234,0.711-0.715,0.711-0.715s0-2.625-0.477-2.867
					c-0.477-0.478-3.344-2.146-4.297-2.146c-0.957,0-1.672-1.914-1.192-1.914c0.715-0.235,0.95-1.196,1.431-0.95
					c0.477,0,1.191,1.666,1.672,1.666c0.715,0,1.191-0.235,1.191-0.235l-0.231-3.347c0,0-1.679-0.95-2.872-0.95
					c-0.955-0.242-2.868-1.195-2.63-1.914c0.232-0.953,0.955-1.911,1.907-1.434l2.151,0.96c0,0,0.483-0.96,0-1.671
					c-0.714-0.96-0.948-2.867-2.621-3.108c-1.438-0.238-3.582-0.238-3.824-0.953c-0.235-0.715-0.957-2.148,0.242-2.387
					c1.43-0.238,1.906,1.196,2.381,0.953c0.722-0.238,0.955-0.238,0.955-0.238s0.481-3.582-1.43-4.535
					c-2.149-0.715-4.059,0.238-4.774-0.715c-0.481-0.96-1.2-1.672,0.233-1.914c1.675,0,3.108,0,3.108-0.474
					c0.238-0.48-0.956-3.347-2.148-3.582c-1.434-0.245-3.104-0.245-3.582-0.48c-0.48-0.241-2.39-1.671-1.199-2.152
					c1.199-0.477,1.434,0,2.148,0.245c0.48,0.47,1.199,0.235,1.199,0.235s-0.241-4.297-1.671-4.539c0,0-3.345,0.477-4.542-0.477
					c0,0-1.907-1.668-0.949-1.668c0.949-0.242,1.912-0.242,2.627,0c0.719,0.235,1.438-1.195,0.719-1.671
					c-0.719-0.715-1.197-1.914-2.151-2.387c-1.194-0.241-4.294,0.235-4.776,0c-0.722-0.48-0.239-2.152,0.951-1.675
					c1.438,0.48,2.387,0.242,2.387,0.242s0-2.867-3.103-2.629c0,0-4.3,0.48-3.581-0.953c0.482-1.195,1.193-0.718,2.387-0.957
					c0.956-0.238,1.437-2.625-1.907-3.582c0,0-3.347,0.477-4.062,0.238c0,0-0.954-0.718-0.482-0.953
					c0.482-0.48,3.111-0.96,3.111-0.96s-0.957-2.863-2.631-2.863h-4.534c0,0-1.199-1.188,1.434-1.911c0,0-1.671-1.43-1.671-2.864
					c0-1.433,1.671-0.473,2.621,0.242c1.2,0.712,1.431,1.907,1.912,1.192s0.481-2.625,1.67-2.625c0.957,0,0.724,3.82,0.724,4.535
					s-0.242,0.957,0.479,1.43c0.712,0.722,1.905,1.192,1.905,0.477c0.237-0.477,0.237-2.622,0.952-2.867
					c0.955-0.235,1.673,0.722,1.196,2.867c-0.481,2.152-0.715,2.386,0.24,3.823c1.193,1.195,1.672,1.43,2.146,1.43
					c0.718-0.235,0.955-2.622,0.955-3.337c0,0,2.148,0.234,1.43,2.145c-0.715,2.152-1.667,3.582-0.715,4.773
					c0.956,1.199,1.196,2.152,1.675,2.152c0.715,0,2.383-2.386,2.627-3.582c0,0,1.667,0.715,0,3.816c0,0-1.193,0.96-0.475,2.394
					c0,0,1.188,2.386,1.903,2.386c0,0,1.438-1.434,2.153-3.582c0,0,2.151,0.715,0.948,3.102c0,0-1.665,1.433-1.192,3.347
					c0,0,1.671,2.864,1.671,3.337c0,0,0.723,1.195,1.911,0c0,0,0.48-3.816,1.671-3.337c1.192,0.235,0.956,2.142,0,3.337
					c-0.715,1.437-2.145,2.631-1.192,4.774c0,0,0.478,2.393,1.667,2.393c0,0,0.715,0.238,1.675-1.914c0,0,1.907-2.867,2.152-0.949
					c0,0,0.233,1.668-0.481,2.387c-0.481,0.477-2.152,1.91-2.152,2.863c0.241,0.954,0.481,1.911,0.481,2.387
					c0.24,0.48,0.716,2.867,0.952,2.867c0.481,0,1.2-0.48,2.148-2.148c0,0,0.956-1.914,1.671-1.196c0,0,1.196,1.911-0.48,3.582
					c0,0-1.663,0.715-1.907,1.914c0,0,0.477,4.297,0.955,5.008c0,0,1.193,0.48,2.152-0.477c0,0,0-1.668,0.475-1.668
					c0.718-0.241,3.818-1.433,0.955,2.86c0,0-2.632,1.675-2.152,3.582c0,0,0.723,2.387,0.952,2.867c0,0,1.2-0.235,2.157-1.43
					c0,0,1.425-2.386,2.145-1.192c0,0,1.195,1.671-1.43,3.337c0,0-1.672,1.199-1.912,1.671c0,0,0.474,3.582,0.474,4.301
					c0,0,0.481,0.238,1.438-0.477c0,0,0.71-1.671,2.151-1.911c0,0,2.86,0,0.233,2.625c0,0-2.383,2.629-3.098,2.867
					c0,0-0.241,0.715,0,1.434c0,0.477,0.234,2.625,0.234,3.102c0.236,0.48-0.234,0.715,1.191-0.238
					c1.199-0.953,1.441-1.668,2.632-2.386c1.192-0.477,2.141,1.671,0.715,2.867c-1.434,1.192,0,0,0,0s-3.349,1.91-3.823,3.34
					c-0.478,1.196-0.715,4.777,0,4.777s2.39-1.43,3.108-2.145c0.474-0.48,3.578,0.95,0.948,2.622c0,0-3.582,2.867-4.059,3.348
					c-0.715,0.47,0.244,3.337-0.233,4.055c0,0,1.429,0,3.101-0.953c0,0,4.062-0.715,0.715,1.907c0,0-2.627,1.433-3.815,1.674
					l-0.716,0.952c0,0-0.241,3.582-0.478,4.539c0,0.715,0.712,0.234,1.903-0.481c1.441-0.718,2.871-1.433,3.349-0.952
					c0.478,0.715,0.478,2.863-1.675,3.101c-1.904,0.481-3.342,1.434-3.82,1.915c-0.474,0.479-0.234,3.345-0.715,4.06
					c0,0,1.911,0,3.102-0.956c1.434-0.716,2.867-1.197,2.631-0.233c0,0,0.232,1.67-1.916,2.385c0,0-3.104,0.715-3.818,1.672
					c0,0-1.193,1.665-1.43,2.385v2.627c0,0,2.867-1.43,4.064-1.675c1.429-0.233,2.622,1.915-0.244,2.867
					c-2.863,0.96-4.539,0.96-5.009,1.915c-0.482,0.715,0,2.385-0.242,3.1c0,0.954,1.434-0.477,2.388-0.951
					c1.191-0.241,2.863,0.715,1.437,1.434c-1.2,0.951-2.152,1.907-3.582,2.385c-1.437,0.481-2.151,2.387-2.391,3.82
					c-0.479,1.667-0.718,3.104-0.956,3.585c-0.235,0.715-0.477,1.43-0.477,1.43L254.355,178.897z"/>
			</g>
		</g>
	</g>
	<g>
		<g>
			<g>
				<defs>
					<rect id="SVGID_3_" x="35.162" y="19.25" width="235.676" height="235.293"/>
				</defs>
				<clipPath id="SVGID_4_">
					<use xlink:href="#SVGID_3_"  overflow="visible"/>
				</clipPath>
				<path clip-path="url(#SVGID_4_)" fill="#918F8D" d="M52.588,178.897c0,0,2.151-3.1,1.199-5.248
					c-0.96-2.386-1.675-3.105-0.719-4.776c0.953-1.673,1.433-2.388,2.863-3.105l0.477-2.387c0,0-0.715-0.951-1.907,0.482
					c-1.195,1.434-1.433,2.384-1.913,2.625c-0.715,0.238-1.43-0.957-1.668-2.148c0-1.431,0.474-2.867,1.907-3.582
					c1.674-0.96,0,0,0,0s1.674-0.96,1.914-1.91c0.235-1.194,0.48-3.102-0.953-2.387c0,0-1.434,1.43-2.152,2.387
					c-0.957,0.948-2.148,1.195-2.148-0.482c0-1.907-0.715-2.863,0.715-4.062c0,0,2.387-1.906,3.344-2.384
					c0,0,0.715-2.148-0.478-2.148c-1.195,0-1.91-0.236-2.39,0.718c-0.238,0.716,0,1.672-0.953,1.672
					c-0.953,0-1.434-0.724-1.672-1.672c-0.238-0.954-0.715-1.437,0-2.384c0.719-0.719,3.34-2.632,4.301-3.585
					c0,0,1.191-1.669,0-1.913c-0.96-0.479-1.434-0.956-2.152,0.239c-0.715,0.953-1.43,1.909-1.91,2.148
					c-0.715,0.238-1.192-0.719-1.192-2.148c0,0-0.715-2.391,0.238-3.103c0.715-0.481,3.82-1.912,4.056-2.63
					c0.241-0.718,0-2.148-0.953-1.914c-0.954,0.245-1.434,0.715-2.148,1.437c-0.954,0.715-1.672,1.195-1.907,0.957
					c-0.48-0.242-0.241-5.257,0.234-5.73c0.48-0.242,3.105-1.196,4.059-1.917c0.715-0.712,0.715-2.857,0-2.857
					c-0.953,0-2.145,0.95-2.863,1.43c-0.477,0.715-1.196,0.957-1.196,0.957s-1.668-2.867-0.715-4.304
					c1.195-1.43,3.82-2.387,4.535-2.864c0.953-0.718,1.914-2.625,1.195-2.867c-0.957,0-2.148,0.48-3.344,1.195
					c-0.953,0.718-1.192,1.199-1.433,0.718c-0.474-0.718-0.715-3.347,0-3.819c0.48-0.48,2.148-1.196,3.582-1.914
					c1.195-0.715,2.628-1.434,1.914-2.148c-0.719-0.715-0.242-1.192-1.914-0.957c0,0-1.668,1.672-2.387,1.672
					c-0.715-0.234-0.715-0.715-0.715-0.715s0.238-2.625,0.477-2.867c0.477-0.478,3.82-2.146,4.539-2.146
					c0.953,0,1.907-1.914,1.192-1.914c-0.478-0.235-0.957-1.196-1.434-0.95c-0.477,0-1.192,1.666-1.911,1.666
					c-0.477,0-1.195-0.235-1.195-0.235l0.241-3.347c0,0,1.911-0.95,3.104-0.95c0.954-0.242,2.867-1.195,2.623-1.914
					c-0.235-0.953-0.953-1.911-1.907-1.434l-2.148,0.96c0,0-0.48-0.96,0.238-1.671c0.477-0.96,0.953-2.867,2.386-3.108
					c1.43-0.238,3.582-0.238,3.82-0.953c0.477-0.715,0.957-2.148-0.238-2.387c-1.195-0.238-1.671,1.196-2.387,0.953
					c-0.48-0.238-0.953-0.238-0.953-0.238s-0.48-3.582,1.668-4.535c1.91-0.715,3.82,0.238,4.538-0.715
					c0.715-0.96,1.195-1.672-0.238-1.914c-1.434,0-2.867,0-3.108-0.474c-0.238-0.48,0.96-3.347,2.151-3.582
					c1.434-0.245,3.102-0.245,3.583-0.48c0.715-0.241,2.386-1.671,1.195-2.152c-1.195-0.477-1.434,0-2.149,0.245
					c-0.48,0.47-1.195,0.235-1.195,0.235s0.241-4.297,1.668-4.539c0,0,3.585,0.477,4.542-0.477c0,0,1.907-1.668,0.954-1.668
					c-0.954-0.242-1.911-0.242-2.629,0c-0.715,0.235-1.434-1.195-0.715-1.671c0.715-0.715,1.196-1.914,2.39-2.387
					c0.954-0.241,4.056,0.235,4.536,0c0.715-0.48,0.238-2.152-0.957-1.675c-1.433,0.48-2.386,0.242-2.386,0.242
					s0.238-2.867,3.102-2.629c0,0,4.3,0.48,3.582-0.953c-0.477-1.195-1.191-0.718-2.148-0.957c-0.953-0.238-1.671-2.625,1.672-3.582
					c0,0,3.344,0.477,4.059,0.238c0,0,1.195-0.718,0.48-0.953c-0.48-0.48-3.108-0.96-3.108-0.96s0.96-2.863,2.629-2.863h4.539
					c0,0,1.195-1.188-1.434-1.911c0,0,1.668-1.43,1.668-2.864c0.241-1.433-1.668-0.473-2.622,0.242
					c-0.957,0.712-1.434,1.907-1.914,1.192c-0.477-0.715-0.477-2.625-1.434-2.625c-1.192,0-0.953,3.82-0.953,4.535
					c0.238,0.957,0.238,0.957-0.48,1.43c-0.473,0.722-1.668,1.192-1.907,0.477c-0.238-0.477-0.238-2.622-0.953-2.867
					c-0.957-0.235-1.675,0.722-1.195,2.867c0.477,2.152,0.715,2.386-0.238,3.823c-1.196,1.195-1.675,1.43-2.148,1.43
					c-0.48-0.235-0.957-2.622-0.957-3.337c0,0-2.148,0.234-1.43,2.145c0.715,2.152,1.668,3.582,0.715,4.773
					c-0.715,1.199-0.957,2.152-1.671,2.152c-0.718,0-2.152-2.386-2.625-3.582c0,0-1.671,0.715,0,3.816c0,0,1.192,0.96,0.474,2.394
					c0,0-1.192,2.386-1.907,2.386c0,0-1.434-1.434-2.152-3.582c0,0-2.148,0.715-0.953,3.102c0,0,1.671,1.433,1.192,3.347
					c0,0-1.671,2.864-1.671,3.337c0,0-0.715,1.195-1.668,0c0,0-0.718-3.816-1.914-3.337c-1.192,0.235-0.953,2.142,0,3.337
					c0.715,1.437,2.387,2.631,1.196,4.774c0,0-0.235,2.393-1.668,2.393c0,0-0.718,0.238-1.675-1.914c0,0-2.148-2.867-2.386-0.949
					c0,0,0,1.668,0.477,2.387c0.718,0.477,2.387,1.91,2.387,2.863c-0.235,0.954-0.477,1.911-0.477,2.387
					c0,0.48-0.718,2.867-0.953,2.867c-0.48,0-1.434-0.48-2.387-2.148c0,0-0.956-1.914-1.671-1.196c0,0-1.195,1.911,0.478,3.582
					c0,0,1.671,0.715,1.91,1.914c0,0-0.238,4.297-0.953,5.008c0,0-1.196,0.48-2.148-0.477c0,0,0-1.668-0.48-1.668
					c-0.715-0.241-3.582-1.433-0.953,2.86c0,0,2.625,1.675,2.148,3.582c0,0-0.715,2.387-0.956,2.867c0,0-1.192-0.235-2.148-1.43
					c0,0-1.43-2.386-2.146-1.192c0,0-0.96,1.671,1.43,3.337c0,0,1.671,1.199,1.91,1.671c0,0-0.48,3.582-0.238,4.301
					c0,0-0.718,0.238-1.671-0.477c0,0-0.715-1.671-2.148-1.911c0,0-2.867,0-0.242,2.625c0,0,2.39,2.629,3.344,2.867
					c0,0,0,0.715-0.238,1.434c0,0.477-0.238,2.625-0.238,3.102c0,0.48,0.238,0.715-1.192-0.238c-1.195-0.953-1.195-1.668-2.39-2.386
					c-1.191-0.477-2.386,1.671-0.953,2.867c1.43,1.192,0,0,0,0s3.344,1.91,3.816,3.34c0.48,1.196,0.718,4.777,0,4.777
					c-0.715,0-2.387-1.43-2.864-2.145c-0.477-0.48-3.82,0.95-1.191,2.622c0,0,3.582,2.867,4.055,3.348
					c0.718,0.47,0,3.337,0.48,4.055c0,0-1.668,0-3.102-0.953c0,0-4.3-0.715-0.96,1.907c0,0,2.629,1.433,3.823,1.674L44,140.696
					c0,0,0.238,3.582,0.477,4.539c0.238,0.715-0.715,0.234-1.907-0.481c-1.195-0.718-2.867-1.433-3.108-0.952
					c-0.474,0.715-0.474,2.863,1.433,3.101c1.914,0.481,3.344,1.434,3.82,1.915c0.48,0.479,0.241,3.345,0.715,4.06
					c0,0-1.907,0-3.102-0.956c-1.192-0.716-2.867-1.197-2.625-0.233c0,0-0.242,1.67,2.152,2.385c0,0,2.86,0.715,3.575,1.672
					c0,0,1.195,1.665,1.433,2.385c0.241,0.716,0,2.627,0,2.627s-2.863-1.43-4.056-1.675c-1.433-0.233-2.629,1.915,0.235,2.867
					c2.867,0.96,4.539,0.96,5.015,1.915c0.48,0.715,0,2.385,0.238,3.1c0.241,0.954-1.434-0.477-2.387-0.951
					c-1.195-0.241-2.625,0.715-1.434,1.434c1.196,0.951,2.387,1.907,3.582,2.385c1.434,0.481,2.148,2.387,2.625,3.82
					c0.48,1.667,0.715,3.104,0.957,3.585c0.238,0.715,0.477,1.43,0.477,1.43L52.588,178.897z"/>
			</g>
		</g>
	</g>
	<g>
		<g>
			<g>
				<defs>
					<rect id="SVGID_5_" x="35.162" y="19.25" width="235.676" height="235.293"/>
				</defs>
				<clipPath id="SVGID_6_">
					<use xlink:href="#SVGID_5_"  overflow="visible"/>
				</clipPath>
				<path clip-path="url(#SVGID_6_)" fill="none" stroke="#918F8D" stroke-width="3.3164" stroke-miterlimit="10" d="
					M153.12,220.449c47.514,0,86.193-40.592,86.193-90.494c0-49.673-38.679-90.262-86.193-90.262
					c-47.521,0-86.204,40.589-86.204,90.262C66.916,179.857,105.598,220.449,153.12,220.449z"/>
			</g>
		</g>
	</g>
	<g>
		<g>
			<g>
				<defs>
					<rect id="SVGID_7_" x="35.162" y="19.25" width="235.676" height="235.293"/>
				</defs>
				<clipPath id="SVGID_8_">
					<use xlink:href="#SVGID_7_"  overflow="visible"/>
				</clipPath>
				<path clip-path="url(#SVGID_8_)" fill="#AEAEAE" d="M197.294,174.365c1.43-0.241,0.949-0.48,1.43-0.722
					c0,0.241,0.238,0.48,0.479,0.48c0.235,0,0.235-0.716,0.712-0.716h0.48c0.234,0,0.234,0,0.234,0.235v-0.477
					c0.716-0.238,0.716-0.719,1.438-0.719v0.243c0.479,0,0.238-0.243,0.238-0.48c0.477-0.482,0.241-0.957,0.715-0.957v0.479
					c0.477,0,0.238-1.909,1.191-1.427c-0.715-1.437-0.234-1.437,0-1.197c0.245,0,0.245,0.232,0.245,0.232
					c0.712-0.477,1.427-0.951,1.427-1.907c0-0.241-0.234-0.479-0.234-0.718c0.48,0,0.949-0.478,0.949-0.951
					c0.242,0.951,0.722,1.669,0.96,2.384c0.474,1.434,0.474,1.672,0.474,2.626v0.953c0.242,0,0.242,0.715,0.242,0.96
					c0,0.235-0.716,1.191-0.716,1.191c-0.238,0-0.482,0-0.482-0.241v-0.715c-0.482-0.232-0.235,0-0.235,0.482
					c0,0.479,0.235,1.194,0.235,1.194c0,0.715-0.715,1.194-0.949,1.43c-0.481,0.722,0.233,1.195-0.481,2.631
					c-0.722,0.949-0.955,2.148-1.437,3.337c-0.715,1.437-1.665,3.585-2.146,5.019c-0.24,0.715-1.67,3.582-1.915,4.535
					c-0.479,0.481-0.949,0.481-1.667,0.481c-0.715,0-1.67,1.191-2.148,0.714c-0.243-0.477-1.196-0.714-1.196-0.956
					c-0.48-0.236-0.714-1.192-0.714-1.67v-1.19v-0.718c0,0-0.238-0.481-0.238-0.715c-0.239-0.481,0-0.959,0-1.434
					c0-0.481,0.238-0.481,0.238-0.955c0.233-0.242,0.233-0.479,0.233-0.719c0.238-0.238,0.48-0.238,0.48-0.238
					c0.238-0.233,0.238-0.474,0.481-0.715c0.233-0.71,0.948-1.191,1.193-2.152c-0.24-0.948,0.237-0.232-0.24-1.191l-0.235-1.196
					v-2.146l0.957-1.67L197.294,174.365L197.294,174.365z"/>
			</g>
		</g>
	</g>
	<g>
		<g>
			<g>
				<defs>
					<rect id="SVGID_9_" x="35.162" y="19.25" width="235.676" height="235.293"/>
				</defs>
				<clipPath id="SVGID_10_">
					<use xlink:href="#SVGID_9_"  overflow="visible"/>
				</clipPath>
				<path clip-path="url(#SVGID_10_)" fill="#AEAEAE" d="M195.856,164.573l0.235,0.238c0,0.241,0.242,0.956,0.242,0.956h-0.242
					c-0.235-0.241-0.473-0.477-0.473-0.715C195.622,164.812,195.856,164.573,195.856,164.573"/>
			</g>
		</g>
	</g>
	<g>
		<g>
			<g>
				<defs>
					<rect id="SVGID_11_" x="35.162" y="19.25" width="235.676" height="235.293"/>
				</defs>
				<clipPath id="SVGID_12_">
					<use xlink:href="#SVGID_11_"  overflow="visible"/>
				</clipPath>
				<path clip-path="url(#SVGID_12_)" fill="#AEAEAE" d="M197.767,166.245l0.238-0.238c0,0.238,0.238,0.479,0,0.479
					S197.767,166.245,197.767,166.245"/>
			</g>
		</g>
	</g>
	<g>
		<g>
			<g>
				<defs>
					<rect id="SVGID_13_" x="35.162" y="19.25" width="235.676" height="235.293"/>
				</defs>
				<clipPath id="SVGID_14_">
					<use xlink:href="#SVGID_13_"  overflow="visible"/>
				</clipPath>
				<path clip-path="url(#SVGID_14_)" fill="#AEAEAE" d="M204.692,168.394v0.238h-0.233
					C204.457,168.394,204.692,168.394,204.692,168.394"/>
			</g>
		</g>
	</g>
	<g>
		<g>
			<g>
				<defs>
					<rect id="SVGID_15_" x="35.162" y="19.25" width="235.676" height="235.293"/>
				</defs>
				<clipPath id="SVGID_16_">
					<use xlink:href="#SVGID_15_"  overflow="visible"/>
				</clipPath>
				<path clip-path="url(#SVGID_16_)" fill="#AEAEAE" d="M199.2,167.678v-0.238C199.436,167.439,199.436,167.678,199.2,167.678"/>
			</g>
		</g>
	</g>
	<g>
		<g>
			<g>
				<defs>
					<rect id="SVGID_17_" x="35.162" y="19.25" width="235.676" height="235.293"/>
				</defs>
				<clipPath id="SVGID_18_">
					<use xlink:href="#SVGID_17_"  overflow="visible"/>
				</clipPath>
				<path clip-path="url(#SVGID_18_)" fill="#AEAEAE" d="M201.825,160.515c-0.48,0-0.236,0.234-0.236,0.234
					C201.587,160.515,202.306,160.994,201.825,160.515"/>
			</g>
		</g>
	</g>
	<g>
		<g>
			<g>
				<defs>
					<rect id="SVGID_19_" x="35.162" y="19.25" width="235.676" height="235.293"/>
				</defs>
				<clipPath id="SVGID_20_">
					<use xlink:href="#SVGID_19_"  overflow="visible"/>
				</clipPath>
				<path clip-path="url(#SVGID_20_)" fill="#AEAEAE" d="M197.294,174.365c1.43-0.241,0.949-0.48,1.43-0.722
					c0,0.241,0.238,0.48,0.479,0.48c0.235,0,0.235-0.716,0.712-0.716h0.48c0.234,0,0.234,0,0.234,0.235v-0.477
					c0.716-0.238,0.716-0.719,1.438-0.719v0.243c0.479,0,0.238-0.243,0.238-0.48c0.477-0.482,0.241-0.957,0.715-0.957v0.479
					c0.477,0,0.238-1.909,1.191-1.427c-0.715-1.437-0.234-1.437,0-1.197c0.245,0,0.245,0.232,0.245,0.232
					c0.712-0.477,1.427-0.951,1.427-1.907c0-0.241-0.234-0.479-0.234-0.718c0.48,0,0.949-0.478,0.949-0.951
					c0.242,0.951,0.722,1.669,0.96,2.384c0.474,1.434,0.474,1.672,0.474,2.626v0.953c0.242,0,0.242,0.715,0.242,0.96
					c0,0.235-0.716,1.191-0.716,1.191c-0.238,0-0.482,0-0.482-0.241v-0.715c-0.482-0.232-0.235,0-0.235,0.482
					c0,0.479,0.235,1.194,0.235,1.194c0,0.715-0.715,1.194-0.949,1.43c-0.481,0.722,0.233,1.195-0.481,2.631
					c-0.722,0.949-0.955,2.148-1.437,3.337c-0.715,1.437-1.665,3.585-2.146,5.019c-0.24,0.715-1.67,3.582-1.915,4.535
					c-0.479,0.481-0.949,0.481-1.667,0.481c-0.715,0-1.67,1.191-2.148,0.714c-0.243-0.477-1.196-0.714-1.196-0.956
					c-0.48-0.236-0.714-1.192-0.714-1.67v-1.19v-0.718c0,0-0.238-0.481-0.238-0.715c-0.239-0.481,0-0.959,0-1.434
					c0-0.481,0.238-0.481,0.238-0.955c0.233-0.242,0.233-0.479,0.233-0.719c0.238-0.238,0.48-0.238,0.48-0.238
					c0.238-0.233,0.238-0.474,0.481-0.715c0.233-0.71,0.948-1.191,1.193-2.152c-0.24-0.948,0.237-0.232-0.24-1.191l-0.235-1.196
					v-2.146l0.957-1.67L197.294,174.365L197.294,174.365z"/>
			</g>
		</g>
	</g>
	<g>
		<g>
			<g>
				<defs>
					<rect id="SVGID_21_" x="35.162" y="19.25" width="235.676" height="235.293"/>
				</defs>
				<clipPath id="SVGID_22_">
					<use xlink:href="#SVGID_21_"  overflow="visible"/>
				</clipPath>
				<path clip-path="url(#SVGID_22_)" fill="#AEAEAE" d="M195.856,164.573l0.235,0.238c0,0.241,0.242,0.956,0.242,0.956h-0.242
					c-0.235-0.241-0.473-0.477-0.473-0.715C195.622,164.812,195.856,164.573,195.856,164.573"/>
			</g>
		</g>
	</g>
	<g>
		<g>
			<g>
				<defs>
					<rect id="SVGID_23_" x="35.162" y="19.25" width="235.676" height="235.293"/>
				</defs>
				<clipPath id="SVGID_24_">
					<use xlink:href="#SVGID_23_"  overflow="visible"/>
				</clipPath>
				<path clip-path="url(#SVGID_24_)" fill="#AEAEAE" d="M197.767,166.245l0.238-0.238c0,0.238,0.238,0.479,0,0.479
					S197.767,166.245,197.767,166.245"/>
			</g>
		</g>
	</g>
	<g>
		<g>
			<g>
				<defs>
					<rect id="SVGID_25_" x="35.162" y="19.25" width="235.676" height="235.293"/>
				</defs>
				<clipPath id="SVGID_26_">
					<use xlink:href="#SVGID_25_"  overflow="visible"/>
				</clipPath>
				<path clip-path="url(#SVGID_26_)" fill="#AEAEAE" d="M204.692,168.394v0.238h-0.233
					C204.457,168.394,204.692,168.394,204.692,168.394"/>
			</g>
		</g>
	</g>
	<g>
		<g>
			<g>
				<defs>
					<rect id="SVGID_27_" x="35.162" y="19.25" width="235.676" height="235.293"/>
				</defs>
				<clipPath id="SVGID_28_">
					<use xlink:href="#SVGID_27_"  overflow="visible"/>
				</clipPath>
				<path clip-path="url(#SVGID_28_)" fill="#AEAEAE" d="M199.2,167.678v-0.238C199.436,167.439,199.436,167.678,199.2,167.678"/>
			</g>
		</g>
	</g>
	<g>
		<g>
			<g>
				<defs>
					<rect id="SVGID_29_" x="35.162" y="19.25" width="235.676" height="235.293"/>
				</defs>
				<clipPath id="SVGID_30_">
					<use xlink:href="#SVGID_29_"  overflow="visible"/>
				</clipPath>
				<path clip-path="url(#SVGID_30_)" fill="#AEAEAE" d="M201.825,160.515c-0.48,0-0.236,0.234-0.236,0.234
					C201.587,160.515,202.306,160.994,201.825,160.515"/>
			</g>
		</g>
	</g>
	<g>
		<g>
			<g>
				<defs>
					<rect id="SVGID_31_" x="35.162" y="19.25" width="235.676" height="235.293"/>
				</defs>
				<clipPath id="SVGID_32_">
					<use xlink:href="#SVGID_31_"  overflow="visible"/>
				</clipPath>
				<path clip-path="url(#SVGID_32_)" fill="#AEAEAE" d="M202.067,161.229h0.238v0.235
					C202.067,161.465,202.067,161.465,202.067,161.229"/>
			</g>
		</g>
	</g>
	<g>
		<g>
			<g>
				<defs>
					<rect id="SVGID_33_" x="35.162" y="19.25" width="235.676" height="235.293"/>
				</defs>
				<clipPath id="SVGID_34_">
					<use xlink:href="#SVGID_33_"  overflow="visible"/>
				</clipPath>
				<path clip-path="url(#SVGID_34_)" fill="#AEAEAE" d="M203.497,160.515L203.497,160.515h0.242c0,0,0,0.234-0.242,0.234V160.515z"
					/>
			</g>
		</g>
	</g>
	<g>
		<g>
			<g>
				<defs>
					<rect id="SVGID_35_" x="35.162" y="19.25" width="235.676" height="235.293"/>
				</defs>
				<clipPath id="SVGID_36_">
					<use xlink:href="#SVGID_35_"  overflow="visible"/>
				</clipPath>
				<path clip-path="url(#SVGID_36_)" fill="#AEAEAE" d="M172.455,75.986c0.481-0.234,0.719-0.234,0.953-0.234
					c0.48,0,0.48-0.245,0.48-0.245c0.48,0,0.48,0.245,0.957,0.245h0.241c0.238,0.47,0.474,0.47,0.948,0.47
					c0,0.722,0.238,0.96,0.238,1.437c0,0.238,0.482,0.238,0.482,0.48c0,0.474-0.238,0.474-0.238,0.953
					c0,0.477,0.238,0.242,0.238,0.477c0.236,0.48,0.473,0.956,0.718,1.43c0,0.242,0.233,0.242,0.233,0.242
					c0.482,0.483,0.237,0.483,0.952,0.949c0,0.487,0.245,1.199,0.481,1.438c0,0,0.477,1.43,0.955,1.43l2.63,4.3
					c0.233,0.238,0.233,0.238,0.476,0.48c-0.237,0-0.237,0.238-0.237,0.238c0,0.953,0.955,1.433,0.955,2.148h0.474
					c0.48,0.715,0.957,1.191,1.438,2.152c0,0.234,0.481,0.234,0.481,0.715c0,0.235-0.245,0.235-0.245,0.235
					c0.245,0.48,0.245,0.96,0.479,1.437c0,0.234,0.242,0.715,0.242,0.715c0.479,0.96,0.237,1.672,0.715,2.387
					c0,0.234,0.474,0.234,0.474,0.234c0.481,0.245,0.723,0.959,1.438,0.718c0.233,0.957,0.955,1.671,1.191,2.864
					c0.245,0.959,0.957,3.108,1.675,2.386c0.474,0.245,0.474,0.48,0.715,0.96l0.711,0.241c0,0.235,0.481,0,0.715,0.235
					c0.481,0.48,0.723,0.957,0.96,1.433c0.715,0.478,1.434,0.478,1.434,1.434c0,0.235,0.238,0.235,0.473,0.235
					c0.245,0,0.482,0.715,0.96,0.715c0,0.48,0.479,0.245,0.716,0.96c0.241,0.953-1.196,0.715-1.196,1.434h0.957
					c0,0.238,0.237,0.238,0.48,0.238c0.712,0.715,0.712,1.911,1.903,1.911c1.199,0,1.434-1.196,2.631-1.196
					c0.238,0,0.478,0.48,0.716,0.48c0.715,0,1.192-0.953,1.192-0.953c0.714-0.48,0.714,0,1.913-0.241c0,0,0.232-0.48,0.479-0.48
					c0.477,0,0.715,0.241,1.191,0c0.245,0,0.483,0,0.716-0.477c0.245,0,0.482,0.238,0.718,0c0.242,0,0.712-0.238,0.953-0.474
					c0.237-0.242,0-0.722,0.48-0.722c0.238,0,0.482,0.48,0.715,0.48v0.715c-0.232,0.477,0.234,2.151,0,2.151
					c-0.477,0-0.232,1.907-0.232,2.146c-0.722,1.433-1.201,2.39-1.916,4.062c-0.235,0.715-0.95,1.43-0.95,2.148
					c0,1.192-1.438,3.82-2.149,5.012c-0.718,0.959-2.39,2.869-3.581,3.581c-1.672,1.196-4.064,3.348-4.305,3.816
					c-1.19,1.917-2.141,2.394-2.624,3.827c-0.481,0.953-1.194,1.192-1.91,2.145c-0.241,0.241-0.723,0-0.956,0.241
					c-0.232,0.478-0.232,1.434-0.481,1.67c-0.478,1.669-2.146,3.102-2.146,5.25c0,1.195,1.193,1.195,1.193,1.671
					c0,0.481-0.474,1.196-0.474,1.437l0.474,0.475c-0.236,0.243-0.236,0.722-0.474,0.722c0,0.471,0.233,1.193,0.474,1.431
					c0,0.233,0,1.906,0.241,2.151c0.478,0.47,1.671,0.233,1.426,0.948c-0.471,1.909-0.233,4.301-0.233,4.301v1.43
					c0,0.242-0.481,0.957,0,1.675c0.482,0.234,0.233,0.234,0.233,0.716c0,0,0.245,0.237,0,0.237
					c-0.715,0.715-0.715,1.667-0.948,1.911c-0.478,0.956-1.193,1.671-2.153,2.144c-0.47,0.481-1.429,0.72-2.151,0.967
					c-1.193,0.232-2.624,1.663-3.339,2.857c-0.232,0.24-0.955,0.478-1.195,0.722c-0.241,0-0.241,0.949-0.478,0.949
					c-0.477-0.237-0.715,0.478-1.194,0.478c-0.235,0.715,0,0.715-0.235,0.959c-0.245,0.235,0.474,0.949,0.474,1.189
					c0,0,0.241,1.199,0.241,1.434v0.955c0.238,0,0.238,0,0.477-0.24c0,0.956-0.237,0.715-0.237,0.956
					c0,0.237,0.237,0.715,0.237,0.715c-0.237,0.237-0.955,1.675-0.477,1.675c0,0,0.477,0.477-0.479,1.192
					c-0.482,0.956-2.387,1.195-3.346,1.43c-0.478,0.241-1.192,0.719-1.192,1.44c0,0.233,0,0.233,0.232,0.474
					c0,1.192-0.715,2.148-0.951,2.867c-0.232,0.715-0.482,1.192-0.715,1.667l-1.197,0.957c-0.951,1.667-1.91,2.863-3.103,4.06
					c-0.477,0.719-1.194,0.956-1.672,1.429c-0.481,0.72-0.948,1.2-1.43,1.434c-1.192,0.715-1.911,1.676-3.344,1.676
					c-0.716,0-0.96,0.478-1.198,0.478c-0.233,0-0.715-0.242-0.715-0.242c-0.235,0-0.479,0.481-0.715,0.481
					c-0.477,0-0.954-0.481-1.669-0.481c-0.234,0-0.483,0.242-0.957,0.242c-0.482,0-0.715-0.242-0.951-0.242
					c-0.718,0-0.718,0.723-1.437,0.723h-0.235c0,0-0.238,0.237-0.479,0.237c-0.235,0-0.235-0.237-0.479-0.237h-0.482
					c-0.47,0-0.709,0.949-1.191,0.949c-0.478,0-0.953-0.712-0.953-0.949c-0.478,0-0.955,0-0.955-0.48c-0.234,0-0.234,0-0.234-0.242
					c-0.245,0.242-0.245,0.242-0.245,0.481c-0.235,0-0.474-0.237-0.474-0.481c0.238,0,0.474-0.234,0.474-0.48
					c0-0.716-0.712-0.716-0.712-1.431c-0.238,0-0.238,0-0.238-0.233c0-0.241,0.715-0.241,0.715-0.241c0.235,0,0-0.955,0-1.196
					c0-0.473-0.238-0.949-0.477-1.43c-0.718-0.956-1.195-1.434-1.43-2.867c-0.242-0.477-0.48-0.952-0.48-1.434
					c-0.953-0.952-2.152-1.906-2.867-3.337c0-0.482-0.238-0.956-0.238-1.2c0-0.233-0.242-0.233-0.242-0.475v-0.956
					c-0.473-0.238,0-1.192-0.238-1.907c-0.235-0.48-0.477-0.956-0.477-1.671v-0.481v-1.669c0-0.48-0.719-1.195-0.477-1.43
					c-0.953-0.481-2.863-5.253-2.863-5.253c-0.238-0.234-1.672-1.914-1.914-2.63v-2.626c0,0.238,0,0.238,0.242,0.238
					c0-0.238-0.242-1.192-0.242-1.431c0-0.479,0.719-0.722,0.719-2.389c0.238-0.481,0.715-1.915,0.477-2.148
					c0-0.481,0.953-1.438,1.433-1.911c0.238-0.241,0.953-0.956,0.953-2.148c0.241-1.197,0.48-1.197-0.715-2.867
					c-0.238-0.481-0.477-1.43-0.477-1.912h-0.242c0.242-0.239,0.48-0.477,0.48-0.955c0-0.715-0.238-0.949-0.48-1.671
					c0-0.474-0.234-0.715-0.234-1.43c-0.238-0.234-0.48-0.234-0.48-0.48c-0.477-0.234-0.477-0.953-0.715-1.431
					c0-0.241-0.238-0.479-0.238-0.718c0-0.238-0.718-1.434-0.718-2.388c-0.235,0-0.715-0.718-0.953-0.718
					c-0.477-0.715-1.195-1.191-1.434-1.907c-0.477,0-1.43-1.196-1.43-1.675c-0.238,0-0.48,0-0.48-0.237c0,0-0.477-0.953-0.477-1.196
					c-0.477,0-0.715-1.666-0.715-1.666c0.238,0.238,0.238,0,0.477,0c0-0.241,0.238-0.241,0.238-0.481
					c0.238-0.241,0.238-0.956,0.238-1.192h0.718c-0.238,0-0.956-0.242-0.956-0.722l0.238-0.234c0.238,0,0.238,0.234,0.238,0.234
					c0.242,0,0.242-0.949,0.242-1.195h-0.48c0.718-0.474,0.953-2.387,0.953-2.387c-0.234-0.235,0.242-1.192,0.242-1.426
					c-0.477,0-0.477-1.675-0.477-1.911h-0.48c0,0.234,0,0.47-0.238,0.47l-0.238-0.47c-0.715,0-0.478-0.96-0.957-0.96
					c0,0-0.473-0.232-0.473-0.477h-0.242c0,0.722-0.719,0.722-1.192,0.722l-0.953-0.245c-0.242,0-0.242,0.245-0.48,0.245h-1.433
					v0.235c-0.48,0-1.196-0.957-1.196-1.437l-0.238-0.477c0.238,0,0.238-0.238,0.48-0.238C129,126.6,129,126.6,129,126.123
					c-0.245-0.238-0.48-0.238-0.48-0.48c-0.954-1.43-4.059-0.956-4.059-0.956h-0.96c-0.235,0.477-0.953,0.477-1.434,0.477
					c-0.711,0-0.711,0.722-1.192,0.722h-0.477c-0.953,0.238-1.433,0.715-2.386,0.95c-0.48,0-0.718,0-1.195,0.238
					c-0.478,0.242-0.719,0.477-1.192,0.718c-2.867-1.668-7.402-0.956-10.269,0.483c-0.953-0.245-1.907-0.96-2.622-1.44
					c-0.48-0.477-0.718-0.711-1.199-1.192c-0.235-0.238-1.195-1.675-1.668-1.195c-0.245-0.234-0.48-0.48-0.719-0.953
					c-0.241,0-0.241-0.477-0.48-0.719c0,0-0.477,0-0.477-0.238c-0.477-0.238-0.715-0.477-1.192-0.718
					c-0.238,0-0.238-0.474-0.48-0.474c0-0.48-0.477-0.957-0.477-1.195c-0.238,0-0.477-0.477-0.477-0.718v-0.715
					c0-0.477-0.238-0.718-0.238-1.192c-0.715,0-0.48-0.48-0.715-0.96c0-0.235-0.242-0.235-0.242-0.474h-0.477
					c-0.242,0-0.715-1.195-0.715-1.433c-0.242-0.953-0.242,0-0.242,0c-0.477,0.238-0.477-0.474-0.477-0.474
					c-0.239-0.722-0.954-0.48-0.954-0.48c0-0.242,0.238-0.242,0.238-0.718v-0.234c-0.48,0-1.195-0.234-1.195-0.718v-0.238
					c0-0.235-0.715-0.715-0.715-0.715c0-0.238,0.238-0.715,0.238-1.192c0,0-0.238,0-0.238-0.245l0.238-0.234v-0.478
					c0-0.238,0.238-0.477,0.238-0.953c0-0.715-0.477-1.672-1.196-1.437c-0.238,0,0.719-0.48,0.719-0.715
					c1.91-1.911,0.477-1.43,1.671-3.582c0.238-0.232,0.238-0.477,0.477-0.711c0.477-0.48,0.477-1.675,0.715-2.156v-1.192
					c-0.238,0-0.238-0.242-0.238-0.48c0-0.234-0.238-0.234-0.238-0.477c0-0.238,0.238-0.95,0.477-0.95
					c0-0.48,0.238-0.48,0.238-0.959c0-0.234-0.238-0.95-0.477-0.95v0.235c-0.238,0,0-0.953-0.477-0.953
					c-0.238,0-0.238,0.238-0.477,0.473V93.65c0-0.48,0.715-1.914,0.953-2.148c0.238-0.242,0.719-0.48,0.719-0.719
					c0.238-0.715,0.715-1.195,0.953-1.671c0.238-0.238,0.238-0.477,0.238-0.715l0.957-0.715c0.477-0.245,1.191-0.711,1.433-1.195
					c0.238-0.719,0.238-1.192,0.474-1.91c0.242-0.238,0.242-0.718,0.48-0.718c0.238-0.478,0.718-0.478,1.191-0.715
					c0.48,0,0.48-0.474,0.715-0.474c0.719-0.722,0.719-2.152,1.914-2.152l1.672-0.242c0.715-0.714,1.434-1.192,2.148-1.671
					c0.718-0.473,1.671-1.43,1.914-2.39c0,0-0.242-0.234-0.242-0.47c0-0.245,0-0.245,0.242-0.245v-0.954
					c0.473-0.953,0.953-1.195,1.192-1.907c0.715-0.473,1.195-1.675,1.91-1.914c0.953-0.234,1.671-0.234,2.387-0.715
					c0.48-0.238,1.195-1.195,1.195-1.671l0.238-0.242c0.238-0.238,0.715-1.666,0.715-1.666h0.957c0,0.235,0.234,0.953,0.477,0.953
					c0,0.238,0.477,0.711,0.953,0.711c0.238,0,0.48-0.238,0.48-0.238l0.953,0.238c0.48,0,0.48-0.238,0.719-0.238
					c0,0.238,0,0.48,0.234,0.48c1.914,0.241,2.629-0.715,2.629-0.715c0.477-0.238,0.718-0.238,0.957-0.238
					c0.234,0,0.234-0.242,0.234-0.242c0.718,0.48,0.96-0.477,0.96-0.477c0.715-0.234,0.953-0.477,1.907-0.477
					c0.242,0,1.434-0.48,1.672-0.238c0.715,0.48,0.96-0.477,1.195-0.477c0,0,0.48,0.234,0.718,0.234l0.715-0.234
					c0.48,0.234,0.719,0.234,0.954,0.234c0.959,0,0.718,0.48,0.718,0.48c0.715,0,0.957-0.48,1.434-0.48
					c0.477,0,0.477-0.234,0.715-0.234c0.48,0,0.238,0.234,0.953,0.234c0.48,0,0.241,0,0.241-0.234
					c0.953,0.234,0.953,0.715,1.434,0.477c0.238-0.241,0.238-0.241,0.715-0.241c0.477,0,0.719-0.474,1.43-0.474
					c0.957,0,0.957,0.474,1.433,0.953c0.478-0.238,0.478-0.48,0.957-0.715v0.477c0,0.48-0.957,0.953-0.957,1.434
					c0,0.711,0.242,0.953,0.715,0.953c0,0.241,0.242,0.722,0.242,0.722c0,1.43-2.39,1.43-1.911,2.38
					c0.715,1.199,1.43,0.48,1.668,0.48c0,0.957,1.914,1.907,2.629,1.907c0.48,0,0.48-0.234,0.953-0.234l0.242,0.234
					c0.477,0.242,0.711,0,0.953,0.242c0.478,0,0.953,0.478,1.911,0.478c0,1.913,1.196,1.913,2.39,2.39
					c0.954,0.238,1.43,0.238,1.911,0.477c0.95,0.477,0.95,1.192,2.148,1.192c0.715,0,0.952-0.474,1.434-1.192
					s-0.481-0.954-0.481-1.668c0-0.245,0.718-0.957,0.718-1.199c0.712-0.719,2.148-0.954,3.582-0.954s0.712,0.954,1.669,1.43
					c0.959,0.477,2.866,0,2.866,0.957c0,0.235,0.237,0.235,0.481,0.235c0.233,0,0.471-0.47,0.949-0.47
					c0.24,0,1.671,0.235,1.914,0.47c1.671,0.959,2.626,0.245,3.104,0.959C171.502,76.943,171.979,76.466,172.455,75.986"/>
			</g>
		</g>
	</g>
	<g>
		<g>
			<g>
				<defs>
					<rect id="SVGID_37_" x="35.162" y="19.25" width="235.676" height="235.293"/>
				</defs>
				<clipPath id="SVGID_38_">
					<use xlink:href="#SVGID_37_"  overflow="visible"/>
				</clipPath>
				<path clip-path="url(#SVGID_38_)" fill="#AEAEAE" d="M195.856,166.007c0.48,0,0.715-0.236,0.715-0.716s-0.234-0.718-0.715-0.718
					c-0.234,0-0.715,0.238-0.715,0.718C195.142,165.768,195.622,166.007,195.856,166.007"/>
			</g>
		</g>
	</g>
	<g>
		<g>
			<g>
				<defs>
					<rect id="SVGID_39_" x="35.162" y="19.25" width="235.676" height="235.293"/>
				</defs>
				<clipPath id="SVGID_40_">
					<use xlink:href="#SVGID_39_"  overflow="visible"/>
				</clipPath>
				<polygon clip-path="url(#SVGID_40_)" fill="#AEAEAE" points="195.618,165.768 195.618,165.288 195.38,165.053 195.854,165.053 
					195.854,164.812 196.095,165.053 196.333,165.053 196.095,165.288 196.333,165.768 195.854,165.526 				"/>
			</g>
		</g>
	</g>
	<g>
		<g>
			<g>
				<defs>
					<rect id="SVGID_41_" x="35.162" y="19.25" width="235.676" height="235.293"/>
				</defs>
				<clipPath id="SVGID_42_">
					<use xlink:href="#SVGID_41_"  overflow="visible"/>
				</clipPath>
				<path clip-path="url(#SVGID_42_)" fill="#AEAEAE" d="M57.127,185.346c0,0-19.578-21.249-21.965-24.83
					c0,0,3.82,19.574,8.359,27.933c-0.48,0.482,15.039,29.847,29.129,39.878c1.433,1.191,2.386,2.621,3.82,3.817
					c9.55,7.879,20.058,14.807,31.995,19.101v-33.425c-0.477,0,0-0.24-0.477-0.482c-2.387-0.478-5.016-2.383-7.641-3.816
					c-3.101-1.666-5.73-3.818-7.641-5.729c0,0-5.016-4.06-10.508-10.027c-3.105-3.582-6.683-8.121-9.312-12.421
					c0,0-7.64-14.558-9.312-18.143L57.127,185.346z"/>
			</g>
		</g>
	</g>
	<g>
		<g>
			<g>
				<defs>
					<rect id="SVGID_43_" x="35.162" y="19.25" width="235.676" height="235.293"/>
				</defs>
				<clipPath id="SVGID_44_">
					<use xlink:href="#SVGID_43_"  overflow="visible"/>
				</clipPath>
				<path clip-path="url(#SVGID_44_)" fill="#AEAEAE" d="M249.102,185.346c0,0,19.343-21.249,21.736-24.83
					c0,0-3.823,19.574-8.362,27.933c0.477,0.482-14.804,29.847-28.894,39.878c-1.434,1.191-2.383,2.621-3.82,3.817
					c-9.548,7.879-20.058,14.807-31.996,19.101v-33.425c0.482,0,0-0.24,0.482-0.482c2.389-0.478,5.02-2.383,7.641-3.816
					c3.108-1.666,5.73-3.818,7.641-5.729c0,0,5.016-4.06,10.508-10.027c3.104-3.582,6.687-8.121,9.312-12.421
					c0,0,7.644-14.558,9.314-18.143L249.102,185.346z"/>
			</g>
		</g>
	</g>
	<g>
		<g>
			<g>
				<defs>
					<rect id="SVGID_45_" x="35.162" y="19.25" width="235.676" height="235.293"/>
				</defs>
				<clipPath id="SVGID_46_">
					<use xlink:href="#SVGID_45_"  overflow="visible"/>
				</clipPath>
				<path clip-path="url(#SVGID_46_)" fill="none" stroke="#AEAEAE" stroke-width="1.6582" stroke-miterlimit="10" d="
					M152.878,230.477c52.529,0,95.273-44.889,95.273-99.81c0-54.916-42.744-99.81-95.273-99.81
					c-52.292,0-95.032,44.893-95.032,99.81C57.846,185.588,100.586,230.477,152.878,230.477z"/>
			</g>
		</g>
	</g>
	<g>
		<g>
			<g>
				<defs>
					<rect id="SVGID_47_" x="35.162" y="19.25" width="235.676" height="235.293"/>
				</defs>
				<clipPath id="SVGID_48_">
					<use xlink:href="#SVGID_47_"  overflow="visible"/>
				</clipPath>
				<path clip-path="url(#SVGID_48_)" fill="none" stroke="#E0E1E2" stroke-width="1.6582" stroke-linecap="round" d="
					M62.286,170.827c9.238,21.904,25.771,39.729,46.33,50.019c12.336,6.17,26.114,9.628,40.636,9.628"/>
			</g>
		</g>
	</g>
	<g>
		<g>
			<g>
				<defs>
					<rect id="SVGID_49_" x="35.162" y="19.25" width="235.676" height="235.293"/>
				</defs>
				<clipPath id="SVGID_50_">
					<use xlink:href="#SVGID_49_"  overflow="visible"/>
				</clipPath>
				<path clip-path="url(#SVGID_50_)" fill="none" stroke="#E0E1E2" stroke-width="1.6582" stroke-linecap="round" d="
					M242.773,170.827c-9.241,21.904-25.774,39.732-46.336,50.019c-12.33,6.17-26.11,9.628-40.633,9.628"/>
			</g>
		</g>
	</g>
	<g>
		<g>
			<g>
				<defs>
					<rect id="SVGID_51_" x="35.162" y="19.25" width="235.676" height="235.293"/>
				</defs>
				<clipPath id="SVGID_52_">
					<use xlink:href="#SVGID_51_"  overflow="visible"/>
				</clipPath>
				<rect x="108.944" y="220.685" clip-path="url(#SVGID_52_)" fill="#AEAEAE" width="88.35" height="27.222"/>
			</g>
		</g>
	</g>
	<g>
		<g>
			<g>
				<defs>
					<rect id="SVGID_53_" x="35.162" y="19.25" width="235.676" height="235.293"/>
				</defs>
				<clipPath id="SVGID_54_">
					<use xlink:href="#SVGID_53_"  overflow="visible"/>
				</clipPath>
				
					<rect x="108.942" y="220.685" clip-path="url(#SVGID_54_)" fill="none" stroke="#E0E1E2" stroke-width="1.6582" width="88.345" height="27.222"/>
			</g>
		</g>
	</g>
	<g>
		<g>
			<g>
				<defs>
					<rect id="SVGID_55_" x="35.162" y="19.25" width="235.676" height="235.293"/>
				</defs>
				<clipPath id="SVGID_56_">
					<use xlink:href="#SVGID_55_"  overflow="visible"/>
				</clipPath>
				<path clip-path="url(#SVGID_56_)" fill="none" stroke="#E0E1E2" stroke-width="1.6582" d="M123.269,227.372
					c4.056,0,7.164,3.343,7.164,7.644c0,4.058-3.108,7.398-7.164,7.398c-3.82,0-7.164-3.344-7.164-7.398
					C116.105,230.715,119.449,227.372,123.269,227.372z"/>
			</g>
		</g>
	</g>
	<g>
		<g>
			<g>
				<defs>
					<rect id="SVGID_57_" x="35.162" y="19.25" width="235.676" height="235.293"/>
				</defs>
				<clipPath id="SVGID_58_">
					<use xlink:href="#SVGID_57_"  overflow="visible"/>
				</clipPath>
				<path clip-path="url(#SVGID_58_)" fill="none" stroke="#E0E1E2" stroke-width="1.6582" d="M133.539,227.372
					c4.056,0,7.164,3.343,7.164,7.644c0,4.058-3.108,7.398-7.164,7.398c-3.82,0-6.926-3.344-6.926-7.398
					C126.613,230.715,129.718,227.372,133.539,227.372z"/>
			</g>
		</g>
	</g>
	<g>
		<g>
			<g>
				<defs>
					<rect id="SVGID_59_" x="35.162" y="19.25" width="235.676" height="235.293"/>
				</defs>
				<clipPath id="SVGID_60_">
					<use xlink:href="#SVGID_59_"  overflow="visible"/>
				</clipPath>
				<path clip-path="url(#SVGID_60_)" fill="none" stroke="#E0E1E2" stroke-width="1.6582" d="M144.042,227.372
					c3.82,0,6.925,3.343,6.925,7.644c0,4.058-3.104,7.398-6.925,7.398c-4.056,0-7.164-3.344-7.164-7.398
					C136.878,230.715,139.987,227.372,144.042,227.372z"/>
			</g>
		</g>
	</g>
	<g>
		<g>
			<g>
				<defs>
					<rect id="SVGID_61_" x="35.162" y="19.25" width="235.676" height="235.293"/>
				</defs>
				<clipPath id="SVGID_62_">
					<use xlink:href="#SVGID_61_"  overflow="visible"/>
				</clipPath>
				<path clip-path="url(#SVGID_62_)" fill="none" stroke="#E0E1E2" stroke-width="1.6582" d="M164.576,227.372
					c3.824,0,7.167,3.343,7.167,7.644c0,4.058-3.343,7.398-7.167,7.398c-3.82,0-7.163-3.344-7.163-7.398
					C157.413,230.715,160.756,227.372,164.576,227.372z"/>
			</g>
		</g>
	</g>
	<g>
		<g>
			<g>
				<defs>
					<rect id="SVGID_63_" x="35.162" y="19.25" width="235.676" height="235.293"/>
				</defs>
				<clipPath id="SVGID_64_">
					<use xlink:href="#SVGID_63_"  overflow="visible"/>
				</clipPath>
				<path clip-path="url(#SVGID_64_)" fill="none" stroke="#E0E1E2" stroke-width="1.6582" d="M174.846,227.372
					c4.055,0,7.163,3.343,7.163,7.644c0,4.058-3.108,7.398-7.163,7.398c-3.824,0-6.926-3.344-6.926-7.398
					C167.92,230.715,171.021,227.372,174.846,227.372z"/>
			</g>
		</g>
	</g>
	<g>
		<g>
			<g>
				<defs>
					<rect id="SVGID_65_" x="35.162" y="19.25" width="235.676" height="235.293"/>
				</defs>
				<clipPath id="SVGID_66_">
					<use xlink:href="#SVGID_65_"  overflow="visible"/>
				</clipPath>
				<path clip-path="url(#SVGID_66_)" fill="none" stroke="#E0E1E2" stroke-width="1.6582" d="M185.114,227.372
					c4.052,0,7.164,3.343,7.164,7.644c0,4.058-3.112,7.398-7.164,7.398c-3.823,0-6.925-3.344-6.925-7.398
					C178.189,230.715,181.291,227.372,185.114,227.372z"/>
			</g>
		</g>
	</g>
	<g>
		<g>
			<g>
				<defs>
					<rect id="SVGID_67_" x="35.162" y="19.25" width="235.676" height="235.293"/>
				</defs>
				<clipPath id="SVGID_68_">
					<use xlink:href="#SVGID_67_"  overflow="visible"/>
				</clipPath>
				<path clip-path="url(#SVGID_68_)" fill="none" stroke="#E0E1E2" stroke-width="1.6582" d="M154.311,227.372
					c3.816,0,6.928,3.343,6.928,7.644c0,4.058-3.108,7.398-6.928,7.398c-4.059,0-7.166-3.344-7.166-7.398
					C147.144,230.715,150.253,227.372,154.311,227.372z"/>
			</g>
		</g>
	</g>
</g>
</svg>
