<?xml version="1.0" encoding="utf-8"?>
<!-- Generator: Adobe Illustrator 16.0.0, SVG Export Plug-In . SVG Version: 6.00 Build 0)  -->
<!DOCTYPE svg PUBLIC "-//W3C//DTD SVG 1.1//EN" "http://www.w3.org/Graphics/SVG/1.1/DTD/svg11.dtd">
<svg version="1.1" id="Layer_1" xmlns="http://www.w3.org/2000/svg" xmlns:xlink="http://www.w3.org/1999/xlink" x="0px" y="0px"
	 width="309px" height="60px" viewBox="0 0 309 60" enable-background="new 0 0 309 60" xml:space="preserve">
<path fill="#313131" d="M104.807,34.324c-1.442,0-2.824-0.285-4.147-0.854c-1.323-0.567-2.495-1.388-3.516-2.457
	c-1.011-1.067-1.817-2.374-2.418-3.914c-0.602-1.541-0.903-3.277-0.903-5.21s0.295-3.687,0.885-5.262
	c0.59-1.575,1.408-2.93,2.452-4.068c1.034-1.125,2.254-1.995,3.661-2.609c1.408-0.614,2.912-0.921,4.513-0.921
	c1.192,0,2.271,0.148,3.236,0.443c0.965,0.296,1.884,0.71,2.759,1.244l0.698-1.159h1.364l0.153,8.625h-1.397
	c-0.182-0.841-0.454-1.753-0.817-2.736c-0.364-0.982-0.789-1.815-1.276-2.497c-0.545-0.773-1.192-1.378-1.941-1.815
	c-0.75-0.438-1.606-0.656-2.571-0.656c-1.1,0-2.125,0.244-3.073,0.734c-0.947,0.488-1.768,1.211-2.459,2.166
	c-0.658,0.921-1.175,2.092-1.55,3.514c-0.374,1.422-0.562,3.008-0.562,4.759c0,1.546,0.197,2.965,0.588,4.255
	c0.391,1.292,0.951,2.426,1.676,3.404c0.727,0.966,1.586,1.723,2.58,2.269c0.994,0.546,2.103,0.818,3.329,0.818
	c0.919,0,1.765-0.146,2.536-0.434c0.771-0.291,1.442-0.675,2.009-1.152c0.567-0.5,1.066-1.066,1.498-1.703
	c0.431-0.637,0.783-1.33,1.055-2.08l1.279,0.613c-0.977,2.398-2.271,4.111-3.883,5.139
	C108.951,33.809,107.033,34.324,104.807,34.324z"/>
<path fill="#313131" d="M132.53,25.171c0,1.182-0.188,2.343-0.564,3.485s-0.91,2.111-1.604,2.906
	c-0.785,0.908-1.695,1.584-2.73,2.027c-1.035,0.443-2.195,0.665-3.48,0.665c-1.07,0-2.087-0.2-3.054-0.604
	c-0.967-0.403-1.825-0.991-2.577-1.765c-0.739-0.761-1.327-1.689-1.766-2.787c-0.438-1.096-0.656-2.326-0.656-3.69
	c0-2.625,0.765-4.772,2.294-6.442c1.529-1.67,3.534-2.505,6.014-2.505c2.355,0,4.297,0.792,5.827,2.377
	C131.764,20.424,132.53,22.536,132.53,25.171z M129.001,25.205c0-0.852-0.085-1.752-0.256-2.702
	c-0.171-0.949-0.427-1.752-0.769-2.412c-0.364-0.704-0.843-1.27-1.435-1.696c-0.592-0.426-1.315-0.639-2.168-0.639
	c-0.876,0-1.625,0.216-2.246,0.648c-0.621,0.432-1.125,1.022-1.511,1.772c-0.364,0.694-0.621,1.483-0.769,2.369
	c-0.147,0.887-0.222,1.745-0.222,2.574c0,1.091,0.088,2.1,0.265,3.026c0.177,0.926,0.458,1.753,0.845,2.48
	c0.387,0.727,0.874,1.299,1.46,1.712c0.586,0.415,1.312,0.623,2.177,0.623c1.423,0,2.549-0.688,3.38-2.062
	C128.586,29.523,129.001,27.626,129.001,25.205z"/>
<path fill="#313131" d="M152.966,33.438l-5.487,0.375l-0.256-0.238v-2.13h-0.103c-0.272,0.284-0.578,0.587-0.918,0.911
	c-0.34,0.326-0.732,0.617-1.174,0.879c-0.511,0.307-1.005,0.539-1.481,0.697c-0.476,0.16-1.151,0.238-2.024,0.238
	c-1.486,0-2.618-0.484-3.395-1.456c-0.778-0.97-1.166-2.38-1.166-4.231v-8.036c0-0.408-0.077-0.752-0.231-1.03
	c-0.154-0.278-0.38-0.52-0.677-0.724c-0.207-0.137-0.464-0.236-0.773-0.298c-0.308-0.062-0.635-0.104-0.978-0.127v-1.124l5.608-0.41
	l0.256,0.239v11.675c0,1.216,0.272,2.13,0.818,2.745c0.545,0.612,1.199,0.92,1.96,0.92c0.625,0,1.181-0.098,1.669-0.289
	c0.489-0.193,0.898-0.42,1.229-0.682c0.306-0.238,0.577-0.49,0.809-0.758c0.232-0.267,0.412-0.513,0.537-0.74v-9.516
	c0-0.375-0.079-0.707-0.239-0.996c-0.159-0.289-0.381-0.536-0.664-0.74c-0.205-0.137-0.509-0.219-0.912-0.247
	s-0.855-0.054-1.355-0.077v-1.124l6.118-0.41l0.256,0.239v13.331c0,0.385,0.08,0.715,0.239,0.988
	c0.159,0.272,0.38,0.505,0.664,0.698c0.205,0.125,0.449,0.208,0.734,0.248c0.283,0.039,0.595,0.064,0.938,0.076v1.123H152.966
	L152.966,33.438z"/>
<path fill="#313131" d="M173.589,33.745h-8.215V32.62c0.261-0.022,0.548-0.046,0.86-0.067c0.312-0.023,0.572-0.07,0.777-0.138
	c0.316-0.103,0.553-0.28,0.707-0.537c0.152-0.256,0.229-0.588,0.229-0.997v-8.642c0-1.193-0.282-2.114-0.846-2.761
	c-0.564-0.648-1.25-0.972-2.059-0.972c-0.604,0-1.156,0.094-1.658,0.281c-0.5,0.188-0.945,0.418-1.332,0.691
	c-0.375,0.261-0.675,0.542-0.896,0.843c-0.223,0.301-0.385,0.542-0.486,0.725v9.664c0,0.386,0.079,0.705,0.237,0.954
	c0.159,0.25,0.397,0.443,0.717,0.58c0.237,0.113,0.496,0.199,0.776,0.256c0.277,0.057,0.563,0.098,0.859,0.12v1.125h-8.232V32.62
	c0.262-0.022,0.531-0.046,0.81-0.067c0.279-0.023,0.521-0.068,0.726-0.138c0.317-0.103,0.554-0.28,0.707-0.536
	c0.154-0.256,0.23-0.588,0.23-0.996V20.515c0-0.386-0.083-0.74-0.247-1.063c-0.166-0.324-0.396-0.587-0.69-0.792
	c-0.217-0.136-0.473-0.235-0.768-0.297c-0.296-0.062-0.613-0.105-0.955-0.128V17.11l5.592-0.375l0.238,0.239v2.369h0.084
	c0.273-0.272,0.614-0.599,1.021-0.98c0.41-0.381,0.797-0.69,1.16-0.929c0.42-0.273,0.92-0.5,1.5-0.682
	c0.578-0.182,1.231-0.272,1.959-0.272c1.615,0,2.811,0.503,3.588,1.508c0.779,1.006,1.168,2.344,1.168,4.014v8.744
	c0,0.398,0.066,0.719,0.205,0.963c0.136,0.244,0.369,0.436,0.699,0.571c0.272,0.114,0.508,0.192,0.707,0.239
	c0.198,0.045,0.475,0.08,0.826,0.103L173.589,33.745L173.589,33.745z"/>
<path fill="#313131" d="M186.032,33.012c-0.739,0.308-1.438,0.565-2.097,0.775c-0.66,0.21-1.467,0.314-2.422,0.314
	c-1.408,0-2.4-0.354-2.975-1.064s-0.859-1.713-0.859-3.008V18.643h-3.035v-1.636h3.103v-5.232h3.103v5.232h4.823v1.636h-4.788v9.392
	c0,0.704,0.024,1.292,0.076,1.764c0.051,0.472,0.172,0.884,0.366,1.235c0.183,0.331,0.455,0.58,0.817,0.75
	c0.363,0.171,0.854,0.256,1.467,0.256c0.283,0,0.701-0.024,1.252-0.076c0.552-0.051,0.941-0.116,1.169-0.196V33.012L186.032,33.012z
	"/>
<path fill="#313131" d="M200.57,19.104c0,0.579-0.143,1.093-0.426,1.542c-0.285,0.449-0.723,0.673-1.312,0.673
	c-0.637,0-1.123-0.165-1.458-0.494c-0.335-0.33-0.502-0.693-0.502-1.091c0-0.25,0.019-0.477,0.06-0.682
	c0.039-0.204,0.076-0.41,0.11-0.614c-0.534,0-1.159,0.216-1.875,0.647c-0.716,0.432-1.323,1.046-1.823,1.841v9.784
	c0,0.397,0.076,0.722,0.229,0.972c0.154,0.25,0.396,0.438,0.725,0.562c0.285,0.114,0.648,0.199,1.1,0.256
	c0.449,0.058,0.838,0.097,1.168,0.12v1.125h-8.863v-1.125c0.261-0.023,0.531-0.046,0.809-0.068c0.279-0.022,0.521-0.068,0.725-0.137
	c0.318-0.102,0.556-0.279,0.709-0.536c0.152-0.255,0.229-0.588,0.229-0.995V20.515c0-0.352-0.083-0.698-0.247-1.038
	c-0.166-0.34-0.396-0.613-0.691-0.818c-0.215-0.136-0.471-0.235-0.766-0.297c-0.297-0.062-0.613-0.105-0.955-0.128V17.11
	l5.592-0.375l0.238,0.239v2.369h0.084c0.705-0.92,1.489-1.619,2.352-2.096c0.865-0.477,1.656-0.716,2.371-0.716
	c0.716,0,1.298,0.233,1.748,0.699C200.346,17.695,200.57,18.32,200.57,19.104z"/>
<path fill="#313131" d="M200.725,39.232c0-0.568,0.154-1.031,0.467-1.389s0.701-0.537,1.168-0.537c0.363,0,0.675,0.066,0.937,0.203
	c0.263,0.135,0.495,0.311,0.7,0.521c0.169,0.17,0.352,0.398,0.544,0.693c0.194,0.291,0.347,0.535,0.46,0.729
	c0.568-0.309,1.248-1.105,2.038-2.396c0.789-1.293,1.36-2.429,1.712-3.401c-1.079-2.692-2.057-5.1-2.932-7.224
	c-0.875-2.125-1.789-4.322-2.742-6.595c-0.217-0.522-0.58-0.929-1.092-1.218c-0.512-0.29-1.021-0.475-1.533-0.554v-1.125h7.674
	v1.192c-0.341,0.012-0.751,0.083-1.229,0.213c-0.478,0.131-0.715,0.281-0.715,0.451c0,0.068,0.023,0.182,0.075,0.341
	c0.052,0.159,0.111,0.324,0.181,0.494c0.431,1.124,1.086,2.745,1.971,4.862c0.884,2.117,1.57,3.812,2.057,5.083
	c0.512-1.215,1.043-2.472,1.596-3.772c0.553-1.3,1.17-2.835,1.851-4.606c0.081-0.216,0.194-0.514,0.342-0.894
	c0.147-0.381,0.224-0.708,0.224-0.98c0-0.295-0.26-0.57-0.775-0.826c-0.518-0.255-1.01-0.412-1.475-0.469v-1.09h6.24v1.057
	c-0.34,0.057-0.789,0.253-1.347,0.588s-0.972,0.81-1.244,1.423c-1.354,3.137-2.556,5.994-3.604,8.574
	c-1.051,2.579-1.85,4.477-2.396,5.693c-0.716,1.59-1.354,2.832-1.917,3.724s-1.109,1.595-1.645,2.104
	c-0.523,0.479-0.998,0.799-1.424,0.963c-0.427,0.166-0.867,0.248-1.32,0.248c-0.887,0-1.582-0.211-2.088-0.631
	C200.979,40.262,200.725,39.777,200.725,39.232z"/>
<path fill="#313131" d="M235.775,22.649c0.512,0.568,0.889,1.19,1.134,1.866c0.243,0.676,0.366,1.463,0.366,2.361
	c0,2.136-0.789,3.897-2.368,5.284c-1.58,1.386-3.54,2.079-5.88,2.079c-1.08,0-2.159-0.168-3.238-0.502
	c-1.08-0.335-2.012-0.742-2.795-1.22l-0.732,1.244h-1.365l-0.238-8.283h1.381c0.283,1.022,0.615,1.945,0.997,2.769
	c0.38,0.824,0.883,1.594,1.508,2.311c0.591,0.67,1.28,1.205,2.069,1.603c0.791,0.397,1.709,0.597,2.754,0.597
	c0.785,0,1.468-0.103,2.054-0.308c0.585-0.205,1.06-0.495,1.423-0.871c0.364-0.376,0.633-0.817,0.811-1.323
	c0.176-0.506,0.264-1.09,0.264-1.75c0-0.967-0.271-1.869-0.816-2.705s-1.359-1.471-2.438-1.903c-0.74-0.293-1.586-0.619-2.541-0.976
	c-0.955-0.356-1.779-0.693-2.473-1.01c-1.362-0.614-2.422-1.417-3.178-2.411c-0.756-0.994-1.134-2.292-1.134-3.894
	c0-0.92,0.188-1.778,0.563-2.573c0.373-0.795,0.908-1.505,1.601-2.13c0.659-0.59,1.438-1.053,2.335-1.389
	c0.896-0.335,1.835-0.502,2.812-0.502c1.113,0,2.109,0.17,2.99,0.511c0.881,0.341,1.686,0.739,2.412,1.193l0.699-1.159h1.364
	l0.136,8.028h-1.381c-0.25-0.92-0.531-1.801-0.844-2.642c-0.312-0.841-0.719-1.603-1.219-2.284
	c-0.488-0.659-1.084-1.185-1.789-1.577s-1.567-0.588-2.592-0.588c-1.078,0-2,0.347-2.761,1.04s-1.142,1.54-1.142,2.54
	c0,1.046,0.244,1.912,0.732,2.599c0.488,0.688,1.198,1.253,2.131,1.696c0.828,0.398,1.645,0.742,2.445,1.032
	c0.801,0.289,1.576,0.599,2.325,0.929c0.683,0.296,1.34,0.631,1.969,1.005C234.762,21.711,235.311,22.149,235.775,22.649z"/>
<path fill="#313131" d="M258.746,16.121h-1.107c-0.096-0.409-0.271-0.895-0.522-1.458c-0.251-0.562-0.533-1.094-0.845-1.593
	c-0.321-0.523-0.672-0.98-1.053-1.372c-0.382-0.392-0.748-0.617-1.103-0.673c-0.332-0.045-0.751-0.08-1.255-0.103
	c-0.504-0.022-0.971-0.034-1.399-0.034h-0.935v19.345c0,0.375,0.076,0.719,0.227,1.031c0.148,0.312,0.411,0.555,0.786,0.726
	c0.192,0.079,0.597,0.188,1.211,0.323c0.616,0.137,1.095,0.211,1.437,0.223v1.21h-10.75v-1.21c0.299-0.023,0.756-0.068,1.371-0.137
	s1.041-0.153,1.276-0.256c0.353-0.146,0.612-0.36,0.776-0.639c0.166-0.277,0.25-0.65,0.25-1.116V10.889h-0.932
	c-0.332,0-0.744,0.008-1.234,0.025c-0.493,0.017-0.963,0.054-1.412,0.111c-0.354,0.045-0.721,0.27-1.1,0.673
	c-0.379,0.403-0.729,0.86-1.052,1.372c-0.321,0.511-0.604,1.054-0.849,1.627c-0.247,0.574-0.42,1.048-0.516,1.423h-1.123V9.558
	h19.852V16.121L258.746,16.121z"/>
<path fill="#313131" d="M299.771,16.121h-1.106c-0.097-0.409-0.271-0.895-0.522-1.458c-0.252-0.562-0.533-1.094-0.844-1.593
	c-0.322-0.523-0.674-0.98-1.055-1.372c-0.379-0.392-0.748-0.617-1.102-0.673c-0.332-0.045-0.75-0.08-1.254-0.103
	c-0.504-0.022-0.972-0.034-1.4-0.034h-0.934v19.345c0,0.375,0.075,0.719,0.227,1.031c0.15,0.312,0.412,0.555,0.785,0.726
	c0.193,0.079,0.597,0.188,1.213,0.323c0.615,0.137,1.093,0.211,1.436,0.223v1.21h-10.75v-1.21c0.299-0.023,0.756-0.068,1.371-0.137
	c0.616-0.068,1.041-0.153,1.275-0.256c0.354-0.146,0.613-0.36,0.779-0.639c0.164-0.277,0.248-0.65,0.248-1.116V10.889h-0.931
	c-0.332,0-0.745,0.008-1.235,0.025c-0.492,0.017-0.963,0.054-1.412,0.111c-0.354,0.045-0.72,0.27-1.1,0.673
	c-0.38,0.403-0.73,0.86-1.051,1.372c-0.321,0.511-0.604,1.054-0.85,1.627c-0.248,0.574-0.418,1.048-0.516,1.423h-1.123V9.558h19.852
	L299.771,16.121L299.771,16.121z"/>
<path fill="#313131" d="M281.713,33.745H271.66v-1.21c0.886-0.057,1.622-0.17,2.208-0.341c0.584-0.171,0.876-0.38,0.876-0.63
	c0-0.104-0.012-0.228-0.034-0.375s-0.058-0.278-0.101-0.393l-2.004-5.42h-8.49c-0.318,0.795-0.577,1.489-0.776,2.08
	c-0.198,0.591-0.377,1.136-0.536,1.636c-0.15,0.488-0.252,0.886-0.309,1.193c-0.057,0.308-0.085,0.558-0.085,0.75
	c0,0.455,0.358,0.808,1.073,1.058c0.717,0.25,1.522,0.397,2.422,0.442v1.21h-9.108v-1.21c0.295-0.022,0.666-0.088,1.108-0.196
	c0.443-0.107,0.807-0.252,1.09-0.435c0.455-0.308,0.807-0.628,1.059-0.963c0.248-0.335,0.493-0.798,0.731-1.389
	c1.216-3.034,2.557-6.442,4.022-10.227c1.465-3.784,2.772-7.153,3.92-10.107h1.363l8.062,20.861c0.17,0.443,0.363,0.803,0.58,1.074
	c0.215,0.273,0.517,0.54,0.902,0.801c0.262,0.159,0.602,0.292,1.023,0.4c0.421,0.107,0.771,0.168,1.057,0.179v1.211H281.713z
	 M271.982,23.859l-3.664-9.386l-3.609,9.386H271.982z"/>
<g>
	<path fill="#313131" d="M101.399,46.311h-0.492c-0.092-0.349-0.283-0.717-0.575-1.11c-0.291-0.394-0.569-0.61-0.836-0.649
		c-0.136-0.018-0.296-0.031-0.482-0.039c-0.186-0.01-0.397-0.014-0.633-0.014h-1.562v3.741h1.072c0.325,0,0.578-0.034,0.757-0.103
		c0.18-0.067,0.333-0.173,0.46-0.312c0.087-0.098,0.167-0.246,0.241-0.449c0.072-0.204,0.119-0.422,0.141-0.652h0.492v3.662H99.49
		c-0.013-0.193-0.058-0.41-0.134-0.656c-0.078-0.244-0.16-0.422-0.248-0.531c-0.131-0.162-0.297-0.271-0.496-0.332
		c-0.199-0.059-0.44-0.088-0.721-0.088h-1.072v3.203c0,0.145,0.029,0.272,0.085,0.389c0.057,0.111,0.158,0.204,0.302,0.273
		c0.066,0.031,0.208,0.066,0.427,0.11c0.219,0.043,0.386,0.067,0.499,0.071v0.467h-4.036v-0.467c0.131-0.01,0.306-0.021,0.525-0.042
		c0.219-0.021,0.361-0.046,0.426-0.075c0.131-0.059,0.227-0.145,0.286-0.254s0.088-0.246,0.088-0.4V45.33
		c0-0.146-0.024-0.271-0.072-0.385s-0.148-0.201-0.302-0.271c-0.118-0.057-0.276-0.105-0.476-0.15
		c-0.199-0.043-0.357-0.068-0.476-0.078V43.98h7.304V46.311L101.399,46.311z"/>
	<path fill="#313131" d="M108.37,49.991c0,0.456-0.072,0.903-0.217,1.343c-0.144,0.439-0.351,0.812-0.618,1.119
		c-0.302,0.35-0.652,0.609-1.051,0.779c-0.398,0.172-0.846,0.257-1.34,0.257c-0.412,0-0.804-0.077-1.176-0.231
		c-0.373-0.156-0.704-0.383-0.992-0.68c-0.284-0.294-0.512-0.65-0.681-1.074c-0.168-0.422-0.252-0.896-0.252-1.421
		c0-1.011,0.294-1.837,0.884-2.479c0.589-0.645,1.361-0.965,2.315-0.965c0.907,0,1.655,0.307,2.244,0.914
		C108.076,48.163,108.37,48.977,108.37,49.991z M107.011,50.005c0-0.329-0.033-0.675-0.099-1.04
		c-0.065-0.365-0.164-0.676-0.296-0.93c-0.14-0.271-0.324-0.488-0.552-0.652s-0.505-0.246-0.835-0.246
		c-0.338,0-0.625,0.084-0.864,0.25c-0.239,0.166-0.433,0.395-0.582,0.684c-0.141,0.267-0.24,0.568-0.296,0.91
		c-0.056,0.344-0.085,0.674-0.085,0.992c0,0.42,0.034,0.81,0.102,1.164c0.068,0.356,0.176,0.676,0.326,0.955
		c0.149,0.279,0.335,0.5,0.562,0.659c0.225,0.159,0.504,0.239,0.837,0.239c0.548,0,0.982-0.264,1.302-0.793
		C106.852,51.667,107.011,50.936,107.011,50.005z"/>
	<path fill="#313131" d="M115.615,49.991c0,0.456-0.072,0.903-0.216,1.343c-0.145,0.439-0.351,0.812-0.618,1.119
		c-0.302,0.35-0.652,0.609-1.052,0.779c-0.397,0.172-0.845,0.257-1.339,0.257c-0.413,0-0.804-0.077-1.176-0.231
		c-0.372-0.156-0.703-0.383-0.992-0.68c-0.285-0.294-0.512-0.65-0.681-1.074c-0.168-0.422-0.252-0.896-0.252-1.421
		c0-1.011,0.294-1.837,0.884-2.479c0.589-0.645,1.361-0.965,2.315-0.965c0.907,0,1.655,0.307,2.244,0.914
		C115.321,48.163,115.615,48.977,115.615,49.991z M114.257,50.005c0-0.329-0.033-0.675-0.098-1.04
		c-0.066-0.365-0.165-0.676-0.296-0.93c-0.141-0.271-0.324-0.488-0.553-0.652c-0.228-0.164-0.505-0.246-0.834-0.246
		c-0.338,0-0.626,0.084-0.864,0.25c-0.24,0.166-0.433,0.395-0.582,0.684c-0.141,0.267-0.239,0.568-0.296,0.91
		c-0.057,0.344-0.085,0.674-0.085,0.992c0,0.42,0.034,0.81,0.102,1.164c0.068,0.356,0.176,0.676,0.326,0.955
		c0.149,0.279,0.336,0.5,0.562,0.659c0.225,0.159,0.504,0.239,0.838,0.239c0.548,0,0.982-0.264,1.302-0.793
		C114.097,51.667,114.257,50.936,114.257,50.005z"/>
	<path fill="#313131" d="M123.635,53.174l-2.264,0.146l-0.099-0.094v-0.604l-0.052-0.013c-0.228,0.253-0.508,0.462-0.843,0.622
		c-0.334,0.162-0.679,0.244-1.033,0.244c-0.366,0-0.722-0.082-1.064-0.246c-0.343-0.164-0.641-0.396-0.895-0.693
		c-0.258-0.301-0.461-0.664-0.613-1.089c-0.151-0.425-0.226-0.894-0.226-1.404c0-0.468,0.081-0.913,0.243-1.333
		c0.161-0.419,0.384-0.787,0.668-1.102c0.266-0.293,0.593-0.527,0.98-0.703c0.386-0.174,0.781-0.262,1.183-0.262
		c0.302,0,0.597,0.037,0.888,0.115c0.292,0.074,0.541,0.174,0.75,0.291v-2.258c0-0.184-0.03-0.352-0.091-0.502
		c-0.062-0.15-0.147-0.268-0.256-0.346c-0.123-0.083-0.288-0.145-0.496-0.184c-0.208-0.037-0.432-0.062-0.672-0.08v-0.406
		l2.651-0.146l0.099,0.1v8.724c0,0.151,0.029,0.284,0.088,0.392c0.059,0.106,0.146,0.196,0.259,0.271
		c0.083,0.053,0.204,0.085,0.361,0.098c0.157,0.016,0.301,0.021,0.433,0.025v0.436H123.635L123.635,53.174z M121.259,52.039v-3.787
		c-0.035-0.113-0.091-0.236-0.17-0.367c-0.079-0.131-0.176-0.252-0.294-0.361c-0.127-0.107-0.276-0.197-0.446-0.271
		c-0.17-0.071-0.369-0.108-0.596-0.108c-0.263,0-0.504,0.067-0.724,0.203c-0.221,0.138-0.416,0.33-0.586,0.584
		c-0.163,0.246-0.289,0.558-0.383,0.937s-0.141,0.798-0.141,1.258c0,0.367,0.035,0.701,0.105,1c0.07,0.302,0.187,0.579,0.354,0.838
		c0.153,0.244,0.349,0.441,0.586,0.591c0.238,0.147,0.521,0.224,0.849,0.224c0.349,0,0.637-0.076,0.867-0.229
		C120.909,52.391,121.103,52.223,121.259,52.039z"/>
	<path fill="#313131" d="M133.638,53.174c-0.206,0.075-0.386,0.135-0.542,0.182c-0.156,0.047-0.332,0.068-0.529,0.068
		c-0.341,0-0.613-0.08-0.817-0.24c-0.204-0.156-0.333-0.393-0.39-0.696h-0.04c-0.284,0.313-0.59,0.556-0.916,0.722
		c-0.326,0.167-0.719,0.25-1.178,0.25c-0.486,0-0.885-0.146-1.198-0.445s-0.469-0.688-0.469-1.168c0-0.25,0.035-0.475,0.105-0.67
		c0.069-0.197,0.175-0.373,0.314-0.531c0.109-0.131,0.254-0.248,0.433-0.354c0.179-0.104,0.348-0.186,0.505-0.245
		c0.197-0.073,0.597-0.212,1.198-0.411c0.601-0.203,1.007-0.359,1.217-0.475v-0.648c0-0.059-0.012-0.166-0.037-0.328
		c-0.023-0.162-0.075-0.314-0.154-0.459c-0.087-0.162-0.211-0.305-0.371-0.424c-0.16-0.121-0.386-0.182-0.679-0.182
		c-0.202,0-0.388,0.033-0.562,0.104c-0.173,0.066-0.294,0.139-0.364,0.213c0,0.088,0.021,0.217,0.062,0.388s0.062,0.327,0.062,0.473
		c0,0.153-0.069,0.294-0.207,0.419c-0.138,0.127-0.329,0.19-0.574,0.19c-0.219,0-0.379-0.077-0.482-0.231
		c-0.103-0.156-0.154-0.33-0.154-0.521c0-0.202,0.071-0.395,0.213-0.578c0.143-0.184,0.327-0.348,0.555-0.491
		c0.197-0.123,0.435-0.228,0.715-0.312c0.28-0.086,0.554-0.129,0.82-0.129c0.367,0,0.688,0.023,0.962,0.076
		c0.273,0.051,0.521,0.157,0.745,0.322c0.223,0.163,0.393,0.385,0.509,0.66c0.116,0.275,0.173,0.636,0.173,1.072
		c0,0.625-0.006,1.182-0.02,1.662c-0.013,0.484-0.02,1.015-0.02,1.586c0,0.172,0.03,0.308,0.089,0.406
		c0.059,0.104,0.15,0.188,0.272,0.256c0.066,0.039,0.169,0.062,0.312,0.066c0.142,0.004,0.288,0.008,0.437,0.008v0.416H133.638z
		 M131.347,49.709c-0.372,0.109-0.698,0.217-0.979,0.322c-0.279,0.105-0.54,0.236-0.78,0.395c-0.219,0.148-0.392,0.326-0.519,0.529
		c-0.126,0.205-0.19,0.447-0.19,0.729c0,0.362,0.095,0.631,0.285,0.803s0.432,0.256,0.726,0.256c0.311,0,0.584-0.074,0.82-0.229
		c0.236-0.148,0.435-0.328,0.597-0.535L131.347,49.709z"/>
	<path fill="#313131" d="M141.428,53.293h-3.163v-0.434c0.101-0.01,0.211-0.018,0.331-0.027c0.12-0.008,0.22-0.025,0.299-0.051
		c0.122-0.041,0.213-0.109,0.272-0.207c0.059-0.1,0.088-0.227,0.088-0.385v-3.327c0-0.46-0.108-0.813-0.326-1.063
		c-0.217-0.248-0.481-0.373-0.792-0.373c-0.233,0-0.445,0.035-0.639,0.107c-0.193,0.072-0.365,0.161-0.513,0.266
		c-0.145,0.104-0.259,0.209-0.346,0.325c-0.085,0.116-0.147,0.209-0.187,0.278v3.723c0,0.148,0.03,0.271,0.092,0.367
		c0.061,0.096,0.153,0.17,0.275,0.223c0.092,0.045,0.192,0.076,0.299,0.1c0.107,0.021,0.218,0.037,0.332,0.047v0.434h-3.17v-0.434
		c0.101-0.01,0.205-0.02,0.312-0.027s0.2-0.023,0.279-0.051c0.123-0.041,0.214-0.107,0.273-0.207s0.088-0.229,0.088-0.383V48.2
		c0-0.147-0.032-0.284-0.095-0.409c-0.063-0.125-0.152-0.229-0.266-0.305c-0.083-0.055-0.181-0.094-0.295-0.115
		c-0.113-0.021-0.236-0.041-0.367-0.049v-0.436l2.153-0.145l0.092,0.092v0.912h0.033c0.105-0.104,0.236-0.23,0.394-0.377
		c0.158-0.146,0.307-0.266,0.446-0.357c0.162-0.104,0.354-0.19,0.578-0.263c0.224-0.069,0.475-0.104,0.755-0.104
		c0.621,0,1.082,0.193,1.381,0.582c0.299,0.388,0.449,0.9,0.449,1.545v3.367c0,0.152,0.026,0.275,0.079,0.369
		c0.052,0.094,0.142,0.168,0.269,0.221c0.105,0.043,0.195,0.074,0.272,0.094c0.077,0.018,0.183,0.029,0.318,0.039V53.293
		L141.428,53.293z"/>
	<path fill="#313131" d="M149.31,53.174l-2.264,0.146l-0.099-0.094v-0.604l-0.052-0.013c-0.228,0.253-0.508,0.462-0.842,0.622
		c-0.335,0.162-0.678,0.244-1.033,0.244c-0.367,0-0.722-0.082-1.064-0.246c-0.343-0.164-0.641-0.396-0.895-0.693
		c-0.258-0.301-0.461-0.664-0.612-1.089c-0.15-0.425-0.227-0.894-0.227-1.404c0-0.468,0.081-0.913,0.243-1.333
		c0.161-0.419,0.384-0.787,0.668-1.102c0.266-0.293,0.593-0.527,0.98-0.703c0.387-0.174,0.782-0.262,1.183-0.262
		c0.302,0,0.598,0.037,0.889,0.115c0.291,0.074,0.54,0.174,0.75,0.291v-2.258c0-0.184-0.031-0.352-0.092-0.502
		c-0.061-0.15-0.146-0.268-0.256-0.346c-0.122-0.083-0.288-0.145-0.496-0.184c-0.208-0.037-0.432-0.062-0.672-0.08v-0.406
		l2.651-0.146l0.099,0.1v8.724c0,0.151,0.03,0.284,0.089,0.392c0.059,0.105,0.146,0.196,0.259,0.271
		c0.083,0.053,0.204,0.085,0.361,0.098c0.158,0.016,0.302,0.021,0.433,0.025L149.31,53.174L149.31,53.174z M146.935,52.039v-3.787
		c-0.035-0.113-0.092-0.236-0.171-0.367s-0.176-0.252-0.294-0.361c-0.126-0.107-0.276-0.197-0.445-0.271
		c-0.171-0.071-0.37-0.108-0.596-0.108c-0.263,0-0.504,0.067-0.725,0.203c-0.22,0.138-0.416,0.33-0.586,0.584
		c-0.162,0.246-0.289,0.558-0.383,0.937c-0.094,0.379-0.141,0.798-0.141,1.258c0,0.367,0.035,0.701,0.104,1
		c0.07,0.302,0.188,0.579,0.354,0.838c0.153,0.244,0.349,0.441,0.586,0.591c0.238,0.147,0.521,0.224,0.849,0.224
		c0.349,0,0.638-0.076,0.867-0.229C146.584,52.391,146.777,52.223,146.935,52.039z"/>
	<path fill="#313131" d="M159.312,53.174c-0.207,0.075-0.387,0.135-0.543,0.182c-0.154,0.047-0.33,0.068-0.527,0.068
		c-0.342,0-0.614-0.08-0.817-0.24c-0.202-0.156-0.333-0.393-0.391-0.696h-0.04c-0.284,0.313-0.59,0.556-0.916,0.722
		c-0.326,0.167-0.719,0.25-1.178,0.25c-0.485,0-0.884-0.146-1.197-0.445s-0.469-0.688-0.469-1.168c0-0.25,0.035-0.475,0.105-0.67
		c0.07-0.197,0.175-0.373,0.315-0.531c0.11-0.131,0.254-0.248,0.434-0.354c0.179-0.104,0.348-0.186,0.505-0.245
		c0.196-0.073,0.596-0.212,1.197-0.411c0.603-0.203,1.008-0.359,1.217-0.475v-0.648c0-0.059-0.012-0.166-0.036-0.328
		c-0.023-0.162-0.074-0.314-0.154-0.459c-0.088-0.162-0.211-0.305-0.371-0.424c-0.159-0.121-0.385-0.182-0.678-0.182
		c-0.201,0-0.389,0.033-0.562,0.104c-0.173,0.067-0.294,0.139-0.365,0.213c0,0.088,0.021,0.217,0.063,0.388s0.062,0.327,0.062,0.473
		c0,0.153-0.069,0.294-0.207,0.419c-0.138,0.127-0.329,0.19-0.574,0.19c-0.219,0-0.38-0.077-0.482-0.231
		c-0.103-0.156-0.154-0.33-0.154-0.521c0-0.202,0.071-0.395,0.213-0.578c0.142-0.184,0.327-0.348,0.555-0.491
		c0.197-0.123,0.435-0.228,0.714-0.312c0.281-0.086,0.554-0.129,0.82-0.129c0.369,0,0.688,0.023,0.961,0.076
		c0.273,0.051,0.521,0.157,0.746,0.322c0.223,0.163,0.393,0.385,0.508,0.66c0.117,0.275,0.175,0.636,0.175,1.072
		c0,0.625-0.007,1.182-0.021,1.662c-0.013,0.484-0.02,1.015-0.02,1.586c0,0.172,0.029,0.308,0.088,0.406
		c0.059,0.104,0.15,0.188,0.271,0.256c0.066,0.039,0.17,0.062,0.312,0.066s0.288,0.008,0.436,0.008v0.416H159.312z M157.021,49.709
		c-0.373,0.109-0.698,0.217-0.979,0.322c-0.279,0.105-0.541,0.236-0.781,0.395c-0.219,0.148-0.392,0.326-0.519,0.529
		c-0.127,0.205-0.19,0.447-0.19,0.729c0,0.362,0.095,0.631,0.285,0.803c0.189,0.172,0.434,0.256,0.727,0.256
		c0.31,0,0.584-0.074,0.82-0.229c0.235-0.148,0.434-0.328,0.596-0.535L157.021,49.709z"/>
	<path fill="#313131" d="M165.501,52.623c0.175,0.166,0.312,0.354,0.413,0.564c0.102,0.209,0.15,0.471,0.15,0.781
		c0,0.31-0.066,0.602-0.203,0.875c-0.135,0.273-0.342,0.512-0.617,0.713c-0.293,0.205-0.643,0.363-1.051,0.479
		c-0.406,0.113-0.909,0.171-1.51,0.171c-0.979,0-1.711-0.144-2.199-0.43c-0.484-0.287-0.729-0.707-0.729-1.259
		c0-0.445,0.176-0.799,0.525-1.058c0.35-0.258,0.796-0.397,1.338-0.42v-0.092c-0.131-0.039-0.268-0.089-0.406-0.147
		c-0.141-0.06-0.261-0.127-0.361-0.207c-0.113-0.092-0.205-0.199-0.275-0.324s-0.105-0.277-0.105-0.461
		c0-0.231,0.082-0.445,0.246-0.642c0.165-0.194,0.413-0.36,0.745-0.502v-0.099c-0.42-0.197-0.746-0.45-0.978-0.76
		s-0.348-0.666-0.348-1.071c0-0.613,0.229-1.116,0.686-1.511c0.457-0.396,1.041-0.592,1.755-0.592c0.196,0,0.394,0.021,0.587,0.062
		c0.195,0.039,0.393,0.09,0.594,0.149h2.262v0.629h-1.521v0.041c0.162,0.188,0.281,0.396,0.361,0.623
		c0.078,0.228,0.117,0.451,0.117,0.668c0,0.569-0.229,1.051-0.691,1.444c-0.463,0.396-0.999,0.591-1.612,0.591h-0.794
		c-0.102,0.034-0.206,0.1-0.314,0.19c-0.109,0.092-0.164,0.217-0.164,0.373c0,0.163,0.045,0.286,0.138,0.37
		c0.092,0.087,0.203,0.145,0.334,0.175c0.127,0.035,0.274,0.058,0.442,0.065c0.168,0.006,0.344,0.016,0.522,0.021
		c0.192,0.005,0.456,0.019,0.791,0.039s0.572,0.035,0.712,0.039c0.202,0.01,0.403,0.057,0.607,0.146
		C165.15,52.348,165.334,52.471,165.501,52.623z M164.988,54.211c0-0.244-0.057-0.445-0.17-0.604s-0.286-0.264-0.519-0.321
		c-0.122-0.019-0.374-0.037-0.754-0.06c-0.381-0.021-0.823-0.033-1.325-0.033c-0.474,0.093-0.81,0.246-1.008,0.463
		c-0.199,0.217-0.298,0.496-0.298,0.838c0,0.152,0.032,0.299,0.099,0.439c0.064,0.14,0.178,0.269,0.34,0.387
		c0.154,0.113,0.359,0.207,0.617,0.279c0.258,0.07,0.573,0.106,0.945,0.106c0.643,0,1.148-0.124,1.52-0.371
		C164.805,55.09,164.988,54.715,164.988,54.211z M163.729,48.783c0-0.512-0.104-0.92-0.312-1.225s-0.5-0.455-0.876-0.455
		c-0.206,0-0.382,0.043-0.527,0.129c-0.147,0.084-0.267,0.205-0.359,0.363c-0.086,0.145-0.148,0.316-0.186,0.521
		c-0.039,0.204-0.057,0.413-0.057,0.627c0,0.485,0.105,0.882,0.318,1.188s0.488,0.461,0.824,0.461c0.375,0,0.666-0.152,0.869-0.457
		S163.729,49.248,163.729,48.783z"/>
	<path fill="#313131" d="M171.756,47.654c0,0.225-0.055,0.422-0.164,0.594c-0.109,0.174-0.277,0.26-0.505,0.26
		c-0.245,0-0.433-0.062-0.562-0.188c-0.129-0.128-0.193-0.27-0.193-0.422c0-0.098,0.008-0.185,0.023-0.264
		c0.015-0.078,0.028-0.156,0.041-0.236c-0.205,0-0.445,0.084-0.722,0.25c-0.274,0.166-0.51,0.402-0.702,0.709v3.77
		c0,0.152,0.03,0.277,0.09,0.373c0.059,0.098,0.151,0.169,0.278,0.219c0.109,0.043,0.25,0.074,0.423,0.1
		c0.174,0.021,0.323,0.035,0.45,0.045v0.434h-3.413v-0.434c0.1-0.01,0.205-0.018,0.312-0.027c0.107-0.008,0.199-0.025,0.279-0.051
		c0.121-0.041,0.213-0.107,0.271-0.207c0.059-0.098,0.089-0.227,0.089-0.383v-3.993c0-0.136-0.032-0.269-0.095-0.399
		c-0.062-0.129-0.152-0.235-0.266-0.312c-0.084-0.055-0.183-0.094-0.295-0.115c-0.113-0.021-0.236-0.041-0.369-0.049v-0.436
		l2.152-0.145l0.092,0.092v0.912h0.033c0.271-0.354,0.573-0.623,0.906-0.807s0.636-0.275,0.912-0.275c0.275,0,0.5,0.09,0.673,0.27
		C171.669,47.112,171.756,47.354,171.756,47.654z"/>
	<path fill="#313131" d="M175.443,53.293h-3.123v-0.434c0.101-0.01,0.205-0.018,0.312-0.027c0.106-0.008,0.2-0.025,0.279-0.051
		c0.123-0.041,0.214-0.107,0.272-0.207c0.06-0.098,0.088-0.227,0.088-0.383v-3.993c0-0.14-0.031-0.267-0.094-0.384
		c-0.064-0.115-0.152-0.213-0.267-0.291c-0.083-0.053-0.203-0.098-0.361-0.135c-0.157-0.037-0.302-0.062-0.433-0.068v-0.434
		l2.283-0.146l0.093,0.092v5.277c0,0.15,0.028,0.277,0.087,0.381c0.059,0.102,0.15,0.175,0.277,0.225
		c0.097,0.038,0.188,0.069,0.281,0.096c0.09,0.021,0.192,0.039,0.305,0.049V53.293z M174.624,44.189
		c0,0.248-0.082,0.467-0.247,0.652c-0.164,0.187-0.365,0.277-0.605,0.277c-0.225,0-0.418-0.088-0.582-0.268
		c-0.164-0.176-0.246-0.379-0.246-0.605c0-0.238,0.082-0.447,0.246-0.629s0.357-0.271,0.582-0.271c0.248,0,0.453,0.084,0.613,0.252
		C174.544,43.771,174.624,43.967,174.624,44.189z"/>
	<path fill="#313131" d="M179.236,53.463c-0.936,0-1.668-0.311-2.198-0.932c-0.529-0.621-0.793-1.455-0.793-2.5
		c0-0.455,0.071-0.881,0.213-1.277c0.144-0.396,0.349-0.756,0.62-1.078c0.259-0.312,0.582-0.562,0.972-0.752
		c0.39-0.191,0.813-0.285,1.272-0.285c0.636,0,1.152,0.15,1.55,0.455s0.597,0.719,0.597,1.244c0,0.219-0.052,0.412-0.156,0.58
		c-0.105,0.168-0.278,0.253-0.52,0.253c-0.258,0-0.458-0.065-0.6-0.196c-0.144-0.131-0.213-0.275-0.213-0.438
		c0-0.197,0.025-0.398,0.078-0.605s0.084-0.357,0.092-0.455c-0.078-0.135-0.195-0.227-0.35-0.271
		c-0.156-0.045-0.322-0.067-0.501-0.067c-0.21,0-0.409,0.045-0.601,0.135c-0.188,0.09-0.373,0.255-0.551,0.494
		c-0.164,0.22-0.293,0.516-0.394,0.888s-0.151,0.815-0.151,1.332c0,0.813,0.182,1.479,0.541,1.991
		c0.36,0.515,0.834,0.771,1.418,0.771c0.424,0,0.779-0.104,1.066-0.312c0.285-0.207,0.551-0.517,0.796-0.93l0.419,0.275
		c-0.289,0.516-0.669,0.926-1.142,1.227C180.229,53.312,179.741,53.463,179.236,53.463z"/>
	<path fill="#313131" d="M189.286,53.174l-2.113,0.146l-0.098-0.094v-0.818h-0.04c-0.105,0.107-0.223,0.229-0.354,0.354
		c-0.132,0.125-0.283,0.235-0.453,0.338c-0.195,0.117-0.387,0.207-0.569,0.269s-0.443,0.093-0.78,0.093
		c-0.572,0-1.007-0.188-1.307-0.561c-0.299-0.375-0.448-0.918-0.448-1.631v-3.094c0-0.156-0.03-0.289-0.09-0.396
		c-0.06-0.105-0.146-0.199-0.261-0.277c-0.08-0.053-0.178-0.092-0.297-0.115c-0.119-0.022-0.244-0.041-0.377-0.05v-0.433
		l2.159-0.158l0.099,0.092v4.496c0,0.469,0.105,0.82,0.315,1.057c0.21,0.237,0.461,0.354,0.755,0.354c0.24,0,0.455-0.036,0.643-0.11
		c0.189-0.074,0.347-0.16,0.474-0.263c0.118-0.092,0.222-0.188,0.312-0.291c0.09-0.104,0.16-0.198,0.207-0.285v-3.665
		c0-0.144-0.03-0.271-0.092-0.383c-0.061-0.111-0.146-0.206-0.256-0.285c-0.078-0.052-0.195-0.084-0.352-0.096
		c-0.155-0.012-0.329-0.021-0.52-0.029v-0.435l2.355-0.158l0.098,0.092v5.134c0,0.148,0.031,0.275,0.092,0.381
		c0.062,0.104,0.147,0.193,0.256,0.271c0.08,0.048,0.174,0.08,0.283,0.095c0.108,0.016,0.229,0.024,0.36,0.028L189.286,53.174
		L189.286,53.174z"/>
	<path fill="#313131" d="M193.111,53.293h-3.156v-0.434c0.102-0.01,0.208-0.018,0.32-0.029c0.115-0.012,0.209-0.027,0.283-0.049
		c0.123-0.041,0.215-0.109,0.275-0.207c0.062-0.1,0.092-0.227,0.092-0.385v-7.502c0-0.156-0.033-0.305-0.101-0.441
		c-0.068-0.139-0.157-0.246-0.267-0.326c-0.078-0.053-0.224-0.1-0.433-0.144c-0.21-0.044-0.379-0.07-0.505-0.079v-0.42l2.436-0.145
		l0.092,0.098v8.881c0,0.152,0.027,0.279,0.084,0.377c0.057,0.099,0.148,0.174,0.275,0.227c0.098,0.045,0.192,0.076,0.286,0.1
		c0.095,0.021,0.2,0.037,0.317,0.047V53.293z"/>
	<path fill="#313131" d="M197.923,53.01c-0.284,0.118-0.554,0.219-0.808,0.299c-0.254,0.082-0.564,0.121-0.932,0.121
		c-0.543,0-0.924-0.137-1.146-0.408c-0.221-0.273-0.331-0.658-0.331-1.158v-4.385h-1.168v-0.631h1.194v-2.015h1.195v2.015h1.856
		v0.631h-1.845v3.615c0,0.271,0.01,0.498,0.029,0.68c0.021,0.184,0.067,0.342,0.141,0.478c0.07,0.127,0.176,0.226,0.316,0.288
		c0.139,0.064,0.328,0.102,0.564,0.102c0.109,0,0.27-0.013,0.482-0.029c0.211-0.021,0.361-0.047,0.449-0.076L197.923,53.01
		L197.923,53.01z"/>
	<path fill="#313131" d="M205.503,53.174l-2.112,0.146l-0.1-0.094v-0.818h-0.04c-0.104,0.107-0.224,0.229-0.354,0.354
		s-0.281,0.235-0.453,0.338c-0.195,0.117-0.385,0.207-0.569,0.269s-0.442,0.093-0.78,0.093c-0.572,0-1.007-0.188-1.307-0.561
		c-0.299-0.375-0.449-0.918-0.449-1.631v-3.094c0-0.156-0.029-0.289-0.089-0.396c-0.06-0.105-0.146-0.199-0.261-0.277
		c-0.08-0.053-0.178-0.092-0.297-0.115c-0.119-0.022-0.244-0.041-0.377-0.05v-0.433l2.16-0.158l0.098,0.092v4.496
		c0,0.469,0.105,0.82,0.316,1.057c0.209,0.237,0.461,0.354,0.754,0.354c0.241,0,0.455-0.036,0.644-0.11s0.346-0.16,0.473-0.263
		c0.118-0.092,0.222-0.188,0.312-0.291c0.091-0.104,0.16-0.198,0.207-0.285v-3.665c0-0.144-0.03-0.271-0.092-0.383
		c-0.062-0.111-0.146-0.206-0.256-0.285c-0.078-0.052-0.195-0.084-0.351-0.096s-0.33-0.021-0.521-0.029v-0.435l2.355-0.158
		l0.1,0.092v5.134c0,0.148,0.03,0.275,0.092,0.381c0.061,0.104,0.146,0.193,0.256,0.271c0.078,0.048,0.173,0.08,0.281,0.095
		c0.109,0.016,0.23,0.024,0.361,0.028L205.503,53.174L205.503,53.174z"/>
	<path fill="#313131" d="M211.252,47.654c0,0.225-0.055,0.422-0.165,0.594c-0.108,0.174-0.278,0.26-0.505,0.26
		c-0.245,0-0.432-0.062-0.561-0.188c-0.129-0.128-0.193-0.27-0.193-0.422c0-0.098,0.007-0.185,0.023-0.264
		c0.015-0.078,0.028-0.156,0.041-0.236c-0.205,0-0.445,0.084-0.721,0.25s-0.511,0.402-0.703,0.709v3.77
		c0,0.152,0.029,0.277,0.088,0.373c0.06,0.098,0.152,0.169,0.279,0.219c0.109,0.043,0.251,0.074,0.424,0.1
		c0.172,0.021,0.323,0.035,0.449,0.045v0.434h-3.413v-0.434c0.101-0.01,0.205-0.018,0.312-0.027
		c0.107-0.008,0.201-0.025,0.279-0.051c0.123-0.041,0.213-0.107,0.271-0.207c0.059-0.098,0.089-0.227,0.089-0.383v-3.993
		c0-0.136-0.032-0.269-0.097-0.399c-0.062-0.131-0.151-0.235-0.266-0.312c-0.082-0.055-0.182-0.094-0.295-0.115
		s-0.236-0.041-0.367-0.049v-0.436l2.153-0.145l0.093,0.092v0.912h0.032c0.271-0.354,0.573-0.623,0.906-0.807
		s0.636-0.275,0.913-0.275c0.275,0,0.498,0.09,0.672,0.27C211.166,47.112,211.252,47.354,211.252,47.654z"/>
	<path fill="#313131" d="M217.553,51.77c-0.271,0.517-0.634,0.928-1.09,1.232c-0.455,0.309-0.979,0.459-1.568,0.459
		c-0.52,0-0.977-0.092-1.367-0.273c-0.391-0.186-0.715-0.435-0.969-0.748c-0.252-0.314-0.442-0.685-0.566-1.104
		c-0.125-0.421-0.188-0.862-0.188-1.332c0-0.421,0.066-0.833,0.2-1.235c0.134-0.405,0.33-0.771,0.587-1.094
		c0.25-0.312,0.559-0.562,0.93-0.75c0.369-0.191,0.783-0.287,1.244-0.287c0.473,0,0.877,0.072,1.213,0.224
		c0.338,0.149,0.611,0.353,0.822,0.61c0.2,0.243,0.35,0.532,0.448,0.865c0.099,0.332,0.147,0.693,0.147,1.082v0.436h-4.285
		c0,0.426,0.039,0.812,0.121,1.158c0.082,0.346,0.209,0.649,0.384,0.914c0.17,0.254,0.394,0.453,0.669,0.602
		c0.275,0.146,0.604,0.221,0.984,0.221c0.389,0,0.725-0.092,1.006-0.273c0.283-0.184,0.556-0.512,0.818-0.984L217.553,51.77z
		 M216.102,49.303c0-0.244-0.021-0.507-0.062-0.785c-0.041-0.277-0.108-0.514-0.201-0.699c-0.101-0.199-0.237-0.364-0.413-0.49
		c-0.175-0.126-0.4-0.188-0.676-0.188c-0.459,0-0.841,0.188-1.145,0.57c-0.305,0.383-0.469,0.913-0.496,1.596h2.992V49.303z"/>
	<path fill="#313131" d="M228.631,53.174l-2.265,0.146l-0.099-0.094v-0.604l-0.053-0.013c-0.227,0.253-0.507,0.462-0.842,0.622
		c-0.335,0.162-0.678,0.244-1.033,0.244c-0.367,0-0.723-0.082-1.064-0.246c-0.344-0.164-0.641-0.396-0.895-0.693
		c-0.258-0.301-0.462-0.664-0.613-1.089c-0.15-0.425-0.227-0.894-0.227-1.404c0-0.468,0.081-0.913,0.243-1.333
		c0.161-0.419,0.384-0.787,0.668-1.102c0.267-0.293,0.593-0.527,0.979-0.703c0.387-0.174,0.782-0.262,1.184-0.262
		c0.302,0,0.597,0.037,0.888,0.115c0.291,0.074,0.541,0.174,0.751,0.291v-2.258c0-0.184-0.031-0.352-0.092-0.502
		c-0.062-0.15-0.146-0.268-0.256-0.346c-0.123-0.083-0.288-0.145-0.496-0.184c-0.208-0.037-0.434-0.062-0.674-0.08v-0.406
		l2.652-0.146l0.098,0.1v8.724c0,0.151,0.031,0.284,0.09,0.392c0.059,0.106,0.146,0.196,0.259,0.271
		c0.083,0.053,0.204,0.085,0.36,0.098c0.158,0.016,0.304,0.021,0.435,0.025L228.631,53.174L228.631,53.174z M226.256,52.039v-3.787
		c-0.035-0.113-0.092-0.236-0.171-0.367s-0.176-0.252-0.294-0.361c-0.126-0.107-0.275-0.197-0.445-0.271
		c-0.171-0.071-0.371-0.108-0.596-0.108c-0.264,0-0.504,0.067-0.725,0.203c-0.221,0.138-0.416,0.33-0.586,0.584
		c-0.162,0.246-0.289,0.558-0.383,0.937c-0.095,0.379-0.142,0.798-0.142,1.258c0,0.367,0.035,0.701,0.104,1
		c0.07,0.302,0.188,0.579,0.354,0.838c0.152,0.244,0.35,0.441,0.586,0.591c0.238,0.147,0.521,0.224,0.85,0.224
		c0.348,0,0.637-0.076,0.866-0.229C225.906,52.391,226.098,52.223,226.256,52.039z"/>
	<path fill="#313131" d="M235.393,53.174c-0.207,0.075-0.387,0.135-0.543,0.182c-0.154,0.047-0.33,0.068-0.526,0.068
		c-0.343,0-0.614-0.08-0.817-0.24c-0.203-0.156-0.333-0.393-0.39-0.696h-0.04c-0.284,0.313-0.59,0.556-0.916,0.722
		c-0.326,0.167-0.719,0.25-1.178,0.25c-0.485,0-0.885-0.146-1.197-0.445s-0.471-0.688-0.471-1.168c0-0.25,0.035-0.475,0.105-0.67
		c0.07-0.197,0.176-0.373,0.314-0.531c0.109-0.131,0.254-0.248,0.434-0.354c0.18-0.104,0.348-0.186,0.505-0.245
		c0.197-0.073,0.597-0.212,1.198-0.411c0.602-0.203,1.007-0.359,1.217-0.475v-0.648c0-0.059-0.013-0.166-0.035-0.328
		c-0.025-0.162-0.076-0.314-0.156-0.459c-0.086-0.162-0.211-0.305-0.369-0.424c-0.161-0.121-0.387-0.182-0.68-0.182
		c-0.201,0-0.389,0.033-0.562,0.104c-0.173,0.067-0.294,0.139-0.364,0.213c0,0.088,0.02,0.217,0.062,0.388
		c0.041,0.171,0.062,0.327,0.062,0.473c0,0.153-0.069,0.294-0.207,0.419c-0.138,0.127-0.329,0.19-0.575,0.19
		c-0.218,0-0.379-0.077-0.481-0.231c-0.103-0.156-0.154-0.33-0.154-0.521c0-0.202,0.071-0.395,0.213-0.578s0.327-0.348,0.556-0.491
		c0.195-0.123,0.435-0.228,0.715-0.312c0.279-0.086,0.554-0.129,0.82-0.129c0.366,0,0.688,0.023,0.961,0.076
		c0.273,0.051,0.521,0.157,0.744,0.322c0.225,0.163,0.395,0.385,0.51,0.66c0.117,0.275,0.174,0.636,0.174,1.072
		c0,0.625-0.006,1.182-0.02,1.662c-0.014,0.484-0.021,1.015-0.021,1.586c0,0.172,0.031,0.308,0.09,0.406
		c0.059,0.104,0.148,0.188,0.271,0.256c0.066,0.039,0.17,0.062,0.312,0.066s0.288,0.008,0.438,0.008L235.393,53.174L235.393,53.174z
		 M233.102,49.709c-0.373,0.109-0.697,0.217-0.979,0.322c-0.279,0.105-0.54,0.236-0.779,0.395c-0.221,0.148-0.394,0.326-0.52,0.529
		c-0.127,0.205-0.189,0.447-0.189,0.729c0,0.362,0.094,0.631,0.284,0.803s0.433,0.256,0.726,0.256c0.312,0,0.584-0.074,0.821-0.229
		c0.236-0.148,0.435-0.328,0.597-0.535L233.102,49.709z"/>
	<path fill="#313131" d="M240.032,53.01c-0.285,0.118-0.554,0.219-0.808,0.299c-0.254,0.082-0.564,0.121-0.933,0.121
		c-0.542,0-0.924-0.137-1.146-0.408c-0.221-0.273-0.332-0.658-0.332-1.158v-4.385h-1.168v-0.631h1.195v-2.015h1.194v2.015h1.856
		v0.631h-1.844v3.615c0,0.271,0.01,0.498,0.029,0.68c0.02,0.184,0.066,0.342,0.141,0.478c0.07,0.127,0.174,0.226,0.314,0.288
		c0.141,0.064,0.328,0.102,0.564,0.102c0.109,0,0.27-0.013,0.482-0.029c0.212-0.021,0.361-0.047,0.449-0.076v0.477h0.003V53.01z"/>
	<path fill="#313131" d="M246.805,53.174c-0.205,0.075-0.386,0.135-0.541,0.182c-0.156,0.047-0.332,0.068-0.529,0.068
		c-0.342,0-0.613-0.08-0.816-0.24c-0.204-0.156-0.333-0.393-0.391-0.696h-0.039c-0.284,0.313-0.59,0.556-0.915,0.722
		c-0.326,0.167-0.72,0.25-1.179,0.25c-0.485,0-0.885-0.146-1.197-0.445s-0.471-0.688-0.471-1.168c0-0.25,0.035-0.475,0.105-0.67
		c0.07-0.197,0.175-0.373,0.314-0.531c0.109-0.131,0.254-0.248,0.434-0.354c0.18-0.104,0.348-0.186,0.505-0.245
		c0.197-0.073,0.597-0.212,1.198-0.411c0.602-0.203,1.007-0.359,1.217-0.475v-0.648c0-0.059-0.012-0.166-0.036-0.328
		s-0.075-0.314-0.153-0.459c-0.088-0.162-0.213-0.305-0.373-0.424c-0.158-0.121-0.385-0.182-0.678-0.182
		c-0.201,0-0.389,0.033-0.562,0.104c-0.173,0.067-0.294,0.139-0.364,0.213c0,0.088,0.02,0.217,0.062,0.388
		c0.041,0.171,0.062,0.327,0.062,0.473c0,0.153-0.069,0.294-0.207,0.419c-0.138,0.127-0.329,0.19-0.575,0.19
		c-0.218,0-0.379-0.077-0.482-0.231c-0.103-0.156-0.153-0.33-0.153-0.521c0-0.202,0.071-0.395,0.213-0.578s0.327-0.348,0.556-0.491
		c0.196-0.123,0.436-0.228,0.715-0.312c0.279-0.086,0.554-0.129,0.82-0.129c0.366,0,0.688,0.023,0.961,0.076
		c0.273,0.051,0.521,0.157,0.745,0.322c0.224,0.163,0.394,0.385,0.509,0.66c0.116,0.275,0.174,0.636,0.174,1.072
		c0,0.625-0.006,1.182-0.02,1.662c-0.013,0.484-0.02,1.015-0.02,1.586c0,0.172,0.029,0.308,0.088,0.406
		c0.06,0.104,0.15,0.188,0.273,0.256c0.064,0.039,0.168,0.062,0.311,0.066s0.287,0.008,0.438,0.008v0.416H246.805z M244.514,49.709
		c-0.371,0.109-0.697,0.217-0.978,0.322c-0.279,0.105-0.54,0.236-0.781,0.395c-0.219,0.148-0.392,0.326-0.519,0.529
		c-0.127,0.205-0.19,0.447-0.19,0.729c0,0.362,0.095,0.631,0.286,0.803c0.189,0.172,0.432,0.256,0.725,0.256
		c0.312,0,0.584-0.074,0.821-0.229c0.235-0.148,0.437-0.328,0.597-0.535L244.514,49.709z"/>
	<path fill="#313131" d="M257.837,53.293h-3.164v-0.434c0.101-0.01,0.212-0.018,0.331-0.027c0.121-0.008,0.221-0.025,0.299-0.051
		c0.123-0.041,0.215-0.109,0.273-0.207c0.059-0.1,0.089-0.227,0.089-0.385v-3.327c0-0.46-0.108-0.813-0.326-1.063
		c-0.217-0.248-0.481-0.373-0.792-0.373c-0.232,0-0.445,0.035-0.639,0.107c-0.192,0.072-0.364,0.161-0.514,0.266
		c-0.145,0.104-0.26,0.209-0.346,0.325c-0.085,0.116-0.146,0.209-0.188,0.278v3.723c0,0.148,0.031,0.271,0.093,0.367
		s0.153,0.17,0.274,0.223c0.092,0.045,0.192,0.076,0.299,0.1c0.107,0.021,0.218,0.037,0.332,0.047v0.434h-3.17v-0.434
		c0.101-0.01,0.205-0.02,0.312-0.027c0.108-0.008,0.201-0.023,0.278-0.051c0.123-0.041,0.215-0.107,0.273-0.207
		s0.088-0.229,0.088-0.383V48.2c0-0.147-0.031-0.284-0.096-0.409s-0.152-0.229-0.266-0.305c-0.084-0.055-0.182-0.094-0.295-0.115
		c-0.114-0.021-0.236-0.041-0.367-0.049v-0.436l2.152-0.145l0.092,0.092v0.912h0.033c0.105-0.104,0.236-0.23,0.395-0.377
		s0.307-0.266,0.445-0.357c0.164-0.104,0.354-0.19,0.578-0.263c0.224-0.069,0.476-0.104,0.754-0.104
		c0.621,0,1.082,0.193,1.383,0.582c0.299,0.388,0.449,0.9,0.449,1.545v3.367c0,0.152,0.025,0.275,0.078,0.369
		s0.144,0.168,0.27,0.221c0.105,0.043,0.195,0.074,0.271,0.094c0.078,0.018,0.185,0.029,0.319,0.039V53.293z"/>
	<path fill="#313131" d="M264.381,51.77c-0.271,0.517-0.635,0.928-1.09,1.232c-0.456,0.309-0.979,0.459-1.568,0.459
		c-0.521,0-0.977-0.092-1.369-0.273c-0.392-0.186-0.713-0.435-0.967-0.748c-0.254-0.314-0.443-0.685-0.568-1.104
		c-0.125-0.421-0.187-0.862-0.187-1.332c0-0.421,0.066-0.833,0.201-1.235c0.133-0.405,0.329-0.771,0.587-1.094
		c0.249-0.312,0.559-0.562,0.928-0.75c0.371-0.191,0.785-0.287,1.244-0.287c0.473,0,0.877,0.072,1.215,0.224
		c0.338,0.149,0.61,0.353,0.82,0.61c0.202,0.243,0.352,0.532,0.449,0.865c0.099,0.332,0.148,0.693,0.148,1.082v0.436h-4.287
		c0,0.426,0.041,0.812,0.121,1.158c0.082,0.346,0.209,0.649,0.385,0.914c0.17,0.254,0.395,0.453,0.67,0.602
		c0.275,0.146,0.604,0.221,0.984,0.221c0.389,0,0.725-0.092,1.006-0.273c0.283-0.184,0.556-0.512,0.817-0.984L264.381,51.77z
		 M262.93,49.303c0-0.244-0.021-0.507-0.062-0.785c-0.041-0.277-0.107-0.514-0.199-0.699c-0.102-0.199-0.238-0.364-0.414-0.49
		c-0.175-0.126-0.4-0.188-0.676-0.188c-0.46,0-0.842,0.188-1.146,0.57c-0.304,0.383-0.469,0.913-0.496,1.596h2.994V49.303z"/>
	<path fill="#313131" d="M269.125,53.01c-0.285,0.118-0.555,0.219-0.807,0.299c-0.254,0.082-0.564,0.121-0.934,0.121
		c-0.541,0-0.924-0.137-1.145-0.408c-0.221-0.273-0.332-0.658-0.332-1.158v-4.385h-1.167v-0.631h1.194v-2.015h1.194v2.015h1.856
		v0.631h-1.844v3.615c0,0.271,0.01,0.498,0.029,0.68c0.02,0.184,0.066,0.342,0.141,0.478c0.07,0.127,0.176,0.226,0.314,0.288
		c0.141,0.064,0.329,0.102,0.564,0.102c0.109,0,0.271-0.013,0.482-0.029c0.213-0.021,0.362-0.047,0.45-0.076L269.125,53.01
		L269.125,53.01z"/>
	<path fill="#313131" d="M279.41,47.241c-0.184,0.019-0.383,0.094-0.594,0.229c-0.213,0.137-0.366,0.34-0.463,0.609
		c-0.219,0.645-0.426,1.252-0.621,1.827c-0.193,0.573-0.412,1.222-0.652,1.938c-0.078,0.229-0.158,0.474-0.239,0.734
		c-0.081,0.262-0.153,0.514-0.22,0.754h-0.561l-1.746-4.77l-1.75,4.77h-0.539c-0.328-0.971-0.647-1.936-0.961-2.891
		c-0.312-0.956-0.588-1.789-0.83-2.497c-0.07-0.206-0.203-0.367-0.4-0.485c-0.197-0.117-0.387-0.189-0.57-0.21v-0.434h2.887v0.46
		c-0.145,0.004-0.301,0.027-0.469,0.072c-0.168,0.043-0.252,0.114-0.252,0.215c0,0.02,0.008,0.056,0.022,0.113
		c0.015,0.057,0.034,0.115,0.056,0.184c0.141,0.458,0.299,0.971,0.475,1.535c0.178,0.564,0.406,1.301,0.687,2.205l1.649-4.652h0.636
		l1.687,4.588c0.189-0.586,0.375-1.152,0.562-1.701c0.187-0.547,0.349-1.062,0.489-1.543c0.031-0.113,0.062-0.217,0.09-0.311
		c0.029-0.094,0.041-0.188,0.041-0.279c0-0.078-0.035-0.148-0.104-0.209c-0.07-0.062-0.154-0.111-0.256-0.15
		c-0.088-0.035-0.184-0.062-0.285-0.08c-0.104-0.018-0.18-0.024-0.227-0.024v-0.42h2.46L279.41,47.241L279.41,47.241z"/>
	<path fill="#313131" d="M285.993,49.991c0,0.456-0.073,0.903-0.218,1.343c-0.144,0.439-0.35,0.812-0.616,1.119
		c-0.304,0.35-0.653,0.609-1.052,0.779c-0.397,0.172-0.846,0.257-1.34,0.257c-0.412,0-0.805-0.077-1.176-0.231
		c-0.373-0.156-0.703-0.383-0.992-0.68c-0.283-0.294-0.512-0.65-0.681-1.074c-0.167-0.422-0.252-0.896-0.252-1.421
		c0-1.011,0.294-1.837,0.884-2.479c0.59-0.645,1.361-0.965,2.315-0.965c0.907,0,1.655,0.307,2.243,0.914
		C285.698,48.163,285.993,48.977,285.993,49.991z M284.635,50.005c0-0.329-0.033-0.675-0.1-1.04
		c-0.064-0.365-0.164-0.676-0.297-0.93c-0.139-0.271-0.323-0.488-0.551-0.652c-0.229-0.164-0.506-0.246-0.834-0.246
		c-0.338,0-0.627,0.084-0.865,0.25c-0.24,0.166-0.434,0.395-0.582,0.684c-0.141,0.267-0.24,0.568-0.297,0.91
		c-0.057,0.344-0.084,0.674-0.084,0.992c0,0.42,0.033,0.81,0.102,1.164c0.066,0.356,0.176,0.676,0.326,0.955
		c0.148,0.279,0.336,0.5,0.562,0.659c0.226,0.159,0.504,0.239,0.838,0.239c0.547,0,0.981-0.264,1.301-0.793
		C284.475,51.667,284.635,50.936,284.635,50.005z"/>
	<path fill="#313131" d="M291.879,47.654c0,0.225-0.055,0.422-0.165,0.594c-0.108,0.174-0.276,0.26-0.505,0.26
		c-0.245,0-0.432-0.062-0.562-0.188c-0.127-0.128-0.192-0.27-0.192-0.422c0-0.098,0.007-0.185,0.022-0.264
		c0.016-0.078,0.029-0.156,0.043-0.236c-0.207,0-0.446,0.084-0.723,0.25c-0.275,0.166-0.51,0.402-0.701,0.709v3.77
		c0,0.152,0.028,0.277,0.088,0.373c0.059,0.098,0.151,0.169,0.277,0.219c0.109,0.043,0.251,0.074,0.424,0.1
		c0.172,0.021,0.322,0.035,0.449,0.045v0.434h-3.413v-0.434c0.101-0.01,0.205-0.018,0.312-0.027
		c0.106-0.008,0.201-0.025,0.279-0.051c0.123-0.041,0.213-0.107,0.272-0.207c0.06-0.098,0.088-0.227,0.088-0.383v-3.993
		c0-0.136-0.033-0.269-0.097-0.399c-0.062-0.129-0.151-0.235-0.266-0.312c-0.082-0.055-0.181-0.094-0.295-0.115
		c-0.113-0.021-0.236-0.041-0.367-0.049v-0.436l2.153-0.145l0.093,0.092v0.912h0.032c0.271-0.354,0.573-0.623,0.906-0.807
		s0.636-0.275,0.911-0.275c0.277,0,0.5,0.09,0.674,0.27C291.793,47.112,291.879,47.354,291.879,47.654z"/>
	<path fill="#313131" d="M299.29,53.293h-1.953c-0.341-0.494-0.708-1.023-1.099-1.587s-0.793-1.112-1.215-1.646l-0.539,0.502v1.535
		c0,0.156,0.029,0.287,0.086,0.391s0.148,0.179,0.275,0.227c0.104,0.045,0.205,0.076,0.303,0.1c0.096,0.021,0.207,0.037,0.334,0.047
		v0.434h-3.17v-0.434c0.099-0.01,0.205-0.02,0.312-0.029c0.108-0.012,0.2-0.025,0.272-0.049c0.125-0.041,0.215-0.107,0.275-0.207
		c0.061-0.102,0.092-0.229,0.092-0.387v-7.526c0-0.161-0.035-0.312-0.104-0.455c-0.066-0.144-0.156-0.252-0.266-0.325
		c-0.092-0.07-0.235-0.115-0.43-0.138c-0.195-0.022-0.352-0.038-0.47-0.047v-0.42l2.396-0.146l0.092,0.1v6.847
		c0.343-0.342,0.711-0.707,1.107-1.101c0.396-0.392,0.729-0.738,1-1.045c0.036-0.041,0.074-0.092,0.115-0.155
		c0.042-0.062,0.062-0.115,0.062-0.154c0-0.118-0.096-0.205-0.285-0.263c-0.191-0.059-0.375-0.098-0.549-0.119v-0.42h2.849v0.406
		c-0.368,0.108-0.693,0.246-0.976,0.41c-0.283,0.164-0.498,0.312-0.646,0.442c-0.104,0.087-0.254,0.229-0.446,0.427
		c-0.193,0.195-0.463,0.453-0.809,0.772c0.359,0.44,0.763,0.971,1.211,1.588c0.449,0.617,0.777,1.063,0.982,1.34
		c0.192,0.261,0.365,0.429,0.519,0.506c0.153,0.078,0.377,0.128,0.67,0.146v0.433H299.29z"/>
</g>
<polygon fill="#CCCCCC" points="9.227,9.031 9.227,31.184 9.227,31.337 9.227,53.489 22.996,53.489 22.996,31.337 22.996,31.184 
	22.996,9.031 "/>
<polygon fill="#CCCCCC" points="67.231,9.031 67.231,31.184 67.231,31.337 67.231,53.489 81,53.489 81,31.337 81,31.184 81,9.031 
	"/>
<polygon fill="#CCCCCC" points="47.896,9.031 47.896,31.184 47.896,31.337 47.896,53.489 61.666,53.489 61.666,31.337 
	61.666,31.184 61.666,9.031 "/>
<polygon fill="#CCCCCC" points="28.562,9.031 28.562,31.184 28.562,31.337 28.562,53.489 42.331,53.489 42.331,31.337 
	42.331,31.184 42.331,9.031 "/>
</svg>
