<?xml version="1.0" encoding="utf-8"?>
<!-- Generator: Adobe Illustrator 16.0.0, SVG Export Plug-In . SVG Version: 6.00 Build 0)  -->
<!DOCTYPE svg PUBLIC "-//W3C//DTD SVG 1.1//EN" "http://www.w3.org/Graphics/SVG/1.1/DTD/svg11.dtd">
<svg version="1.1" id="Layer_1" xmlns="http://www.w3.org/2000/svg" xmlns:xlink="http://www.w3.org/1999/xlink" x="0px" y="0px"
	 width="56.812px" height="27.625px" viewBox="0 0 56.812 27.625" enable-background="new 0 0 56.812 27.625" xml:space="preserve">
<path fill="#BCBCBC" d="M5.84,8.089C5.536,8.223,5.238,8.375,4.953,8.551C4.405,8.887,3.925,9.283,3.514,9.729
	c-1.825,1.976-2.309,4.92-1.361,7.816c0.36,1.1,0.927,2.192,1.704,3.224c0.26,0.345,0.536,0.673,0.826,0.981
	c1.1,1.176,2.397,2.094,3.769,2.721c0.067,0.03,0.134,0.061,0.202,0.09c-0.177-2.397-0.35-4.808-0.403-5.739c0-0.004,0-0.01,0-0.015
	c-0.215-3.822-1.583-8.563-2.28-10.773C5.926,8.052,5.883,8.07,5.84,8.089"/>
<path fill="#BCBCBC" d="M14.939,9.29c-0.723,1.887-1.438,4.192-1.644,6.322c-0.01,0.112-0.02,0.224-0.027,0.333
	c-0.29,4.081-0.155,4.845,0.07,9.479c0.116-0.007,0.231-0.018,0.346-0.029c1.131-0.122,2.212-0.469,3.175-1.059
	c0.459-0.282,0.871-0.606,1.234-0.967c1.722-1.707,2.37-4.222,1.879-6.812c-0.285-1.502-0.954-3.03-2.018-4.441
	c-0.148-0.196-0.303-0.388-0.461-0.574C16.785,10.714,15.982,10,15.12,9.412C15.061,9.371,15.001,9.331,14.939,9.29L14.939,9.29
	L14.939,9.29z"/>
<path fill="#BCBCBC" d="M11.4,0.75l1.757,1.887c0,0-1.49,2.388-1.896,2.733c-0.729-0.985-2.057-2.838-2.34-3.463
	C9.208,1.186,11.4,0.75,11.4,0.75"/>
<path fill="#BCBCBC" d="M9.142,15.021C8.789,12.38,6.782,4.882,5.088,2.11c3.561,2.209,5.853,7.164,5.853,7.164
	s2.484-3.92,5.069-4.57c0,0-2.755,4.819-3.665,8.733c-0.774,3.028-0.352,11.9-0.387,13.378c-0.387,0.282-1.584-0.142-1.826-0.691
	C10.198,25.759,9.322,16.373,9.142,15.021"/>
<path fill="#BCBCBC" d="M21.907,15.182c-0.005-0.176-0.013-0.354-0.024-0.531c0.046,0.004,0.097,0.007,0.152,0.011
	c0.055,0.003,0.116,0.005,0.185,0.005s0.129-0.002,0.185-0.005c0.055-0.003,0.105-0.007,0.152-0.011
	c-0.011,0.177-0.019,0.355-0.024,0.531c-0.005,0.177-0.008,0.379-0.008,0.606v0.558c0,0.228,0.002,0.43,0.008,0.606
	s0.014,0.35,0.024,0.52c-0.047-0.006-0.098-0.009-0.152-0.009h-0.185h-0.185c-0.055,0-0.105,0.003-0.152,0.009
	c0.011-0.17,0.019-0.343,0.024-0.52s0.008-0.379,0.008-0.606v-0.558C21.915,15.561,21.912,15.358,21.907,15.182"/>
<path fill="#BCBCBC" d="M23.804,15.805c0.077-0.115,0.166-0.204,0.269-0.267c0.103-0.063,0.219-0.094,0.351-0.094
	c0.205,0,0.362,0.06,0.473,0.178c0.11,0.119,0.166,0.312,0.166,0.577c0,0.14-0.003,0.263-0.008,0.369s-0.008,0.214-0.008,0.319
	c0,0.088,0.002,0.184,0.007,0.286c0.005,0.103,0.01,0.202,0.017,0.298c-0.035-0.006-0.081-0.009-0.136-0.009h-0.172h-0.173
	c-0.055,0-0.1,0.003-0.135,0.009c0.021-0.143,0.034-0.311,0.04-0.503c0.005-0.193,0.008-0.414,0.008-0.664
	c0-0.172-0.029-0.298-0.088-0.38c-0.059-0.08-0.142-0.121-0.249-0.121c-0.124,0-0.214,0.054-0.272,0.161
	c-0.058,0.106-0.086,0.254-0.086,0.442v0.164c0,0.168,0.002,0.325,0.006,0.473c0.004,0.148,0.013,0.29,0.026,0.428
	c-0.035-0.006-0.08-0.009-0.134-0.009h-0.175h-0.173c-0.052,0-0.097,0.003-0.137,0.009c0.014-0.138,0.022-0.279,0.026-0.428
	c0.004-0.147,0.006-0.305,0.006-0.472v-0.164c0-0.167-0.002-0.323-0.006-0.47c-0.003-0.146-0.012-0.294-0.026-0.442
	c0.05,0.005,0.099,0.01,0.147,0.015c0.048,0.004,0.097,0.006,0.146,0.006s0.098-0.002,0.147-0.006
	c0.048-0.004,0.099-0.009,0.154-0.015l-0.016,0.308H23.804L23.804,15.805z"/>
<path fill="#BCBCBC" d="M26.678,15.625c0,0.035,0.004,0.069,0.012,0.102l-0.361-0.01c-0.007,0.063-0.012,0.135-0.017,0.218
	c-0.004,0.082-0.007,0.166-0.009,0.252c-0.001,0.085-0.003,0.167-0.005,0.247c-0.002,0.079-0.002,0.146-0.002,0.201
	c0,0.144,0.003,0.26,0.011,0.348c0.006,0.088,0.018,0.154,0.034,0.201c0.017,0.047,0.041,0.079,0.07,0.096
	c0.031,0.016,0.068,0.024,0.115,0.024c0.052,0,0.09-0.004,0.115-0.01c0.025-0.007,0.049-0.017,0.075-0.029v0.168
	c-0.055,0.025-0.124,0.047-0.206,0.066c-0.083,0.02-0.164,0.028-0.243,0.028c-0.349,0-0.524-0.208-0.524-0.625
	c0-0.079,0.002-0.17,0.004-0.271c0.003-0.1,0.007-0.203,0.012-0.308c0.004-0.106,0.009-0.211,0.012-0.313
	c0.002-0.104,0.004-0.198,0.004-0.286l-0.288,0.004c0.008-0.032,0.012-0.067,0.012-0.102c0-0.033-0.004-0.07-0.012-0.111
	l0.288,0.013c0-0.085-0.001-0.166-0.004-0.24c-0.002-0.074-0.006-0.164-0.012-0.269c0.096-0.039,0.191-0.08,0.284-0.123
	s0.187-0.088,0.28-0.134l0.041,0.029c-0.005,0.044-0.01,0.096-0.014,0.155c-0.005,0.06-0.009,0.122-0.013,0.187
	c-0.004,0.064-0.007,0.131-0.008,0.198c-0.001,0.068-0.002,0.132-0.002,0.192l0.361-0.009
	C26.683,15.556,26.678,15.593,26.678,15.625"/>
<path fill="#BCBCBC" d="M27.641,16.795c0.022,0.098,0.056,0.181,0.1,0.25c0.046,0.07,0.104,0.126,0.173,0.166
	c0.07,0.04,0.151,0.06,0.246,0.06c0.188,0,0.356-0.062,0.505-0.185l0.05,0.037l-0.091,0.23c-0.068,0.053-0.151,0.095-0.247,0.126
	c-0.096,0.032-0.222,0.048-0.378,0.048c-0.134,0-0.262-0.019-0.382-0.055c-0.121-0.038-0.227-0.099-0.319-0.184
	s-0.165-0.192-0.218-0.322s-0.081-0.286-0.081-0.467c0-0.178,0.024-0.332,0.073-0.464c0.047-0.132,0.114-0.241,0.199-0.329
	s0.186-0.154,0.303-0.197c0.117-0.044,0.244-0.066,0.381-0.066c0.271,0,0.479,0.079,0.624,0.237c0.143,0.158,0.216,0.381,0.216,0.67
	v0.085c0,0.024-0.003,0.041-0.009,0.05h-1.178C27.608,16.596,27.619,16.699,27.641,16.795 M28.165,15.812
	c-0.045-0.122-0.121-0.184-0.228-0.184c-0.061,0-0.111,0.02-0.152,0.062c-0.041,0.041-0.074,0.093-0.099,0.156
	c-0.024,0.064-0.043,0.137-0.056,0.217s-0.02,0.159-0.023,0.239h0.633C28.236,16.097,28.211,15.935,28.165,15.812"/>
<path fill="#BCBCBC" d="M29.832,16.003c0.073-0.188,0.16-0.329,0.262-0.417s0.222-0.134,0.361-0.134
	c0.014,0,0.025,0.001,0.035,0.004c0.01,0.002,0.021,0.003,0.03,0.003c-0.008,0.041-0.014,0.084-0.018,0.131
	c-0.005,0.046-0.007,0.1-0.007,0.162v0.131v0.069c0,0.023,0.002,0.048,0.005,0.069l-0.037,0.032
	c-0.027-0.016-0.059-0.029-0.093-0.041c-0.034-0.011-0.073-0.016-0.116-0.016c-0.125,0-0.222,0.04-0.293,0.121
	c-0.071,0.08-0.106,0.177-0.106,0.286v0.165c0,0.167,0.001,0.325,0.006,0.474s0.013,0.291,0.027,0.429
	c-0.037-0.006-0.081-0.009-0.135-0.009h-0.175h-0.173c-0.053,0-0.098,0.003-0.136,0.009c0.013-0.138,0.021-0.28,0.026-0.429
	c0.003-0.147,0.005-0.306,0.005-0.473v-0.164c0-0.168-0.002-0.324-0.005-0.472c-0.005-0.146-0.014-0.294-0.026-0.442
	c0.046,0.005,0.094,0.01,0.141,0.015c0.048,0.004,0.095,0.006,0.142,0.006c0.046,0,0.094-0.002,0.142-0.006
	c0.048-0.004,0.095-0.009,0.141-0.015l-0.012,0.501L29.832,16.003z"/>
<path fill="#BCBCBC" d="M31.525,15.805c0.076-0.115,0.166-0.204,0.269-0.267c0.103-0.063,0.219-0.094,0.351-0.094
	c0.205,0,0.362,0.06,0.474,0.178c0.11,0.119,0.166,0.312,0.166,0.577c0,0.14-0.003,0.263-0.009,0.369
	c-0.005,0.106-0.008,0.214-0.008,0.319c0,0.088,0.002,0.184,0.008,0.286c0.005,0.103,0.01,0.202,0.016,0.298
	c-0.034-0.006-0.08-0.009-0.136-0.009h-0.172H32.31c-0.055,0-0.1,0.003-0.136,0.009c0.021-0.143,0.034-0.311,0.04-0.503
	c0.006-0.193,0.008-0.414,0.008-0.664c0-0.172-0.029-0.298-0.088-0.38c-0.06-0.08-0.143-0.121-0.249-0.121
	c-0.124,0-0.215,0.054-0.272,0.161c-0.058,0.106-0.087,0.254-0.087,0.442v0.164c0,0.168,0.002,0.325,0.006,0.473
	c0.005,0.148,0.014,0.29,0.027,0.428c-0.036-0.006-0.08-0.009-0.135-0.009h-0.175h-0.173c-0.052,0-0.098,0.003-0.137,0.009
	c0.015-0.138,0.023-0.279,0.026-0.428c0.005-0.147,0.007-0.305,0.007-0.472v-0.164c0-0.167-0.002-0.323-0.007-0.47
	c-0.003-0.146-0.012-0.294-0.026-0.442c0.05,0.005,0.099,0.01,0.147,0.015c0.048,0.004,0.097,0.006,0.146,0.006
	c0.05,0,0.099-0.002,0.146-0.006s0.1-0.009,0.154-0.015l-0.016,0.308H31.525L31.525,15.805z"/>
<path fill="#BCBCBC" d="M33.725,15.516c0.134-0.048,0.266-0.072,0.396-0.072c0.11,0,0.212,0.012,0.306,0.037
	c0.093,0.024,0.173,0.064,0.241,0.117c0.068,0.054,0.122,0.123,0.16,0.208c0.037,0.085,0.057,0.188,0.057,0.308
	c0,0.175-0.003,0.338-0.009,0.487c-0.005,0.149-0.008,0.298-0.008,0.446c0,0.065,0.005,0.117,0.015,0.154s0.023,0.065,0.043,0.084
	c0.019,0.02,0.045,0.031,0.076,0.037s0.067,0.008,0.108,0.008v0.099c-0.079,0.033-0.146,0.058-0.201,0.074
	c-0.056,0.017-0.114,0.024-0.178,0.024c-0.102,0-0.184-0.024-0.248-0.074c-0.063-0.049-0.111-0.12-0.145-0.213
	c-0.062,0.088-0.137,0.158-0.221,0.21s-0.189,0.077-0.316,0.077c-0.104,0-0.194-0.014-0.27-0.041
	c-0.074-0.027-0.136-0.066-0.185-0.117s-0.083-0.108-0.105-0.173s-0.033-0.13-0.033-0.196c0-0.09,0.015-0.168,0.043-0.234
	c0.029-0.065,0.07-0.122,0.125-0.168c0.053-0.047,0.117-0.087,0.191-0.118c0.073-0.031,0.158-0.059,0.251-0.08
	c0.115-0.027,0.208-0.052,0.274-0.072c0.067-0.021,0.118-0.041,0.151-0.062c0.032-0.021,0.054-0.044,0.063-0.068
	s0.015-0.055,0.015-0.091c0-0.099-0.035-0.184-0.104-0.253c-0.069-0.07-0.167-0.105-0.29-0.105c-0.047,0-0.095,0.007-0.144,0.019
	c-0.05,0.013-0.098,0.03-0.143,0.052c-0.045,0.022-0.086,0.046-0.123,0.071c-0.037,0.026-0.065,0.055-0.085,0.085h-0.028
	l-0.054-0.247C33.468,15.636,33.592,15.565,33.725,15.516 M34.335,16.58c0.003-0.062,0.004-0.116,0.004-0.162
	c-0.059,0.032-0.12,0.06-0.187,0.079c-0.065,0.021-0.126,0.047-0.18,0.079c-0.055,0.031-0.1,0.074-0.134,0.129
	c-0.035,0.055-0.053,0.134-0.053,0.238c0,0.101,0.021,0.179,0.064,0.231s0.101,0.08,0.173,0.08c0.092,0,0.165-0.034,0.223-0.103
	c0.057-0.068,0.086-0.17,0.086-0.304C34.332,16.731,34.333,16.642,34.335,16.58"/>
<path fill="#BCBCBC" d="M36.559,15.625c0,0.035,0.004,0.069,0.013,0.102l-0.361-0.01c-0.007,0.063-0.012,0.135-0.017,0.218
	c-0.004,0.082-0.008,0.166-0.009,0.252c-0.002,0.085-0.003,0.167-0.005,0.247c-0.002,0.079-0.002,0.146-0.002,0.201
	c0,0.144,0.003,0.26,0.01,0.348s0.019,0.154,0.035,0.201c0.016,0.047,0.039,0.079,0.07,0.096c0.029,0.016,0.068,0.024,0.115,0.024
	c0.052,0,0.09-0.004,0.114-0.01c0.025-0.007,0.05-0.017,0.074-0.029v0.168c-0.055,0.025-0.123,0.047-0.206,0.066
	c-0.082,0.02-0.163,0.028-0.243,0.028c-0.349,0-0.523-0.208-0.523-0.625c0-0.079,0.001-0.17,0.005-0.271
	c0.003-0.1,0.007-0.203,0.011-0.308c0.005-0.106,0.008-0.211,0.012-0.313c0.003-0.104,0.005-0.198,0.005-0.286l-0.288,0.004
	c0.008-0.032,0.013-0.067,0.013-0.102c0-0.033-0.005-0.07-0.013-0.111l0.288,0.013c0-0.085-0.001-0.166-0.004-0.24
	c-0.003-0.074-0.007-0.164-0.013-0.269c0.097-0.039,0.191-0.08,0.284-0.123c0.095-0.043,0.188-0.088,0.281-0.134l0.041,0.029
	c-0.006,0.044-0.011,0.096-0.015,0.155c-0.004,0.06-0.009,0.122-0.013,0.187c-0.004,0.064-0.007,0.131-0.008,0.198
	c-0.001,0.068-0.002,0.132-0.002,0.192l0.362-0.009C36.562,15.556,36.559,15.593,36.559,15.625"/>
<path fill="#BCBCBC" d="M37.087,14.488c0.062-0.063,0.14-0.095,0.23-0.095c0.09,0,0.166,0.031,0.229,0.095
	c0.062,0.063,0.095,0.14,0.095,0.23c0,0.09-0.032,0.167-0.095,0.23c-0.063,0.062-0.14,0.094-0.229,0.094
	c-0.091,0-0.168-0.031-0.23-0.094c-0.063-0.063-0.095-0.141-0.095-0.23C36.992,14.628,37.023,14.551,37.087,14.488 M37.034,15.936
	c-0.004-0.146-0.013-0.294-0.026-0.442c0.038,0.005,0.084,0.01,0.136,0.015s0.109,0.006,0.174,0.006c0.128,0,0.23-0.007,0.308-0.021
	c-0.014,0.148-0.021,0.295-0.026,0.442c-0.003,0.147-0.006,0.304-0.006,0.472v0.164c0,0.167,0.003,0.324,0.006,0.473
	c0.005,0.148,0.013,0.29,0.026,0.427c-0.035-0.005-0.08-0.007-0.134-0.007h-0.174h-0.174c-0.052,0-0.098,0.002-0.136,0.007
	c0.014-0.137,0.022-0.278,0.026-0.427c0.003-0.148,0.006-0.306,0.006-0.473v-0.164C37.04,16.239,37.037,16.083,37.034,15.936"/>
<path fill="#BCBCBC" d="M38.21,16.061c0.056-0.138,0.131-0.252,0.224-0.344s0.201-0.161,0.322-0.206
	c0.122-0.045,0.247-0.067,0.376-0.067c0.32,0,0.568,0.091,0.743,0.271c0.175,0.181,0.263,0.426,0.263,0.736
	c0,0.168-0.024,0.318-0.074,0.452c-0.049,0.135-0.118,0.249-0.206,0.344c-0.09,0.095-0.196,0.165-0.319,0.212
	s-0.259,0.069-0.406,0.069c-0.124,0-0.244-0.016-0.363-0.05c-0.119-0.032-0.227-0.088-0.322-0.166
	c-0.096-0.077-0.173-0.18-0.232-0.306c-0.059-0.126-0.088-0.281-0.088-0.465S38.153,16.196,38.21,16.061 M39.438,15.827
	c-0.06-0.133-0.16-0.199-0.299-0.199c-0.125,0-0.225,0.074-0.297,0.222c-0.072,0.148-0.108,0.379-0.108,0.692
	c0,0.115,0.008,0.223,0.021,0.321c0.015,0.099,0.037,0.184,0.067,0.256c0.032,0.073,0.072,0.129,0.123,0.171
	c0.051,0.041,0.114,0.062,0.19,0.062c0.263,0,0.393-0.321,0.393-0.965C39.528,16.146,39.499,15.96,39.438,15.827"/>
<path fill="#BCBCBC" d="M41.181,15.805c0.075-0.115,0.165-0.204,0.268-0.267c0.103-0.063,0.22-0.094,0.351-0.094
	c0.205,0,0.363,0.06,0.473,0.178c0.111,0.119,0.167,0.312,0.167,0.577c0,0.14-0.003,0.263-0.009,0.369
	c-0.005,0.106-0.008,0.214-0.008,0.319c0,0.088,0.003,0.184,0.008,0.286s0.011,0.202,0.017,0.298
	c-0.035-0.006-0.081-0.009-0.136-0.009h-0.173h-0.173c-0.055,0-0.1,0.003-0.136,0.009c0.021-0.143,0.033-0.311,0.039-0.503
	c0.006-0.193,0.009-0.414,0.009-0.664c0-0.172-0.029-0.298-0.089-0.38c-0.059-0.08-0.142-0.121-0.249-0.121
	c-0.124,0-0.215,0.054-0.272,0.161c-0.058,0.106-0.086,0.254-0.086,0.442v0.164c0,0.168,0.002,0.325,0.005,0.473
	c0.005,0.148,0.014,0.29,0.027,0.428c-0.036-0.006-0.081-0.009-0.134-0.009h-0.176H40.73c-0.052,0-0.097,0.003-0.136,0.009
	c0.014-0.138,0.022-0.279,0.026-0.428c0.003-0.147,0.005-0.305,0.005-0.472v-0.164c0-0.167-0.002-0.323-0.005-0.47
	c-0.004-0.146-0.013-0.294-0.026-0.442c0.05,0.005,0.098,0.01,0.146,0.015c0.049,0.004,0.098,0.006,0.146,0.006
	c0.05,0,0.099-0.002,0.146-0.006s0.1-0.009,0.154-0.015l-0.016,0.308H41.181L41.181,15.805z"/>
<path fill="#BCBCBC" d="M43.38,15.516c0.133-0.048,0.265-0.072,0.396-0.072c0.109,0,0.21,0.012,0.304,0.037s0.174,0.064,0.243,0.117
	c0.068,0.054,0.121,0.123,0.158,0.208c0.039,0.085,0.058,0.188,0.058,0.308c0,0.175-0.003,0.338-0.009,0.487
	c-0.005,0.149-0.008,0.298-0.008,0.446c0,0.065,0.005,0.117,0.014,0.154c0.011,0.037,0.024,0.065,0.044,0.084
	c0.019,0.02,0.044,0.031,0.076,0.037s0.068,0.008,0.108,0.008v0.099c-0.079,0.033-0.146,0.058-0.201,0.074s-0.113,0.024-0.177,0.024
	c-0.103,0-0.185-0.024-0.248-0.074c-0.063-0.049-0.111-0.12-0.145-0.213c-0.064,0.088-0.138,0.158-0.222,0.21
	s-0.189,0.077-0.316,0.077c-0.104,0-0.193-0.014-0.27-0.041c-0.074-0.027-0.136-0.066-0.185-0.117
	c-0.048-0.051-0.083-0.108-0.104-0.173c-0.023-0.064-0.034-0.13-0.034-0.196c0-0.09,0.015-0.168,0.044-0.234
	c0.028-0.065,0.069-0.122,0.124-0.168c0.054-0.047,0.117-0.087,0.191-0.118s0.158-0.059,0.252-0.08
	c0.115-0.027,0.207-0.052,0.274-0.072s0.117-0.041,0.15-0.062c0.032-0.021,0.055-0.044,0.063-0.068
	c0.01-0.024,0.015-0.055,0.015-0.091c0-0.099-0.035-0.184-0.105-0.253c-0.069-0.07-0.166-0.105-0.289-0.105
	c-0.046,0-0.095,0.007-0.145,0.019c-0.049,0.013-0.096,0.03-0.142,0.052c-0.045,0.022-0.087,0.046-0.123,0.071
	c-0.037,0.026-0.065,0.055-0.085,0.085h-0.028l-0.054-0.247C43.122,15.636,43.246,15.565,43.38,15.516 M43.99,16.58
	c0.003-0.062,0.004-0.116,0.004-0.162c-0.06,0.032-0.121,0.06-0.188,0.079c-0.065,0.021-0.125,0.047-0.18,0.079
	c-0.055,0.031-0.1,0.074-0.134,0.129c-0.035,0.055-0.053,0.134-0.053,0.238c0,0.101,0.021,0.179,0.064,0.231s0.101,0.08,0.173,0.08
	c0.092,0,0.166-0.034,0.223-0.103s0.085-0.17,0.085-0.304C43.985,16.731,43.987,16.642,43.99,16.58"/>
<path fill="#BCBCBC" d="M45.215,15.052c-0.006-0.225-0.014-0.453-0.024-0.683c0.035,0.007,0.08,0.012,0.135,0.017
	c0.053,0.004,0.11,0.007,0.17,0.007s0.116-0.002,0.171-0.007c0.054-0.005,0.098-0.01,0.134-0.017
	c-0.008,0.23-0.015,0.458-0.018,0.683c-0.005,0.225-0.006,0.472-0.006,0.741v0.268c0,0.269,0.001,0.516,0.006,0.74
	c0.003,0.226,0.01,0.448,0.018,0.671c-0.036-0.006-0.08-0.009-0.134-0.009h-0.171h-0.17c-0.055,0-0.1,0.003-0.135,0.009
	c0.011-0.224,0.019-0.445,0.024-0.671c0.005-0.225,0.008-0.472,0.008-0.74v-0.268C45.223,15.524,45.22,15.277,45.215,15.052"/>
<path fill="#BCBCBC" d="M21.851,19.077c-0.005-0.176-0.014-0.354-0.024-0.531c0.123,0.002,0.244,0.005,0.363,0.009
	c0.12,0.005,0.241,0.007,0.364,0.007c0.203,0,0.383-0.001,0.541-0.005c0.158-0.004,0.264-0.007,0.319-0.011
	c-0.011,0.043-0.016,0.1-0.016,0.169c0,0.044,0.001,0.078,0.004,0.103c0.002,0.023,0.007,0.051,0.012,0.08
	c-0.079-0.005-0.167-0.011-0.261-0.016c-0.094-0.006-0.186-0.012-0.275-0.017c-0.09-0.005-0.17-0.01-0.241-0.013
	c-0.071-0.002-0.122-0.004-0.152-0.004c-0.009,0.151-0.013,0.301-0.014,0.449c-0.002,0.148-0.002,0.298-0.002,0.45
	c0.175-0.003,0.335-0.007,0.479-0.013c0.144-0.005,0.294-0.012,0.451-0.02c-0.009,0.046-0.014,0.082-0.017,0.106
	s-0.004,0.051-0.004,0.077c0,0.022,0.002,0.045,0.006,0.068c0.004,0.023,0.009,0.057,0.015,0.101
	c-0.312-0.026-0.622-0.04-0.929-0.04v0.21c0,0.228,0.003,0.431,0.008,0.607c0.006,0.177,0.014,0.351,0.024,0.521
	c-0.046-0.006-0.097-0.009-0.152-0.009h-0.185h-0.185c-0.055,0-0.105,0.003-0.152,0.009c0.01-0.17,0.019-0.343,0.024-0.52
	s0.008-0.379,0.008-0.606v-0.559C21.859,19.456,21.856,19.254,21.851,19.077"/>
<path fill="#BCBCBC" d="M24.282,20.691c0.022,0.097,0.056,0.18,0.101,0.25c0.045,0.07,0.103,0.125,0.172,0.165
	c0.07,0.04,0.152,0.06,0.245,0.06c0.189,0,0.357-0.062,0.505-0.185l0.05,0.037l-0.091,0.23c-0.068,0.053-0.15,0.095-0.246,0.126
	c-0.096,0.032-0.222,0.048-0.378,0.048c-0.134,0-0.261-0.018-0.382-0.056c-0.121-0.037-0.227-0.098-0.319-0.183
	c-0.091-0.085-0.164-0.192-0.217-0.322c-0.054-0.131-0.081-0.286-0.081-0.467c0-0.178,0.024-0.333,0.072-0.465
	c0.049-0.131,0.115-0.24,0.2-0.328c0.085-0.088,0.186-0.154,0.302-0.197c0.117-0.044,0.244-0.066,0.381-0.066
	c0.272,0,0.479,0.079,0.624,0.237c0.144,0.158,0.216,0.382,0.216,0.67v0.086c0,0.024-0.002,0.041-0.008,0.049H24.25
	C24.25,20.491,24.26,20.595,24.282,20.691 M24.806,19.707c-0.045-0.122-0.121-0.184-0.228-0.184c-0.06,0-0.111,0.02-0.152,0.062
	c-0.042,0.04-0.075,0.093-0.099,0.156c-0.024,0.064-0.043,0.137-0.055,0.217c-0.013,0.08-0.021,0.16-0.022,0.239h0.633
	C24.876,19.992,24.851,19.83,24.806,19.707"/>
<path fill="#BCBCBC" d="M26.473,19.898c0.073-0.189,0.16-0.328,0.261-0.418c0.102-0.089,0.222-0.134,0.362-0.134
	c0.014,0,0.026,0.002,0.035,0.005c0.009,0.002,0.02,0.003,0.031,0.003c-0.008,0.041-0.015,0.084-0.019,0.131
	c-0.004,0.046-0.006,0.1-0.006,0.162v0.131v0.068c0,0.025,0.001,0.048,0.004,0.07l-0.038,0.032c-0.027-0.016-0.058-0.03-0.093-0.041
	c-0.034-0.011-0.073-0.016-0.116-0.016c-0.124,0-0.221,0.04-0.292,0.121c-0.071,0.08-0.106,0.177-0.106,0.286v0.164
	c0,0.168,0.002,0.326,0.006,0.475c0.004,0.148,0.013,0.29,0.027,0.428c-0.036-0.005-0.081-0.008-0.135-0.008H26.22h-0.173
	c-0.052,0-0.098,0.003-0.136,0.008c0.013-0.137,0.022-0.279,0.026-0.428c0.003-0.147,0.005-0.306,0.005-0.473v-0.164
	c0-0.168-0.002-0.325-0.005-0.472c-0.004-0.146-0.013-0.294-0.026-0.442c0.046,0.006,0.094,0.011,0.141,0.015
	c0.048,0.005,0.095,0.007,0.142,0.007c0.046,0,0.093-0.002,0.142-0.007c0.048-0.004,0.095-0.009,0.142-0.015l-0.013,0.502
	L26.473,19.898z"/>
<path fill="#BCBCBC" d="M28.652,19.521c0,0.035,0.004,0.068,0.012,0.102l-0.362-0.011c-0.006,0.063-0.011,0.136-0.015,0.219
	c-0.006,0.083-0.009,0.166-0.01,0.251c-0.001,0.086-0.003,0.168-0.005,0.248c-0.001,0.079-0.002,0.146-0.002,0.202
	c0,0.143,0.003,0.259,0.01,0.346c0.008,0.088,0.019,0.155,0.036,0.203c0.016,0.046,0.039,0.077,0.069,0.095
	c0.03,0.016,0.068,0.024,0.115,0.024c0.052,0,0.09-0.004,0.114-0.011c0.025-0.006,0.05-0.016,0.074-0.029v0.169
	c-0.055,0.024-0.123,0.047-0.206,0.066c-0.081,0.02-0.162,0.028-0.242,0.028c-0.35,0-0.523-0.208-0.523-0.626
	c0-0.079,0.001-0.169,0.004-0.27s0.007-0.202,0.011-0.309c0.005-0.105,0.01-0.209,0.012-0.312c0.003-0.104,0.005-0.198,0.005-0.286
	l-0.288,0.004c0.008-0.033,0.012-0.067,0.012-0.103c0-0.032-0.004-0.069-0.012-0.11l0.288,0.013c0-0.086-0.001-0.165-0.004-0.24
	c-0.003-0.074-0.006-0.165-0.013-0.269c0.098-0.039,0.191-0.08,0.285-0.123c0.094-0.042,0.188-0.087,0.28-0.134l0.041,0.028
	c-0.005,0.045-0.011,0.096-0.015,0.156c-0.004,0.059-0.008,0.12-0.012,0.186s-0.007,0.132-0.009,0.199
	c-0.001,0.067-0.002,0.131-0.002,0.191l0.362-0.008C28.656,19.451,28.652,19.488,28.652,19.521"/>
<path fill="#BCBCBC" d="M29.18,18.384c0.062-0.063,0.14-0.095,0.23-0.095s0.167,0.031,0.229,0.095
	c0.063,0.062,0.095,0.14,0.095,0.229c0,0.091-0.031,0.168-0.095,0.23c-0.062,0.063-0.139,0.095-0.229,0.095s-0.168-0.031-0.23-0.095
	c-0.063-0.062-0.095-0.14-0.095-0.23C29.085,18.523,29.116,18.446,29.18,18.384 M29.127,19.831
	c-0.003-0.147-0.013-0.294-0.026-0.442c0.038,0.005,0.084,0.011,0.137,0.015c0.052,0.004,0.108,0.006,0.173,0.006
	c0.129,0,0.23-0.006,0.309-0.021c-0.014,0.148-0.022,0.296-0.026,0.442s-0.007,0.304-0.007,0.471v0.164
	c0,0.168,0.003,0.325,0.007,0.474c0.004,0.147,0.013,0.29,0.026,0.428c-0.036-0.005-0.081-0.009-0.135-0.009H29.41h-0.173
	c-0.053,0-0.099,0.003-0.137,0.009c0.014-0.138,0.022-0.28,0.026-0.428c0.004-0.148,0.006-0.306,0.006-0.474v-0.164
	C29.133,20.135,29.131,19.978,29.127,19.831"/>
<path fill="#BCBCBC" d="M30.371,18.947c-0.005-0.225-0.014-0.452-0.023-0.683c0.034,0.007,0.079,0.013,0.134,0.017
	c0.054,0.005,0.11,0.008,0.17,0.008s0.116-0.003,0.171-0.008c0.055-0.004,0.099-0.01,0.134-0.017
	c-0.008,0.23-0.014,0.458-0.018,0.683c-0.005,0.226-0.007,0.473-0.007,0.741v0.267c0,0.27,0.002,0.517,0.007,0.741
	c0.004,0.225,0.01,0.448,0.018,0.67c-0.035-0.005-0.079-0.008-0.134-0.008h-0.171h-0.17c-0.055,0-0.1,0.003-0.134,0.008
	c0.01-0.222,0.019-0.445,0.023-0.67c0.006-0.226,0.009-0.472,0.009-0.741v-0.267C30.379,19.42,30.377,19.173,30.371,18.947"/>
<path fill="#BCBCBC" d="M31.672,18.384c0.063-0.063,0.14-0.095,0.229-0.095c0.091,0,0.167,0.031,0.23,0.095
	c0.062,0.062,0.095,0.14,0.095,0.229c0,0.091-0.032,0.168-0.095,0.23c-0.063,0.063-0.14,0.095-0.23,0.095
	c-0.09,0-0.166-0.031-0.229-0.095c-0.063-0.062-0.095-0.14-0.095-0.23C31.577,18.523,31.608,18.446,31.672,18.384 M31.618,19.831
	c-0.003-0.147-0.012-0.294-0.025-0.442c0.038,0.005,0.084,0.011,0.136,0.015s0.109,0.006,0.173,0.006
	c0.129,0,0.231-0.006,0.309-0.021c-0.014,0.148-0.022,0.296-0.026,0.442s-0.006,0.304-0.006,0.471v0.164
	c0,0.168,0.002,0.325,0.006,0.474c0.004,0.147,0.013,0.29,0.026,0.428c-0.035-0.005-0.08-0.009-0.134-0.009h-0.175h-0.173
	c-0.052,0-0.098,0.003-0.136,0.009c0.014-0.138,0.022-0.28,0.025-0.428c0.005-0.148,0.007-0.306,0.007-0.474v-0.164
	C31.625,20.135,31.623,19.978,31.618,19.831"/>
<path fill="#BCBCBC" d="M33.246,20.419c0.178-0.261,0.356-0.527,0.537-0.8c-0.08,0-0.152,0.001-0.219,0.002
	c-0.065,0.002-0.133,0.004-0.203,0.008c-0.069,0.003-0.147,0.009-0.232,0.016c-0.085,0.009-0.186,0.019-0.304,0.031
	c0.011-0.045,0.017-0.094,0.017-0.146s-0.006-0.101-0.017-0.143c0.068,0.007,0.136,0.012,0.202,0.018
	c0.065,0.005,0.132,0.007,0.201,0.007h0.447h0.457c0.076,0,0.146-0.002,0.208-0.007c0.062-0.006,0.117-0.011,0.167-0.018v0.165
	c-0.192,0.268-0.38,0.532-0.563,0.796c-0.184,0.263-0.359,0.529-0.526,0.803h0.238c0.058,0,0.113-0.001,0.168-0.003
	c0.055-0.001,0.114-0.004,0.177-0.008c0.063-0.006,0.133-0.011,0.211-0.017c0.075-0.006,0.164-0.016,0.263-0.027
	c-0.009,0.049-0.013,0.096-0.013,0.14c0,0.052,0.004,0.096,0.013,0.132c-0.044-0.003-0.088-0.005-0.131-0.007
	c-0.041-0.001-0.085-0.002-0.131-0.002h-0.146H33.89h-0.312h-0.381c-0.103,0-0.188,0.001-0.255,0.002
	c-0.066,0.002-0.12,0.003-0.158,0.005c-0.039,0.001-0.067,0.002-0.086,0.002v-0.156C32.888,20.943,33.069,20.68,33.246,20.419"/>
<path fill="#BCBCBC" d="M35.512,20.691c0.021,0.097,0.056,0.18,0.101,0.25s0.103,0.125,0.172,0.165
	c0.071,0.04,0.152,0.06,0.245,0.06c0.189,0,0.357-0.062,0.506-0.185l0.049,0.037l-0.089,0.23c-0.069,0.053-0.152,0.095-0.248,0.126
	c-0.096,0.032-0.222,0.048-0.378,0.048c-0.135,0-0.262-0.018-0.383-0.056c-0.12-0.037-0.227-0.098-0.319-0.183
	c-0.091-0.085-0.164-0.192-0.218-0.322c-0.053-0.131-0.08-0.286-0.08-0.467c0-0.178,0.024-0.333,0.072-0.465
	c0.049-0.131,0.115-0.24,0.199-0.328c0.086-0.088,0.187-0.154,0.304-0.197c0.116-0.044,0.243-0.066,0.38-0.066
	c0.272,0,0.479,0.079,0.625,0.237c0.144,0.158,0.216,0.382,0.216,0.67v0.086c0,0.024-0.003,0.041-0.009,0.049h-1.179
	C35.478,20.491,35.489,20.595,35.512,20.691 M36.035,19.707c-0.045-0.122-0.121-0.184-0.228-0.184c-0.061,0-0.111,0.02-0.152,0.062
	c-0.041,0.04-0.073,0.093-0.099,0.156c-0.025,0.064-0.043,0.137-0.056,0.217s-0.021,0.16-0.023,0.239h0.634
	C36.106,19.992,36.081,19.83,36.035,19.707"/>
<path fill="#BCBCBC" d="M37.702,19.898c0.073-0.189,0.16-0.328,0.262-0.418c0.102-0.089,0.222-0.134,0.361-0.134
	c0.015,0,0.025,0.002,0.035,0.005c0.01,0.002,0.021,0.003,0.031,0.003c-0.009,0.041-0.015,0.084-0.02,0.131
	c-0.003,0.046-0.006,0.1-0.006,0.162v0.131v0.068c0,0.025,0.002,0.048,0.005,0.07l-0.037,0.032c-0.027-0.016-0.059-0.03-0.093-0.041
	s-0.073-0.016-0.117-0.016c-0.124,0-0.221,0.04-0.291,0.121c-0.072,0.08-0.107,0.177-0.107,0.286v0.164
	c0,0.168,0.002,0.326,0.006,0.475s0.014,0.29,0.026,0.428c-0.036-0.005-0.08-0.008-0.134-0.008h-0.175h-0.174
	c-0.052,0-0.097,0.003-0.136,0.008c0.014-0.137,0.022-0.279,0.026-0.428c0.004-0.147,0.007-0.306,0.007-0.473v-0.164
	c0-0.168-0.003-0.325-0.007-0.472s-0.013-0.294-0.026-0.442c0.047,0.006,0.094,0.011,0.143,0.015
	c0.047,0.005,0.094,0.007,0.141,0.007c0.046,0,0.094-0.002,0.142-0.007c0.048-0.004,0.095-0.009,0.141-0.015l-0.012,0.502
	L37.702,19.898z"/>
<path fill="#BCBCBC" d="M40.217,19.077c-0.006-0.176-0.014-0.354-0.024-0.531c0.047,0.004,0.097,0.007,0.151,0.011
	c0.056,0.004,0.116,0.005,0.185,0.005c0.069,0,0.131-0.001,0.186-0.005s0.105-0.007,0.152-0.011
	c-0.012,0.178-0.02,0.355-0.024,0.531c-0.005,0.177-0.008,0.379-0.008,0.605v0.559c0,0.228,0.003,0.43,0.008,0.606
	s0.013,0.35,0.024,0.52c-0.047-0.006-0.098-0.009-0.152-0.009h-0.186h-0.185c-0.055,0-0.104,0.003-0.151,0.009
	c0.011-0.17,0.019-0.343,0.024-0.52c0.005-0.177,0.008-0.379,0.008-0.606v-0.559C40.225,19.456,40.222,19.254,40.217,19.077"/>
<path fill="#BCBCBC" d="M42.113,19.7c0.077-0.115,0.166-0.204,0.269-0.267s0.22-0.095,0.351-0.095c0.204,0,0.362,0.06,0.473,0.179
	c0.111,0.119,0.167,0.312,0.167,0.576c0,0.14-0.003,0.264-0.009,0.369c-0.005,0.107-0.008,0.215-0.008,0.321
	c0,0.087,0.003,0.183,0.007,0.285c0.005,0.104,0.011,0.201,0.018,0.298c-0.036-0.006-0.081-0.009-0.136-0.009h-0.173h-0.173
	c-0.056,0-0.101,0.003-0.136,0.009c0.021-0.143,0.033-0.311,0.04-0.504c0.005-0.192,0.008-0.413,0.008-0.663
	c0-0.172-0.029-0.299-0.088-0.38c-0.06-0.08-0.143-0.121-0.25-0.121c-0.124,0-0.214,0.054-0.272,0.16
	c-0.058,0.107-0.087,0.255-0.087,0.444v0.164c0,0.167,0.003,0.324,0.007,0.472c0.004,0.148,0.013,0.291,0.026,0.428
	c-0.036-0.006-0.08-0.009-0.134-0.009h-0.176h-0.172c-0.054,0-0.099,0.003-0.137,0.009c0.013-0.137,0.022-0.279,0.026-0.428
	c0.004-0.147,0.006-0.305,0.006-0.472v-0.164c0-0.167-0.002-0.323-0.006-0.47c-0.004-0.147-0.014-0.294-0.026-0.441
	c0.05,0.005,0.098,0.01,0.146,0.014c0.049,0.004,0.098,0.006,0.146,0.006c0.05,0,0.099-0.002,0.146-0.006s0.1-0.009,0.155-0.014
	L42.105,19.7H42.113L42.113,19.7z"/>
<path fill="#BCBCBC" d="M45.751,20.698c0.004,0.226,0.011,0.449,0.018,0.672c-0.036-0.006-0.081-0.009-0.136-0.009h-0.174h-0.157
	c-0.052,0-0.09,0.003-0.118,0.009c0.003-0.006,0.006-0.023,0.009-0.054s0.006-0.064,0.01-0.103c0.004-0.039,0.008-0.074,0.011-0.107
	c0.002-0.032,0.004-0.054,0.004-0.062l-0.009-0.009c-0.052,0.124-0.123,0.219-0.213,0.286c-0.091,0.067-0.215,0.101-0.374,0.101
	c-0.14,0-0.259-0.027-0.357-0.08c-0.098-0.054-0.18-0.128-0.242-0.225c-0.062-0.096-0.109-0.208-0.14-0.337
	s-0.045-0.268-0.045-0.415c0-0.148,0.021-0.284,0.062-0.409c0.042-0.125,0.098-0.232,0.17-0.324s0.156-0.164,0.254-0.216
	s0.202-0.078,0.312-0.078c0.124,0,0.234,0.028,0.332,0.085s0.17,0.129,0.217,0.216h0.008c0-0.247-0.003-0.479-0.008-0.697
	c-0.005-0.219-0.014-0.444-0.024-0.678c0.035,0.006,0.08,0.012,0.134,0.017c0.055,0.005,0.111,0.007,0.172,0.007
	c0.059,0,0.115-0.002,0.17-0.007c0.054-0.005,0.099-0.011,0.134-0.017c-0.008,0.23-0.014,0.458-0.019,0.684
	c-0.004,0.226-0.006,0.472-0.006,0.741v0.268C45.744,20.227,45.746,20.474,45.751,20.698 M44.475,20.782
	c0.02,0.097,0.046,0.174,0.08,0.233c0.032,0.059,0.07,0.102,0.113,0.127c0.043,0.026,0.087,0.04,0.135,0.04
	c0.113,0,0.206-0.064,0.279-0.192c0.073-0.127,0.109-0.34,0.109-0.637c0-0.256-0.034-0.442-0.104-0.559
	c-0.069-0.117-0.157-0.176-0.265-0.176c-0.044,0-0.088,0.013-0.133,0.038c-0.044,0.024-0.084,0.067-0.12,0.129
	c-0.036,0.062-0.065,0.146-0.089,0.249c-0.023,0.105-0.035,0.236-0.035,0.393C44.446,20.568,44.456,20.687,44.475,20.782"/>
<path fill="#BCBCBC" d="M47.572,21.072c-0.076,0.116-0.166,0.203-0.269,0.263c-0.103,0.058-0.219,0.088-0.351,0.088
	c-0.205,0-0.362-0.058-0.473-0.173s-0.167-0.307-0.167-0.573c0-0.14,0.003-0.264,0.009-0.371c0.005-0.106,0.008-0.214,0.008-0.321
	c0-0.088-0.002-0.184-0.007-0.286c-0.006-0.103-0.011-0.207-0.018-0.312c0.036,0.007,0.081,0.013,0.136,0.017
	c0.055,0.005,0.113,0.008,0.173,0.008c0.062,0,0.119-0.003,0.173-0.008c0.055-0.004,0.1-0.01,0.137-0.017
	c-0.021,0.148-0.034,0.32-0.04,0.515c-0.006,0.195-0.009,0.417-0.009,0.666c0,0.174,0.029,0.301,0.091,0.382
	c0.059,0.08,0.144,0.121,0.252,0.121c0.126,0,0.218-0.054,0.276-0.161c0.059-0.106,0.087-0.255,0.087-0.443v-0.165
	c0-0.168-0.002-0.324-0.006-0.472c-0.005-0.146-0.014-0.294-0.027-0.442c0.076,0.016,0.178,0.024,0.306,0.024
	c0.062,0,0.118-0.003,0.17-0.008c0.052-0.004,0.097-0.01,0.135-0.017c-0.015,0.148-0.022,0.297-0.026,0.443
	s-0.006,0.304-0.006,0.472v0.165c0,0.168,0.002,0.325,0.006,0.474s0.012,0.291,0.026,0.429c-0.049-0.006-0.098-0.009-0.145-0.009
	h-0.145h-0.145c-0.047,0-0.098,0.003-0.152,0.009l0.009-0.297H47.572L47.572,21.072z"/>
<path fill="#BCBCBC" d="M48.822,20.986c0.026,0.041,0.06,0.076,0.097,0.107c0.039,0.031,0.086,0.057,0.141,0.076
	c0.054,0.02,0.117,0.028,0.189,0.028c0.097,0,0.172-0.024,0.225-0.074c0.053-0.049,0.079-0.103,0.079-0.159
	c0-0.063-0.023-0.114-0.07-0.152s-0.105-0.073-0.177-0.104c-0.07-0.032-0.146-0.063-0.229-0.097s-0.16-0.074-0.23-0.125
	s-0.13-0.114-0.176-0.19c-0.048-0.077-0.071-0.176-0.071-0.296c0-0.115,0.021-0.214,0.063-0.298
	c0.043-0.083,0.098-0.151,0.166-0.204c0.067-0.054,0.146-0.094,0.231-0.12s0.172-0.039,0.257-0.039c0.115,0,0.217,0.017,0.307,0.05
	c0.089,0.032,0.181,0.079,0.273,0.143c-0.024,0.055-0.045,0.113-0.062,0.177s-0.029,0.125-0.037,0.186h-0.115
	c-0.008-0.033-0.021-0.069-0.041-0.109s-0.045-0.077-0.078-0.113c-0.033-0.035-0.073-0.065-0.12-0.089
	c-0.046-0.022-0.102-0.034-0.168-0.034c-0.083,0-0.151,0.021-0.207,0.065c-0.057,0.044-0.085,0.102-0.085,0.173
	c0,0.065,0.024,0.119,0.072,0.158c0.049,0.04,0.108,0.075,0.181,0.104c0.071,0.031,0.15,0.061,0.236,0.092
	c0.086,0.029,0.164,0.069,0.236,0.116c0.071,0.049,0.132,0.111,0.18,0.188c0.049,0.077,0.072,0.176,0.072,0.296
	s-0.021,0.225-0.066,0.311c-0.043,0.086-0.103,0.158-0.178,0.214c-0.074,0.057-0.159,0.097-0.255,0.121
	c-0.095,0.024-0.194,0.037-0.3,0.037c-0.124,0-0.236-0.018-0.336-0.054c-0.099-0.036-0.178-0.074-0.235-0.112
	c0.033-0.132,0.054-0.264,0.062-0.396h0.104C48.773,20.905,48.796,20.947,48.822,20.986"/>
<path fill="#BCBCBC" d="M51.468,19.521c0,0.035,0.004,0.068,0.014,0.102l-0.362-0.011c-0.007,0.063-0.012,0.136-0.017,0.219
	c-0.004,0.083-0.008,0.166-0.009,0.251c-0.001,0.086-0.003,0.168-0.005,0.248c-0.002,0.079-0.002,0.146-0.002,0.202
	c0,0.143,0.003,0.259,0.01,0.346c0.007,0.088,0.019,0.155,0.035,0.203c0.017,0.046,0.04,0.077,0.069,0.095
	c0.031,0.016,0.068,0.024,0.116,0.024c0.052,0,0.09-0.004,0.114-0.011c0.025-0.006,0.05-0.016,0.074-0.029v0.169
	c-0.055,0.024-0.123,0.047-0.205,0.066c-0.083,0.02-0.164,0.028-0.243,0.028c-0.35,0-0.524-0.208-0.524-0.626
	c0-0.079,0.002-0.169,0.005-0.27s0.007-0.202,0.012-0.309c0.005-0.105,0.008-0.209,0.011-0.312s0.005-0.198,0.005-0.286
	l-0.288,0.004c0.008-0.033,0.013-0.067,0.013-0.103c0-0.032-0.005-0.069-0.013-0.11l0.288,0.013c0-0.086-0.001-0.165-0.004-0.24
	c-0.003-0.074-0.007-0.165-0.012-0.269c0.096-0.039,0.19-0.08,0.284-0.123c0.093-0.042,0.188-0.087,0.28-0.134l0.041,0.028
	c-0.006,0.045-0.01,0.096-0.014,0.156c-0.005,0.059-0.009,0.12-0.014,0.186c-0.003,0.065-0.006,0.132-0.008,0.199
	c-0.001,0.067-0.002,0.131-0.002,0.191l0.362-0.008C51.472,19.451,51.468,19.488,51.468,19.521"/>
<path fill="#BCBCBC" d="M52.464,19.898c0.073-0.189,0.159-0.328,0.261-0.418c0.102-0.089,0.223-0.134,0.362-0.134
	c0.014,0,0.025,0.002,0.035,0.005c0.009,0.002,0.02,0.003,0.03,0.003c-0.008,0.041-0.014,0.084-0.018,0.131
	c-0.005,0.046-0.007,0.1-0.007,0.162v0.131v0.068c0,0.025,0.002,0.048,0.005,0.07l-0.038,0.032c-0.027-0.016-0.058-0.03-0.093-0.041
	c-0.033-0.011-0.072-0.016-0.116-0.016c-0.124,0-0.221,0.04-0.292,0.121c-0.071,0.08-0.107,0.177-0.107,0.286v0.164
	c0,0.168,0.002,0.326,0.007,0.475c0.004,0.148,0.013,0.29,0.026,0.428c-0.036-0.005-0.081-0.008-0.135-0.008H52.21h-0.172
	c-0.054,0-0.099,0.003-0.137,0.008c0.014-0.137,0.021-0.279,0.026-0.428c0.004-0.147,0.006-0.306,0.006-0.473v-0.164
	c0-0.168-0.002-0.325-0.006-0.472c-0.005-0.146-0.013-0.294-0.026-0.442c0.047,0.006,0.094,0.011,0.141,0.015
	c0.048,0.005,0.096,0.007,0.142,0.007s0.094-0.002,0.142-0.007c0.048-0.004,0.095-0.009,0.142-0.015l-0.013,0.502L52.464,19.898z"/>
<path fill="#BCBCBC" d="M54.671,20.327c0.041-0.108,0.08-0.213,0.117-0.315c0.037-0.101,0.072-0.202,0.107-0.304
	c0.033-0.102,0.068-0.209,0.104-0.321c0.03,0.007,0.058,0.012,0.084,0.018c0.026,0.005,0.054,0.007,0.08,0.007
	c0.027,0,0.055-0.002,0.083-0.007c0.026-0.006,0.058-0.011,0.09-0.018c-0.014,0.036-0.045,0.112-0.097,0.229
	c-0.051,0.117-0.112,0.261-0.185,0.433c-0.073,0.171-0.153,0.361-0.24,0.569c-0.088,0.209-0.177,0.419-0.266,0.632
	c-0.09,0.213-0.176,0.424-0.259,0.632c-0.085,0.208-0.157,0.397-0.221,0.568c-0.029-0.007-0.059-0.012-0.086-0.018
	c-0.027-0.005-0.056-0.007-0.086-0.007s-0.06,0.002-0.087,0.007c-0.027,0.006-0.057,0.011-0.086,0.018
	c0.09-0.182,0.18-0.36,0.267-0.537c0.088-0.177,0.173-0.356,0.255-0.537c-0.065-0.156-0.138-0.334-0.22-0.531
	c-0.08-0.197-0.16-0.391-0.238-0.58s-0.149-0.362-0.214-0.519s-0.113-0.275-0.146-0.357c0.052,0.006,0.103,0.012,0.154,0.017
	c0.051,0.005,0.102,0.007,0.153,0.007c0.053,0,0.104-0.002,0.153-0.007c0.049-0.005,0.1-0.011,0.151-0.017
	c0.079,0.217,0.16,0.432,0.24,0.646c0.082,0.215,0.165,0.43,0.254,0.646C54.585,20.554,54.63,20.436,54.671,20.327"/>
<path fill="#BCBCBC" d="M24.215,25.263c-0.066-0.006-0.128-0.009-0.188-0.009h-0.174h-0.175c-0.059,0-0.118,0.003-0.175,0.009
	c-0.043-0.135-0.089-0.272-0.135-0.413c-0.046-0.141-0.097-0.28-0.149-0.421c-0.088-0.003-0.175-0.005-0.263-0.006
	c-0.088-0.002-0.176-0.002-0.263-0.002c-0.071,0-0.143,0-0.214,0.002c-0.071,0.001-0.143,0.003-0.214,0.006
	c-0.055,0.141-0.105,0.28-0.152,0.421c-0.047,0.141-0.09,0.278-0.128,0.413c-0.033-0.006-0.065-0.009-0.097-0.009h-0.096h-0.099
	c-0.033,0-0.068,0.003-0.106,0.009c0.033-0.071,0.077-0.171,0.131-0.296c0.055-0.127,0.115-0.269,0.181-0.429
	c0.066-0.159,0.137-0.329,0.212-0.512c0.075-0.182,0.15-0.367,0.227-0.553c0.075-0.187,0.149-0.37,0.221-0.551
	c0.073-0.182,0.139-0.35,0.2-0.506c0.027,0.006,0.053,0.012,0.078,0.017c0.025,0.005,0.051,0.007,0.078,0.007
	s0.054-0.002,0.079-0.007c0.024-0.005,0.05-0.011,0.078-0.017c0.088,0.232,0.182,0.482,0.281,0.748
	c0.101,0.266,0.201,0.527,0.302,0.783c0.102,0.256,0.2,0.5,0.296,0.729C24.048,24.908,24.135,25.104,24.215,25.263 M22.76,23.211
	c-0.071,0.164-0.139,0.326-0.202,0.486c-0.062,0.16-0.124,0.323-0.185,0.491h0.752c-0.06-0.168-0.12-0.331-0.179-0.491
	C22.888,23.537,22.825,23.375,22.76,23.211"/>
<path fill="#BCBCBC" d="M24.719,24.882c0.026,0.04,0.059,0.075,0.098,0.107c0.038,0.031,0.085,0.057,0.139,0.076
	c0.054,0.019,0.117,0.028,0.189,0.028c0.097,0,0.172-0.024,0.225-0.073c0.052-0.05,0.079-0.103,0.079-0.16
	c0-0.063-0.023-0.114-0.07-0.153c-0.047-0.037-0.105-0.072-0.176-0.104c-0.071-0.032-0.147-0.063-0.23-0.097
	c-0.083-0.032-0.159-0.075-0.23-0.125c-0.07-0.051-0.129-0.114-0.176-0.19c-0.047-0.077-0.07-0.176-0.07-0.297
	c0-0.114,0.021-0.214,0.063-0.297c0.042-0.084,0.098-0.152,0.166-0.205c0.068-0.053,0.146-0.093,0.231-0.119
	c0.086-0.026,0.172-0.039,0.257-0.039c0.115,0,0.217,0.017,0.307,0.049c0.089,0.033,0.18,0.081,0.273,0.144
	c-0.024,0.055-0.046,0.113-0.062,0.176c-0.017,0.064-0.028,0.126-0.037,0.186h-0.115c-0.008-0.032-0.021-0.068-0.042-0.109
	c-0.019-0.039-0.045-0.076-0.078-0.112s-0.073-0.065-0.12-0.088c-0.046-0.023-0.103-0.036-0.168-0.036
	c-0.082,0-0.151,0.022-0.208,0.066c-0.057,0.044-0.084,0.102-0.084,0.173c0,0.065,0.024,0.119,0.072,0.158
	c0.049,0.04,0.109,0.075,0.181,0.104c0.072,0.03,0.15,0.062,0.236,0.091c0.086,0.03,0.164,0.069,0.236,0.117
	c0.072,0.048,0.132,0.11,0.18,0.188s0.072,0.176,0.072,0.296c0,0.121-0.022,0.224-0.066,0.311c-0.044,0.086-0.103,0.158-0.178,0.214
	c-0.074,0.057-0.159,0.097-0.254,0.122c-0.096,0.023-0.196,0.036-0.301,0.036c-0.124,0-0.236-0.019-0.335-0.054
	c-0.1-0.036-0.178-0.073-0.236-0.112c0.033-0.132,0.054-0.265,0.063-0.396h0.104C24.67,24.801,24.692,24.842,24.719,24.882"/>
<path fill="#BCBCBC" d="M26.421,24.882c0.026,0.04,0.059,0.075,0.098,0.107c0.039,0.031,0.085,0.057,0.14,0.076
	c0.054,0.019,0.117,0.028,0.189,0.028c0.097,0,0.172-0.024,0.225-0.073c0.052-0.05,0.079-0.103,0.079-0.16
	c0-0.063-0.023-0.114-0.07-0.153c-0.047-0.037-0.106-0.072-0.177-0.104c-0.071-0.032-0.147-0.063-0.23-0.097
	c-0.082-0.032-0.159-0.075-0.23-0.125c-0.07-0.051-0.129-0.114-0.176-0.19c-0.047-0.077-0.071-0.176-0.071-0.297
	c0-0.114,0.021-0.214,0.063-0.297c0.042-0.084,0.098-0.152,0.165-0.205c0.069-0.053,0.146-0.093,0.232-0.119
	c0.086-0.026,0.172-0.039,0.257-0.039c0.115,0,0.217,0.017,0.306,0.049c0.088,0.033,0.18,0.081,0.273,0.144
	c-0.025,0.055-0.046,0.113-0.062,0.176c-0.017,0.064-0.029,0.126-0.037,0.186h-0.115c-0.008-0.032-0.022-0.068-0.042-0.109
	c-0.02-0.039-0.045-0.076-0.078-0.112c-0.033-0.036-0.073-0.065-0.12-0.088c-0.046-0.023-0.102-0.036-0.168-0.036
	c-0.083,0-0.152,0.022-0.208,0.066s-0.084,0.102-0.084,0.173c0,0.065,0.024,0.119,0.072,0.158c0.049,0.04,0.108,0.075,0.181,0.104
	c0.072,0.03,0.151,0.062,0.236,0.091c0.085,0.03,0.164,0.069,0.236,0.117c0.072,0.048,0.132,0.11,0.18,0.188
	c0.048,0.077,0.072,0.176,0.072,0.296c0,0.121-0.022,0.224-0.066,0.311c-0.044,0.086-0.103,0.158-0.178,0.214
	c-0.074,0.057-0.159,0.097-0.254,0.122c-0.095,0.023-0.195,0.036-0.3,0.036c-0.124,0-0.236-0.019-0.335-0.054
	c-0.1-0.036-0.178-0.073-0.236-0.112c0.034-0.132,0.054-0.265,0.063-0.396h0.104C26.373,24.801,26.395,24.842,26.421,24.882"/>
<path fill="#BCBCBC" d="M28.001,23.851c0.056-0.137,0.13-0.251,0.223-0.343c0.094-0.092,0.201-0.16,0.323-0.206
	c0.121-0.045,0.246-0.067,0.375-0.067c0.32,0,0.568,0.091,0.743,0.271s0.263,0.426,0.263,0.735c0,0.167-0.024,0.318-0.073,0.452
	c-0.05,0.135-0.119,0.249-0.208,0.343c-0.089,0.096-0.194,0.166-0.318,0.213c-0.123,0.046-0.259,0.069-0.406,0.069
	c-0.123,0-0.244-0.017-0.363-0.05s-0.227-0.088-0.322-0.166c-0.096-0.079-0.174-0.18-0.232-0.307
	c-0.059-0.126-0.088-0.28-0.088-0.464S27.944,23.987,28.001,23.851 M29.229,23.618c-0.06-0.133-0.159-0.199-0.299-0.199
	c-0.125,0-0.224,0.073-0.296,0.222c-0.072,0.147-0.107,0.378-0.107,0.692c0,0.115,0.006,0.223,0.021,0.321
	c0.013,0.098,0.035,0.184,0.066,0.256s0.073,0.129,0.123,0.17s0.114,0.062,0.189,0.062c0.263,0,0.393-0.321,0.393-0.964
	C29.318,23.938,29.288,23.75,29.229,23.618"/>
<path fill="#BCBCBC" d="M31.749,23.556c-0.064-0.075-0.159-0.113-0.285-0.113c-0.165,0-0.288,0.074-0.37,0.225
	c-0.082,0.149-0.124,0.356-0.124,0.622c0,0.249,0.053,0.441,0.156,0.573c0.104,0.133,0.257,0.199,0.457,0.199
	c0.085,0,0.167-0.02,0.246-0.06c0.08-0.039,0.139-0.084,0.178-0.134l0.049,0.041c-0.019,0.039-0.035,0.079-0.049,0.12
	c-0.014,0.04-0.028,0.082-0.041,0.124c-0.061,0.046-0.137,0.086-0.229,0.117c-0.092,0.032-0.201,0.048-0.327,0.048
	c-0.2,0-0.368-0.029-0.505-0.087c-0.137-0.057-0.246-0.135-0.329-0.233c-0.084-0.099-0.143-0.211-0.179-0.335
	c-0.034-0.125-0.052-0.25-0.052-0.377c0-0.15,0.024-0.29,0.075-0.419c0.05-0.128,0.122-0.239,0.217-0.333
	c0.094-0.093,0.208-0.166,0.342-0.219c0.133-0.055,0.283-0.081,0.447-0.081c0.156,0,0.288,0.019,0.396,0.053
	c0.108,0.036,0.213,0.082,0.311,0.14c-0.032,0.055-0.063,0.122-0.093,0.201c-0.028,0.079-0.05,0.155-0.063,0.227h-0.099
	C31.856,23.73,31.813,23.631,31.749,23.556"/>
<path fill="#BCBCBC" d="M32.671,22.278c0.062-0.062,0.14-0.095,0.23-0.095c0.09,0,0.166,0.032,0.229,0.095
	c0.063,0.063,0.095,0.141,0.095,0.231c0,0.09-0.031,0.167-0.095,0.23c-0.063,0.062-0.14,0.094-0.229,0.094
	c-0.091,0-0.168-0.032-0.23-0.094c-0.063-0.063-0.095-0.141-0.095-0.23C32.576,22.419,32.607,22.342,32.671,22.278 M32.618,23.727
	c-0.004-0.147-0.013-0.295-0.026-0.442c0.038,0.006,0.084,0.011,0.136,0.015s0.109,0.006,0.174,0.006
	c0.128,0,0.23-0.007,0.308-0.021c-0.013,0.147-0.022,0.295-0.026,0.442c-0.003,0.146-0.005,0.304-0.005,0.471v0.164
	c0,0.168,0.002,0.325,0.005,0.473c0.004,0.148,0.014,0.291,0.026,0.428c-0.035-0.005-0.08-0.007-0.134-0.007h-0.174h-0.174
	c-0.052,0-0.097,0.002-0.136,0.007c0.014-0.137,0.022-0.279,0.026-0.428c0.004-0.147,0.006-0.305,0.006-0.473v-0.164
	C32.624,24.03,32.622,23.873,32.618,23.727"/>
<path fill="#BCBCBC" d="M34.185,23.308c0.134-0.049,0.267-0.073,0.397-0.073c0.109,0,0.211,0.012,0.305,0.036
	c0.093,0.025,0.174,0.064,0.242,0.117c0.068,0.055,0.122,0.124,0.159,0.209c0.038,0.084,0.057,0.188,0.057,0.308
	c0,0.175-0.003,0.338-0.008,0.486c-0.006,0.15-0.008,0.299-0.008,0.447c0,0.065,0.005,0.117,0.014,0.154
	c0.01,0.036,0.023,0.064,0.043,0.084c0.02,0.019,0.045,0.031,0.076,0.036c0.032,0.006,0.068,0.009,0.109,0.009v0.099
	c-0.079,0.032-0.146,0.058-0.202,0.074c-0.055,0.017-0.113,0.024-0.176,0.024c-0.103,0-0.186-0.024-0.249-0.074
	c-0.062-0.049-0.111-0.121-0.145-0.214c-0.063,0.088-0.138,0.158-0.221,0.21c-0.084,0.053-0.19,0.078-0.316,0.078
	c-0.105,0-0.195-0.014-0.27-0.041s-0.136-0.066-0.185-0.117s-0.084-0.108-0.105-0.174c-0.023-0.063-0.033-0.129-0.033-0.195
	c0-0.09,0.014-0.169,0.043-0.234s0.07-0.122,0.124-0.169s0.117-0.086,0.191-0.117c0.074-0.032,0.159-0.059,0.252-0.08
	c0.115-0.028,0.207-0.052,0.274-0.073c0.067-0.02,0.117-0.041,0.15-0.061c0.033-0.021,0.055-0.044,0.063-0.068
	c0.01-0.024,0.016-0.055,0.016-0.091c0-0.099-0.036-0.183-0.106-0.253c-0.069-0.07-0.165-0.105-0.289-0.105
	c-0.047,0-0.095,0.006-0.144,0.019c-0.05,0.013-0.097,0.029-0.143,0.052c-0.045,0.021-0.086,0.046-0.123,0.071
	c-0.037,0.026-0.065,0.055-0.084,0.085h-0.029l-0.054-0.247C33.928,23.426,34.053,23.356,34.185,23.308 M34.796,24.37
	c0.003-0.061,0.004-0.115,0.004-0.162c-0.059,0.033-0.121,0.061-0.187,0.08c-0.065,0.021-0.126,0.047-0.181,0.078
	c-0.054,0.032-0.099,0.075-0.134,0.13c-0.034,0.054-0.053,0.134-0.053,0.237c0,0.102,0.022,0.179,0.065,0.232
	c0.043,0.053,0.1,0.08,0.172,0.08c0.093,0,0.166-0.034,0.224-0.103c0.057-0.068,0.085-0.17,0.085-0.305
	C34.792,24.521,34.793,24.432,34.796,24.37"/>
<path fill="#BCBCBC" d="M37.02,23.416c0,0.035,0.004,0.069,0.013,0.101l-0.362-0.01c-0.006,0.062-0.011,0.136-0.016,0.219
	c-0.005,0.082-0.008,0.166-0.009,0.251c-0.002,0.086-0.004,0.168-0.005,0.248c-0.002,0.079-0.003,0.146-0.003,0.201
	c0,0.144,0.004,0.259,0.011,0.347c0.007,0.089,0.019,0.155,0.034,0.202c0.017,0.047,0.041,0.078,0.07,0.095
	c0.03,0.017,0.068,0.024,0.115,0.024c0.052,0,0.091-0.003,0.115-0.009c0.024-0.007,0.049-0.018,0.073-0.03v0.169
	c-0.055,0.025-0.123,0.047-0.205,0.066s-0.163,0.028-0.242,0.028c-0.35,0-0.524-0.208-0.524-0.626c0-0.079,0.002-0.169,0.004-0.27
	c0.003-0.101,0.007-0.203,0.012-0.309s0.009-0.21,0.012-0.312c0.003-0.104,0.004-0.199,0.004-0.286l-0.287,0.003
	c0.008-0.032,0.012-0.066,0.012-0.102c0-0.033-0.004-0.069-0.012-0.11l0.287,0.012c0-0.085-0.001-0.165-0.004-0.239
	s-0.006-0.164-0.012-0.27c0.097-0.039,0.191-0.079,0.284-0.122c0.094-0.043,0.188-0.088,0.28-0.134l0.042,0.028
	c-0.006,0.044-0.011,0.096-0.015,0.155c-0.005,0.06-0.009,0.121-0.013,0.187c-0.004,0.064-0.006,0.131-0.009,0.198
	c-0.001,0.068-0.002,0.133-0.002,0.192l0.362-0.008C37.023,23.347,37.02,23.384,37.02,23.416"/>
<path fill="#BCBCBC" d="M37.547,22.278c0.063-0.062,0.14-0.095,0.23-0.095s0.167,0.032,0.229,0.095
	c0.063,0.063,0.095,0.141,0.095,0.231c0,0.09-0.031,0.167-0.095,0.23c-0.062,0.062-0.139,0.094-0.229,0.094s-0.167-0.032-0.23-0.094
	c-0.062-0.063-0.095-0.141-0.095-0.23C37.452,22.419,37.484,22.342,37.547,22.278 M37.495,23.727
	c-0.005-0.147-0.014-0.295-0.027-0.442c0.039,0.006,0.085,0.011,0.137,0.015s0.109,0.006,0.173,0.006
	c0.129,0,0.231-0.007,0.309-0.021c-0.014,0.147-0.022,0.295-0.026,0.442c-0.004,0.146-0.006,0.304-0.006,0.471v0.164
	c0,0.168,0.002,0.325,0.006,0.473c0.004,0.148,0.013,0.291,0.026,0.428c-0.036-0.005-0.08-0.007-0.134-0.007h-0.175h-0.173
	c-0.052,0-0.097,0.002-0.137,0.007c0.015-0.137,0.022-0.279,0.027-0.428c0.004-0.147,0.006-0.305,0.006-0.473v-0.164
	C37.501,24.03,37.499,23.873,37.495,23.727"/>
<path fill="#BCBCBC" d="M38.67,23.851c0.057-0.137,0.132-0.251,0.225-0.343c0.092-0.092,0.2-0.16,0.322-0.206
	c0.121-0.045,0.246-0.067,0.375-0.067c0.32,0,0.568,0.091,0.744,0.271c0.175,0.181,0.262,0.426,0.262,0.735
	c0,0.167-0.024,0.318-0.073,0.452c-0.05,0.135-0.118,0.249-0.207,0.343c-0.09,0.096-0.196,0.166-0.318,0.213
	c-0.124,0.046-0.259,0.069-0.407,0.069c-0.122,0-0.243-0.017-0.363-0.05c-0.119-0.033-0.227-0.088-0.322-0.166
	c-0.096-0.079-0.173-0.18-0.231-0.307c-0.059-0.126-0.089-0.28-0.089-0.464S38.614,23.987,38.67,23.851 M39.898,23.618
	c-0.06-0.133-0.159-0.199-0.299-0.199c-0.125,0-0.224,0.073-0.296,0.222c-0.072,0.147-0.108,0.378-0.108,0.692
	c0,0.115,0.007,0.223,0.021,0.321c0.014,0.098,0.036,0.184,0.067,0.256s0.072,0.129,0.123,0.17c0.05,0.041,0.113,0.062,0.189,0.062
	c0.263,0,0.394-0.321,0.394-0.964C39.989,23.938,39.958,23.75,39.898,23.618"/>
<path fill="#BCBCBC" d="M41.641,23.596c0.076-0.115,0.166-0.204,0.269-0.267c0.103-0.063,0.219-0.095,0.35-0.095
	c0.205,0,0.363,0.06,0.474,0.179c0.111,0.119,0.166,0.312,0.166,0.577c0,0.14-0.002,0.262-0.008,0.369
	c-0.005,0.106-0.008,0.213-0.008,0.32c0,0.087,0.002,0.183,0.007,0.285c0.006,0.103,0.011,0.201,0.018,0.297
	c-0.036-0.005-0.081-0.008-0.137-0.008h-0.172h-0.174c-0.055,0-0.1,0.003-0.135,0.008c0.02-0.142,0.033-0.31,0.039-0.503
	c0.006-0.192,0.008-0.413,0.008-0.663c0-0.172-0.029-0.299-0.088-0.38c-0.059-0.08-0.143-0.121-0.249-0.121
	c-0.125,0-0.215,0.054-0.272,0.16c-0.059,0.107-0.087,0.255-0.087,0.443v0.165c0,0.167,0.002,0.324,0.006,0.472
	c0.004,0.148,0.014,0.29,0.026,0.427c-0.035-0.005-0.08-0.008-0.133-0.008h-0.176h-0.173c-0.052,0-0.097,0.003-0.137,0.008
	c0.015-0.137,0.022-0.278,0.026-0.427c0.005-0.147,0.007-0.306,0.007-0.472v-0.164c0-0.167-0.002-0.323-0.007-0.471
	c-0.004-0.146-0.012-0.293-0.026-0.44c0.051,0.005,0.099,0.01,0.147,0.014c0.048,0.005,0.097,0.007,0.146,0.007
	c0.05,0,0.098-0.002,0.146-0.007c0.049-0.004,0.1-0.009,0.154-0.014l-0.016,0.308H41.641L41.641,23.596z"/>
</svg>
