<?xml version="1.0" encoding="utf-8"?>
<!-- Generator: Adobe Illustrator 16.0.0, SVG Export Plug-In . SVG Version: 6.00 Build 0)  -->
<!DOCTYPE svg PUBLIC "-//W3C//DTD SVG 1.1//EN" "http://www.w3.org/Graphics/SVG/1.1/DTD/svg11.dtd">
<svg version="1.1" id="Layer_1" xmlns="http://www.w3.org/2000/svg" xmlns:xlink="http://www.w3.org/1999/xlink" x="0px" y="0px"
	 width="561px" height="206px" viewBox="0 0 561 206" enable-background="new 0 0 561 206" xml:space="preserve">
<path id="blue_world_circle_1_" fill="#CDD1D6" d="M95.944,185.838c22.76,0,43.819-9.58,58.679-24.424
	c15.083-14.366,24.407-35.676,24.407-58.422c0-22.744-9.324-43.818-24.407-58.907c-15.092-15.08-35.919-24.418-58.679-24.418
	c-22.502,0-43.333,9.338-58.41,24.418c-14.835,15.089-24.423,36.162-24.423,58.907c0,22.746,9.328,44.056,24.424,58.422
	C52.371,176.258,73.442,185.838,95.944,185.838L95.944,185.838z"/>
<path id="world_circle_outline_1_" fill="#231F20" d="M95.944,186.158c-21.673,0-43.058-8.942-58.637-24.521
	c-15.573-14.84-24.524-36.217-24.524-58.645c0-21.743,8.931-43.288,24.524-59.128c15.58-15.578,36.964-24.509,58.637-24.509
	c22.167,0,43.086,8.705,58.902,24.509c15.569,15.58,24.501,37.126,24.501,59.128c0,22.436-8.944,43.805-24.515,58.652
	C139.26,177.216,117.797,186.158,95.944,186.158L95.944,186.158z M95.944,19.976c-21.502,0-42.717,8.873-58.198,24.333
	c-15.457,15.714-24.319,37.107-24.319,58.684c0,22.258,8.863,43.472,24.319,58.198c15.481,15.463,36.685,24.338,58.198,24.338
	c21.682,0,42.983-8.875,58.443-24.338c15.471-14.728,24.347-35.94,24.347-58.198c0-21.835-8.878-43.226-24.347-58.685
	C138.711,28.618,117.946,19.976,95.944,19.976L95.944,19.976z"/>
<path fill="#A8A8A8" d="M170.415,139.385l5.51-14.845c-1.911-1.674-1.433-0.956-3.35-4.304c-3.11-9.342-15.081-10.784-15.795-17.724
	c0.715-5.744,3.096-11.967,1.189-16.047c-0.475,0-1.189-0.468-1.673-0.71c-2.631,0-2.631,5.028-6.463,5.259
	c-3.356,4.787-7.178,1.917-10.302,1.917c-0.474-0.232-0.474-1.201-0.474-2.149c0-2.166,3.822,1.429,7.421-0.967
	c0-1.199,0.233-2.379,1.671-3.11c3.351-2.149,4.326-3.348,2.167-5.745c-4.323-0.954-7.202,5.504-11.258,5.271
	c-1.923,0-2.167-3.836-2.406-3.836c-1.424-7.901,14.128-9.817,13.665-13.405c-3.365-2.395-7.202-8.62-5.504-11.972
	c-1.214-1.197-5.28-9.81-5.049-12.214c1.695-1.677,4.323-1.43,5.747-2.629c2.159-0.72,2.64-0.72,5.033-1.92l-5.033-3.827
	c0,0,0,0-0.233,0c-4.547,2.874-11.491,4.549-14.849,0.714c0-1.668,1.683-1.668,4.314-3.112c1.909,0.49,3.346,1.677,4.548-1.672
	c-2.156-2.388-5.259-3.354-8.137-5.038c-2.873,1.921-3.113,1.684-6.705,2.4c-2.4,0.958-2.155,2.638-4.798,4.31
	c-1.19,0-2.389,0-3.332,0c-3.128-0.952-3.604-3.352-5.761-5.744c-5.023-4.305-7.427-2.15-12.452-0.489
	c-0.24,0.245-0.473,0.489-0.705,0.489c0,0.474-1.682,5.018-3.365,5.018c-1.422,0.244-7.183-0.469-7.421-3.108
	c-0.964-0.713-1.906-1.191-3.117-1.668c-0.72,0-2.146-0.241-2.867,1.668c0,0.484,0,1.206,0,1.675
	c0.721,1.677,0.721,0.488,2.147,2.649c0,1.909,0.238,2.145-0.47,4.06c-1.922,0.723-0.957,0.723-3.598,1.2
	c-3.113,0.476-5.269-0.722-7.17,0.241c-1.447,0.234-4.321,0.482-4.8-1.199c0-2.394,0.967-5.035,0.479-7.421
	c-0.952,0-1.197-1.206-2.633,0.714c-0.719,0.719-0.719,2.405-0.719,3.836c0,0.234,0,1.19,0,1.435
	c-0.479,0.709-1.434,1.673-1.434,2.147c-2.154,3.114-4.802,3.594-6.706,5.996c-1.917,2.392,4.304,0.71,5.986,0.71
	c2.873,0,3.851-1.679,6.704-2.391c1.915-0.721,3.842-0.721,5.75-0.721c0.239-0.24,1.67,0,1.67,0
	c1.202,0.958,0.478,2.157,1.202,3.838c0.48,0.957,4.781,3.354,4.312,3.11c0.469,0,1.427,0.484,1.427,0.484
	c1.199,0.471,2.638,0.228,3.837,0.228c2.4,0.48,0,1.687,4.319,3.348c2.625,1.206,3.333,0.973,5.255,2.641
	c0.487,0.476,0.967,1.201,1.444,1.918c0.473,0.234,1.183,0.962,1.183,1.194c0.491,1.914,0.491,2.395,2.4,2.16
	c1.915-0.246,3.119-0.482,5.506-0.246c-0.952,5.035-1.901,0.246-6.455,6.467c1.44,2.874,1.181,2.161,2.639,4.082
	c0,0.713-1.199,1.664-1.458,2.622c-0.95,2.396-1.181,3.359,0.259,5.513c0.481,0.474,1.199,1.188,1.424,1.672
	c0.489,0.482,0.965,2.398,1.203,2.398c0.487,0.956,1.436,2.149,2.16,3.352c0.959,0.475,2.391-0.723,2.391-1.442
	c-0.234-1.909-0.953-4.07-1.191-6.217c0-0.241,0-0.725,0-1.194c-0.241-1.203-1.201-2.154-0.493-3.129
	c1.684-1.911,2.64-1.911,3.117-3.82c0.713-0.242,1.439-0.242,2.395,0.247c0.478,1.909,0.233,1.186,1.692,3.817
	c1.181,0.73,0.702,2.885-0.489,6.227c0,3.117,0,5.041,1.191,7.905c0,1.677,0.479,2.876,0.479,4.551
	c0.477,1.665,1.203,3.827,1.675,5.023c0,3.116,0.485,8.616,1.199,11.481c0.468,0.248,1.926,0.492,2.392,0.492
	c3.124,0.473,3.598-2.397,3.598-3.123c0.973-1.668,4.781-5.977,6.219-9.086c0.722-1.199,1.687-2.635,2.631-3.839
	c0.732-0.708,1.442,0.25,1.927,0.25c1.424,0.465,0.464,2.392,0.464,4.069c0,0.234,1.442,0.954,1.199,1.191
	c-0.24,0.954-0.957,1.44-1.664,2.395c-1.927,1.683-2.625,3.106-3.117,5.512c-0.957,2.388-0.957,2.634-1.442,5.023
	c0,0.487-0.715,1.909-0.946,2.396c-1.923,3.354-4.299,3.84-7.187,5.504c-0.485,1.682,0.715,5.748,1.44,7.422
	c1.2,2.166,1.897,3.115,5.022,3.115c0.474,0,0.233,0,0.725,0c2.389-0.24,3.578-0.949,6.212-0.949
	c1.441,0.465,1.441,0.709,2.399,1.195c1.43,1.91,3.604,4.062,6.943,4.062c1.201-0.244,3.843,0,5.04-0.467
	c1.184,0,2.626,0.951,3.816,0.713c0.965-0.49,2.165-1.68,3.364-1.68s1.917,0.235,3.353,0.235c0.72,0.245,1.43,0.245,2.142,0.245
	c1.206,0.71,1.206,1.197,3.126,1.197c1.426-0.244,1.426,0,2.858,0.713C169.226,138.424,170.663,138.909,170.415,139.385
	L170.415,139.385z"/>
<path fill="#231F20" d="M170.449,139.639c-0.045,0-0.073,0-0.111-0.019c-0.028-0.013-0.067-0.026-0.102-0.056
	c-0.097-0.064-0.149-0.164-0.097-0.287l0,0c-0.073-0.119-0.422-0.336-0.61-0.473c-0.366-0.229-0.687-0.438-0.834-0.709l-0.559-0.226
	c-0.79-0.444-0.956-0.502-1.974-0.324c-1.529,0.04-2.002-0.315-2.614-0.756c-0.191-0.153-0.418-0.322-0.705-0.485
	c-0.574,0.047-1.333,0.039-2.098-0.216c-0.667,0-1.224-0.051-1.771-0.118c-0.479-0.06-0.925-0.109-1.479-0.109
	c-0.715,0-1.512,0.539-2.203,1.021c-0.349,0.239-0.704,0.471-1.014,0.623c-0.225,0.064-0.388,0.08-0.547,0.08
	c-0.59,0-1.233-0.209-1.837-0.4c-0.571-0.19-1.113-0.355-1.577-0.355c-0.654,0.275-1.866,0.311-3.046,0.336
	c-0.754,0.018-1.451,0.033-1.937,0.123h-0.016c-3.676,0.016-5.881-2.378-7.228-4.184c-0.241-0.072-0.461-0.227-0.682-0.361
	c-0.364-0.229-0.661-0.43-1.555-0.725c-1.414,0.013-2.428,0.25-3.497,0.504c-0.79,0.177-1.606,0.373-2.611,0.463L128.996,133
	c-3.341,0-4.09-1.126-5.304-3.277c-0.732-1.748-1.97-5.89-1.465-7.662c0.821-0.586,1.465-0.914,2.099-1.224
	c1.979-1.001,3.697-1.875,5.109-4.36c0.801-1.588,0.928-2.078,0.928-2.236l0.113-0.654c0.379-1.891,0.459-2.285,1.344-4.48
	c0.499-2.551,1.32-3.987,3.196-5.627c0.195-0.274,0.43-0.529,0.65-0.771c0.429-0.499,0.785-0.888,0.927-1.473
	c-0.017,0-0.335-0.221-0.517-0.356c-0.425-0.312-0.697-0.49-0.697-0.758c0-0.515,0.095-1.056,0.184-1.57
	c0.223-1.368,0.24-1.97-0.444-2.199c-0.168,0.015-0.361-0.122-0.601-0.244c-0.211-0.125-0.428-0.255-0.627-0.255
	c-0.09,0-0.193,0.016-0.365,0.179c-0.826,1.046-1.784,2.437-2.583,3.762c-0.917,1.987-2.785,4.447-4.289,6.411
	c-0.862,1.125-1.583,2.099-1.944,2.688c0.059,0.875-0.601,3.78-3.893,3.262c-0.538-0.027-1.953-0.223-2.512-0.504
	c-0.866-3.062-1.358-8.591-1.358-11.773c-0.451-1.1-1.186-3.264-1.665-4.941c-0.01-0.899-0.127-1.598-0.235-2.313
	c-0.129-0.728-0.239-1.46-0.239-2.32c-1.209-2.81-1.209-4.728-1.209-7.906c1.109-3.177,1.645-5.344,0.63-5.955l-0.84-1.425
	c-0.612-1.061-0.612-1.081-0.9-2.237l-0.081-0.364c-0.493-0.057-1.161-0.25-1.836-0.057c-0.327,1.197-0.894,1.674-1.64,2.329
	c-0.411,0.354-0.912,0.787-1.479,1.457c-0.36,0.451-0.188,0.909,0.145,1.671c0.146,0.375,0.312,0.739,0.399,1.178v1.256
	c0.132,1.092,0.379,2.233,0.637,3.323c0.235,0.989,0.451,1.948,0.571,2.858c0,0.978-1.751,2.306-2.847,1.758
	c-0.456-0.627-0.79-1.147-1.145-1.644c-0.422-0.621-0.828-1.231-1.104-1.761c-0.182-0.133-0.326-0.482-0.548-1.052
	c-0.185-0.474-0.432-1.146-0.648-1.342c-0.283-0.533-1.046-1.303-1.441-1.682c-1.512-2.27-1.295-3.341-0.299-5.846
	c0.107-0.485,0.469-0.96,0.819-1.432c0.283-0.391,0.59-0.82,0.59-1.075c-0.321-0.336-0.59-0.67-0.805-0.91
	c-0.561-0.699-0.74-0.915-1.801-3.034c-0.043-0.11-0.043-0.228,0.038-0.32c2.385-3.272,3.842-3.602,4.813-3.822
	c0.756-0.162,1.119-0.248,1.531-2.181c-1.85-0.154-2.98-0.009-4.394,0.182l-0.704,0.088c-2.154,0.281-2.258-0.469-2.661-2.075
	l-0.074-0.311c-0.057-0.203-0.618-0.785-1.029-0.995c-0.59-0.807-1.062-1.509-1.523-1.977c-1.218-1.054-1.896-1.303-3.042-1.708
	c-0.57-0.216-1.23-0.454-2.132-0.864c-2.544-0.984-2.879-1.864-3.125-2.503c-0.153-0.422-0.24-0.657-1.126-0.827
	c-0.209,0.007-0.522,0.027-0.833,0.037c-0.848,0.029-1.856,0.184-3.047-0.288c-0.338-0.167-0.891-0.409-1.212-0.445
	c-0.034,0-0.04,0.009-0.063,0.009l0,0c-0.059,0-0.13-0.033-0.18-0.047c-0.048-0.03-0.081-0.06-0.123-0.108l-0.141-0.074
	c-2.616-1.547-3.902-2.499-4.2-3.077c-0.309-0.764-0.374-1.419-0.42-1.986c-0.058-0.731-0.098-1.261-0.667-1.729
	c-0.022,0.017-0.542-0.044-0.974-0.044c-0.247,0-0.32,0.031-0.329,0.031c-2.142,0.072-3.97,0.072-5.828,0.774
	c-1.217,0.303-2.059,0.761-2.872,1.204c-1.138,0.624-2.205,1.203-3.945,1.203c-0.42,0-1.133,0.105-1.939,0.228
	c-1.056,0.167-2.23,0.344-3.125,0.344c-0.536,0-1.296-0.057-1.537-0.557c-0.233-0.49,0.218-1.06,0.371-1.244
	c0.884-1.108,1.891-1.805,2.958-2.532c1.275-0.872,2.572-1.763,3.729-3.437c-0.051-0.248,0.371-0.78,0.854-1.39
	c0.203-0.266,0.428-0.523,0.583-0.753l-0.06-1.266c0-1.523,0-3.245,0.813-4.054c0.942-1.262,1.713-1.251,2.284-0.988
	c0.317,0.152,0.805,0.078,0.895,0.424c0.288,1.502,0.049,3.081-0.187,4.603c-0.149,1.005-0.295,1.953-0.295,2.887
	c0.255,0.848,1.541,1.048,2.59,1.048c0.667,0,1.335-0.073,1.836-0.16c0.792-0.431,2.083-0.431,3.541-0.266
	c1.067,0.118,2.269,0.246,3.636,0.033c1.643-0.301,1.837-0.403,2.238-0.622c0.25-0.138,0.59-0.303,1.306-0.569
	c0.354-1.236,0.319-1.658,0.288-2.677c0-0.303-0.019-0.659-0.019-1.089c-0.631-0.861-0.971-1.08-1.212-1.245
	c-0.32-0.214-0.544-0.394-0.923-1.274l-0.02-1.806c0.653-1.801,1.837-1.994,2.69-1.994l0.282,0.008c0.031,0,0.295,0.01,0.33,0.021
	c1.37,0.558,2.276,1.049,3.196,1.711c0.29,2.232,4.456,3.102,6.566,3.102c0.233,0,0.45-0.013,0.611-0.042
	c1.417,0,3.059-4.201,3.083-4.716c0.011-0.174,0.146-0.319,0.323-0.319c0.097,0,0.341-0.226,0.485-0.382
	c0.961-0.361,1.702-0.648,2.419-0.916c3.776-1.444,6.6-1.931,10.445,1.373c0.744,0.805,1.262,1.568,1.741,2.289
	c1.052,1.545,1.883,2.772,3.92,3.399l3.24-0.015c1.048-0.713,1.622-1.465,2.158-2.184c0.605-0.804,1.176-1.562,2.519-2.109
	l1.619-0.304c2.182-0.401,2.696-0.5,5.039-2.052c0.095-0.064,0.223-0.068,0.321-0.01c0.877,0.51,1.771,0.956,2.667,1.389
	c2.059,1.021,4.013,1.995,5.559,3.706c0.063,0.073,0.095,0.196,0.063,0.312c-0.625,1.723-1.368,2.487-2.46,2.487
	c-0.507,0-1.038-0.173-1.585-0.358c-0.291-0.081-0.58-0.179-0.888-0.258c-0.57,0.412-1.28,0.712-1.897,0.979
	c-1.434,0.612-2.015,0.9-2.015,1.828c1.151,1.204,2.964,1.924,5.282,1.924c2.818,0,6.205-1.095,9.063-2.912
	c0.128-0.059,0.507-0.059,0.608,0.016l5.022,3.84c0.107,0.055,0.138,0.162,0.13,0.268c-0.016,0.118-0.075,0.211-0.161,0.259
	c-1.815,0.908-2.551,1.138-3.741,1.499l-1.344,0.436c-0.587,0.521-1.494,0.783-2.47,1.051c-1.12,0.304-2.272,0.64-3.154,1.501
	c-0.138,2.121,3.881,10.612,5.037,11.768c0.108,0.1,0.122,0.241,0.064,0.368c-1.573,3.133,2.141,9.247,5.397,11.572
	c0.356,1.874-2.034,3.05-5.051,4.537c-4.113,2.013-9.21,4.524-8.478,8.97c0.087,0.139,0.146,0.382,0.225,0.74
	c0.245,1.03,0.71,2.932,1.876,2.932c1.988-0.018,3.437-1.246,5.036-2.574c1.894-1.588,3.96-3.195,6.288-2.68
	c1.119,1.152,1.489,1.988,1.375,2.798c-0.169,1.192-1.375,2.192-3.435,3.511c-1.347,0.68-1.521,1.773-1.521,2.849
	c0,0.109-0.054,0.213-0.153,0.268c-0.926,0.612-1.923,0.915-3.083,0.915c-0.979,0-1.897-0.227-2.647-0.407
	c-0.9-0.209-1.544-0.607-1.544,0.191c0,0.72,0,1.718,0.305,1.872c0.759-0.017,1.586,0.165,2.518,0.375
	c0.945,0.223,1.921,0.441,2.871,0.441c1.815,0,3.25-0.832,4.504-2.641c2.151-0.238,3.026-1.655,3.881-3.021
	c0.756-1.222,1.465-2.372,2.848-2.372l0.539,0.253c0.377,0.201,0.852,0.455,1.133,0.455c0.122,0,0.223,0.078,0.276,0.183
	c1.407,2.989,0.596,6.975-0.268,11.202c-0.349,1.658-0.691,3.375-0.896,5.025c0.351,3.151,3.23,5.156,6.595,7.458
	c3.542,2.448,7.564,5.22,9.196,10.115l0.358,0.608c1.214,2.121,1.214,2.121,2.18,2.935l0.728,0.638
	c0.087,0.084,0.133,0.221,0.087,0.336l-5.498,14.793C170.683,139.564,170.561,139.639,170.449,139.639L170.449,139.639z
	 M166.962,136.83c0.579,0,0.925,0.186,1.489,0.484l0.684,0.354c0.203,0.259,0.51,0.468,0.75,0.62
	c0.157,0.112,0.334,0.218,0.491,0.338l5.189-13.993l-0.555-0.473c-1.061-0.889-1.091-0.932-2.337-3.124l-0.375-0.651
	c-1.579-4.744-5.515-7.46-8.993-9.853c-3.329-2.291-6.468-4.472-6.837-7.996c0.209-1.745,0.546-3.464,0.897-5.143
	c0.815-4.03,1.61-7.845,0.396-10.634c-0.396-0.065-0.837-0.311-1.231-0.524l-0.375-0.204c-0.89,0.037-1.485,0.991-2.168,2.101
	c-0.904,1.44-1.901,3.065-4.143,3.2c-1.145,1.842-2.741,2.764-4.78,2.764c-1.022,0-2.022-0.233-3.013-0.455
	c-0.875-0.203-1.731-0.391-2.52-0.391c-0.787-0.356-0.787-1.389-0.787-2.47c0-1.071,0.882-1.157,2.338-0.798
	c1.436,0.349,3.567,0.607,5.083-0.335c0.022-1.122,0.293-2.439,1.845-3.221c1.823-1.176,2.99-2.102,3.126-3.055
	c0.084-0.609-0.263-1.306-1.062-2.199c-0.103,0.036-0.377,0.004-0.65,0.004c-1.771,0-3.375,1.341-4.935,2.633
	c-1.61,1.351-3.268,2.736-5.229,2.736c-1.885-0.006-2.4-2.229-2.683-3.424c-0.065-0.22-0.118-0.473-0.153-0.542
	c-0.979-5.102,4.411-7.749,8.733-9.883c2.566-1.259,4.988-2.461,4.836-3.676c-3.231-2.18-7.092-8.397-5.569-11.951
	c-1.377-1.697-5.201-9.876-4.959-12.298c1.064-1.171,2.364-1.535,3.51-1.858c0.897-0.253,1.746-0.49,2.333-0.986
	c0.653-0.234,1.082-0.371,1.464-0.491c1.056-0.328,1.731-0.537,3.173-1.234l-4.628-3.532c-2.838,1.893-6.363,3.017-9.286,3.017
	c-2.472,0-4.496-0.807-5.837-2.335c-0.08-1.592,0.928-2.02,2.335-2.625c0.577-0.258,1.289-0.542,2.052-0.97
	c0.566,0.046,0.863,0.148,1.158,0.241c0.512,0.169,0.976,0.321,1.395,0.321c0.538,0,1.164-0.228,1.792-1.897
	c-1.422-1.53-3.291-2.448-5.237-3.419c-0.849-0.418-1.693-0.833-2.53-1.314c-2.307,1.536-2.929,1.644-5.085,2.043l-1.559,0.296
	c-1.138,0.455-1.612,1.076-2.207,1.879c-0.556,0.728-1.183,1.562-2.486,2.387l-3.503,0.051c-2.338-0.708-3.264-2.074-4.337-3.661
	c-0.472-0.704-0.988-1.445-1.655-2.196c-3.604-3.086-6.181-2.615-9.798-1.23c-0.725,0.272-1.487,0.558-2.331,0.836
	c-0.106,0.158-0.29,0.354-0.534,0.445c-0.284,1.153-1.875,5.078-3.629,5.078c-0.128,0.028-0.37,0.049-0.652,0.049
	c-2.134,0-6.842-0.866-7.073-3.446c-0.725-0.407-1.622-0.876-2.923-1.409l-0.378,0.014c-0.758,0-1.593,0.168-2.102,1.474
	l0.041,1.566c0.298,0.629,0.445,0.723,0.667,0.88c0.298,0.2,0.683,0.456,1.429,1.583c0.06,0.609,0.073,0.956,0.088,1.243
	c0.03,1.051,0.044,1.571-0.536,3.108c-0.85,0.441-1.175,0.593-1.4,0.729c-0.492,0.255-0.762,0.364-2.421,0.675
	c-1.472,0.22-2.714,0.083-3.808-0.023c-1.343-0.151-2.452-0.188-3.296,0.244c-0.616,0.11-1.305,0.2-2.023,0.2
	c-2.27,0-2.996-0.881-3.205-1.61c-0.03-1.05,0.14-2.076,0.296-3.064c0.203-1.393,0.43-2.819,0.223-4.15
	c-0.238-0.05-0.42-0.123-0.591-0.209c-0.482-0.235-0.808-0.127-1.538,0.832c-0.648,0.664-0.648,2.316-0.648,3.643v1.435
	c-0.218,0.422-0.445,0.694-0.668,0.969c-0.296,0.386-0.782,0.978-0.782,1.179c-1.273,1.944-2.631,2.884-3.93,3.779
	c-1.036,0.704-2.01,1.374-2.839,2.415c-0.288,0.341-0.303,0.529-0.288,0.581c0,0.006,0.114,0.189,0.971,0.189
	c0.843,0,2.012-0.166,3.034-0.328c0.832-0.126,1.579-0.233,2.029-0.233c1.577,0,2.538-0.533,3.636-1.132
	c0.829-0.442,1.731-0.948,2.996-1.266c1.921-0.72,3.913-0.72,5.821-0.72c-0.187-0.118,1.736,0,1.736,0
	c0.935,0.704,0.999,1.457,1.061,2.245c0.041,0.544,0.084,1.123,0.371,1.782c0.144,0.282,0.959,1.024,3.928,2.806l0.266,0.163
	c0.356-0.067,1.293,0.406,1.4,0.458c0.648,0.256,1.683,0.286,2.752,0.231c0.312-0.015,0.629-0.032,0.933-0.032
	c1.201,0.236,1.435,0.639,1.64,1.224c0.219,0.561,0.492,1.259,2.786,2.152c0.885,0.411,1.553,0.643,2.125,0.85
	c1.14,0.417,1.923,0.691,3.243,1.843c0.506,0.523,1.005,1.267,1.482,1.981c0.33,0.118,1.257,0.92,1.257,1.364l0.072,0.241
	c0.431,1.776,0.538,1.78,1.961,1.606l0.687-0.088c1.548-0.199,2.76-0.366,4.9-0.15c0.072,0.003,0.171,0.05,0.201,0.123
	c0.06,0.072,0.087,0.162,0.06,0.245c-0.475,2.557-1.001,2.785-2.062,3.027c-0.856,0.179-2.155,0.48-4.349,3.406
	c0.976,1.901,1.114,2.096,1.65,2.733c0.22,0.256,0.492,0.592,0.872,1.118c0.065,0.659-0.276,1.147-0.652,1.656
	c-0.299,0.409-0.62,0.843-0.718,1.245c-0.952,2.379-1.177,3.207,0.194,5.258c0.545,0.54,1.197,1.214,1.452,1.714
	c0.236,0.216,0.496,0.859,0.743,1.488c0.113,0.291,0.271,0.7,0.336,0.788c0.386,0.653,0.798,1.257,1.241,1.894
	c0.355,0.502,0.693,1.023,1.031,1.545c-0.032-0.058,0.071-0.036,0.202-0.036c0.74,0,1.603-0.812,1.603-1.238
	c-0.116-0.846-0.332-1.78-0.55-2.749c-0.248-1.114-0.507-2.269-0.632-3.44l-0.02-1.223c-0.052-0.303-0.21-0.654-0.351-1.001
	c-0.313-0.746-0.651-1.517-0.072-2.305c0.646-0.725,1.155-1.169,1.577-1.541c0.762-0.652,1.206-1.037,1.488-2.174
	c0.023-0.11,0.105-0.193,0.209-0.231c0.911-0.301,1.696-0.209,2.632,0.26l0.268,0.567c0.255,1.08,0.255,1.08,0.818,2.077
	l0.732,1.312c1.263,0.727,0.807,2.944-0.474,6.488c0.025,2.992,0.025,4.867,1.201,7.672c0.023,0.94,0.146,1.642,0.274,2.347
	c0.118,0.733,0.228,1.463,0.228,2.326c0.464,1.561,1.176,3.714,1.654,4.912c0.026,3.261,0.507,8.712,1.209,11.522
	c0.239,0.009,1.625,0.252,2.091,0.252c0.274,0.035,0.484,0.051,0.667,0.051c2.553,0,2.606-2.823,2.606-2.858
	c0.411-0.776,1.169-1.765,2.037-2.896c1.486-1.959,3.323-4.386,4.235-6.327c0.828-1.387,1.785-2.79,2.663-3.896
	c0.587-0.575,1.305-0.319,1.771-0.043c0.138,0.075,0.317,0.162,0.396,0.162c1.359,0.442,1.142,1.759,0.958,2.926
	c-0.088,0.471-0.171,0.978-0.171,1.465c0.017-0.052,0.258,0.136,0.438,0.251c0.488,0.345,0.764,0.574,0.786,0.848
	c0.008,0.091-0.041,0.261-0.113,0.318c-0.103,0.576-0.517,1.045-1.005,1.577c-0.194,0.233-0.427,0.486-0.645,0.792
	c-1.812,1.576-2.568,2.924-3.048,5.381c-0.876,2.199-0.964,2.578-1.319,4.428l-0.123,0.592c0,0.322-0.309,1.104-0.981,2.469
	c-1.53,2.674-3.318,3.582-5.394,4.629c-0.604,0.299-1.249,0.629-1.916,1.014c-0.304,1.339,0.837,5.32,1.56,7.025
	c1.131,2.027,1.756,2.924,4.743,2.924h0.725c0.946-0.094,1.713-0.274,2.495-0.457c1.111-0.254,2.156-0.496,3.717-0.496
	c1.087,0.332,1.435,0.557,1.82,0.815c0.193,0.113,0.398,0.255,0.723,0.421c1.37,1.778,3.46,4.03,6.799,4.03
	c0.434-0.101,1.183-0.114,1.972-0.135c1.065-0.025,2.286-0.058,2.948-0.328c0.678,0,1.304,0.183,1.889,0.378
	c0.687,0.223,1.387,0.438,1.988,0.336c0.209-0.119,0.532-0.343,0.87-0.577c0.764-0.52,1.628-1.104,2.552-1.104
	c0.587,0,1.053,0.051,1.544,0.104c0.524,0.065,1.064,0.119,1.809,0.119c0.771,0.242,1.43,0.242,2.142,0.242
	c0.487,0.229,0.721,0.408,0.933,0.569c0.559,0.408,0.858,0.638,2.192,0.638C166.436,136.859,166.723,136.83,166.962,136.83
	L166.962,136.83z"/>
<path fill="#909394" d="M170.219,109.333c-1.181,0-1.523-1.116-2.253-3.87c-0.509-0.604-1.105-1.104-1.64-1.561
	c-1.045-0.903-1.974-1.677-1.974-3.549c0-0.138,0.113-0.271,0.253-0.303c3.095-0.771,5.28,3.313,6.346,5.429
	c0.052,0.193,0.113,0.379,0.213,0.619c0.521,1.301,0.897,2.391,0.436,2.859C170.928,109.242,170.533,109.333,170.219,109.333
	L170.219,109.333z M165,100.613c0.063,1.395,0.775,1.994,1.723,2.804c0.567,0.474,1.174,1.009,1.791,1.772
	c0.762,2.789,1.053,3.516,1.705,3.516c0.235,0,0.576-0.092,1.04-0.262c0.009-0.104-0.183-0.838-0.68-2.107
	c-0.175-0.447-0.241-0.593-0.241-0.709C169.422,103.857,167.564,100.188,165,100.613L165,100.613z M154.623,65.952
	c-3.036,0-4.115-0.9-4.115-1.669c0-0.245,0.1-0.68,0.786-0.999c0.468-0.229,1.131-0.351,1.886-0.351
	c0.757,0.484,1.102,0.669,1.321,0.778c0.471,0.263,0.514,0.404,0.471,0.94c-0.011,0.212-0.044,0.517-0.044,0.98
	C154.928,65.815,154.786,65.952,154.623,65.952L154.623,65.952z M152.995,63.495c-1.212,0.059-1.858,0.493-1.858,0.788
	c0,0.308,0.805,0.988,3.169,1.029c0.015-0.309,0.023-0.533,0.042-0.695l-0.144-0.351C153.972,64.145,153.602,63.949,152.995,63.495
	L152.995,63.495z"/>
<path fill="#909394" d="M107.934,92.699c-1.21,1.425-0.238,2.152,0.466,3.817c0,0.972-2.38,5.035-0.704,5.035
	c2.37,0,0.956-3.108,2.147-4.545c0.223,0,0.223-0.716,0-1.678c0,0.239-0.956-1.92-0.956-2.864l0,0
	C108.887,91.978,108.178,91.978,107.934,92.699L107.934,92.699z"/>
<path fill="#909394" d="M107.696,101.87c-0.414,0-0.638-0.195-0.75-0.348c-0.421-0.629-0.007-1.836,0.646-3.467
	c0.238-0.629,0.494-1.28,0.494-1.539c-0.124-0.24-0.297-0.572-0.458-0.862c-0.549-1.018-0.996-1.887,0.05-3.153
	c0.312-1.071,1.527-0.737,1.527-0.038c0,0.704,0.605,2.222,0.805,2.598c0.054,0.048,0.12,0.116,0.136,0.186
	c0.138,0.555,0.323,1.528,0.036,1.899c-0.067,0.087-0.245,0.17-0.341,0.17c-0.179,0.391-0.223,1.186-0.282,1.964
	C109.499,100.431,109.408,101.87,107.696,101.87L107.696,101.87z M108.539,92.455c-0.088,0-0.242,0.108-0.314,0.341
	c-0.835,1.055-0.58,1.552-0.048,2.563c0.167,0.311,0.346,0.648,0.521,1.038c0.026,0.479-0.19,1.024-0.521,1.893
	c-0.369,0.926-0.984,2.477-0.717,2.868l0.234,0.076c1.067,0,1.161-0.683,1.238-1.994c0.064-0.836,0.114-1.778,0.664-2.435
	c0.124-0.12,0.138-0.561-0.053-1.358c-0.464-0.634-0.972-2.538-0.972-2.983C108.572,92.455,108.572,92.455,108.539,92.455
	L108.539,92.455z"/>
<path fill="#909394" d="M111.759,95.566c-0.249,0.235-0.468,2.876,0.472,2.876c1.442,0,0.717-1.674,0.484-2.153
	c0-0.239-0.24-0.962,0-0.962l0,0C112.475,94.125,111.759,94.853,111.759,95.566L111.759,95.566z"/>
<path fill="#909394" d="M112.231,98.758c-0.198,0-0.583-0.086-0.81-0.632c-0.323-0.794-0.21-2.455,0.131-2.774
	c-0.107-0.351,0.228-0.969,0.742-0.969c0.245,0,0.585,0.15,0.727,0.875c0.027,0.093,0,0.198-0.073,0.259
	c-0.03,0.054-0.084,0.092-0.133,0.106c0.11,0.017,0.133,0.178,0.168,0.291c0.022,0.149,0.038,0.287,0.038,0.375
	c0.186,0.271,0.644,1.335,0.242,1.988C113.135,98.492,112.83,98.758,112.231,98.758L112.231,98.758z M112.257,94.989
	c-0.025,0.046-0.186,0.284-0.186,0.579c-0.191,0.423-0.343,1.859-0.01,2.42l0.169,0.138c0.252,0,0.419-0.062,0.496-0.182
	c0.183-0.288-0.013-0.985-0.295-1.516l-0.073-0.396c-0.064-0.317-0.117-0.604,0-0.817C112.294,95.034,112.257,94.989,112.257,94.989
	L112.257,94.989z"/>
<path fill="#A8A8A8" d="M78.471,27.321c-1.43,2.161-0.95,4.549-1.43,7.911c0,0,0,0,0,0.243c0.48,0,1.43-0.243,1.43-0.243
	s1.209-7.434,1.209-8.386l0,0c0,0,0,0-0.491,0l0,0C78.711,27.086,78.711,27.086,78.471,27.321L78.471,27.321z"/>
<path fill="#231F20" d="M77.04,35.779c-0.1,0-0.176-0.155-0.233-0.223c-0.057-0.068-0.098-0.281-0.072-0.371
	c0.145-1.061,0.205-2.034,0.253-2.911c0.111-1.924,0.193-3.578,1.206-5.125c0.339-0.322,0.371-0.341,0.854-0.579
	c0.042-0.032,0.524-0.045,0.554-0.045c0.187,0,0.382,0.143,0.382,0.319c0,0.97-1.161,8.129-1.195,8.438
	c-0.03,0.128-0.128,0.217-0.24,0.249C78.509,35.549,77.551,35.779,77.04,35.779L77.04,35.779z M79.188,27.163
	c-0.289,0.187-0.289,0.187-0.491,0.389c-0.886,1.34-0.973,2.85-1.087,4.757c-0.048,0.857-0.095,1.797-0.241,2.817
	c0.283-0.028,0.602-0.102,0.828-0.15c0.371-2.369,1.027-6.505,1.144-7.812L79.188,27.163L79.188,27.163z"/>
<path fill="#A8A8A8" d="M93.072,25.662c0,0,0.246,0.474,0,0.225c0,0.25,0.246,0,0.488,0.25c1.674,0.474,3.841-1.208,3.117-2.4
	C94.995,24.927,93.072,23.495,93.072,25.662L93.072,25.662z"/>
<path fill="#231F20" d="M94.182,26.527c-0.25,0-0.485-0.03-0.709-0.1c-0.083,0-0.227-0.068-0.379-0.173
	c-0.081-0.023-0.184-0.092-0.225-0.138l0.027-0.03c-0.072-0.066-0.122-0.133-0.122-0.2c0-0.099,0.055-0.209,0.153-0.261
	c-0.097-1.528,0.835-1.583,1.67-1.63c0.608-0.028,1.265-0.07,1.911-0.516c0.067-0.046,0.148-0.071,0.235-0.055
	c0.079,0.023,0.16,0.07,0.198,0.146c0.259,0.438,0.251,0.958-0.031,1.457C96.428,25.877,95.262,26.527,94.182,26.527L94.182,26.527z
	 M93.488,25.753c0.072,0,0.195,0.045,0.302,0.153c0.037-0.028,0.207-0.006,0.392-0.006c0.949,0,1.849-0.601,2.189-1.185
	c0.097-0.171,0.137-0.339,0.137-0.505c-0.659,0.346-1.346,0.382-1.884,0.409c-0.893,0.059-1.233,0.074-1.233,1.043
	c0.024,0.028,0.048,0.062,0.066,0.091C93.473,25.753,93.473,25.753,93.488,25.753L93.488,25.753z"/>
<path fill="#A8A8A8" d="M74.633,78.333c0,0-0.464,0-0.693,0.231c-0.498,0.234-0.965,0.49-1.439,0.721
	c-0.239,0.722-1.21,0.963,0,2.162c0.941,0,0.474-0.961,1.439-1.2c0.229,0,0.468,0,0.693-0.241c1.206-0.241,1.931-0.484,1.931-1.673
	C75.598,78.333,75.839,78.333,74.633,78.333L74.633,78.333z"/>
<path fill="#231F20" d="M72.501,81.749c-0.1,0-0.169-0.027-0.229-0.087c-0.981-0.979-0.73-1.509-0.337-2.051
	c0.124-0.149,0.219-0.271,0.268-0.428l1.582-0.888c0.253-0.276,0.792-0.284,0.848-0.284h1.931c0.173,0,0.317,0.148,0.317,0.322
	c0,1.538-1.151,1.781-2.191,1.977c-0.165,0.249-0.505,0.249-0.75,0.249c-0.243,0.072-0.341,0.237-0.444,0.482
	C73.378,81.327,73.193,81.749,72.501,81.749L72.501,81.749z M74.633,78.642c-0.107,0-0.369,0.044-0.483,0.151l-1.512,0.773
	c0.073,0.062-0.076,0.252-0.186,0.411c-0.255,0.356-0.393,0.545,0.159,1.143c0.194-0.019,0.225-0.111,0.316-0.337
	c0.129-0.278,0.314-0.683,0.916-0.842c0.325-0.009,0.435-0.009,0.572-0.152c1.248-0.295,1.72-0.509,1.81-1.146L74.633,78.642
	L74.633,78.642z"/>
<path fill="#A8A8A8" d="M56.703,80.96c0.466,2.643,0.93,5.504,1.182,7.657c0,1.199-0.716,1.928,0.958,2.882
	c0.243,0,1.191-0.717,1.191-0.717c0.248-0.723,0,0,0.724-2.166c-1.672-1.667-0.724-3.576-1.672-5.014
	C58.366,83.357,55.487,80.247,56.703,80.96L56.703,80.96z"/>
<path fill="#231F20" d="M58.842,91.811c-0.05,0-0.114-0.008-0.163-0.041c-1.445-0.833-1.309-1.617-1.191-2.392
	c0.042-0.228,0.073-0.484,0.073-0.761c-0.184-1.675-0.547-4.042-1.068-7.007c-0.377-0.454-0.478-0.666-0.377-0.875
	c0.111-0.209,0.351-0.266,0.732-0.038l0.201,0.629c0.697,0.826,1.815,1.871,2.127,1.971c0.615,0.802,0.685,1.569,0.75,2.308
	c0.08,0.981,0.173,1.906,1.056,2.801c0.081,0.076,0.111,0.206,0.081,0.319l-0.726,2.152C59.538,91.553,59.067,91.811,58.842,91.811
	L58.842,91.811z M57.283,82.494c0.431,2.516,0.739,4.561,0.908,6.094c0.019,0.347-0.046,0.64-0.081,0.894
	c-0.103,0.697-0.176,1.102,0.77,1.687c0.205-0.099,0.629-0.382,0.968-0.641l0.078-0.389l0.476-1.431
	c-0.915-1.005-1.021-2.091-1.094-3.054c-0.065-0.69-0.132-1.342-0.484-1.88C58.552,83.728,57.871,83.098,57.283,82.494
	L57.283,82.494z"/>
<path fill="#A8A8A8" d="M51.888,78.333c-0.227,0-1.421,0.722-1.682,1.915c0,0.239,0.26,0.474,0.49,1.2
	c0.727,0.71,1.193,1.193,1.193,2.628c0-0.24,0.248-0.24,0-0.24c0.484,0,0.484-0.233,0.484-0.479
	C52.852,80.247,52.852,78.333,51.888,78.333L51.888,78.333z"/>
<path fill="#231F20" d="M51.888,84.402c-0.16,0-0.304-0.158-0.304-0.326c0-1.311-0.39-1.705-1.103-2.415
	c-0.195-0.458-0.306-0.689-0.389-0.859c-0.104-0.206-0.183-0.366-0.183-0.555c0.267-1.371,1.543-2.237,1.979-2.237
	c0.283,0,0.522,0.119,0.699,0.328c0.526,0.605,0.547,2.124,0.097,5.063c0.01,0.144,0.01,0.577-0.471,0.711
	c-0.012,0-0.012,0.019-0.012,0.03C52.178,84.291,52.06,84.402,51.888,84.402L51.888,84.402z M50.529,80.31
	c0.014,0,0.057,0.095,0.118,0.212c0.108,0.183,0.234,0.439,0.355,0.818c0.42,0.395,0.821,0.782,1.024,1.455
	c0.449-2.348,0.416-3.659,0.08-4.056C51.793,78.657,50.748,79.264,50.529,80.31L50.529,80.31L50.529,80.31z"/>
<path fill="#A8A8A8" d="M60.033,69.956c0,1.422,1.682,2.865,1.198,4.539c0,1.674,0.484,2.634,0.484,5.271
	c0,1.909,0,2.874,2.153,2.874c0.719,0.232,1.437,0.474,2.4,0.474c1.668-0.474,2.149-0.474,2.389-1.667c0-0.727,0-1.2,0-1.681
	c-0.239-1.915-2.389-2.638-2.872-3.841c0.483-1.186,1.923-1.186,2.633-2.15c0-1.423-0.958-1.911-1.677-2.631
	c-0.718-1.187-1.176-2.396-2.873-2.874C61.231,67.799,60.033,67.799,60.033,69.956L60.033,69.956z"/>
<path fill="#231F20" d="M66.269,83.434c-0.998,0-1.761-0.26-2.487-0.498c-2.269-0.014-2.392-1.262-2.379-3.169
	c0-1.441-0.138-2.382-0.274-3.203c-0.111-0.691-0.211-1.304-0.211-2.069c0.276-0.932-0.126-1.725-0.545-2.563
	c-0.324-0.644-0.652-1.295-0.652-1.976c0-2.188,1.197-2.535,4.201-1.996c1.608,0.457,2.227,1.521,2.82,2.554l0.268,0.469
	c0.097,0.078,0.241,0.197,0.379,0.338c0.646,0.542,1.35,1.165,1.35,2.454c-0.432,0.667-0.93,0.922-1.392,1.173
	c-0.561,0.288-1.054,0.541-1.269,1.101c0.158,0.179,0.597,0.561,1.07,0.97c0.783,0.682,1.663,1.438,1.82,2.695v1.732
	c-0.251,1.311-0.835,1.474-2.132,1.838l-0.485,0.131C66.318,83.425,66.293,83.434,66.269,83.434L66.269,83.434z M61.781,68.331
	c-0.959,0-1.435,0.245-1.435,1.625c0,0.529,0.272,1.088,0.585,1.696c0.435,0.864,0.922,1.849,0.605,2.931
	c0,0.639,0.106,1.225,0.212,1.875c0.145,0.86,0.286,1.814,0.286,3.309c0,1.909,0,2.561,1.834,2.561
	c0.807,0.241,1.467,0.467,2.353,0.477l0.441-0.128c1.274-0.349,1.517-0.417,1.685-1.298v-1.612c-0.119-0.987-0.87-1.637-1.606-2.279
	c-0.528-0.454-1.015-0.876-1.253-1.437c0.313-1.017,0.985-1.353,1.572-1.66c0.423-0.217,0.843-0.435,1.11-0.804
	c-0.064-0.816-0.579-1.275-1.191-1.796c-0.145-0.138-0.317-0.272-0.461-0.426l-0.328-0.531c-0.572-1.016-1.078-1.881-2.408-2.257
	C62.995,68.431,62.319,68.331,61.781,68.331L61.781,68.331z"/>
<path fill="#A8A8A8" d="M60.28,62.284c-0.248,0.482-0.248,0.727-0.248,0.965c-0.48,0.715-2.864,1.671-3.105,3.11
	c0.241,0.236,0.472,0.479,0.706,0.713c0.252-0.234,0.252,0,0.491-0.234c0.243-0.243,0.243-0.479,0.718-0.965
	c1.915-2.152,1.438-0.71,1.915-2.396C61.231,62.765,60.757,61.803,60.28,62.284L60.28,62.284z"/>
<path fill="#231F20" d="M57.626,67.378c-0.081,0-0.153-0.021-0.203-0.08l-0.721-0.722c0.088-1.324,1.212-2.107,2.104-2.722
	c0.437-0.302,0.832-0.572,0.968-0.787c-0.055-0.085-0.055-0.379,0.222-0.924c0.05-0.104,0.421-0.302,0.549-0.302
	c0.238,0,0.45,0.149,0.596,0.396c0.167,0.344,0.209,0.921-0.125,1.425c-0.227,0.845-0.26,0.937-0.574,1.132
	c-0.179,0.124-0.532,0.348-1.375,1.291c-0.243,0.259-0.354,0.439-0.447,0.592c-0.068,0.122-0.148,0.249-0.277,0.38
	c-0.054,0.057-0.378,0.21-0.458,0.21C57.82,67.337,57.713,67.378,57.626,67.378L57.626,67.378z M60.619,62.653
	c-0.272,0.191-0.272,0.373-0.272,0.596c-0.248,0.471-0.692,0.775-1.176,1.116c-0.82,0.555-1.801,1.25-1.938,2.051l0.435,0.291
	c0.086-0.028,0.182-0.06,0.217-0.06c0.089-0.105,0.137-0.18,0.195-0.288c0.103-0.17,0.241-0.398,0.541-0.704
	c0.866-0.996,1.274-1.252,1.485-1.391c0.128-0.064,0.128-0.064,0.283-0.631c0.014-0.031,0.096-0.307,0.114-0.327
	C60.619,63.108,60.678,62.872,60.619,62.653L60.619,62.653z"/>
<path fill="#A8A8A8" d="M74.168,139.15c1.43,1.436,1.196,0.472,1.67,1.675c0,0.465,0,0.465,0,0.714c0,0.243,0.478,1.443-0.241,1.443
	c-1.19,0.229-1.658-0.971-3.097-0.971c0-0.229-0.239-0.474-0.239-0.474c-1.209-0.249-2.167-1.435-1.691-2.39
	c1.2-0.48,1.2,0.955,1.931,0.709c0,0,0-0.475,0.239-0.709C73.442,138.669,73.94,138.909,74.168,139.15L74.168,139.15z"/>
<path fill="#231F20" d="M75.286,143.316c-0.541,0-0.95-0.248-1.346-0.482c-0.42-0.264-0.836-0.511-1.439-0.511
	c-0.169,0-0.314-0.136-0.314-0.312c0-0.051-0.099-0.186-0.163-0.247c-0.632-0.076-1.375-0.627-1.706-1.312
	c-0.231-0.489-0.24-1.001-0.015-1.441c0.346-0.236,0.554-0.281,0.72-0.281c0.519,0,0.81,0.344,1.035,0.599
	c0.044,0.071,0.094,0.131,0.16,0.182c0.043-0.182,0.127-0.411,0.283-0.577c0.786-0.543,1.438-0.479,1.883,0
	c0.635,0.625,0.924,0.762,1.07,0.844c0.335,0.152,0.426,0.274,0.682,0.925l0.016,0.839c0.13,0.604,0.276,1.163,0,1.505
	c-0.088,0.116-0.248,0.24-0.553,0.24C75.533,143.309,75.404,143.316,75.286,143.316L75.286,143.316z M72.739,141.717
	c0.654,0.049,1.103,0.328,1.523,0.573c0.426,0.263,0.785,0.478,1.27,0.377c0.177-0.083,0.16-0.342,0.05-0.78
	c0-0.021-0.05-0.316-0.05-0.348v-0.714c-0.193-0.411-0.217-0.427-0.347-0.483c-0.19-0.104-0.529-0.258-1.246-0.974
	c-0.162-0.169-0.562-0.271-1.029,0.04c-0.055,0.052-0.106,0.341-0.106,0.451c0,0.15-0.095,0.259-0.216,0.306
	c-0.604,0.039-0.837-0.22-1.024-0.44c-0.275-0.315-0.449-0.461-0.864-0.287c-0.021,0.186,0.075,0.524,0.188,0.742
	c0.232,0.51,0.813,0.934,1.43,1.055C72.457,141.328,72.637,141.499,72.739,141.717L72.739,141.717z"/>
<path fill="#A8A8A8" d="M60.033,134.357c-1.909,0-2.4,0.476-4.304,1.194c-0.243,0.236-0.469,0.966,0.239,1.19
	c0.959,0,1.917,0,2.874-0.225c1.438,0,2.873,0,3.593,0.467c0.716,0.246,1.434,0.484,1.68,0.957c0,0.482,0.955,0.729,1.451,0.729
	c0.22,0,2.144,0.715,2.144,0c0-0.245-0.489-1.684-0.967-1.926c-1.437-1.189-2.873-1.668-3.829-2.145
	C61.714,134.357,60.757,134.357,60.033,134.357L60.033,134.357z"/>
<path fill="#231F20" d="M67.19,139.305c-0.427,0-0.977-0.154-1.346-0.25c-0.143-0.033-0.249-0.065-0.314-0.084l0,0
	c-0.542,0-1.733-0.257-1.733-1.029c-0.153-0.215-0.812-0.439-1.456-0.653c-0.708-0.46-2.133-0.46-3.5-0.46
	c-0.908,0.232-1.915,0.232-2.874,0.232c-0.44-0.135-0.693-0.377-0.766-0.697c-0.093-0.389,0.087-0.821,0.298-1.03
	c0.599-0.258,0.992-0.422,1.339-0.575c1.511-0.64,2.38-1.229,6.138-0.471c0.282,0.137,0.524,0.24,0.79,0.354
	c0.9,0.407,2.034,0.911,3.169,1.861c0.605,0.3,1.073,1.9,1.073,2.167c0,0.229-0.106,0.412-0.301,0.522
	C67.592,139.264,67.403,139.305,67.19,139.305L67.19,139.305z M59.329,136.209c1.355,0,2.597,0.051,3.28,0.521
	c0.683,0.227,1.472,0.487,1.788,1.076c0.03,0.291,0.618,0.541,1.168,0.541c0.073,0,0.189,0.035,0.439,0.092
	c0.493,0.138,1.399,0.201,1.399,0.201c-0.023-0.226-0.481-1.449-0.801-1.611c-1.136-0.937-2.23-1.42-3.1-1.814
	c-0.271-0.119-0.507-0.227-0.734-0.334c-1.075-0.216-2.032-0.216-2.734-0.216c-1.362,0-1.961,0.257-2.954,0.688
	c-0.356,0.151-0.75,0.311-1.238,0.492c0.021,0-0.065,0.225-0.032,0.385c0.008,0.062,0.062,0.152,0.263,0.231
	c0.854-0.022,1.776-0.022,2.686-0.254C58.961,136.209,59.132,136.209,59.329,136.209L59.329,136.209z"/>
<path fill="#A8A8A8" d="M24.848,144.887c0.464,0.488,1.433,1.44,1.905,1.44c0.718-1.44,1.2-1.683,1.2-2.396
	c-0.959-3.348-0.707-3.105-1.2-5.508c-0.231-1.681-0.473-3.349,0.718-4.547c1.205-0.705,1.205,0,2.636,0.723
	c1.687,1.435,3.361,5.984,5.025,8.383c1.926,1.904,3.364,2.394,5.272,3.586c2.147,1.437,3.354,1.674,5.028,4.067
	c0.476,0.96,1.208,2.16,2.64,2.88c1.66,1.196,4.299,2.158,6.696,4.063c0.718,1.198,0.961,3.118,1.442,4.546
	c1.422,1.441,1.673,1.441,2.385,3.361c-0.23,1.434-0.964,0.964-2.868,0.964c-1.19,1.19,0.974,1.911,0.974,4.065
	c-0.245,0-1.443,0-1.695,0c0,0-0.239,0.243-0.239,0.471c0,0-0.229,0.729-0.229,0.959c0.229,1.201,0.229,1.679,0.721,2.633
	c0,0,0.227,0.245-0.252,0c18.932,11.746,41.669,13.402,59.149,9.115c0.952,0.465-2.865-3.836-3.357-4.565
	c-1.201-3.108-2.4-3.108-1.422-5.267c0-1.193-0.491-3.346-1.682-4.066c-3.36-4.074,0.704-6.227,1.191-11.015
	c0.491-0.714-0.708-2.64-0.708-3.104c-0.723-1.688-1.926-2.402-2.643-2.402c-5.268,0-8.378,1.676-11.975,4.068
	c-1.904,1.192-3.105,1.682-5.022,2.396c-1.208-0.243-1.923,0-3.122-0.243c-1.196-0.472-0.245-6.222-1.918-5.978
	c-0.938,0.242-2.387,0.471-3.338,0.242c-3.12,0.483-10.066,0.954-12.94,1.668c-0.479,0-3.105,0.713-5.505,0.713
	c-0.958,0.254-1.682,0-2.63,0c-2.157-2.621-3.825-3.104-5.74-5.024c-1.923-1.914,0-4.544,0-6.937
	c-0.493-5.269-5.756-0.965-6.956-2.638c-0.711-1.198-1.189-2.869-1.913-4.308c-1.191-4.793-6.696-8.612-5.499-12.209
	c0-2.639,5.266-0.971,7.183-0.715c5.263-3.83,9.101,1.906,13.394,2.383c0.728-2.383-7.664-5.258-7.182-7.896
	c-0.236-3.353-0.483-6.704-0.71-9.823c-0.239-2.629-0.965-3.822,0.71-6.459c0.973-1.438,1.439-2.392,2.397-3.354
	c0.719-3.356,0.239-4.775,0.239-6.694c0.479-1.918,1.451-5.999-2.636-4.556c-3.607,4.071-2.639,2.153-5.73,5.024
	c-1.69,0-3.356-0.232-5.531-0.468c-1.184-0.964-1.671-2.873-1.671-3.846c-0.225-1.433-0.225-2.621-0.225-4.062
	c0.712-2.16,6.219-2.16,7.175-4.309c0.487-0.963,0.952-1.915,1.201-2.396c0-0.951-1.68-1.682-1.68-2.392
	c1.68-1.444,3.597-2.394,5.255-3.596c0-1.671,0.258-3.35,0.258-4.791c-1.216-3.596-1.916-3.596-5.513-5.979
	c-0.476-1.68-2.392-3.59-2.392-5.026c0-2.874-3.112-3.592-4.786-5.279c-0.951-1.432-2.392-4.309-2.392-5.021
	c0,1.442,0,3.109,0,4.792c-0.241,2.869-1.206,11.007,0,13.161c-0.48,0.958-0.966,1.912-1.206,3.118
	c-3.83,3.119-4.296,10.062-5.025,17.718c-0.713,1.199-5.752,4.547-7.667,5.035c-4.063,1.19-5.737,5.974-9.091,8.125
	C11.68,115.443,17.177,132.68,24.848,144.887L24.848,144.887z"/>
<path fill="#231F20" d="M95.799,186.158c-10.358,0-25.878-1.963-40.948-11.312c-0.143-0.089-0.178-0.269-0.106-0.423
	c0.024-0.039,0.065-0.084,0.138-0.118c-0.328-0.498-0.408-0.962-0.524-1.591l-0.128-0.71c0-0.322,0.194-0.939,0.245-1.113
	c-0.01-0.252,0.27-0.545,0.312-0.606l1.575-0.073c-0.081-0.729-0.444-1.275-0.762-1.768c-0.444-0.692-0.921-1.394-0.1-2.219
	c0.667-0.092,1.048-0.078,1.385-0.05c0.869,0.063,1.259,0.222,1.403-0.743c-0.557-1.382-0.8-1.611-1.693-2.483l-0.61-0.593
	c-0.248-0.646-0.393-1.228-0.524-1.815c-0.276-1.021-0.527-2.065-0.95-2.79c-1.329-1.029-2.826-1.83-4.127-2.525
	c-0.943-0.5-1.798-0.967-2.503-1.451c-1.458-0.73-2.221-1.986-2.723-2.984c-1.199-1.699-2.13-2.264-3.443-3.034
	c-0.438-0.274-0.94-0.562-1.482-0.924c-0.539-0.315-1.005-0.593-1.489-0.863c-1.235-0.698-2.406-1.354-3.824-2.771
	c-0.738-1.038-1.437-2.42-2.125-3.743c-0.957-1.873-1.944-3.802-2.887-4.619c-0.401-0.192-0.732-0.422-0.993-0.604
	c-0.567-0.418-0.663-0.457-1.27-0.078c-1.03,1.035-0.821,2.58-0.577,4.224c0.153,0.776,0.238,1.28,0.303,1.718
	c0.137,0.916,0.233,1.514,0.881,3.758c0.007,0.603-0.194,0.933-0.504,1.385c-0.176,0.289-0.423,0.666-0.705,1.229
	c-0.057,0.104-0.168,0.189-0.292,0.189c-0.512,0-1.23-0.624-2.132-1.544c-8.894-14.155-13.106-31.415-11.589-47.417
	c1.506-1.112,2.575-2.42,3.692-3.8c1.571-1.915,3.173-3.885,5.635-4.613c1.899-0.479,6.849-3.819,7.485-4.89l0.048-0.868
	c0.685-7.439,1.288-13.872,5.056-16.936c0.127-1.042,0.627-2.029,1.103-2.994c-0.999-1.539-0.586-6.883-0.153-11.759l0.127-1.302
	V45.77c0-0.347,0.628-0.347,0.628,0c0,0.572,1.329,3.34,2.331,4.848c0.479,0.461,1.103,0.872,1.761,1.299
	c1.517,0.979,3.079,1.999,3.079,4.153c0,0.71,0.597,1.642,1.166,2.543c0.493,0.801,1,1.61,1.214,2.395l1.229,0.702
	c2.477,1.592,3.228,2.074,4.288,5.268c0.008,0.794-0.033,1.553-0.095,2.332c-0.066,0.828-0.13,1.696-0.13,2.557
	c-0.79,0.715-1.465,1.154-2.167,1.58c-1.074,0.68-2.191,1.384-3.206,2.259c0.109-0.062,0.447,0.271,0.761,0.545
	c0.485,0.456,1.024,0.951,1.024,1.603l-1.234,2.534c-0.521,1.183-2.195,1.744-3.806,2.291c-1.495,0.506-3.055,1.032-3.362,1.972
	c0.017,1.366,0.017,2.515,0.249,3.926c0.01,1.018,0.501,2.774,1.569,3.638l0.928,0.053c1.609,0.199,3.009,0.357,4.393,0.357
	c1.094-1.137,1.691-1.511,2.229-1.836c0.67-0.42,1.198-0.751,3.265-3.083c1.783-0.736,2.609-0.493,3.167,0.229
	c0.88,1.103,0.319,3.376,0.03,4.599c0,0.455,0.03,0.938,0.065,1.43c0.097,1.311,0.203,2.799-0.318,5.263
	c-0.762,0.828-1.19,1.525-1.736,2.387c-0.225,0.327-0.458,0.686-0.708,1.08c-1.264,1.97-1.087,3.078-0.843,4.744
	c0.059,0.457,0.13,0.959,0.18,1.519c0.198,2.621,0.399,5.416,0.615,8.249l0.106,1.578c-0.219,1.197,1.81,2.592,3.581,3.818
	c2.061,1.424,4.006,2.779,3.587,4.187c-0.04,0.151-0.192,0.213-0.344,0.22c-1.552-0.178-3.06-1.006-4.516-1.818
	c-1.656-0.918-3.354-1.873-5.172-1.873c-1.201,0-2.336,0.408-3.487,1.242c-0.599,0.051-1.093-0.086-1.641-0.197
	c-1.077-0.211-2.43-0.484-3.506-0.484c-1.725,0-1.908,0.654-1.908,1.148c-0.644,1.992,0.742,3.988,2.365,6.296
	c1.27,1.815,2.59,3.704,3.128,5.833c0.306,0.578,0.564,1.262,0.832,1.931c0.344,0.849,0.657,1.649,1.052,2.296
	c0.073,0.1,0.251,0.266,0.732,0.266c0.444,0,0.968-0.112,1.523-0.229c0.652-0.136,1.335-0.276,1.986-0.276
	c1.657,0,2.568,0.979,2.736,3.01c0.008,0.871-0.217,1.74-0.451,2.576c-0.393,1.563-0.783,3.026,0.371,4.172
	c0.767,0.769,1.495,1.302,2.247,1.857c1.094,0.797,2.219,1.611,3.52,3.188c0.085-0.104,0.406-0.092,0.695-0.051
	c0.557,0.047,1.118,0.065,1.618-0.043c1.698-0.011,3.468-0.355,4.537-0.562c0.517-0.103,0.888-0.167,1.04-0.167
	c1.729-0.449,5.125-0.798,8.12-1.118c1.869-0.196,3.581-0.38,4.757-0.562c1.327,0.248,2.655-0.06,3.326-0.232
	c1.222,0.006,1.446,1.736,1.57,3.432c0.071,0.959,0.181,2.43,0.548,2.562c0.51,0.11,0.972,0.144,1.438,0.11
	c0.489,0,0.993,0,1.626,0.123c1.723-0.701,2.889-1.174,4.785-2.354c3.385-2.252,6.625-4.126,12.145-4.126
	c0.87,0,2.161,0.819,2.921,2.589c0.036,0.227,0.195,0.598,0.298,0.871c0.355,0.859,0.805,1.923,0.398,2.545
	c-0.14,1.674-0.809,3.107-1.422,4.383c-1.04,2.231-1.799,3.831,0.203,6.254c1.241,0.729,1.741,3.012,1.741,4.267
	c-0.588,1.386-0.362,1.753,0.233,2.763c0.34,0.566,0.754,1.285,1.19,2.389c0.114,0.162,0.58,0.719,1.111,1.371
	c2.342,2.812,2.525,3.141,2.38,3.445c-0.053,0.118-0.198,0.216-0.336,0.216C108.378,185.436,102.169,186.158,95.799,186.158
	L95.799,186.158z M55.583,174.561c14.816,9.064,30.039,10.976,40.216,10.976c6.229,0,12.302-0.702,18.046-2.087
	c-0.413-0.602-1.442-1.858-2.116-2.667c-0.559-0.663-1.033-1.255-1.184-1.47c-0.444-1.127-0.864-1.812-1.167-2.369
	c-0.624-1.031-1-1.646-0.298-3.207c-0.032-1.032-0.508-3.047-1.545-3.678c-2.335-2.787-1.419-4.73-0.375-6.975
	c0.585-1.234,1.24-2.639,1.412-4.334c0.284-0.482-0.144-1.486-0.394-2.093c-0.2-0.487-0.33-0.773-0.33-0.981
	c-0.661-1.488-1.755-2.089-2.313-2.089c-5.349,0-8.505,1.817-11.804,4.022c-1.938,1.213-3.2,1.719-5.089,2.429
	c-0.755-0.104-1.205-0.14-1.663-0.104c-0.499,0-1,0-1.617-0.123c-0.784-0.314-0.886-1.612-0.985-3.127
	c-0.111-1.207-0.241-2.858-0.778-2.858c-0.775,0.18-2.521,0.489-3.534,0.241c-1.045,0.184-2.795,0.363-4.644,0.558
	c-2.987,0.319-6.35,0.669-8.121,1.108c-0.22,0.016-0.545,0.074-1.015,0.168c-1.079,0.209-2.882,0.561-4.572,0.561
	c-0.451,0.124-1.103,0.104-1.747,0.061c-0.282-0.029-0.569-0.061-0.883-0.061c-1.489-1.635-2.584-2.425-3.623-3.195
	c-0.767-0.548-1.543-1.119-2.343-1.918c-1.4-1.404-0.949-3.115-0.514-4.783c0.193-0.799,0.418-1.611,0.418-2.385
	c-0.193-2.123-1.19-2.414-2.117-2.414c-0.587,0-1.232,0.143-1.861,0.256c-1.311,0.277-2.43,0.363-2.918-0.304
	c-0.421-0.709-0.753-1.528-1.088-2.397c-0.26-0.666-0.531-1.323-0.846-1.949c-0.531-2.078-1.818-3.911-3.049-5.695
	c-1.642-2.343-3.205-4.566-2.473-6.755c-0.015-0.707,0.428-1.673,2.522-1.673c1.147,0,2.526,0.279,3.627,0.497
	c0.539,0.116,1.008,0.205,1.372,0.251c1.051-0.862,2.307-1.309,3.635-1.309c1.979,0,3.764,0.986,5.474,1.946
	c1.365,0.765,2.655,1.478,3.975,1.7c-0.059-0.928-1.806-2.141-3.365-3.218c-2.126-1.472-4.12-2.851-3.838-4.384l-0.132-1.485
	c-0.181-2.817-0.386-5.623-0.6-8.246c-0.05-0.537-0.115-1.021-0.18-1.472c-0.25-1.743-0.439-3.002,0.957-5.184
	c0.252-0.385,0.467-0.743,0.68-1.066c0.583-0.905,1.02-1.616,1.755-2.332c0.416-2.228,0.328-3.604,0.214-4.934
	c-0.023-0.507-0.06-1.016-0.06-1.546c0.246-1.116,0.786-3.28,0.101-4.15c-0.385-0.496-1.167-0.52-2.335-0.107
	c-1.987,2.314-2.566,2.672-3.285,3.12c-0.499,0.311-1.075,0.663-2.346,1.842c-1.621,0.077-3.036-0.088-4.669-0.271l-1.098-0.125
	c-1.444-1.118-1.956-3.122-1.956-4.153c-0.221-1.409-0.221-2.64-0.221-4.063c0.428-1.333,2.043-1.893,3.759-2.471
	c1.49-0.5,3.021-1.026,3.444-1.97l1.2-2.405c-0.017-0.235-0.476-0.638-0.853-1.001c-0.436-0.399-0.843-0.783-0.843-1.249
	c1.139-1.137,2.301-1.848,3.396-2.541c0.675-0.431,1.358-0.856,2.002-1.313c-0.136-0.621-0.072-1.503-0.008-2.338
	c0.043-0.771,0.104-1.511,0.104-2.194c-0.973-2.878-1.54-3.262-4.013-4.833l-1.343-0.881c-0.339-0.878-0.818-1.665-1.282-2.411
	c-0.652-1.037-1.256-1.994-1.256-2.881c0-1.813-1.349-2.694-2.791-3.625c-0.667-0.433-1.371-0.876-1.91-1.425
	c-0.572-0.864-1.335-2.226-1.85-3.393l-0.121,4.273c-0.306,3.196-0.923,9.871,0.081,11.675c0.041,0.094,0.055,0.198,0,0.286
	c-0.48,0.97-0.925,1.888-1.168,3.05c-3.678,3.06-4.258,9.372-4.932,16.673l-0.081,0.998c-0.828,1.453-5.978,4.831-7.914,5.309
	c-2.252,0.667-3.804,2.569-5.297,4.405c-1.115,1.355-2.249,2.763-3.705,3.698c-1.351,15.632,2.815,32.754,11.586,46.732
	c0.832,0.83,1.262,1.136,1.492,1.244c0.248-0.471,0.466-0.804,0.637-1.078c0.277-0.426,0.416-0.619,0.416-0.957
	c-0.653-2.188-0.756-2.834-0.894-3.742c-0.062-0.426-0.151-0.926-0.303-1.699c-0.241-1.752-0.501-3.533,0.805-4.835
	c1.094-0.679,1.437-0.368,2.036,0.062c0.241,0.17,0.523,0.392,0.962,0.604c1.096,0.927,2.086,2.832,3.101,4.853
	c0.677,1.303,1.37,2.655,2.046,3.627c1.311,1.31,2.394,1.914,3.643,2.62c0.491,0.263,0.986,0.548,1.53,0.884
	c0.537,0.363,1.022,0.646,1.464,0.902c1.321,0.791,2.369,1.406,3.655,3.249c0.512,1.024,1.19,2.103,2.518,2.771
	c0.726,0.52,1.555,0.961,2.458,1.443c1.335,0.713,2.865,1.512,4.302,2.667c0.564,0.896,0.825,1.989,1.081,3.052
	c0.141,0.57,0.288,1.137,0.451,1.641l0.534,0.479c0.923,0.896,1.246,1.196,1.873,2.861c-0.187,1.355-0.675,1.516-2.059,1.43
	c-0.333-0.011-0.694-0.037-1.119-0.037c-0.228,0.338-0.092,0.621,0.387,1.338c0.399,0.592,0.891,1.336,0.891,2.414
	c0,0.17-0.145,0.312-0.304,0.312h-1.636c0.09,0.018,0.014,0.113,0.014,0.16c-0.126,0.429-0.236,0.857-0.236,0.958l0.133,0.655
	c0.131,0.705,0.209,1.143,0.556,1.84C55.548,174.473,55.558,174.518,55.583,174.561L55.583,174.561z"/>
<path d="M414.38,161.523c-11.745,0-22.234-2.354-31.115-6.98c-8.971-4.652-15.88-11.368-20.593-19.97
	c-4.673-8.55-7.154-18.845-7.363-30.603c0-13.202,2.818-24.416,8.391-33.337c5.549-8.93,12.697-15.584,21.226-19.764
	c8.115-3.986,16.472-5.999,24.823-5.999l1.235,0.013c19.468,0.403,33.342,5.018,41.208,13.711
	c7.811,8.619,12.562,19.278,14.214,31.698l0.221,1.644h-36.49l-0.138-1.295c-0.752-6.681-2.878-11.122-6.395-13.204
	c-3.708-2.195-7.474-3.318-11.178-3.318c-6.645,0-11.292,2.706-14.191,8.271c-3.024,5.799-4.533,13.046-4.533,21.554
	c0,18.787,6.382,28.053,19.518,28.328c9.696,0,15.24-5.613,16.923-17.17l0.197-1.231h36.832l-0.164,1.595
	c-1.425,13.572-6.794,24.76-15.955,33.234C441.911,157.209,429.559,161.523,414.38,161.523L414.38,161.523z M293.171,158.52h-47.704
	V47.728h48.006c11.814,0,22.176,1.803,30.851,5.349c8.785,3.596,15.703,9.372,20.588,17.181c4.854,7.777,7.327,18.011,7.327,30.397
	c0,20.396-5.233,35.32-15.541,44.337C326.469,153.973,311.802,158.52,293.171,158.52L293.171,158.52z M185.381,158.52H147.01V47.728
	h86.862v28.048h-48.491v16.693h38.456v28.047h-38.456V158.52L185.381,158.52z M139.436,158.52h-38.369V47.728h38.369V158.52
	L139.436,158.52z M283.854,130.486h6.469c7.335,0,13.003-1.982,16.847-5.891c4.593-4.668,6.857-12.312,6.688-22.727
	c0-9.861-1.759-16.752-5.22-20.499c-3.424-3.717-10.202-5.596-20.112-5.596h-4.671L283.854,130.486L283.854,130.486z"/>
</svg>
