<?xml version="1.0" encoding="utf-8"?>
<!-- Generator: Adobe Illustrator 16.0.0, SVG Export Plug-In . SVG Version: 6.00 Build 0)  -->
<!DOCTYPE svg PUBLIC "-//W3C//DTD SVG 1.1//EN" "http://www.w3.org/Graphics/SVG/1.1/DTD/svg11.dtd">
<svg version="1.1" xmlns="http://www.w3.org/2000/svg" xmlns:xlink="http://www.w3.org/1999/xlink" x="0px" y="0px" width="150px"
	 height="30px" viewBox="0 0 150 30" enable-background="new 0 0 150 30" xml:space="preserve">
<g id="grid" display="none">
	<g display="inline">
		<path d="M14.726,0.284v14.433H0.293V0.284H14.726 M15.009,0h-15v15h15V0L15.009,0z"/>
	</g>
	<g display="inline">
		<path d="M29.726,0.284v14.433H15.293V0.284H29.726 M30.009,0h-15v15h15V0L30.009,0z"/>
	</g>
	<g display="inline">
		<path d="M44.726,0.284v14.433H30.293V0.284H44.726 M45.009,0h-15v15h15V0L45.009,0z"/>
	</g>
	<g display="inline">
		<path d="M59.726,0.284v14.433H45.293V0.284H59.726 M60.009,0h-15v15h15V0L60.009,0z"/>
	</g>
	<g display="inline">
		<path d="M74.726,0.284v14.433H60.293V0.284H74.726 M75.009,0h-15v15h15V0L75.009,0z"/>
	</g>
	<g display="inline">
		<path d="M89.727,0.284v14.433H75.293V0.284H89.727 M90.01,0h-15v15h15V0L90.01,0z"/>
	</g>
	<g display="inline">
		<path d="M104.727,0.284v14.433H90.293V0.284H104.727 M105.01,0h-15v15h15V0L105.01,0z"/>
	</g>
	<g display="inline">
		<path d="M119.727,0.284v14.433h-14.434V0.284H119.727 M120.01,0h-15v15h15V0L120.01,0z"/>
	</g>
	<g display="inline">
		<path d="M134.727,0.284v14.433h-14.434V0.284H134.727 M135.01,0h-15v15h15V0L135.01,0z"/>
	</g>
	<g display="inline">
		<path d="M149.727,0.284v14.433h-14.434V0.284H149.727 M150.01,0h-15v15h15V0L150.01,0z"/>
	</g>
	<g display="inline">
		<path d="M14.726,15.284v14.433H0.293V15.284H14.726 M15.009,15h-15v15h15V15L15.009,15z"/>
	</g>
	<g display="inline">
		<path d="M29.726,15.284v14.433H15.293V15.284H29.726 M30.009,15h-15v15h15V15L30.009,15z"/>
	</g>
	<g display="inline">
		<path d="M44.726,15.284v14.433H30.293V15.284H44.726 M45.009,15h-15v15h15V15L45.009,15z"/>
	</g>
	<g display="inline">
		<path d="M59.726,15.284v14.433H45.293V15.284H59.726 M60.009,15h-15v15h15V15L60.009,15z"/>
	</g>
	<g display="inline">
		<path d="M74.726,15.284v14.433H60.293V15.284H74.726 M75.009,15h-15v15h15V15L75.009,15z"/>
	</g>
	<g display="inline">
		<path d="M89.727,15.284v14.433H75.293V15.284H89.727 M90.01,15h-15v15h15V15L90.01,15z"/>
	</g>
	<g display="inline">
		<path d="M104.727,15.284v14.433H90.293V15.284H104.727 M105.01,15h-15v15h15V15L105.01,15z"/>
	</g>
	<g display="inline">
		<path d="M119.727,15.284v14.433h-14.434V15.284H119.727 M120.01,15h-15v15h15V15L120.01,15z"/>
	</g>
	<g display="inline">
		<path d="M134.727,15.284v14.433h-14.434V15.284H134.727 M135.01,15h-15v15h15V15L135.01,15z"/>
	</g>
	<g display="inline">
		<path d="M149.727,15.284v14.433h-14.434V15.284H149.727 M150.01,15h-15v15h15V15L150.01,15z"/>
	</g>
</g>
<g id="icons">
	<polygon fill="#666666" points="56.954,3.799 56.252,3.098 52.509,6.841 48.766,3.098 48.065,3.799 51.808,7.542 48.065,11.285 
		48.766,11.986 52.509,8.243 56.252,11.986 56.954,11.285 53.21,7.542 	"/>
	<polygon fill="#666666" points="11.297,19.413 10.596,18.712 7.509,21.799 4.422,18.712 3.721,19.413 6.808,22.5 3.721,25.587 
		4.422,26.288 7.509,23.201 10.596,26.288 11.297,25.587 8.21,22.5 	"/>
	<g>
		<polygon fill="#FF0000" points="26.297,19.413 25.596,18.712 22.509,21.799 19.422,18.712 18.721,19.413 21.808,22.5 
			18.721,25.587 19.422,26.288 22.509,23.201 25.596,26.288 26.297,25.587 23.21,22.5 		"/>
		<rect x="22.013" y="18.062" fill="#FF0000" width="0.992" height="2.938"/>
		<rect x="24.009" y="22.004" fill="#FF0000" width="2.938" height="0.992"/>
		<rect x="22.013" y="24" fill="#FF0000" width="0.992" height="2.938"/>
		<rect x="18.072" y="22.004" fill="#FF0000" width="2.938" height="0.992"/>
	</g>
	<rect x="32.041" y="22.004" fill="#666666" width="10.938" height="0.992"/>
	<g>
		<rect x="16.034" y="7.046" fill="#666666" width="12.95" height="0.992"/>
		<rect x="16.034" y="3.02" fill="#666666" width="12.95" height="0.992"/>
		<rect x="16.034" y="11.072" fill="#666666" width="12.95" height="0.992"/>
	</g>
	<polygon fill="#666666" points="42.978,7.046 38.005,7.046 38.005,2.073 37.013,2.073 37.013,7.046 32.041,7.046 32.041,8.038 
		37.013,8.038 37.013,13.011 38.005,13.011 38.005,8.038 42.978,8.038 	"/>
	<polygon fill="#666666" points="104.019,7.046 98.006,7.046 98.006,1.031 97.014,1.031 97.014,7.046 90.997,7.046 90.997,8.038 
		97.014,8.038 97.014,14.053 98.006,14.053 98.006,8.038 104.019,8.038 	"/>
	<rect x="90.997" y="22.004" fill="#666666" width="13.021" height="0.992"/>
	<circle fill="#5BB85C" cx="52.509" cy="22.5" r="4.408"/>
	<circle fill="#5BB85C" cx="67.509" cy="7.542" r="4.408"/>
	<path fill="#E2E0DB" d="M82.51,12.45c-2.706,0-4.908-2.202-4.908-4.908s2.202-4.908,4.908-4.908s4.908,2.202,4.908,4.908
		S85.216,12.45,82.51,12.45z M82.51,3.634c-2.155,0-3.908,1.753-3.908,3.908s1.753,3.908,3.908,3.908s3.908-1.753,3.908-3.908
		S84.665,3.634,82.51,3.634z"/>
	<circle fill="#FF0000" cx="67.509" cy="22.5" r="4.408"/>
	<circle fill="#FFCC00" cx="82.509" cy="22.5" r="4.408"/>
	<g>
		<path fill="#666666" d="M7.509,1.118C3.967,1.118,1.085,4,1.085,7.542s2.882,6.424,6.424,6.424s6.424-2.882,6.424-6.424
			S11.052,1.118,7.509,1.118z M7.509,12.974c-2.995,0-5.432-2.437-5.432-5.432S4.514,2.11,7.509,2.11s5.432,2.437,5.432,5.432
			S10.504,12.974,7.509,12.974z"/>
		<rect x="7.013" y="7.026" fill="#666666" width="0.992" height="4.031"/>
		<rect x="7.013" y="4.026" fill="#666666" width="0.992" height="1.016"/>
	</g>
	<polygon fill="#E2E0DB" points="108.468,9.659 112.51,5.425 116.552,9.659 	"/>
	<polygon fill="#E2E0DB" points="131.554,5.425 127.512,9.659 123.47,5.425 	"/>
	<polygon fill="#666666" points="140.605,14.976 139.904,14.274 146.638,7.542 139.904,0.81 140.605,0.108 148.04,7.542 	"/>
</g>
</svg>
