<?xml version="1.0" encoding="utf-8"?>
<!-- Generator: Adobe Illustrator 16.0.0, SVG Export Plug-In . SVG Version: 6.00 Build 0)  -->
<!DOCTYPE svg PUBLIC "-//W3C//DTD SVG 1.1//EN" "http://www.w3.org/Graphics/SVG/1.1/DTD/svg11.dtd">
<svg version="1.1" id="Layer_1" xmlns="http://www.w3.org/2000/svg" xmlns:xlink="http://www.w3.org/1999/xlink" x="0px" y="0px"
	 width="299.25px" height="59.5px" viewBox="0 0 299.25 59.5" enable-background="new 0 0 299.25 59.5" xml:space="preserve">
<g>
	<g>
		<path fill="#FFFFFF" d="M68.795,20.268h5.645v1.631h-3.598v3.038h3.438v1.631h-3.438v4.86h-2.046L68.795,20.268L68.795,20.268z"/>
		<path fill="#FFFFFF" d="M78.913,23.065c1.679,0,3.614,0.879,3.614,4.237c0,3.453-1.936,4.254-3.614,4.254
			c-1.678,0-3.629-0.801-3.629-4.254C75.284,23.944,77.234,23.065,78.913,23.065z M78.913,30.149c1.28,0,1.567-1.472,1.567-2.847
			s-0.288-2.832-1.567-2.832c-1.278,0-1.582,1.457-1.582,2.832S77.635,30.149,78.913,30.149z"/>
		<path fill="#FFFFFF" d="M87.496,23.065c1.679,0,3.615,0.879,3.615,4.237c0,3.453-1.936,4.254-3.615,4.254
			c-1.678,0-3.629-0.801-3.629-4.254C83.867,23.944,85.818,23.065,87.496,23.065z M87.496,30.149c1.28,0,1.568-1.472,1.568-2.847
			s-0.288-2.832-1.568-2.832c-1.278,0-1.582,1.457-1.582,2.832S86.218,30.149,87.496,30.149z"/>
		<path fill="#FFFFFF" d="M99.437,19.436v10.586c0,0.591,0.017,1.104,0.064,1.406h-1.854c-0.033-0.239-0.063-0.719-0.063-1.278
			h-0.049c-0.319,0.704-0.911,1.407-2.191,1.407c-2.046,0-2.893-1.951-2.893-4.238c0-2.686,1.071-4.253,2.846-4.253
			c1.184,0,1.839,0.671,2.127,1.312h0.031v-4.941H99.437L99.437,19.436z M95.888,30.102c1.167,0,1.566-1.264,1.566-2.814
			c0-1.599-0.448-2.766-1.535-2.766c-1.104,0-1.486,1.07-1.486,2.719C94.433,29.143,94.738,30.102,95.888,30.102z"/>
		<path fill="#FFFFFF" d="M105.812,23.672c0.561-0.256,1.344-0.606,2.608-0.606c2.559,0,3.15,1.247,3.15,3.31v3.6
			c0,0.592,0.063,1.135,0.111,1.455h-1.792c-0.095-0.32-0.111-0.721-0.111-1.119h-0.032c-0.496,0.671-1.119,1.247-2.302,1.247
			c-1.28,0-2.462-0.88-2.462-2.415c0-2.239,1.823-2.799,4.333-2.799h0.4v-0.305c0-0.813-0.4-1.565-1.535-1.565
			c-0.992,0-1.871,0.479-2.255,0.799L105.812,23.672z M109.715,27.398h-0.177c-1.695,0-2.703,0.354-2.703,1.552
			c0,0.751,0.497,1.263,1.264,1.263c1.184,0,1.615-0.879,1.615-2.35L109.715,27.398L109.715,27.398z"/>
		<path fill="#FFFFFF" d="M113.405,24.553c0-0.512-0.016-0.992-0.064-1.359h1.854c0.016,0.416,0.063,0.848,0.063,1.264h0.033
			c0.288-0.496,0.847-1.391,2.19-1.391c1.87,0,2.431,1.391,2.431,3.054v5.312h-1.983V26.49c0-1.263-0.32-1.791-1.136-1.791
			c-1.038,0-1.406,0.879-1.406,1.936v4.798h-1.983L113.405,24.553L113.405,24.553z"/>
		<path fill="#FFFFFF" d="M128.464,19.436v10.586c0,0.591,0.017,1.104,0.064,1.406h-1.854c-0.033-0.239-0.064-0.719-0.064-1.278
			h-0.049c-0.319,0.704-0.911,1.407-2.191,1.407c-2.047,0-2.894-1.951-2.894-4.238c0-2.686,1.071-4.253,2.846-4.253
			c1.184,0,1.839,0.671,2.127,1.312h0.031v-4.941H128.464L128.464,19.436z M124.915,30.102c1.167,0,1.566-1.264,1.566-2.814
			c0-1.599-0.448-2.766-1.535-2.766c-1.104,0-1.486,1.07-1.486,2.719C123.46,29.143,123.764,30.102,124.915,30.102z"/>
		<path fill="#FFFFFF" d="M139.444,28.741h-3.836l-0.8,2.687h-2.047l3.742-11.161h2.238l3.599,11.161h-2.111L139.444,28.741z
			 M139.012,27.174l-1.407-5.211h-0.031l-1.535,5.211H139.012z"/>
		<path fill="#FFFFFF" d="M143.581,32.709c0.464,0.256,1.392,0.703,2.431,0.703c1.871,0,2.174-1.295,2.174-2.59v-0.784h-0.03
			c-0.32,0.64-0.879,1.392-2.177,1.392c-1.149,0-2.877-0.768-2.877-4.094c0-2.271,0.816-4.27,2.975-4.27
			c1.199,0,1.758,0.688,2.174,1.406h0.062c0-0.432,0.05-0.848,0.066-1.278h1.79c-0.03,0.433-0.063,0.864-0.063,1.295v6.077
			c0,2.574-0.782,4.413-3.805,4.413c-1.312,0-2.351-0.336-2.83-0.513L143.581,32.709z M146.444,29.974
			c1.247,0,1.743-0.896,1.743-2.769c0-1.727-0.656-2.654-1.6-2.638c-1.039,0.017-1.438,0.976-1.438,2.653
			C145.149,29.157,145.772,29.974,146.444,29.974z"/>
		<path fill="#FFFFFF" d="M151.973,24.553c0-0.512-0.017-0.992-0.062-1.359h1.79c0.017,0.496,0.063,1.008,0.063,1.503h0.033
			c0.239-0.64,0.862-1.631,2.094-1.631c0.129,0,0.225,0.032,0.336,0.047v1.856c-0.176-0.049-0.354-0.08-0.562-0.08
			c-0.815,0-1.709,0.496-1.709,2.031v4.51h-1.981v-6.877H151.973z"/>
		<path fill="#FFFFFF" d="M157.696,19.691h2.047v1.951h-2.047V19.691z M157.727,23.193h1.983v8.236h-1.983V23.193z"/>
		<path fill="#FFFFFF" d="M167.287,31.221c-0.463,0.176-1.15,0.336-1.951,0.336c-2.718,0-3.869-1.903-3.869-4.238
			c0-2.35,1.215-4.253,3.98-4.253c0.625,0,1.359,0.192,1.729,0.336l-0.113,1.567c-0.352-0.176-0.846-0.4-1.391-0.4
			c-1.502,0-2.158,1.007-2.158,2.768c0,1.534,0.736,2.719,2.254,2.719c0.479,0,1.137-0.225,1.408-0.4L167.287,31.221z"/>
		<path fill="#FFFFFF" d="M175.01,30.069c0,0.513,0.018,0.991,0.063,1.358h-1.854c-0.017-0.416-0.063-0.848-0.063-1.262
			l-0.047-0.017l0.016,0.017c-0.384,0.606-0.896,1.391-2.188,1.391c-1.873,0-2.432-1.391-2.432-3.055v-5.31h1.982v4.94
			c0,1.265,0.354,1.791,1.184,1.791c1.055,0,1.357-0.959,1.357-2.015v-4.717h1.982V30.069L175.01,30.069z"/>
		<path fill="#FFFFFF" d="M176.988,19.436h1.982v11.992h-1.982V19.436z"/>
		<path fill="#FFFFFF" d="M181.688,21.5l1.984-0.608v2.302h1.645v1.455h-1.645v4.27c0,0.881,0.317,1.137,0.895,1.137
			c0.352,0,0.607-0.098,0.752-0.178v1.408c-0.305,0.145-0.734,0.272-1.327,0.272c-1.472,0-2.302-0.673-2.302-2.399v-4.51h-1.311
			v-1.455h1.311V21.5H181.688z"/>
		<path fill="#FFFFFF" d="M193.086,30.069c0,0.513,0.016,0.991,0.064,1.358h-1.855c-0.017-0.416-0.063-0.848-0.063-1.262
			l-0.048-0.017l0.018,0.017c-0.384,0.606-0.896,1.391-2.191,1.391c-1.869,0-2.43-1.391-2.43-3.055v-5.31h1.982v4.94
			c0,1.265,0.353,1.791,1.183,1.791c1.058,0,1.358-0.959,1.358-2.015v-4.717h1.984v6.877H193.086z"/>
		<path fill="#FFFFFF" d="M194.938,24.553c0-0.512-0.016-0.992-0.062-1.359h1.79c0.017,0.496,0.063,1.008,0.063,1.503h0.033
			c0.239-0.64,0.862-1.631,2.094-1.631c0.129,0,0.224,0.032,0.336,0.047v1.856c-0.176-0.049-0.352-0.08-0.561-0.08
			c-0.814,0-1.712,0.496-1.712,2.031v4.51h-1.981V24.553L194.938,24.553z"/>
		<path fill="#FFFFFF" d="M206.385,31.028c-0.416,0.176-1.278,0.528-2.463,0.528c-2.654,0-3.806-1.903-3.806-4.127
			c0-2.461,1.295-4.364,3.39-4.364c1.775,0,3.293,1.039,3.293,4.397v0.383h-4.764c0,1.408,0.559,2.255,2.094,2.255
			c1.215,0,1.791-0.368,2.158-0.64L206.385,31.028z M204.881,26.6c0-1.455-0.479-2.191-1.375-2.191
			c-1.039,0-1.471,1.104-1.471,2.191H204.881z"/>
		<path fill="#FFFFFF" d="M216.771,20.107c2.318,0,4.445,1.728,4.445,5.74c0,4.014-2.127,5.74-4.445,5.74
			c-2.316,0-4.443-1.729-4.443-5.74C212.327,21.835,214.454,20.107,216.771,20.107z M216.771,30.021
			c1.295,0,2.336-1.104,2.336-4.174s-1.04-4.173-2.336-4.173c-1.295,0-2.334,1.103-2.334,4.173S215.477,30.021,216.771,30.021z"/>
		<path fill="#FFFFFF" d="M222.908,24.553c0-0.512-0.016-0.992-0.064-1.359h1.791c0.018,0.496,0.064,1.008,0.064,1.503h0.031
			c0.24-0.64,0.863-1.631,2.096-1.631c0.129,0,0.225,0.032,0.336,0.047v1.856c-0.176-0.049-0.352-0.08-0.561-0.08
			c-0.814,0-1.711,0.496-1.711,2.031v4.51h-1.982V24.553z"/>
		<path fill="#FFFFFF" d="M228.566,32.709c0.465,0.256,1.393,0.703,2.432,0.703c1.87,0,2.174-1.295,2.174-2.59v-0.784h-0.031
			c-0.318,0.64-0.879,1.392-2.174,1.392c-1.151,0-2.877-0.768-2.877-4.094c0-2.271,0.815-4.27,2.974-4.27
			c1.2,0,1.759,0.688,2.175,1.406h0.064c0-0.432,0.047-0.848,0.063-1.278h1.79c-0.031,0.433-0.062,0.864-0.062,1.295v6.077
			c0,2.574-0.783,4.413-3.807,4.413c-1.311,0-2.352-0.336-2.83-0.513L228.566,32.709z M231.43,29.974
			c1.246,0,1.742-0.896,1.742-2.769c0-1.727-0.656-2.654-1.6-2.638c-1.04,0.017-1.438,0.976-1.438,2.653
			C230.135,29.157,230.758,29.974,231.43,29.974z"/>
		<path fill="#FFFFFF" d="M237.295,23.672c0.562-0.256,1.344-0.606,2.606-0.606c2.558,0,3.149,1.247,3.149,3.31v3.6
			c0,0.592,0.062,1.135,0.11,1.455h-1.792c-0.095-0.32-0.109-0.721-0.109-1.119h-0.033c-0.496,0.671-1.117,1.247-2.301,1.247
			c-1.281,0-2.463-0.88-2.463-2.415c0-2.239,1.822-2.799,4.331-2.799h0.4v-0.305c0-0.813-0.4-1.565-1.535-1.565
			c-0.992,0-1.871,0.479-2.254,0.799L237.295,23.672z M241.196,27.398h-0.177c-1.694,0-2.703,0.354-2.703,1.552
			c0,0.751,0.498,1.263,1.265,1.263c1.183,0,1.615-0.879,1.615-2.35V27.398z"/>
		<path fill="#FFFFFF" d="M244.887,24.553c0-0.512-0.016-0.992-0.062-1.359h1.854c0.017,0.416,0.063,0.848,0.063,1.264h0.031
			c0.289-0.496,0.848-1.391,2.19-1.391c1.871,0,2.43,1.391,2.43,3.054v5.312h-1.981V26.49c0-1.263-0.319-1.791-1.135-1.791
			c-1.039,0-1.406,0.879-1.406,1.936v4.798h-1.981v-6.88H244.887L244.887,24.553z"/>
		<path fill="#FFFFFF" d="M253.344,19.691h2.047v1.951h-2.047V19.691z M253.375,23.193h1.982v8.236h-1.982V23.193z"/>
		<path fill="#FFFFFF" d="M256.891,29.717l3.518-5.021h-3.406v-1.503h5.389v1.695l-3.455,5.037h3.566v1.502h-5.611V29.717
			L256.891,29.717z"/>
		<path fill="#FFFFFF" d="M264.243,23.672c0.562-0.256,1.345-0.606,2.606-0.606c2.559,0,3.148,1.247,3.148,3.31v3.6
			c0,0.592,0.062,1.135,0.11,1.455h-1.789c-0.099-0.32-0.113-0.721-0.113-1.119h-0.032c-0.494,0.671-1.117,1.247-2.302,1.247
			c-1.278,0-2.462-0.88-2.462-2.415c0-2.239,1.823-2.799,4.332-2.799h0.398v-0.305c0-0.813-0.398-1.565-1.535-1.565
			c-0.99,0-1.869,0.479-2.254,0.799L264.243,23.672z M268.145,27.398h-0.176c-1.693,0-2.703,0.354-2.703,1.552
			c0,0.751,0.496,1.263,1.264,1.263c1.184,0,1.615-0.879,1.615-2.35V27.398z"/>
		<path fill="#FFFFFF" d="M272.571,21.5l1.983-0.608v2.302h1.646v1.455h-1.646v4.27c0,0.881,0.316,1.137,0.894,1.137
			c0.353,0,0.608-0.098,0.752-0.178v1.408c-0.304,0.145-0.735,0.272-1.328,0.272c-1.471,0-2.301-0.673-2.301-2.399v-4.51h-1.312
			v-1.455h1.312V21.5L272.571,21.5z"/>
		<path fill="#FFFFFF" d="M277.621,19.691h2.047v1.951h-2.047V19.691z M277.652,23.193h1.982v8.236h-1.982V23.193z"/>
		<path fill="#FFFFFF" d="M285.021,23.065c1.68,0,3.615,0.879,3.615,4.237c0,3.453-1.938,4.254-3.615,4.254
			s-3.629-0.801-3.629-4.254C281.393,23.944,283.344,23.065,285.021,23.065z M285.021,30.149c1.281,0,1.568-1.472,1.568-2.847
			s-0.289-2.832-1.568-2.832c-1.278,0-1.582,1.457-1.582,2.832S283.743,30.149,285.021,30.149z"/>
		<path fill="#FFFFFF" d="M290.2,24.553c0-0.512-0.017-0.992-0.063-1.359h1.854c0.017,0.416,0.063,0.848,0.063,1.264h0.032
			c0.287-0.496,0.847-1.391,2.19-1.391c1.87,0,2.431,1.391,2.431,3.054v5.312h-1.981V26.49c0-1.263-0.32-1.791-1.137-1.791
			c-1.037,0-1.406,0.879-1.406,1.936v4.798h-1.981v-6.88H290.2L290.2,24.553z"/>
		<path fill="#FFFFFF" d="M71.912,41.133c1.679,0,3.615,0.879,3.615,4.236c0,3.454-1.936,4.256-3.615,4.256
			c-1.679,0-3.629-0.801-3.629-4.255C68.283,42.014,70.233,41.133,71.912,41.133z M71.912,48.217c1.28,0,1.568-1.473,1.568-2.848
			s-0.288-2.828-1.568-2.828c-1.278,0-1.583,1.453-1.583,2.828S70.634,48.217,71.912,48.217z"/>
		<path fill="#FFFFFF" d="M77.729,42.717h-1.375v-1.455h1.375v-1.68c0-1.184,0.559-2.271,2.367-2.271
			c0.526,0,1.038,0.111,1.422,0.191l-0.08,1.438c-0.239-0.063-0.496-0.128-0.783-0.128c-0.576,0-0.943,0.4-0.943,1.023v1.422h1.502
			v1.455h-1.502v6.779h-1.983V42.717z"/>
		<path fill="#FFFFFF" d="M87.304,39.566l1.983-0.607v2.303h1.646v1.455h-1.646v4.271c0,0.879,0.319,1.136,0.895,1.136
			c0.352,0,0.608-0.097,0.752-0.177v1.408c-0.304,0.144-0.736,0.271-1.328,0.271c-1.471,0-2.302-0.672-2.302-2.397v-4.511h-1.312
			v-1.455h1.312V39.566z"/>
		<path fill="#FFFFFF" d="M92.194,37.504h1.983v4.812h0.047c0.351-0.512,0.815-1.184,2.046-1.184c1.871,0,2.431,1.392,2.431,3.054
			v5.309h-1.983v-4.94c0-1.262-0.32-1.789-1.136-1.789c-1.038,0-1.406,0.879-1.406,1.934v4.797h-1.983L92.194,37.504L92.194,37.504z
			"/>
		<path fill="#FFFFFF" d="M106.533,49.096c-0.415,0.177-1.278,0.529-2.462,0.529c-2.654,0-3.806-1.904-3.806-4.127
			c0-2.462,1.295-4.363,3.389-4.363c1.775,0,3.294,1.039,3.294,4.396v0.383h-4.764c0,1.407,0.559,2.257,2.094,2.257
			c1.215,0,1.791-0.369,2.158-0.642L106.533,49.096z M105.031,44.668c0-1.455-0.48-2.189-1.376-2.189
			c-1.038,0-1.469,1.104-1.469,2.189H105.031z"/>
		<path fill="#FFFFFF" d="M114.875,38.336v7.229c0,1.854,0.559,2.462,1.759,2.462c1.167,0,1.743-0.606,1.743-2.462v-7.229h2.047
			v7.229c0,2.941-1.695,4.094-3.79,4.094c-2.11,0-3.806-1.15-3.806-4.094v-7.229H114.875z"/>
		<path fill="#FFFFFF" d="M122.403,42.62c0-0.512-0.017-0.991-0.064-1.358h1.854c0.017,0.416,0.064,0.849,0.064,1.265h0.033
			c0.288-0.496,0.847-1.392,2.19-1.392c1.871,0,2.431,1.392,2.431,3.054v5.31h-1.983v-4.94c0-1.263-0.32-1.79-1.136-1.79
			c-1.039,0-1.406,0.879-1.406,1.934v4.797h-1.983V42.62z"/>
		<path fill="#FFFFFF" d="M130.858,37.76h2.047v1.951h-2.047V37.76z M130.889,41.262h1.983v8.233h-1.983V41.262z"/>
		<path fill="#FFFFFF" d="M135.59,39.566l1.982-0.607v2.303h1.646v1.455h-1.646v4.271c0,0.879,0.319,1.136,0.895,1.136
			c0.352,0,0.608-0.097,0.752-0.177v1.408c-0.304,0.144-0.736,0.271-1.328,0.271c-1.471,0-2.301-0.672-2.301-2.397v-4.511h-1.312
			v-1.455h1.312V39.566z"/>
		<path fill="#FFFFFF" d="M146.524,49.096c-0.415,0.177-1.278,0.529-2.462,0.529c-2.655,0-3.806-1.904-3.806-4.127
			c0-2.462,1.294-4.363,3.388-4.363c1.775,0,3.293,1.039,3.293,4.396v0.383h-4.764c0,1.407,0.561,2.257,2.096,2.257
			c1.215,0,1.789-0.369,2.156-0.642L146.524,49.096z M145.022,44.668c0-1.455-0.479-2.189-1.376-2.189
			c-1.039,0-1.471,1.104-1.471,2.189H145.022z"/>
		<path fill="#FFFFFF" d="M155.235,37.504V48.09c0,0.592,0.017,1.104,0.063,1.406h-1.854c-0.033-0.238-0.063-0.719-0.063-1.279
			h-0.05c-0.317,0.705-0.909,1.408-2.19,1.408c-2.047,0-2.895-1.951-2.895-4.238c0-2.686,1.071-4.252,2.848-4.252
			c1.184,0,1.838,0.673,2.127,1.312h0.03v-4.939h1.983L155.235,37.504L155.235,37.504z M151.686,48.17
			c1.168,0,1.565-1.264,1.565-2.813c0-1.601-0.446-2.767-1.534-2.767c-1.104,0-1.486,1.07-1.486,2.719
			C150.23,47.211,150.535,48.17,151.686,48.17z"/>
		<path fill="#FFFFFF" d="M161.482,38.336h2.431l3.71,8.764h0.032v-8.764h1.854v11.16h-2.447l-3.693-8.697h-0.031v8.697h-1.854
			L161.482,38.336L161.482,38.336z"/>
		<path fill="#FFFFFF" d="M171.967,41.741c0.562-0.256,1.344-0.606,2.607-0.606c2.559,0,3.15,1.246,3.15,3.31v3.599
			c0,0.592,0.062,1.137,0.11,1.455h-1.791c-0.097-0.318-0.112-0.72-0.112-1.119h-0.033c-0.495,0.672-1.118,1.248-2.301,1.248
			c-1.281,0-2.463-0.879-2.463-2.414c0-2.24,1.822-2.801,4.334-2.801h0.398v-0.304c0-0.813-0.398-1.565-1.535-1.565
			c-0.99,0-1.872,0.479-2.254,0.799L171.967,41.741z M175.869,45.467h-0.176c-1.693,0-2.703,0.352-2.703,1.551
			c0,0.751,0.496,1.263,1.264,1.263c1.185,0,1.615-0.879,1.615-2.351V45.467L175.869,45.467z"/>
		<path fill="#FFFFFF" d="M180.295,39.566l1.983-0.607v2.303h1.646v1.455h-1.646v4.271c0,0.879,0.319,1.136,0.896,1.136
			c0.353,0,0.607-0.097,0.752-0.177v1.408c-0.305,0.144-0.735,0.271-1.328,0.271c-1.471,0-2.301-0.672-2.301-2.397v-4.511h-1.312
			v-1.455h1.312v-1.694L180.295,39.566L180.295,39.566z"/>
		<path fill="#FFFFFF" d="M185.346,37.76h2.047v1.951h-2.047V37.76z M185.377,41.262h1.983v8.233h-1.983V41.262z"/>
		<path fill="#FFFFFF" d="M192.747,41.133c1.679,0,3.615,0.879,3.615,4.236c0,3.454-1.937,4.256-3.615,4.256
			c-1.678,0-3.629-0.802-3.629-4.256C189.117,42.014,191.068,41.133,192.747,41.133z M192.747,48.217
			c1.28,0,1.567-1.473,1.567-2.848s-0.287-2.828-1.567-2.828c-1.278,0-1.583,1.453-1.583,2.828S191.469,48.217,192.747,48.217z"/>
		<path fill="#FFFFFF" d="M197.926,42.62c0-0.512-0.018-0.991-0.063-1.358h1.854c0.018,0.416,0.063,0.849,0.063,1.265h0.033
			c0.286-0.496,0.847-1.392,2.188-1.392c1.871,0,2.432,1.392,2.432,3.054v5.31h-1.982v-4.94c0-1.263-0.318-1.79-1.136-1.79
			c-1.039,0-1.406,0.879-1.406,1.934v4.797h-1.981V42.62H197.926z"/>
		<path fill="#FFFFFF" d="M205.996,47.577c0.318,0.127,1.135,0.543,2.062,0.543c0.72,0,1.279-0.176,1.279-0.813
			c0-0.32-0.16-0.624-0.88-1.04l-0.815-0.479c-0.832-0.494-1.744-1.021-1.744-2.316c0-1.135,1.105-2.334,2.847-2.334
			c1.056,0,1.872,0.271,2.063,0.336l-0.113,1.535c-0.496-0.192-1.023-0.369-1.743-0.369c-0.8,0-1.135,0.305-1.135,0.801
			c0,0.447,0.353,0.688,0.927,1.055l0.977,0.624c1.022,0.656,1.535,1.119,1.535,2.079c0,1.52-1.281,2.432-3.07,2.432
			c-1.022,0-1.872-0.24-2.286-0.399L205.996,47.577z"/>
	</g>
</g>
<g>
	<path fill="#FFFFFF" d="M29.586,58.096c-15.63,0-28.348-12.715-28.348-28.344c0-15.631,12.718-28.349,28.348-28.349
		c15.629,0,28.345,12.718,28.345,28.349C57.931,45.381,45.215,58.096,29.586,58.096z M29.478,18.572
		c0.036,0,2.303,2.427,2.303,4.371c0,2.104-1.64,2.605-2.195,2.605c-0.028,0-0.062-0.002-0.096-0.006h-0.022
		c-0.036,0.004-0.072,0.006-0.096,0.006c-0.552,0-2.195-0.502-2.195-2.605C27.176,21,29.437,18.572,29.478,18.572z M8.132,31.327
		h2.587v-4.776h4.344v-2h-4.344v-2.655h4.487V19.9H8.132V31.327z M31.822,18.917h2.727L31.38,7.489h-3.485L24.61,18.917h2.525
		l0.726-2.554h3.307L31.822,18.917z M30.687,14.427h-2.376l1.107-4.97H29.6L30.687,14.427z M42.662,25.614
		c0,3.356,1.557,5.909,4.844,5.909c3.296,0,4.869-2.553,4.869-5.909c0-3.358-1.573-5.91-4.869-5.91
		C44.219,19.704,42.662,22.256,42.662,25.614z M45.417,25.614c0-2.192,0.538-3.978,2.089-3.978c1.557,0,2.117,1.784,2.117,3.978
		s-0.561,3.979-2.117,3.979C45.955,29.594,45.417,27.808,45.417,25.614z M28.377,54.935c0.152-1.105,0.301-2.88,0.301-4.96
		c0-0.57,0-0.193,0-0.35c0-2.929-0.107-3.916-2.061-4.563c-3.017-0.999-4.251-4.365-3.589-8.56L12.934,10.833
		c-5.249,4.628-8.561,11.39-8.561,18.917C4.373,43.25,15.041,54.303,28.377,54.935z M29.575,38.568
		c-4.016-0.938-5.506-4.596-5.506-7.845L15.232,9.034c-0.577,0.399-1.137,0.826-1.678,1.268
		c1.944,4.607,10.667,25.308,10.679,25.338c1.543,3.719,4.352,2.486,5.031,5.557c0.163,0.744,0.174,1.069,0.174,1.069h0.301
		c0,0,0.006-0.326,0.174-1.069c0.679-3.07,3.48-1.838,5.026-5.557c0.011-0.03,8.735-20.731,10.676-25.338
		c-0.541-0.442-1.098-0.868-1.678-1.268l-8.834,21.689c0,3.25-1.494,6.907-5.51,7.845H29.575z M29.57,32.021
		c-1.703-0.38-3.826-2.072-4.102-4.249c-0.1-0.827-0.18-1.059-0.058-2.703l-7.745-17.53c-0.623,0.336-1.231,0.7-1.827,1.088
		c2.316,5.204,9.396,21.1,9.4,21.119c1.121,2.359,3.086,2.405,3.765,3.812c0.409,0.833,0.445,1.579,0.45,1.64h0.259
		c0.005-0.061,0.047-0.806,0.45-1.64c0.682-1.406,2.647-1.452,3.765-3.812c0.005-0.02,7.087-15.916,9.4-21.119
		c-0.588-0.388-1.201-0.752-1.828-1.088l-7.734,17.53c0.121,1.645,0.041,1.876-0.066,2.703c-0.276,2.177-2.399,3.869-4.093,4.249
		H29.57z M29.677,29.043l0.118-0.957c0.489-2.221,2.101-1.942,3.219-4.123c0.005-0.009,0.019-0.033,0.019-0.033
		c0.033-0.082,5.512-11.834,7.797-16.742c-3.387-1.694-7.204-2.652-11.245-2.652c-4.038,0-7.858,0.958-11.248,2.652
		c2.286,4.908,7.762,16.662,7.806,16.742c0,0,0.01,0.024,0.016,0.033c1.113,2.181,2.722,1.902,3.21,4.123l0.119,0.957H29.677z
		 M54.799,29.752c0-7.527-3.318-14.29-8.559-18.917L36.138,36.502c0.671,4.193-0.572,7.562-3.588,8.561
		c-1.954,0.646-2.062,1.637-2.062,4.562c0,0.156,0-0.221,0,0.351c0,2.079,0.158,3.854,0.301,4.96
		C44.134,54.303,54.799,43.25,54.799,29.752z M12.339,37.196c0,0,0.373,0.792,0.676,1.354c0.301,0.562,0.712,1.24,0.712,1.24
		l-0.666,0.389c0,0-0.505-0.842-0.969-1.813c-0.127,0.065-0.924,0.479-1.057,0.545c0.077,0.142,0.894,1.716,0.894,1.716l-0.674,0.39
		c0,0-0.828-1.609-0.899-1.745c-0.144,0.07-1.863,0.958-1.863,0.958l-0.412-0.817l4.209-2.189L12.339,37.196z M14.999,41.512
		l0.585,0.707l-3.682,3.078l-0.596-0.707l3.648-3.049L14.999,41.512z M18.41,44.74l0.729,0.521l-0.944,5.076l-0.836-0.48
		c0,0,0.209-1.034,0.234-1.135c-0.041-0.032-0.527-0.323-1-0.657c-0.479-0.342-0.946-0.728-0.991-0.758
		c-0.09,0.055-1.015,0.6-1.015,0.6l-0.715-0.61l4.49-2.528L18.41,44.74z M16.283,46.896c0.086,0.072,0.397,0.326,0.721,0.556
		c0.328,0.229,0.657,0.445,0.753,0.489c0.047-0.211,0.384-1.881,0.453-2.191C17.936,45.913,16.476,46.781,16.283,46.896z
		 M21.447,46.608c0,0,0.778,0.388,1.883,0.765c0.753,0.262,1.393,0.465,2.02,0.604l-0.219,0.729c0,0-0.598-0.105-1.572-0.406
		c-0.056,0.16-1.322,3.778-1.322,3.778l-0.867-0.301c0,0,1.262-3.624,1.316-3.782c-0.908-0.339-1.539-0.676-1.539-0.676
		L21.447,46.608z M36.607,47.574c0.315,0.166,0.543,0.459,0.668,0.875c0.055,0.176,0.086,0.344,0.086,0.508
		c0,0.67-0.469,1.196-1.317,1.463c0,0-0.428,0.133-0.555,0.17c0.05,0.151,0.555,1.777,0.555,1.777l-0.842,0.217l-1.427-4.623
		l1.275-0.396C35.688,47.368,36.218,47.37,36.607,47.574z M34.825,48.445c0.041,0.143,0.395,1.271,0.437,1.409
		c0.176-0.052,0.56-0.175,0.56-0.175c0.127-0.037,0.428-0.156,0.571-0.43c0.047-0.092,0.071-0.19,0.071-0.295
		c0-0.078-0.016-0.158-0.041-0.246c-0.055-0.166-0.155-0.293-0.307-0.371c-0.259-0.141-0.606-0.104-0.825-0.039
		C35.29,48.299,34.943,48.407,34.825,48.445z M39.469,45.561l4.162,3.049l-0.739,0.521c0,0-0.836-0.638-0.919-0.697
		c-0.049,0.025-0.478,0.33-0.941,0.604c-0.436,0.264-0.908,0.497-0.956,0.524c0.02,0.108,0.183,1.129,0.183,1.129l-0.795,0.379
		l-0.699-5.103L39.469,45.561z M39.947,48.791c0.124-0.061,0.447-0.236,0.768-0.43c0.287-0.174,0.516-0.316,0.631-0.409
		c-0.168-0.128-1.469-1.116-1.738-1.325C39.662,46.967,39.913,48.579,39.947,48.791z M44.224,41.358l3.629,3.237L47.2,45.362
		c0,0-3.403-0.994-3.919-1.132c0.383,0.367,2.495,2.592,2.495,2.592l-0.637,0.576l-3.42-3.475l0.803-0.721
		c0,0,3.284,0.979,3.8,1.116c-0.383-0.364-2.65-2.312-2.65-2.312L44.224,41.358z M45.883,38.942l4.204,2.438l-0.428,0.736
		l-4.226-2.443L45.883,38.942z M47.705,34.908l0.721,0.375l-0.072,0.084c-0.235,0.285-0.34,0.432-0.45,0.752
		c-0.055,0.146-0.121,0.426-0.011,0.639c0.053,0.11,0.15,0.191,0.287,0.235c0.321,0.108,0.597-0.171,0.914-0.493
		c0.444-0.451,0.994-1.008,1.882-0.709c0.902,0.309,1.209,1.11,0.836,2.205c-0.113,0.334-0.32,0.618-0.511,0.883l-0.044,0.058
		l-0.746-0.349l0.075-0.086c0.089-0.104,0.4-0.47,0.517-0.832c0.113-0.315,0.102-0.854-0.381-1.018
		c-0.4-0.139-0.701,0.171-1.052,0.532c-0.426,0.448-0.914,0.952-1.719,0.678c-0.354-0.119-0.619-0.344-0.768-0.644
		c-0.182-0.366-0.188-0.832-0.019-1.321c0.107-0.329,0.289-0.668,0.499-0.931L47.705,34.908z"/>
</g>
</svg>
