<?xml version="1.0" encoding="utf-8"?>
<!-- Generator: Adobe Illustrator 16.0.0, SVG Export Plug-In . SVG Version: 6.00 Build 0)  -->
<!DOCTYPE svg PUBLIC "-//W3C//DTD SVG 1.1//EN" "http://www.w3.org/Graphics/SVG/1.1/DTD/svg11.dtd">
<svg version="1.1" id="Layer_1" xmlns="http://www.w3.org/2000/svg" xmlns:xlink="http://www.w3.org/1999/xlink" x="0px" y="0px"
	 width="299.25px" height="59.5px" viewBox="7.5 6.75 299.25 59.5" enable-background="new 7.5 6.75 299.25 59.5"
	 xml:space="preserve">
<g>
	<g>
		<path fill="#2F87B8" d="M77.512,27.199h5.645v1.631h-3.598v3.038h3.438v1.631h-3.438v4.861h-2.046L77.512,27.199L77.512,27.199z"
			/>
		<path fill="#2F87B8" d="M87.63,29.997c1.679,0,3.614,0.879,3.614,4.237c0,3.454-1.936,4.254-3.614,4.254
			c-1.678,0-3.629-0.8-3.629-4.254C84.001,30.876,85.951,29.997,87.63,29.997z M87.63,37.081c1.28,0,1.567-1.472,1.567-2.847
			s-0.288-2.831-1.567-2.831c-1.278,0-1.582,1.456-1.582,2.831S86.352,37.081,87.63,37.081z"/>
		<path fill="#2F87B8" d="M96.213,29.997c1.679,0,3.615,0.879,3.615,4.237c0,3.454-1.936,4.254-3.615,4.254
			c-1.678,0-3.629-0.8-3.629-4.254C92.584,30.876,94.535,29.997,96.213,29.997z M96.213,37.081c1.28,0,1.568-1.472,1.568-2.847
			s-0.288-2.831-1.568-2.831c-1.278,0-1.582,1.456-1.582,2.831S94.935,37.081,96.213,37.081z"/>
		<path fill="#2F87B8" d="M108.154,26.367v10.586c0,0.591,0.017,1.103,0.064,1.407h-1.854c-0.033-0.24-0.063-0.72-0.063-1.279
			h-0.049c-0.319,0.704-0.911,1.407-2.191,1.407c-2.046,0-2.893-1.951-2.893-4.238c0-2.686,1.071-4.253,2.846-4.253
			c1.184,0,1.839,0.671,2.127,1.311h0.031v-4.941H108.154L108.154,26.367z M104.605,37.033c1.167,0,1.566-1.263,1.566-2.814
			c0-1.599-0.448-2.766-1.535-2.766c-1.104,0-1.486,1.071-1.486,2.719C103.15,36.074,103.455,37.033,104.605,37.033z"/>
		<path fill="#2F87B8" d="M114.529,30.604c0.561-0.256,1.344-0.607,2.608-0.607c2.559,0,3.15,1.247,3.15,3.31v3.599
			c0,0.592,0.063,1.135,0.111,1.455h-1.792c-0.095-0.32-0.111-0.72-0.111-1.119h-0.032c-0.496,0.671-1.119,1.247-2.302,1.247
			c-1.28,0-2.462-0.879-2.462-2.415c0-2.239,1.823-2.799,4.333-2.799h0.4v-0.304c0-0.814-0.4-1.566-1.535-1.566
			c-0.992,0-1.871,0.479-2.255,0.799L114.529,30.604z M118.432,34.33h-0.177c-1.695,0-2.703,0.353-2.703,1.552
			c0,0.751,0.497,1.263,1.264,1.263c1.184,0,1.615-0.879,1.615-2.35L118.432,34.33L118.432,34.33z"/>
		<path fill="#2F87B8" d="M122.122,31.484c0-0.512-0.016-0.992-0.064-1.359h1.854c0.016,0.416,0.063,0.848,0.063,1.264h0.033
			c0.288-0.496,0.847-1.391,2.19-1.391c1.87,0,2.431,1.391,2.431,3.054v5.311h-1.983v-4.941c0-1.263-0.32-1.791-1.136-1.791
			c-1.038,0-1.406,0.879-1.406,1.935v4.798h-1.983V31.484z"/>
		<path fill="#2F87B8" d="M137.181,26.367v10.586c0,0.591,0.017,1.103,0.064,1.407h-1.854c-0.033-0.24-0.064-0.72-0.064-1.279
			h-0.049c-0.319,0.704-0.911,1.407-2.191,1.407c-2.047,0-2.894-1.951-2.894-4.238c0-2.686,1.071-4.253,2.846-4.253
			c1.184,0,1.839,0.671,2.127,1.311h0.031v-4.941H137.181L137.181,26.367z M133.632,37.033c1.167,0,1.566-1.263,1.566-2.814
			c0-1.599-0.448-2.766-1.535-2.766c-1.104,0-1.486,1.071-1.486,2.719C132.177,36.074,132.481,37.033,133.632,37.033z"/>
		<path fill="#2F87B8" d="M148.161,35.673h-3.836l-0.8,2.687h-2.047l3.742-11.162h2.238l3.598,11.162h-2.11L148.161,35.673z
			 M147.729,34.106l-1.407-5.212h-0.031l-1.535,5.212H147.729z"/>
		<path fill="#2F87B8" d="M152.298,39.641c0.464,0.256,1.392,0.703,2.431,0.703c1.87,0,2.174-1.295,2.174-2.59V36.97h-0.031
			c-0.32,0.64-0.879,1.392-2.176,1.392c-1.15,0-2.877-0.768-2.877-4.094c0-2.271,0.816-4.27,2.974-4.27
			c1.199,0,1.758,0.688,2.174,1.407h0.063c0-0.432,0.049-0.848,0.065-1.279h1.791c-0.031,0.432-0.064,0.864-0.064,1.295v6.077
			c0,2.574-0.782,4.413-3.805,4.413c-1.311,0-2.35-0.336-2.83-0.513L152.298,39.641z M155.161,36.905
			c1.247,0,1.743-0.896,1.743-2.768c0-1.727-0.656-2.654-1.599-2.638c-1.039,0.016-1.438,0.976-1.438,2.654
			C153.866,36.089,154.489,36.905,155.161,36.905z"/>
		<path fill="#2F87B8" d="M160.689,31.484c0-0.512-0.016-0.992-0.062-1.359h1.79c0.017,0.496,0.063,1.008,0.063,1.503h0.033
			c0.24-0.64,0.863-1.631,2.094-1.631c0.129,0,0.225,0.032,0.336,0.047V31.9c-0.176-0.048-0.353-0.08-0.561-0.08
			c-0.816,0-1.709,0.496-1.709,2.031v4.51h-1.982v-6.877H160.689z"/>
		<path fill="#2F87B8" d="M166.413,26.623h2.047v1.951h-2.047V26.623z M166.443,30.125h1.984v8.236h-1.984V30.125z"/>
		<path fill="#2F87B8" d="M176.004,38.152c-0.463,0.176-1.15,0.336-1.951,0.336c-2.718,0-3.869-1.903-3.869-4.238
			c0-2.35,1.215-4.253,3.98-4.253c0.625,0,1.359,0.192,1.729,0.336l-0.113,1.567c-0.352-0.176-0.846-0.4-1.391-0.4
			c-1.502,0-2.158,1.007-2.158,2.767c0,1.535,0.736,2.719,2.254,2.719c0.479,0,1.136-0.224,1.408-0.4L176.004,38.152z"/>
		<path fill="#2F87B8" d="M183.727,37.001c0,0.512,0.017,0.991,0.063,1.359h-1.854c-0.017-0.416-0.064-0.848-0.064-1.263
			l-0.047-0.016l0.016,0.016c-0.384,0.607-0.895,1.391-2.189,1.391c-1.873,0-2.432-1.391-2.432-3.055v-5.309h1.983v4.941
			c0,1.264,0.353,1.791,1.183,1.791c1.055,0,1.358-0.959,1.358-2.015v-4.717h1.983V37.001L183.727,37.001z"/>
		<path fill="#2F87B8" d="M185.705,26.367h1.982V38.36h-1.982V26.367z"/>
		<path fill="#2F87B8" d="M190.404,28.431l1.984-0.608v2.302h1.645v1.455h-1.645v4.27c0,0.88,0.318,1.136,0.895,1.136
			c0.352,0,0.607-0.097,0.752-0.177v1.408c-0.305,0.144-0.734,0.272-1.327,0.272c-1.472,0-2.302-0.672-2.302-2.399v-4.51h-1.311
			v-1.455h1.311v-1.694H190.404z"/>
		<path fill="#2F87B8" d="M201.803,37.001c0,0.512,0.016,0.991,0.064,1.359h-1.855c-0.017-0.416-0.064-0.848-0.064-1.263
			l-0.047-0.016l0.017,0.016c-0.384,0.607-0.896,1.391-2.192,1.391c-1.869,0-2.429-1.391-2.429-3.055v-5.309h1.983v4.941
			c0,1.264,0.352,1.791,1.182,1.791c1.057,0,1.359-0.959,1.359-2.015v-4.717h1.984v6.877H201.803z"/>
		<path fill="#2F87B8" d="M203.654,31.484c0-0.512-0.016-0.992-0.062-1.359h1.79c0.017,0.496,0.063,1.008,0.063,1.503h0.033
			c0.24-0.64,0.863-1.631,2.094-1.631c0.129,0,0.224,0.032,0.336,0.047V31.9c-0.176-0.048-0.352-0.08-0.561-0.08
			c-0.814,0-1.711,0.496-1.711,2.031v4.51h-1.982V31.484L203.654,31.484z"/>
		<path fill="#2F87B8" d="M215.102,37.96c-0.416,0.176-1.279,0.528-2.463,0.528c-2.654,0-3.806-1.903-3.806-4.126
			c0-2.462,1.295-4.365,3.39-4.365c1.775,0,3.293,1.039,3.293,4.397v0.384h-4.764c0,1.407,0.559,2.254,2.094,2.254
			c1.215,0,1.791-0.368,2.158-0.639L215.102,37.96z M213.598,33.531c0-1.455-0.479-2.191-1.375-2.191
			c-1.039,0-1.471,1.104-1.471,2.191H213.598z"/>
		<path fill="#2F87B8" d="M225.488,27.039c2.318,0,4.445,1.728,4.445,5.74c0,4.014-2.127,5.74-4.445,5.74
			c-2.316,0-4.443-1.728-4.443-5.74C221.044,28.767,223.171,27.039,225.488,27.039z M225.488,36.953
			c1.295,0,2.336-1.104,2.336-4.174c0-3.07-1.04-4.173-2.336-4.173c-1.295,0-2.334,1.103-2.334,4.173
			C223.154,35.849,224.193,36.953,225.488,36.953z"/>
		<path fill="#2F87B8" d="M231.625,31.484c0-0.512-0.016-0.992-0.064-1.359h1.791c0.017,0.496,0.064,1.008,0.064,1.503h0.031
			c0.24-0.64,0.863-1.631,2.096-1.631c0.129,0,0.225,0.032,0.336,0.047V31.9c-0.176-0.048-0.352-0.08-0.561-0.08
			c-0.814,0-1.711,0.496-1.711,2.031v4.51h-1.982V31.484z"/>
		<path fill="#2F87B8" d="M237.283,39.641c0.465,0.256,1.393,0.703,2.432,0.703c1.87,0,2.174-1.295,2.174-2.59V36.97h-0.031
			c-0.319,0.64-0.879,1.392-2.174,1.392c-1.152,0-2.877-0.768-2.877-4.094c0-2.271,0.815-4.27,2.973-4.27
			c1.201,0,1.759,0.688,2.175,1.407h0.065c0-0.432,0.047-0.848,0.063-1.279h1.79c-0.031,0.432-0.062,0.864-0.062,1.295v6.077
			c0,2.574-0.783,4.413-3.807,4.413c-1.311,0-2.352-0.336-2.83-0.513L237.283,39.641z M240.146,36.905
			c1.246,0,1.742-0.896,1.742-2.768c0-1.727-0.656-2.654-1.599-2.638c-1.04,0.016-1.438,0.976-1.438,2.654
			C238.852,36.089,239.475,36.905,240.146,36.905z"/>
		<path fill="#2F87B8" d="M246.012,30.604c0.561-0.256,1.344-0.607,2.606-0.607c2.558,0,3.149,1.247,3.149,3.31v3.599
			c0,0.592,0.063,1.135,0.111,1.455h-1.792c-0.095-0.32-0.11-0.72-0.11-1.119h-0.033c-0.496,0.671-1.117,1.247-2.301,1.247
			c-1.281,0-2.463-0.879-2.463-2.415c0-2.239,1.823-2.799,4.332-2.799h0.4v-0.304c0-0.814-0.4-1.566-1.535-1.566
			c-0.992,0-1.871,0.479-2.254,0.799L246.012,30.604z M249.913,34.33h-0.177c-1.694,0-2.703,0.353-2.703,1.552
			c0,0.751,0.498,1.263,1.265,1.263c1.183,0,1.615-0.879,1.615-2.35V34.33z"/>
		<path fill="#2F87B8" d="M253.604,31.484c0-0.512-0.016-0.992-0.062-1.359h1.854c0.017,0.416,0.064,0.848,0.064,1.264h0.031
			c0.289-0.496,0.848-1.391,2.191-1.391c1.871,0,2.43,1.391,2.43,3.054v5.311h-1.982v-4.941c0-1.263-0.32-1.791-1.135-1.791
			c-1.039,0-1.406,0.879-1.406,1.935v4.798h-1.982v-6.879H253.604z"/>
		<path fill="#2F87B8" d="M262.061,26.623h2.047v1.951h-2.047V26.623z M262.092,30.125h1.982v8.236h-1.982V30.125z"/>
		<path fill="#2F87B8" d="M265.607,36.649l3.518-5.021h-3.406v-1.503h5.389v1.695l-3.455,5.037h3.566v1.503h-5.611V36.649
			L265.607,36.649z"/>
		<path fill="#2F87B8" d="M272.96,30.604c0.562-0.256,1.345-0.607,2.606-0.607c2.559,0,3.149,1.247,3.149,3.31v3.599
			c0,0.592,0.063,1.135,0.11,1.455h-1.789c-0.098-0.32-0.113-0.72-0.113-1.119h-0.033c-0.494,0.671-1.117,1.247-2.301,1.247
			c-1.279,0-2.462-0.879-2.462-2.415c0-2.239,1.823-2.799,4.332-2.799h0.399v-0.304c0-0.814-0.399-1.566-1.535-1.566
			c-0.991,0-1.87,0.479-2.254,0.799L272.96,30.604z M276.861,34.33h-0.176c-1.693,0-2.703,0.353-2.703,1.552
			c0,0.751,0.496,1.263,1.264,1.263c1.184,0,1.615-0.879,1.615-2.35V34.33z"/>
		<path fill="#2F87B8" d="M281.288,28.431l1.983-0.608v2.302h1.646v1.455h-1.646v4.27c0,0.88,0.317,1.136,0.894,1.136
			c0.353,0,0.608-0.097,0.752-0.177v1.408c-0.304,0.144-0.735,0.272-1.328,0.272c-1.471,0-2.301-0.672-2.301-2.399v-4.51h-1.312
			v-1.455h1.312V28.431L281.288,28.431z"/>
		<path fill="#2F87B8" d="M286.338,26.623h2.047v1.951h-2.047V26.623z M286.369,30.125h1.982v8.236h-1.982V30.125z"/>
		<path fill="#2F87B8" d="M293.738,29.997c1.68,0,3.615,0.879,3.615,4.237c0,3.454-1.937,4.254-3.615,4.254
			c-1.678,0-3.629-0.8-3.629-4.254C290.109,30.876,292.061,29.997,293.738,29.997z M293.738,37.081c1.281,0,1.568-1.472,1.568-2.847
			s-0.289-2.831-1.568-2.831c-1.278,0-1.582,1.456-1.582,2.831S292.46,37.081,293.738,37.081z"/>
		<path fill="#2F87B8" d="M298.917,31.484c0-0.512-0.017-0.992-0.063-1.359h1.854c0.017,0.416,0.063,0.848,0.063,1.264h0.033
			c0.287-0.496,0.846-1.391,2.19-1.391c1.87,0,2.431,1.391,2.431,3.054v5.311h-1.982v-4.941c0-1.263-0.32-1.791-1.137-1.791
			c-1.037,0-1.406,0.879-1.406,1.935v4.798h-1.981v-6.879H298.917z"/>
		<path fill="#2F87B8" d="M80.629,48.064c1.679,0,3.615,0.879,3.615,4.237c0,3.454-1.936,4.255-3.615,4.255S77,55.756,77,52.302
			C77,48.945,78.95,48.064,80.629,48.064z M80.629,55.148c1.28,0,1.568-1.472,1.568-2.847s-0.288-2.829-1.568-2.829
			c-1.278,0-1.583,1.454-1.583,2.829S79.351,55.148,80.629,55.148z"/>
		<path fill="#2F87B8" d="M86.446,49.648h-1.375v-1.455h1.375v-1.68c0-1.183,0.559-2.271,2.367-2.271
			c0.526,0,1.038,0.112,1.422,0.192l-0.08,1.438c-0.239-0.063-0.496-0.128-0.783-0.128c-0.576,0-0.943,0.4-0.943,1.023v1.422h1.502
			v1.455h-1.502v6.78h-1.983V49.648z"/>
		<path fill="#2F87B8" d="M96.021,46.498l1.983-0.607v2.303h1.646v1.455h-1.646v4.27c0,0.879,0.319,1.135,0.895,1.135
			c0.352,0,0.608-0.096,0.752-0.176v1.408c-0.304,0.144-0.736,0.271-1.328,0.271c-1.471,0-2.302-0.672-2.302-2.398v-4.51h-1.312
			v-1.455h1.312V46.498z"/>
		<path fill="#2F87B8" d="M100.911,44.436h1.983v4.812h0.047c0.351-0.512,0.815-1.184,2.046-1.184c1.871,0,2.431,1.392,2.431,3.054
			v5.309h-1.983v-4.94c0-1.262-0.32-1.79-1.136-1.79c-1.038,0-1.406,0.879-1.406,1.934v4.797h-1.983L100.911,44.436L100.911,44.436z
			"/>
		<path fill="#2F87B8" d="M115.25,56.027c-0.415,0.177-1.278,0.529-2.462,0.529c-2.654,0-3.806-1.904-3.806-4.127
			c0-2.461,1.295-4.363,3.389-4.363c1.775,0,3.294,1.039,3.294,4.396v0.383h-4.764c0,1.407,0.559,2.256,2.094,2.256
			c1.215,0,1.791-0.369,2.158-0.641L115.25,56.027z M113.748,51.6c0-1.455-0.48-2.19-1.376-2.19c-1.038,0-1.469,1.104-1.469,2.19
			H113.748z"/>
		<path fill="#2F87B8" d="M123.592,45.268v7.228c0,1.854,0.559,2.462,1.759,2.462c1.167,0,1.743-0.607,1.743-2.462v-7.228h2.047
			v7.228c0,2.942-1.695,4.094-3.79,4.094c-2.11,0-3.806-1.151-3.806-4.094v-7.228H123.592z"/>
		<path fill="#2F87B8" d="M131.12,49.552c0-0.512-0.017-0.991-0.064-1.358h1.854c0.017,0.416,0.064,0.848,0.064,1.264h0.033
			c0.288-0.496,0.847-1.391,2.19-1.391c1.871,0,2.431,1.391,2.431,3.053v5.309h-1.983v-4.94c0-1.263-0.32-1.79-1.136-1.79
			c-1.039,0-1.406,0.879-1.406,1.934v4.797h-1.983V49.552z"/>
		<path fill="#2F87B8" d="M139.575,44.691h2.047v1.951h-2.047V44.691z M139.606,48.193h1.983v8.234h-1.983V48.193z"/>
		<path fill="#2F87B8" d="M144.307,46.498l1.982-0.607v2.303h1.646v1.455h-1.646v4.27c0,0.879,0.319,1.135,0.895,1.135
			c0.352,0,0.608-0.096,0.752-0.176v1.408c-0.304,0.144-0.736,0.271-1.328,0.271c-1.471,0-2.301-0.672-2.301-2.398v-4.51h-1.312
			v-1.455h1.312V46.498z"/>
		<path fill="#2F87B8" d="M155.241,56.027c-0.415,0.177-1.278,0.529-2.462,0.529c-2.655,0-3.806-1.904-3.806-4.127
			c0-2.461,1.295-4.363,3.389-4.363c1.775,0,3.293,1.039,3.293,4.396v0.383h-4.764c0,1.407,0.56,2.256,2.095,2.256
			c1.215,0,1.79-0.369,2.157-0.641L155.241,56.027z M153.739,51.6c0-1.455-0.479-2.19-1.376-2.19c-1.039,0-1.47,1.104-1.47,2.19
			H153.739z"/>
		<path fill="#2F87B8" d="M163.952,44.436v10.586c0,0.591,0.017,1.103,0.063,1.406h-1.854c-0.033-0.238-0.064-0.719-0.064-1.279
			h-0.049c-0.318,0.705-0.91,1.408-2.191,1.408c-2.046,0-2.894-1.951-2.894-4.238c0-2.686,1.071-4.252,2.847-4.252
			c1.184,0,1.838,0.672,2.127,1.312h0.031v-4.94h1.983V44.436z M160.402,55.102c1.168,0,1.566-1.264,1.566-2.814
			c0-1.6-0.447-2.766-1.535-2.766c-1.104,0-1.486,1.07-1.486,2.718C158.947,54.143,159.252,55.102,160.402,55.102z"/>
		<path fill="#2F87B8" d="M170.199,45.268h2.431l3.71,8.763h0.032v-8.763h1.854v11.16h-2.447l-3.693-8.697h-0.031v8.697h-1.855
			V45.268z"/>
		<path fill="#2F87B8" d="M180.684,48.673c0.562-0.256,1.344-0.606,2.607-0.606c2.559,0,3.15,1.246,3.15,3.309v3.598
			c0,0.592,0.063,1.137,0.111,1.455h-1.791c-0.097-0.318-0.113-0.719-0.113-1.119h-0.033c-0.495,0.672-1.118,1.248-2.301,1.248
			c-1.281,0-2.463-0.879-2.463-2.414c0-2.24,1.823-2.8,4.334-2.8h0.399v-0.304c0-0.814-0.399-1.566-1.535-1.566
			c-0.991,0-1.872,0.48-2.254,0.799L180.684,48.673z M184.586,52.398h-0.176c-1.693,0-2.703,0.352-2.703,1.551
			c0,0.751,0.496,1.263,1.264,1.263c1.184,0,1.615-0.879,1.615-2.35V52.398L184.586,52.398z"/>
		<path fill="#2F87B8" d="M189.012,46.498l1.983-0.607v2.303h1.646v1.455h-1.646v4.27c0,0.879,0.319,1.135,0.896,1.135
			c0.352,0,0.607-0.096,0.752-0.176v1.408c-0.305,0.144-0.736,0.271-1.328,0.271c-1.471,0-2.301-0.672-2.301-2.398v-4.51h-1.312
			v-1.455h1.312v-1.695H189.012z"/>
		<path fill="#2F87B8" d="M194.062,44.691h2.047v1.951h-2.047V44.691z M194.094,48.193h1.983v8.234h-1.983V48.193z"/>
		<path fill="#2F87B8" d="M201.464,48.064c1.679,0,3.615,0.879,3.615,4.237c0,3.454-1.937,4.255-3.615,4.255
			s-3.629-0.801-3.629-4.255C197.834,48.945,199.785,48.064,201.464,48.064z M201.464,55.148c1.28,0,1.567-1.472,1.567-2.847
			s-0.287-2.829-1.567-2.829c-1.278,0-1.583,1.454-1.583,2.829S200.186,55.148,201.464,55.148z"/>
		<path fill="#2F87B8" d="M206.643,49.552c0-0.512-0.018-0.991-0.064-1.358h1.854c0.018,0.416,0.064,0.848,0.064,1.264h0.033
			c0.287-0.496,0.847-1.391,2.189-1.391c1.871,0,2.432,1.391,2.432,3.053v5.309h-1.983v-4.94c0-1.263-0.319-1.79-1.136-1.79
			c-1.039,0-1.406,0.879-1.406,1.934v4.797h-1.982V49.552z"/>
		<path fill="#2F87B8" d="M214.713,54.509c0.318,0.127,1.135,0.543,2.062,0.543c0.72,0,1.279-0.176,1.279-0.814
			c0-0.32-0.16-0.624-0.879-1.04l-0.816-0.479c-0.832-0.495-1.744-1.022-1.744-2.317c0-1.135,1.105-2.334,2.847-2.334
			c1.056,0,1.872,0.271,2.063,0.336l-0.113,1.535c-0.496-0.192-1.023-0.369-1.743-0.369c-0.8,0-1.135,0.305-1.135,0.801
			c0,0.447,0.353,0.688,0.927,1.055l0.977,0.624c1.022,0.656,1.535,1.119,1.535,2.079c0,1.52-1.281,2.432-3.07,2.432
			c-1.023,0-1.873-0.24-2.287-0.4L214.713,54.509z"/>
	</g>
</g>
<g>
	<path fill="#2F87B8" d="M38.303,65.027c-15.63,0-28.348-12.715-28.348-28.344c0-15.63,12.718-28.348,28.348-28.348
		c15.629,0,28.345,12.718,28.345,28.348C66.648,52.312,53.932,65.027,38.303,65.027z M38.195,25.504
		c0.036,0,2.303,2.427,2.303,4.371c0,2.104-1.64,2.606-2.195,2.606c-0.028,0-0.062-0.003-0.096-0.006h-0.022
		c-0.036,0.003-0.072,0.006-0.096,0.006c-0.552,0-2.195-0.502-2.195-2.606C35.893,27.931,38.154,25.504,38.195,25.504z
		 M16.849,38.259h2.587v-4.777h4.344v-2h-4.344v-2.655h4.487v-1.995h-7.074V38.259z M40.539,25.849h2.727l-3.169-11.428h-3.485
		l-3.285,11.428h2.525l0.726-2.554h3.307L40.539,25.849z M39.404,21.359h-2.376l1.107-4.97h0.182L39.404,21.359z M51.379,32.546
		c0,3.357,1.557,5.909,4.844,5.909c3.296,0,4.869-2.552,4.869-5.909c0-3.358-1.573-5.91-4.869-5.91
		C52.936,26.636,51.379,29.188,51.379,32.546z M54.134,32.546c0-2.193,0.538-3.978,2.089-3.978c1.557,0,2.117,1.784,2.117,3.978
		c0,2.194-0.561,3.979-2.117,3.979C54.672,36.525,54.134,34.739,54.134,32.546z M37.094,61.866c0.152-1.105,0.301-2.88,0.301-4.96
		c0-0.57,0-0.193,0-0.35c0-2.928-0.107-3.916-2.061-4.563c-3.017-0.999-4.251-4.365-3.589-8.56L21.651,17.765
		c-5.249,4.628-8.561,11.39-8.561,18.917C13.09,50.182,23.758,61.234,37.094,61.866z M38.292,45.5
		c-4.016-0.938-5.506-4.596-5.506-7.845l-8.837-21.689c-0.577,0.399-1.137,0.826-1.678,1.268
		c1.944,4.607,10.667,25.308,10.679,25.338c1.543,3.719,4.352,2.486,5.031,5.557c0.163,0.744,0.174,1.069,0.174,1.069h0.301
		c0,0,0.006-0.326,0.174-1.069c0.679-3.07,3.48-1.838,5.026-5.557c0.011-0.03,8.735-20.731,10.676-25.338
		c-0.541-0.442-1.098-0.868-1.678-1.268L43.82,37.655c0,3.25-1.494,6.907-5.51,7.845H38.292z M38.287,38.952
		c-1.703-0.38-3.826-2.072-4.102-4.249c-0.1-0.827-0.18-1.059-0.058-2.703l-7.745-17.53c-0.623,0.336-1.231,0.7-1.827,1.088
		c2.316,5.204,9.396,21.1,9.4,21.119c1.121,2.359,3.086,2.405,3.765,3.812c0.409,0.833,0.445,1.58,0.45,1.64h0.259
		c0.005-0.06,0.047-0.806,0.45-1.64c0.682-1.406,2.647-1.452,3.765-3.812c0.005-0.02,7.087-15.916,9.4-21.119
		c-0.588-0.388-1.201-0.752-1.828-1.088L42.482,32c0.121,1.645,0.041,1.876-0.066,2.703c-0.276,2.177-2.399,3.869-4.093,4.249
		H38.287z M38.394,35.974l0.118-0.956c0.489-2.221,2.101-1.943,3.219-4.123c0.005-0.009,0.019-0.033,0.019-0.033
		c0.033-0.082,5.512-11.835,7.797-16.743c-3.387-1.694-7.204-2.652-11.245-2.652c-4.038,0-7.858,0.958-11.248,2.652
		c2.286,4.908,7.762,16.662,7.806,16.743c0,0,0.01,0.024,0.016,0.033c1.113,2.18,2.722,1.902,3.21,4.123l0.119,0.956H38.394z
		 M63.516,36.683c0-7.527-3.318-14.289-8.559-18.917L44.855,43.434c0.671,4.193-0.572,7.561-3.588,8.56
		c-1.954,0.647-2.062,1.637-2.062,4.563c0,0.156,0-0.221,0,0.35c0,2.08,0.158,3.854,0.301,4.96
		C52.851,61.234,63.516,50.182,63.516,36.683z M21.056,44.128c0,0,0.373,0.792,0.676,1.354c0.301,0.562,0.712,1.24,0.712,1.24
		l-0.666,0.389c0,0-0.505-0.842-0.969-1.813c-0.127,0.065-0.924,0.479-1.057,0.545c0.077,0.142,0.894,1.716,0.894,1.716
		l-0.674,0.389c0,0-0.828-1.609-0.899-1.745c-0.144,0.071-1.863,0.958-1.863,0.958l-0.412-0.817l4.209-2.19L21.056,44.128z
		 M23.716,48.443l0.585,0.707l-3.682,3.078l-0.596-0.707l3.648-3.049L23.716,48.443z M27.127,51.672l0.729,0.521l-0.944,5.076
		l-0.836-0.48c0,0,0.209-1.034,0.234-1.135c-0.041-0.032-0.527-0.323-1-0.657c-0.479-0.342-0.946-0.728-0.991-0.758
		c-0.09,0.055-1.015,0.6-1.015,0.6l-0.715-0.61l4.49-2.529L27.127,51.672z M25,53.828c0.086,0.072,0.397,0.326,0.721,0.556
		c0.328,0.229,0.657,0.445,0.753,0.489c0.047-0.211,0.384-1.881,0.453-2.191C26.653,52.845,25.193,53.713,25,53.828z M30.164,53.54
		c0,0,0.778,0.388,1.883,0.765c0.753,0.262,1.393,0.465,2.02,0.604l-0.219,0.729c0,0-0.598-0.105-1.572-0.405
		c-0.056,0.16-1.322,3.778-1.322,3.778l-0.867-0.301c0,0,1.262-3.624,1.316-3.782c-0.908-0.339-1.539-0.676-1.539-0.676
		L30.164,53.54z M45.324,54.506c0.315,0.166,0.543,0.459,0.668,0.875c0.055,0.176,0.086,0.344,0.086,0.507
		c0,0.671-0.469,1.197-1.317,1.464c0,0-0.428,0.133-0.555,0.17c0.05,0.151,0.555,1.777,0.555,1.777l-0.842,0.217l-1.427-4.623
		l1.275-0.396C44.405,54.3,44.935,54.302,45.324,54.506z M43.542,55.377c0.041,0.143,0.395,1.271,0.437,1.409
		c0.176-0.052,0.56-0.174,0.56-0.174c0.127-0.038,0.428-0.157,0.571-0.431c0.047-0.091,0.071-0.19,0.071-0.294
		c0-0.079-0.016-0.159-0.041-0.247c-0.055-0.166-0.155-0.293-0.307-0.371c-0.259-0.14-0.606-0.104-0.825-0.039
		C44.007,55.23,43.66,55.339,43.542,55.377z M48.186,52.492l4.162,3.049l-0.739,0.521c0,0-0.836-0.637-0.919-0.697
		c-0.049,0.025-0.478,0.331-0.941,0.604c-0.436,0.264-0.908,0.497-0.956,0.524c0.02,0.108,0.183,1.129,0.183,1.129l-0.795,0.379
		l-0.699-5.103L48.186,52.492z M48.664,55.723c0.124-0.061,0.447-0.236,0.768-0.43c0.287-0.174,0.516-0.316,0.631-0.409
		c-0.168-0.128-1.469-1.116-1.738-1.325C48.379,53.898,48.63,55.511,48.664,55.723z M52.941,48.29l3.629,3.237l-0.653,0.767
		c0,0-3.403-0.994-3.919-1.132c0.383,0.367,2.495,2.592,2.495,2.592l-0.637,0.576l-3.42-3.475l0.803-0.72c0,0,3.284,0.979,3.8,1.116
		c-0.383-0.364-2.65-2.312-2.65-2.312L52.941,48.29z M54.6,45.874l4.204,2.438l-0.428,0.737l-4.226-2.444L54.6,45.874z
		 M56.422,41.84l0.721,0.375l-0.072,0.084c-0.235,0.285-0.34,0.432-0.45,0.752c-0.055,0.146-0.121,0.426-0.011,0.639
		c0.053,0.11,0.15,0.191,0.287,0.235c0.321,0.108,0.597-0.171,0.914-0.493c0.444-0.451,0.994-1.008,1.882-0.709
		c0.902,0.308,1.209,1.11,0.836,2.205c-0.113,0.334-0.32,0.618-0.511,0.883l-0.044,0.057l-0.746-0.348l0.075-0.086
		c0.089-0.105,0.4-0.47,0.517-0.832c0.113-0.316,0.102-0.854-0.381-1.018c-0.4-0.139-0.701,0.171-1.052,0.532
		c-0.426,0.448-0.914,0.952-1.719,0.678c-0.354-0.119-0.619-0.344-0.768-0.644c-0.182-0.366-0.188-0.832-0.019-1.321
		c0.107-0.329,0.289-0.668,0.499-0.931L56.422,41.84z"/>
</g>
</svg>
