<svg id="Layer_1" data-name="Layer 1" xmlns="http://www.w3.org/2000/svg" viewBox="0 0 295.47 56.69"><defs><style>.cls-1{fill:#fff;}</style></defs><title>FAO_logo_Black_2lines_en</title><path class="cls-1" d="M77.51,27.2h5.64v1.63h-3.6v3H83V33.5H79.56v4.86h-2V27.2Z" transform="translate(-9.96 -8.33)"/><path class="cls-1" d="M87.63,30c1.68,0,3.61.88,3.61,4.24s-1.94,4.25-3.61,4.25S84,37.69,84,34.23,86,30,87.63,30Zm0,7.08c1.28,0,1.57-1.47,1.57-2.85s-0.29-2.83-1.57-2.83S86,32.86,86,34.23,86.35,37.08,87.63,37.08Z" transform="translate(-9.96 -8.33)"/><path class="cls-1" d="M96.21,30c1.68,0,3.61.88,3.61,4.24s-1.94,4.25-3.61,4.25-3.63-.8-3.63-4.25S94.53,30,96.21,30Zm0,7.08c1.28,0,1.57-1.47,1.57-2.85s-0.29-2.83-1.57-2.83-1.58,1.46-1.58,2.83S94.94,37.08,96.21,37.08Z" transform="translate(-9.96 -8.33)"/><path class="cls-1" d="M108.15,26.37V37a10.71,10.71,0,0,0,.06,1.41h-1.85a10.84,10.84,0,0,1-.06-1.28h0a2.22,2.22,0,0,1-2.19,1.41c-2,0-2.89-2-2.89-4.24,0-2.69,1.07-4.25,2.85-4.25a2.21,2.21,0,0,1,2.13,1.31h0V26.37h2ZM104.61,37c1.17,0,1.57-1.26,1.57-2.81s-0.45-2.77-1.54-2.77-1.49,1.07-1.49,2.72C103.15,36.07,103.45,37,104.61,37Z" transform="translate(-9.96 -8.33)"/><path class="cls-1" d="M114.53,30.6a5.75,5.75,0,0,1,2.61-.61c2.56,0,3.15,1.25,3.15,3.31v3.6a10.2,10.2,0,0,0,.11,1.46h-1.79a4.14,4.14,0,0,1-.11-1.12h0a2.65,2.65,0,0,1-2.3,1.25,2.36,2.36,0,0,1-2.46-2.41c0-2.24,1.82-2.8,4.33-2.8h0.4V33a1.42,1.42,0,0,0-1.54-1.57,3.8,3.8,0,0,0-2.25.8Zm3.9,3.73h-0.18c-1.7,0-2.7.35-2.7,1.55a1.19,1.19,0,0,0,1.26,1.26c1.18,0,1.62-.88,1.62-2.35V34.33Z" transform="translate(-9.96 -8.33)"/><path class="cls-1" d="M122.12,31.48a11.24,11.24,0,0,0-.06-1.36h1.85c0,0.42.06,0.85,0.06,1.26h0A2.4,2.4,0,0,1,126.2,30c1.87,0,2.43,1.39,2.43,3.05v5.31h-2V33.42c0-1.26-.32-1.79-1.14-1.79-1,0-1.41.88-1.41,1.93v4.8h-2V31.48Z" transform="translate(-9.96 -8.33)"/><path class="cls-1" d="M137.18,26.37V37a10.74,10.74,0,0,0,.06,1.41h-1.85a10.87,10.87,0,0,1-.06-1.28h0a2.22,2.22,0,0,1-2.19,1.41c-2,0-2.89-2-2.89-4.24,0-2.69,1.07-4.25,2.85-4.25a2.21,2.21,0,0,1,2.13,1.31h0V26.37h2ZM133.63,37c1.17,0,1.57-1.26,1.57-2.81s-0.45-2.77-1.54-2.77-1.49,1.07-1.49,2.72C132.18,36.07,132.48,37,133.63,37Z" transform="translate(-9.96 -8.33)"/><path class="cls-1" d="M148.16,35.67h-3.84l-0.8,2.69h-2l3.74-11.16h2.24l3.6,11.16h-2.11Zm-0.43-1.57-1.41-5.21h0l-1.54,5.21h3Z" transform="translate(-9.96 -8.33)"/><path class="cls-1" d="M152.3,39.64a5.23,5.23,0,0,0,2.43.7c1.87,0,2.17-1.3,2.17-2.59V37h0a2.25,2.25,0,0,1-2.18,1.39c-1.15,0-2.88-.77-2.88-4.09,0-2.27.82-4.27,3-4.27A2.35,2.35,0,0,1,157,31.4H157c0-.43,0-0.85.06-1.28h1.79c0,0.43-.06.86-0.06,1.3V37.5c0,2.57-.78,4.41-3.81,4.41a8.29,8.29,0,0,1-2.83-.51Zm2.86-2.73c1.25,0,1.74-.9,1.74-2.77s-0.66-2.65-1.6-2.64-1.44,1-1.44,2.65C153.87,36.09,154.49,36.91,155.16,36.91Z" transform="translate(-9.96 -8.33)"/><path class="cls-1" d="M160.69,31.48a11.38,11.38,0,0,0-.06-1.36h1.79c0,0.5.06,1,.06,1.5h0A2.3,2.3,0,0,1,164.61,30a2.17,2.17,0,0,1,.34,0V31.9a2.05,2.05,0,0,0-.56-0.08c-0.82,0-1.71.5-1.71,2v4.51h-2V31.48Z" transform="translate(-9.96 -8.33)"/><path class="cls-1" d="M166.41,26.62h2v2h-2v-2Zm0,3.5h2v8.24h-2V30.12Z" transform="translate(-9.96 -8.33)"/><path class="cls-1" d="M176,38.15a5.64,5.64,0,0,1-2,.34c-2.72,0-3.87-1.9-3.87-4.24s1.21-4.25,4-4.25a5.41,5.41,0,0,1,1.73.34l-0.11,1.57a3.17,3.17,0,0,0-1.39-.4c-1.5,0-2.16,1-2.16,2.77,0,1.54.74,2.72,2.25,2.72a3.19,3.19,0,0,0,1.41-.4Z" transform="translate(-9.96 -8.33)"/><path class="cls-1" d="M183.73,37a11.35,11.35,0,0,0,.06,1.36h-1.86c0-.42-0.06-0.85-0.06-1.26l0,0,0,0a2.4,2.4,0,0,1-2.19,1.39c-1.87,0-2.43-1.39-2.43-3.05V30.12h2v4.94c0,1.26.35,1.79,1.18,1.79,1.06,0,1.36-1,1.36-2V30.12h2V37Z" transform="translate(-9.96 -8.33)"/><path class="cls-1" d="M185.71,26.37h2v12h-2v-12Z" transform="translate(-9.96 -8.33)"/><path class="cls-1" d="M190.4,28.43l2-.61v2.3H194v1.46h-1.65v4.27c0,0.88.32,1.14,0.89,1.14a1.56,1.56,0,0,0,.75-0.18v1.41a3.05,3.05,0,0,1-1.33.27c-1.47,0-2.3-.67-2.3-2.4V31.58h-1.31V30.12h1.31V28.43Z" transform="translate(-9.96 -8.33)"/><path class="cls-1" d="M201.8,37a11.07,11.07,0,0,0,.06,1.36H200c0-.42-0.06-0.85-0.06-1.26l0,0,0,0a2.4,2.4,0,0,1-2.19,1.39c-1.87,0-2.43-1.39-2.43-3.05V30.12h2v4.94c0,1.26.35,1.79,1.18,1.79,1.06,0,1.36-1,1.36-2V30.12h2V37Z" transform="translate(-9.96 -8.33)"/><path class="cls-1" d="M203.65,31.48a11.24,11.24,0,0,0-.06-1.36h1.79c0,0.5.06,1,.06,1.5h0A2.3,2.3,0,0,1,207.57,30a2.18,2.18,0,0,1,.34,0V31.9a2,2,0,0,0-.56-0.08c-0.81,0-1.71.5-1.71,2v4.51h-2V31.48Z" transform="translate(-9.96 -8.33)"/><path class="cls-1" d="M215.1,38a6.13,6.13,0,0,1-2.46.53c-2.65,0-3.81-1.9-3.81-4.13,0-2.46,1.29-4.37,3.39-4.37,1.78,0,3.29,1,3.29,4.4v0.38h-4.76c0,1.41.56,2.25,2.09,2.25a3.28,3.28,0,0,0,2.16-.64Zm-1.5-4.43c0-1.46-.48-2.19-1.38-2.19s-1.47,1.1-1.47,2.19h2.85Z" transform="translate(-9.96 -8.33)"/><path class="cls-1" d="M225.49,27c2.32,0,4.45,1.73,4.45,5.74s-2.13,5.74-4.45,5.74S221,36.79,221,32.78,223.17,27,225.49,27Zm0,9.91c1.29,0,2.33-1.1,2.33-4.17s-1-4.17-2.33-4.17-2.33,1.1-2.33,4.17S224.19,37,225.49,37Z" transform="translate(-9.96 -8.33)"/><path class="cls-1" d="M231.63,31.48a11.25,11.25,0,0,0-.06-1.36h1.79c0,0.5.06,1,.06,1.5h0A2.3,2.3,0,0,1,235.54,30a2.18,2.18,0,0,1,.34,0V31.9a2,2,0,0,0-.56-0.08c-0.81,0-1.71.5-1.71,2v4.51h-2V31.48Z" transform="translate(-9.96 -8.33)"/><path class="cls-1" d="M237.28,39.64a5.23,5.23,0,0,0,2.43.7c1.87,0,2.17-1.3,2.17-2.59V37h0a2.25,2.25,0,0,1-2.18,1.39c-1.15,0-2.88-.77-2.88-4.09,0-2.27.82-4.27,3-4.27A2.35,2.35,0,0,1,242,31.4H242c0-.43,0-0.85.06-1.28h1.79c0,0.43-.06.86-0.06,1.3V37.5c0,2.57-.78,4.41-3.81,4.41a8.29,8.29,0,0,1-2.83-.51Zm2.86-2.73c1.25,0,1.74-.9,1.74-2.77s-0.66-2.65-1.6-2.64-1.44,1-1.44,2.65C238.85,36.09,239.47,36.91,240.15,36.91Z" transform="translate(-9.96 -8.33)"/><path class="cls-1" d="M246,30.6a5.75,5.75,0,0,1,2.61-.61c2.56,0,3.15,1.25,3.15,3.31v3.6a10.18,10.18,0,0,0,.11,1.46h-1.79a4.14,4.14,0,0,1-.11-1.12h0a2.65,2.65,0,0,1-2.3,1.25,2.36,2.36,0,0,1-2.46-2.41c0-2.24,1.82-2.8,4.33-2.8h0.4V33a1.42,1.42,0,0,0-1.53-1.57,3.8,3.8,0,0,0-2.25.8Zm3.9,3.73h-0.18c-1.69,0-2.7.35-2.7,1.55a1.19,1.19,0,0,0,1.26,1.26c1.18,0,1.61-.88,1.61-2.35V34.33Z" transform="translate(-9.96 -8.33)"/><path class="cls-1" d="M253.6,31.48a11.36,11.36,0,0,0-.06-1.36h1.85c0,0.42.06,0.85,0.06,1.26h0A2.4,2.4,0,0,1,257.68,30c1.87,0,2.43,1.39,2.43,3.05v5.31h-2V33.42c0-1.26-.32-1.79-1.14-1.79-1,0-1.41.88-1.41,1.93v4.8h-2V31.48Z" transform="translate(-9.96 -8.33)"/><path class="cls-1" d="M262.06,26.62h2v2h-2v-2Zm0,3.5h2v8.24h-2V30.12Z" transform="translate(-9.96 -8.33)"/><path class="cls-1" d="M265.61,36.65l3.52-5h-3.41v-1.5h5.39v1.7l-3.45,5h3.57v1.5h-5.61V36.65Z" transform="translate(-9.96 -8.33)"/><path class="cls-1" d="M273,30.6a5.74,5.74,0,0,1,2.61-.61c2.56,0,3.15,1.25,3.15,3.31v3.6a10.27,10.27,0,0,0,.11,1.46H277a4.06,4.06,0,0,1-.11-1.12h0a2.65,2.65,0,0,1-2.3,1.25,2.36,2.36,0,0,1-2.46-2.41c0-2.24,1.82-2.8,4.33-2.8h0.4V33a1.42,1.42,0,0,0-1.54-1.57,3.8,3.8,0,0,0-2.25.8Zm3.9,3.73h-0.18c-1.69,0-2.7.35-2.7,1.55a1.19,1.19,0,0,0,1.26,1.26c1.18,0,1.62-.88,1.62-2.35V34.33Z" transform="translate(-9.96 -8.33)"/><path class="cls-1" d="M281.29,28.43l2-.61v2.3h1.65v1.46h-1.65v4.27c0,0.88.32,1.14,0.89,1.14a1.56,1.56,0,0,0,.75-0.18v1.41a3.06,3.06,0,0,1-1.33.27c-1.47,0-2.3-.67-2.3-2.4V31.58H280V30.12h1.31V28.43Z" transform="translate(-9.96 -8.33)"/><path class="cls-1" d="M286.34,26.62h2v2h-2v-2Zm0,3.5h2v8.24h-2V30.12Z" transform="translate(-9.96 -8.33)"/><path class="cls-1" d="M293.74,30c1.68,0,3.61.88,3.61,4.24s-1.94,4.25-3.61,4.25-3.63-.8-3.63-4.25S292.06,30,293.74,30Zm0,7.08c1.28,0,1.57-1.47,1.57-2.85S295,31.4,293.74,31.4s-1.58,1.46-1.58,2.83S292.46,37.08,293.74,37.08Z" transform="translate(-9.96 -8.33)"/><path class="cls-1" d="M298.92,31.48a11.36,11.36,0,0,0-.06-1.36h1.85c0,0.42.06,0.85,0.06,1.26h0A2.4,2.4,0,0,1,303,30c1.87,0,2.43,1.39,2.43,3.05v5.31h-2V33.42c0-1.26-.32-1.79-1.14-1.79-1,0-1.41.88-1.41,1.93v4.8h-2V31.48Z" transform="translate(-9.96 -8.33)"/><path class="cls-1" d="M80.63,48.07c1.68,0,3.61.88,3.61,4.24s-1.94,4.25-3.61,4.25S77,55.76,77,52.3,79,48.07,80.63,48.07Zm0,7.08c1.28,0,1.57-1.47,1.57-2.85s-0.29-2.83-1.57-2.83S79,50.93,79,52.3,79.35,55.15,80.63,55.15Z" transform="translate(-9.96 -8.33)"/><path class="cls-1" d="M86.45,49.65H85.07V48.19h1.37V46.51a2.09,2.09,0,0,1,2.37-2.27,7,7,0,0,1,1.42.19l-0.08,1.44a3,3,0,0,0-.78-0.13,0.92,0.92,0,0,0-.94,1v1.42h1.5v1.45h-1.5v6.78h-2V49.65Z" transform="translate(-9.96 -8.33)"/><path class="cls-1" d="M96,46.5l2-.61v2.3h1.65v1.45H98v4.27c0,0.88.32,1.14,0.89,1.14a1.56,1.56,0,0,0,.75-0.18v1.41a3.07,3.07,0,0,1-1.33.27c-1.47,0-2.3-.67-2.3-2.4V49.65H94.71V48.19H96V46.5Z" transform="translate(-9.96 -8.33)"/><path class="cls-1" d="M100.91,44.44h2v4.81h0a2.23,2.23,0,0,1,2-1.18c1.87,0,2.43,1.39,2.43,3.05v5.31h-2V51.49c0-1.26-.32-1.79-1.14-1.79-1,0-1.41.88-1.41,1.93v4.8h-2v-12Z" transform="translate(-9.96 -8.33)"/><path class="cls-1" d="M115.25,56a6.13,6.13,0,0,1-2.46.53c-2.65,0-3.81-1.9-3.81-4.13,0-2.46,1.29-4.36,3.39-4.36,1.78,0,3.29,1,3.29,4.4v0.38H110.9c0,1.41.56,2.25,2.09,2.25a3.27,3.27,0,0,0,2.16-.64Zm-1.5-4.43c0-1.45-.48-2.19-1.38-2.19s-1.47,1.1-1.47,2.19h2.85Z" transform="translate(-9.96 -8.33)"/><path class="cls-1" d="M123.59,45.27v7.23c0,1.85.56,2.46,1.76,2.46s1.74-.61,1.74-2.46V45.27h2v7.23c0,2.94-1.7,4.09-3.79,4.09s-3.81-1.15-3.81-4.09V45.27h2Z" transform="translate(-9.96 -8.33)"/><path class="cls-1" d="M131.12,49.55a11.37,11.37,0,0,0-.06-1.36h1.85c0,0.42.06,0.85,0.06,1.26h0a2.4,2.4,0,0,1,2.19-1.39c1.87,0,2.43,1.39,2.43,3.05v5.31h-2V51.49c0-1.26-.32-1.79-1.14-1.79-1,0-1.41.88-1.41,1.93v4.8h-2V49.55Z" transform="translate(-9.96 -8.33)"/><path class="cls-1" d="M139.58,44.69h2v2h-2v-2Zm0,3.5h2v8.23h-2V48.19Z" transform="translate(-9.96 -8.33)"/><path class="cls-1" d="M144.31,46.5l2-.61v2.3h1.65v1.45h-1.65v4.27c0,0.88.32,1.14,0.89,1.14a1.56,1.56,0,0,0,.75-0.18v1.41a3.07,3.07,0,0,1-1.33.27c-1.47,0-2.3-.67-2.3-2.4V49.65H143V48.19h1.31V46.5Z" transform="translate(-9.96 -8.33)"/><path class="cls-1" d="M155.24,56a6.13,6.13,0,0,1-2.46.53c-2.65,0-3.81-1.9-3.81-4.13,0-2.46,1.29-4.36,3.39-4.36,1.78,0,3.29,1,3.29,4.4v0.38h-4.76c0,1.41.56,2.25,2.09,2.25a3.27,3.27,0,0,0,2.16-.64Zm-1.5-4.43c0-1.45-.48-2.19-1.38-2.19s-1.47,1.1-1.47,2.19h2.85Z" transform="translate(-9.96 -8.33)"/><path class="cls-1" d="M164,44.44V55a10.63,10.63,0,0,0,.06,1.41h-1.85a10.85,10.85,0,0,1-.06-1.28h0a2.22,2.22,0,0,1-2.19,1.41c-2,0-2.89-2-2.89-4.24,0-2.69,1.07-4.25,2.85-4.25a2.21,2.21,0,0,1,2.13,1.31h0V44.44h2ZM160.4,55.1c1.17,0,1.57-1.26,1.57-2.81s-0.45-2.77-1.54-2.77-1.49,1.07-1.49,2.72C158.95,54.14,159.25,55.1,160.4,55.1Z" transform="translate(-9.96 -8.33)"/><path class="cls-1" d="M170.2,45.27h2.43L176.34,54h0V45.27h1.85V56.43h-2.45l-3.69-8.7h0v8.7H170.2V45.27Z" transform="translate(-9.96 -8.33)"/><path class="cls-1" d="M180.68,48.67a5.75,5.75,0,0,1,2.61-.61c2.56,0,3.15,1.25,3.15,3.31V55a10.26,10.26,0,0,0,.11,1.45h-1.79a4.07,4.07,0,0,1-.11-1.12h0a2.65,2.65,0,0,1-2.3,1.25,2.36,2.36,0,0,1-2.46-2.41c0-2.24,1.82-2.8,4.33-2.8h0.4V51a1.42,1.42,0,0,0-1.54-1.57,3.8,3.8,0,0,0-2.25.8Zm3.9,3.73h-0.18c-1.69,0-2.7.35-2.7,1.55A1.19,1.19,0,0,0,183,55.21c1.18,0,1.62-.88,1.62-2.35V52.4Z" transform="translate(-9.96 -8.33)"/><path class="cls-1" d="M189,46.5l2-.61v2.3h1.65v1.45H191v4.27c0,0.88.32,1.14,0.89,1.14a1.56,1.56,0,0,0,.75-0.18v1.41a3.06,3.06,0,0,1-1.33.27c-1.47,0-2.3-.67-2.3-2.4V49.65H187.7V48.19H189V46.5Z" transform="translate(-9.96 -8.33)"/><path class="cls-1" d="M194.06,44.69h2v2h-2v-2Zm0,3.5h2v8.23h-2V48.19Z" transform="translate(-9.96 -8.33)"/><path class="cls-1" d="M201.46,48.07c1.68,0,3.61.88,3.61,4.24s-1.94,4.25-3.61,4.25-3.63-.8-3.63-4.25S199.79,48.07,201.46,48.07Zm0,7.08c1.28,0,1.57-1.47,1.57-2.85s-0.29-2.83-1.57-2.83-1.58,1.45-1.58,2.83S200.19,55.15,201.46,55.15Z" transform="translate(-9.96 -8.33)"/><path class="cls-1" d="M206.64,49.55a11.35,11.35,0,0,0-.06-1.36h1.85c0,0.42.06,0.85,0.06,1.26h0a2.4,2.4,0,0,1,2.19-1.39c1.87,0,2.43,1.39,2.43,3.05v5.31h-2V51.49c0-1.26-.32-1.79-1.14-1.79-1,0-1.41.88-1.41,1.93v4.8h-2V49.55Z" transform="translate(-9.96 -8.33)"/><path class="cls-1" d="M214.71,54.51a5.3,5.3,0,0,0,2.06.54c0.72,0,1.28-.18,1.28-0.82a1.27,1.27,0,0,0-.88-1l-0.82-.48c-0.83-.5-1.74-1-1.74-2.32a2.62,2.62,0,0,1,2.85-2.33,6.58,6.58,0,0,1,2.06.34l-0.11,1.54a4.53,4.53,0,0,0-1.74-.37c-0.8,0-1.13.3-1.13,0.8a1.41,1.41,0,0,0,.93,1.05l1,0.62c1,0.66,1.54,1.12,1.54,2.08,0,1.52-1.28,2.43-3.07,2.43a6.66,6.66,0,0,1-2.29-.4Z" transform="translate(-9.96 -8.33)"/><path class="cls-1" d="M38.3,65A28.35,28.35,0,1,1,66.65,36.68,28.38,28.38,0,0,1,38.3,65ZM38.19,25.5s2.3,2.43,2.3,4.37a2.39,2.39,0,0,1-2.19,2.61H38.09a2.39,2.39,0,0,1-2.19-2.61C35.89,27.93,38.15,25.5,38.19,25.5ZM16.85,38.26h2.59V33.48h4.34v-2H19.44V28.83h4.49v-2H16.85V38.26ZM40.54,25.85h2.73L40.1,14.42H36.61L33.33,25.85h2.53l0.73-2.55h3.31ZM39.4,21.36H37l1.11-5h0.18Zm12,11.19c0,3.36,1.56,5.91,4.84,5.91s4.87-2.55,4.87-5.91-1.57-5.91-4.87-5.91S51.38,29.19,51.38,32.55Zm2.75,0c0-2.19.54-4,2.09-4s2.12,1.78,2.12,4-0.56,4-2.12,4S54.13,34.74,54.13,32.55Zm-17,29.32a38.31,38.31,0,0,0,.3-5V56.56c0-2.93-.11-3.92-2.06-4.56-3-1-4.25-4.37-3.59-8.56L21.65,17.77A25.2,25.2,0,0,0,37.09,61.87Zm1.2-16.37c-4-.94-5.51-4.6-5.51-7.85L23.95,16c-0.58.4-1.14,0.83-1.68,1.27L32.95,42.57c1.54,3.72,4.35,2.49,5,5.56a6.88,6.88,0,0,1,.17,1.07h0.3a6.09,6.09,0,0,1,.17-1.07c0.68-3.07,3.48-1.84,5-5.56L54.33,17.23c-0.54-.44-1.1-0.87-1.68-1.27L43.82,37.65c0,3.25-1.49,6.91-5.51,7.85h0Zm0-6.55a5.53,5.53,0,0,1-4.1-4.25,9.73,9.73,0,0,1-.06-2.7L26.38,14.47q-0.93.5-1.83,1.09L34,36.68c1.12,2.36,3.09,2.4,3.76,3.81a4.53,4.53,0,0,1,.45,1.64h0.26a4.68,4.68,0,0,1,.45-1.64c0.68-1.41,2.65-1.45,3.77-3.81L52,15.56c-0.59-.39-1.2-0.75-1.83-1.09L42.48,32a9.36,9.36,0,0,1-.07,2.7A5.54,5.54,0,0,1,38.32,39h0Zm0.11-3,0.12-1c0.49-2.22,2.1-1.94,3.22-4.12l0,0c0-.08,5.51-11.84,7.8-16.74a25.17,25.17,0,0,0-22.49,0c2.29,4.91,7.76,16.66,7.81,16.74l0,0C36,33.08,37.6,32.8,38.09,35l0.12,1h0.19Zm25.12,0.71A25.18,25.18,0,0,0,55,17.77L44.86,43.43c0.67,4.19-.57,7.56-3.59,8.56-2,.65-2.06,1.64-2.06,4.56v0.35a40,40,0,0,0,.3,5A25.24,25.24,0,0,0,63.52,36.68ZM21.06,44.13s0.37,0.79.68,1.35,0.71,1.24.71,1.24l-0.67.39s-0.5-.84-1-1.81l-1.06.55,0.89,1.72L20,47.95l-0.9-1.75-1.86,1-0.41-.82L21,44.15Zm2.66,4.32,0.59,0.71-3.68,3.08L20,51.52l3.65-3Zm3.41,3.23,0.73,0.52-0.94,5.08-0.84-.48s0.21-1,.23-1.13-0.53-.32-1-0.66-0.95-.73-1-0.76l-1,.6-0.71-.61,4.49-2.53ZM25,53.83c0.09,0.07.4,0.33,0.72,0.56a8.75,8.75,0,0,0,.75.49c0-.21.38-1.88,0.45-2.19Zm5.16-.29A16.93,16.93,0,0,0,32,54.3a18.17,18.17,0,0,0,2,.6l-0.22.73a14.73,14.73,0,0,1-1.57-.4L31,59l-0.87-.3,1.32-3.78a14.1,14.1,0,0,1-1.54-.68Zm15.16,1a1.38,1.38,0,0,1,.67.87,1.7,1.7,0,0,1,.09.51,1.59,1.59,0,0,1-1.32,1.46l-0.55.17,0.55,1.78-0.84.22-1.43-4.62,1.28-.4A2.05,2.05,0,0,1,45.32,54.51Zm-1.78.87L44,56.79l0.56-.17a1,1,0,0,0,.57-0.43,0.63,0.63,0,0,0,.07-0.29,0.9,0.9,0,0,0,0-.25,0.62,0.62,0,0,0-.31-0.37,1.16,1.16,0,0,0-.83,0Zm4.64-2.89,4.16,3-0.74.52-0.92-.7s-0.48.33-.94,0.6-0.91.5-1,.52S49,57.62,49,57.62L48.18,58l-0.7-5.1Zm0.48,3.23c0.12-.06.45-0.24,0.77-0.43s0.52-.32.63-0.41l-1.74-1.33Zm4.28-7.43,3.63,3.24-0.65.77s-3.4-1-3.92-1.13c0.38,0.37,2.49,2.59,2.49,2.59l-0.64.58-3.42-3.47,0.8-.72s3.28,1,3.8,1.12c-0.38-.36-2.65-2.31-2.65-2.31Zm1.66-2.42,4.2,2.44L58.38,49,54.15,46.6Zm1.82-4,0.72,0.37-0.07.08a2.07,2.07,0,0,0-.45.75,0.85,0.85,0,0,0,0,.64,0.46,0.46,0,0,0,.29.24,1,1,0,0,0,.91-0.49,1.73,1.73,0,0,1,1.88-.71c0.9,0.31,1.21,1.11.84,2.2a3.41,3.41,0,0,1-.51.88l0,0.06-0.75-.35,0.07-.09a2.79,2.79,0,0,0,.52-0.83,0.76,0.76,0,0,0-.38-1,1.07,1.07,0,0,0-1.05.53,1.55,1.55,0,0,1-1.72.68,1.29,1.29,0,0,1-.77-0.64,1.71,1.71,0,0,1,0-1.32,3.07,3.07,0,0,1,.5-0.93Z" transform="translate(-9.96 -8.33)"/></svg>