<svg id="Layer_1" data-name="Layer 1" xmlns="http://www.w3.org/2000/svg" viewBox="0 0 205.2 56.69"><defs><style>.cls-1{fill:#3e8ede;}</style></defs><title>FAO_logo_Blue_3lines_en</title><path class="cls-1" d="M40.92,65A28.35,28.35,0,1,1,69.27,36.68,28.38,28.38,0,0,1,40.92,65ZM40.81,25.5s2.3,2.43,2.3,4.37a2.39,2.39,0,0,1-2.19,2.61H40.71a2.39,2.39,0,0,1-2.19-2.61C38.51,27.93,40.77,25.5,40.81,25.5ZM19.47,38.26h2.59V33.48H26.4v-2H22.05V28.83h4.49v-2H19.47V38.26ZM43.16,25.85h2.73L42.71,14.42H39.23L35.94,25.85h2.53l0.73-2.55H42.5ZM42,21.36H39.65l1.11-5h0.18ZM54,32.55c0,3.36,1.56,5.91,4.84,5.91s4.87-2.55,4.87-5.91-1.57-5.91-4.87-5.91S54,29.19,54,32.55Zm2.75,0c0-2.19.54-4,2.09-4s2.12,1.78,2.12,4-0.56,4-2.12,4S56.75,34.74,56.75,32.55Zm-17,29.32a38.38,38.38,0,0,0,.3-5V56.56c0-2.93-.11-3.92-2.06-4.56-3-1-4.25-4.37-3.59-8.56L24.27,17.77A25.2,25.2,0,0,0,39.71,61.87Zm1.2-16.37c-4-.94-5.51-4.6-5.51-7.85L26.57,16c-0.58.4-1.14,0.83-1.68,1.27L35.57,42.57c1.54,3.72,4.35,2.49,5,5.56a6.81,6.81,0,0,1,.17,1.07h0.3a6.09,6.09,0,0,1,.17-1.07c0.68-3.07,3.48-1.84,5-5.56L56.95,17.23c-0.54-.44-1.1-0.87-1.68-1.27L46.44,37.65c0,3.25-1.49,6.91-5.51,7.85h0Zm0-6.55a5.53,5.53,0,0,1-4.1-4.25,9.73,9.73,0,0,1-.06-2.7L29,14.47q-0.93.5-1.83,1.09l9.4,21.12c1.12,2.36,3.09,2.4,3.76,3.81a4.53,4.53,0,0,1,.45,1.64H41a4.66,4.66,0,0,1,.45-1.64c0.68-1.41,2.65-1.45,3.77-3.81l9.4-21.12c-0.59-.39-1.2-0.75-1.83-1.09L45.1,32A9.36,9.36,0,0,1,45,34.7,5.53,5.53,0,0,1,40.94,39h0ZM41,36l0.12-1c0.49-2.22,2.1-1.94,3.22-4.12l0,0c0-.08,5.51-11.84,7.8-16.74a25.17,25.17,0,0,0-22.49,0C32,19,37.44,30.78,37.48,30.86l0,0c1.11,2.18,2.72,1.9,3.21,4.12l0.12,1H41Zm25.12,0.71a25.18,25.18,0,0,0-8.56-18.92L47.47,43.43C48.14,47.63,46.9,51,43.89,52c-2,.65-2.06,1.64-2.06,4.56v0.35a39.87,39.87,0,0,0,.3,5A25.24,25.24,0,0,0,66.13,36.68ZM23.67,44.13s0.37,0.79.68,1.35,0.71,1.24.71,1.24l-0.67.39s-0.51-.84-1-1.81l-1.06.55,0.89,1.72-0.67.39-0.9-1.75-1.86,1-0.41-.82,4.21-2.19Zm2.66,4.32,0.59,0.71-3.68,3.08-0.6-.71,3.65-3Zm3.41,3.23,0.73,0.52-0.94,5.08-0.84-.48s0.21-1,.23-1.13-0.53-.32-1-0.66-0.95-.73-1-0.76l-1,.6-0.71-.61L29.7,51.7Zm-2.13,2.16c0.09,0.07.4,0.33,0.72,0.56a8.72,8.72,0,0,0,.75.49c0-.21.38-1.88,0.45-2.19Zm5.16-.29a17,17,0,0,0,1.88.76,18.2,18.2,0,0,0,2,.6l-0.22.73a14.7,14.7,0,0,1-1.57-.4L33.57,59l-0.87-.3L34,54.93a14.11,14.11,0,0,1-1.54-.68Zm15.16,1a1.38,1.38,0,0,1,.67.87,1.7,1.7,0,0,1,.09.51,1.59,1.59,0,0,1-1.32,1.46l-0.55.17,0.55,1.78-0.84.22-1.43-4.62,1.28-.4A2.05,2.05,0,0,1,47.94,54.51Zm-1.78.87,0.44,1.41,0.56-.17a1,1,0,0,0,.57-0.43,0.63,0.63,0,0,0,.07-0.29,0.9,0.9,0,0,0,0-.25,0.62,0.62,0,0,0-.31-0.37,1.17,1.17,0,0,0-.83,0Zm4.64-2.89,4.16,3-0.74.52-0.92-.7s-0.48.33-.94,0.6-0.91.5-1,.52,0.18,1.13.18,1.13L50.8,58l-0.7-5.1Zm0.48,3.23c0.12-.06.45-0.24,0.77-0.43s0.52-.32.63-0.41l-1.74-1.33C51,53.9,51.25,55.51,51.28,55.72Zm4.28-7.43,3.63,3.24-0.65.77s-3.4-1-3.92-1.13c0.38,0.37,2.49,2.59,2.49,2.59l-0.64.58-3.42-3.47,0.8-.72s3.28,1,3.8,1.12C57.27,50.89,55,48.94,55,48.94Zm1.66-2.42,4.2,2.44L61,49,56.77,46.6Zm1.82-4,0.72,0.37-0.07.08a2.08,2.08,0,0,0-.45.75,0.84,0.84,0,0,0,0,.64,0.46,0.46,0,0,0,.29.24,1,1,0,0,0,.91-0.49,1.73,1.73,0,0,1,1.88-.71c0.9,0.31,1.21,1.11.84,2.2a3.43,3.43,0,0,1-.51.88l0,0.06-0.75-.35,0.07-.09a2.79,2.79,0,0,0,.52-0.83,0.76,0.76,0,0,0-.38-1,1.07,1.07,0,0,0-1.05.53,1.55,1.55,0,0,1-1.72.68,1.29,1.29,0,0,1-.77-0.64,1.71,1.71,0,0,1,0-1.32A3.08,3.08,0,0,1,59,41.9Z" transform="translate(-12.57 -8.33)"/><path class="cls-1" d="M79.76,14.29h5.64v1.63h-3.6v3h3.44v1.63H81.81v4.86h-2V14.29Z" transform="translate(-12.57 -8.33)"/><path class="cls-1" d="M89.88,17.09c1.68,0,3.61.88,3.61,4.24s-1.94,4.25-3.61,4.25-3.63-.8-3.63-4.25S88.2,17.09,89.88,17.09Zm0,7.08c1.28,0,1.57-1.47,1.57-2.85s-0.29-2.83-1.57-2.83S88.3,20,88.3,21.33,88.6,24.18,89.88,24.18Z" transform="translate(-12.57 -8.33)"/><path class="cls-1" d="M98.47,17.09c1.68,0,3.61.88,3.61,4.24s-1.94,4.25-3.61,4.25-3.63-.8-3.63-4.25S96.79,17.09,98.47,17.09Zm0,7.08c1.28,0,1.57-1.47,1.57-2.85s-0.29-2.83-1.57-2.83S96.88,20,96.88,21.33,97.19,24.18,98.47,24.18Z" transform="translate(-12.57 -8.33)"/><path class="cls-1" d="M110.41,13.46V24a10.62,10.62,0,0,0,.06,1.41h-1.85a11,11,0,0,1-.06-1.28h0a2.22,2.22,0,0,1-2.19,1.41c-2,0-2.89-2-2.89-4.24,0-2.69,1.07-4.25,2.85-4.25a2.21,2.21,0,0,1,2.13,1.31h0V13.46h2Zm-3.55,10.67c1.17,0,1.57-1.26,1.57-2.81s-0.45-2.77-1.54-2.77-1.49,1.07-1.49,2.72C105.4,23.17,105.71,24.13,106.86,24.13Z" transform="translate(-12.57 -8.33)"/><path class="cls-1" d="M116.78,17.7a5.75,5.75,0,0,1,2.61-.61c2.56,0,3.15,1.25,3.15,3.31V24a10.27,10.27,0,0,0,.11,1.46h-1.79a4.12,4.12,0,0,1-.11-1.12h0a2.65,2.65,0,0,1-2.3,1.25A2.36,2.36,0,0,1,116,23.17c0-2.24,1.82-2.8,4.33-2.8h0.4v-0.3a1.42,1.42,0,0,0-1.54-1.57,3.8,3.8,0,0,0-2.25.8Zm3.9,3.73h-0.18c-1.7,0-2.7.35-2.7,1.55a1.19,1.19,0,0,0,1.26,1.26c1.18,0,1.62-.88,1.62-2.35V21.43Z" transform="translate(-12.57 -8.33)"/><path class="cls-1" d="M124.38,18.58a11.35,11.35,0,0,0-.06-1.36h1.85c0,0.42.06,0.85,0.06,1.26h0a2.4,2.4,0,0,1,2.19-1.39c1.87,0,2.43,1.39,2.43,3.05v5.31h-2V20.51c0-1.26-.32-1.79-1.14-1.79-1,0-1.41.88-1.41,1.93v4.8h-2V18.58Z" transform="translate(-12.57 -8.33)"/><path class="cls-1" d="M139.43,13.46V24a10.82,10.82,0,0,0,.06,1.41h-1.85a11,11,0,0,1-.06-1.28h0a2.22,2.22,0,0,1-2.19,1.41c-2,0-2.89-2-2.89-4.24,0-2.69,1.07-4.25,2.85-4.25a2.21,2.21,0,0,1,2.13,1.31h0V13.46h2Zm-3.55,10.67c1.17,0,1.57-1.26,1.57-2.81s-0.45-2.77-1.54-2.77-1.49,1.07-1.49,2.72C134.43,23.17,134.73,24.13,135.89,24.13Z" transform="translate(-12.57 -8.33)"/><path class="cls-1" d="M150.41,22.77h-3.84l-0.8,2.69h-2l3.74-11.16h2.24l3.6,11.16H151.2ZM150,21.2L148.58,16h0L147,21.2h3Z" transform="translate(-12.57 -8.33)"/><path class="cls-1" d="M154.55,26.73a5.23,5.23,0,0,0,2.43.7c1.87,0,2.17-1.3,2.17-2.59V24.06h0a2.25,2.25,0,0,1-2.18,1.39c-1.15,0-2.88-.77-2.88-4.09,0-2.27.82-4.27,3-4.27a2.35,2.35,0,0,1,2.17,1.41h0.06c0-.43,0-0.85.07-1.28h1.79c0,0.43-.06.86-0.06,1.3v6.08c0,2.57-.78,4.41-3.81,4.41a8.29,8.29,0,0,1-2.83-.51ZM157.41,24c1.25,0,1.74-.9,1.74-2.77s-0.66-2.65-1.6-2.64-1.44,1-1.44,2.65C156.12,23.18,156.74,24,157.41,24Z" transform="translate(-12.57 -8.33)"/><path class="cls-1" d="M162.94,18.58a11.24,11.24,0,0,0-.06-1.36h1.79c0,0.5.06,1,.06,1.5h0a2.3,2.3,0,0,1,2.09-1.63,2.18,2.18,0,0,1,.34,0V19a2.06,2.06,0,0,0-.56-0.08c-0.82,0-1.71.5-1.71,2v4.51h-2V18.58Z" transform="translate(-12.57 -8.33)"/><path class="cls-1" d="M168.67,13.72h2v2h-2v-2Zm0,3.5h2v8.23h-2V17.22Z" transform="translate(-12.57 -8.33)"/><path class="cls-1" d="M178.26,25.25a5.64,5.64,0,0,1-2,.34c-2.72,0-3.87-1.9-3.87-4.24s1.21-4.25,4-4.25a5.43,5.43,0,0,1,1.73.34L178,19a3.17,3.17,0,0,0-1.39-.4c-1.5,0-2.16,1-2.16,2.77,0,1.53.74,2.72,2.25,2.72a3.19,3.19,0,0,0,1.41-.4Z" transform="translate(-12.57 -8.33)"/><path class="cls-1" d="M186,24.1a11.24,11.24,0,0,0,.06,1.36h-1.86c0-.42-0.06-0.85-0.06-1.26l0,0,0,0a2.4,2.4,0,0,1-2.19,1.39c-1.87,0-2.43-1.39-2.43-3.05V17.22h2v4.94c0,1.26.35,1.79,1.18,1.79,1.06,0,1.36-1,1.36-2V17.22h2V24.1Z" transform="translate(-12.57 -8.33)"/><path class="cls-1" d="M188,13.46h2v12h-2v-12Z" transform="translate(-12.57 -8.33)"/><path class="cls-1" d="M192.66,15.52l2-.61v2.3h1.65v1.46h-1.65v4.27c0,0.88.32,1.14,0.89,1.14a1.56,1.56,0,0,0,.75-0.18v1.41a3.06,3.06,0,0,1-1.33.27c-1.47,0-2.3-.67-2.3-2.4V18.67h-1.31V17.22h1.31V15.52Z" transform="translate(-12.57 -8.33)"/><path class="cls-1" d="M204.06,24.1a11.07,11.07,0,0,0,.06,1.36h-1.86c0-.42-0.06-0.85-0.06-1.26l0,0,0,0A2.4,2.4,0,0,1,200,25.58c-1.87,0-2.43-1.39-2.43-3.05V17.22h2v4.94c0,1.26.35,1.79,1.18,1.79,1.06,0,1.36-1,1.36-2V17.22h2V24.1Z" transform="translate(-12.57 -8.33)"/><path class="cls-1" d="M205.91,18.58a11.37,11.37,0,0,0-.06-1.36h1.79c0,0.5.06,1,.06,1.5h0a2.3,2.3,0,0,1,2.09-1.63,2.18,2.18,0,0,1,.34,0V19a2.05,2.05,0,0,0-.56-0.08c-0.81,0-1.71.5-1.71,2v4.51h-2V18.58Z" transform="translate(-12.57 -8.33)"/><path class="cls-1" d="M217.35,25.05a6.13,6.13,0,0,1-2.46.53c-2.66,0-3.81-1.9-3.81-4.13,0-2.46,1.29-4.37,3.39-4.37,1.77,0,3.29,1,3.29,4.4v0.38H213c0,1.41.56,2.25,2.09,2.25a3.27,3.27,0,0,0,2.16-.64Zm-1.5-4.43c0-1.46-.48-2.19-1.38-2.19S213,19.54,213,20.63h2.85Z" transform="translate(-12.57 -8.33)"/><path class="cls-1" d="M83.76,32.2c2.32,0,4.44,1.73,4.44,5.74s-2.13,5.74-4.44,5.74S79.32,42,79.32,37.94,81.44,32.2,83.76,32.2Zm0,9.91c1.29,0,2.33-1.1,2.33-4.17s-1-4.17-2.33-4.17-2.33,1.1-2.33,4.17S82.47,42.12,83.76,42.12Z" transform="translate(-12.57 -8.33)"/><path class="cls-1" d="M89.9,36.65a11.25,11.25,0,0,0-.06-1.36h1.79c0,0.5.06,1,.06,1.5h0a2.3,2.3,0,0,1,2.09-1.63,2.18,2.18,0,0,1,.34,0v1.86A2.07,2.07,0,0,0,93.59,37c-0.82,0-1.71.5-1.71,2v4.51h-2V36.65Z" transform="translate(-12.57 -8.33)"/><path class="cls-1" d="M95.55,44.8a5.24,5.24,0,0,0,2.43.7c1.87,0,2.17-1.3,2.17-2.59V42.13h0A2.25,2.25,0,0,1,98,43.52c-1.15,0-2.88-.77-2.88-4.09,0-2.27.82-4.27,3-4.27a2.35,2.35,0,0,1,2.17,1.41h0.07c0-.43,0-0.85.06-1.28h1.79c0,0.43-.06.86-0.06,1.3v6.08c0,2.57-.78,4.41-3.81,4.41a8.29,8.29,0,0,1-2.83-.51Zm2.86-2.73c1.25,0,1.74-.9,1.74-2.77s-0.66-2.65-1.6-2.64-1.44,1-1.44,2.65C97.12,41.25,97.75,42.07,98.42,42.07Z" transform="translate(-12.57 -8.33)"/><path class="cls-1" d="M104.28,35.77a5.75,5.75,0,0,1,2.61-.61c2.56,0,3.15,1.25,3.15,3.31v3.6a10.17,10.17,0,0,0,.11,1.45h-1.79a4.13,4.13,0,0,1-.11-1.12h0a2.65,2.65,0,0,1-2.3,1.25,2.36,2.36,0,0,1-2.46-2.42c0-2.24,1.82-2.8,4.33-2.8h0.4v-0.3a1.42,1.42,0,0,0-1.54-1.57,3.8,3.8,0,0,0-2.25.8Zm3.9,3.73H108c-1.7,0-2.7.35-2.7,1.55a1.19,1.19,0,0,0,1.26,1.26c1.18,0,1.62-.88,1.62-2.35V39.49Z" transform="translate(-12.57 -8.33)"/><path class="cls-1" d="M111.87,36.65a11.48,11.48,0,0,0-.06-1.36h1.85c0,0.42.06,0.85,0.06,1.26h0A2.4,2.4,0,0,1,116,35.16c1.87,0,2.43,1.39,2.43,3.05v5.31h-2V38.58c0-1.26-.32-1.79-1.14-1.79-1,0-1.41.88-1.41,1.94v4.8h-2V36.65Z" transform="translate(-12.57 -8.33)"/><path class="cls-1" d="M120.33,31.79h2v2h-2v-2Zm0,3.5h2v8.24h-2V35.29Z" transform="translate(-12.57 -8.33)"/><path class="cls-1" d="M123.88,41.81l3.52-5H124v-1.5h5.39V37l-3.45,5h3.57v1.5h-5.61V41.81Z" transform="translate(-12.57 -8.33)"/><path class="cls-1" d="M131.23,35.77a5.75,5.75,0,0,1,2.61-.61c2.56,0,3.15,1.25,3.15,3.31v3.6a10.18,10.18,0,0,0,.11,1.45h-1.79a4.07,4.07,0,0,1-.11-1.12h0a2.65,2.65,0,0,1-2.3,1.25,2.36,2.36,0,0,1-2.46-2.42c0-2.24,1.82-2.8,4.33-2.8h0.4v-0.3a1.42,1.42,0,0,0-1.54-1.57,3.8,3.8,0,0,0-2.25.8Zm3.9,3.73H135c-1.69,0-2.7.35-2.7,1.55a1.19,1.19,0,0,0,1.26,1.26c1.18,0,1.62-.88,1.62-2.35V39.49Z" transform="translate(-12.57 -8.33)"/><path class="cls-1" d="M139.56,33.59l2-.61v2.3h1.65v1.46h-1.65V41c0,0.88.32,1.14,0.89,1.14a1.56,1.56,0,0,0,.75-0.18v1.41a3.06,3.06,0,0,1-1.33.27c-1.47,0-2.3-.67-2.3-2.4V36.74h-1.31V35.29h1.31V33.59Z" transform="translate(-12.57 -8.33)"/><path class="cls-1" d="M144.61,31.79h2v2h-2v-2Zm0,3.5h2v8.24h-2V35.29Z" transform="translate(-12.57 -8.33)"/><path class="cls-1" d="M152,35.16c1.68,0,3.61.88,3.61,4.24s-1.94,4.25-3.61,4.25-3.63-.8-3.63-4.25S150.33,35.16,152,35.16Zm0,7.08c1.28,0,1.57-1.47,1.57-2.85s-0.29-2.83-1.57-2.83-1.58,1.46-1.58,2.83S150.73,42.24,152,42.24Z" transform="translate(-12.57 -8.33)"/><path class="cls-1" d="M157.19,36.65a11.37,11.37,0,0,0-.06-1.36H159c0,0.42.06,0.85,0.06,1.26h0a2.4,2.4,0,0,1,2.19-1.39c1.87,0,2.43,1.39,2.43,3.05v5.31h-2V38.58c0-1.26-.32-1.79-1.14-1.79-1,0-1.41.88-1.41,1.94v4.8h-2V36.65Z" transform="translate(-12.57 -8.33)"/><path class="cls-1" d="M173,35.16c1.68,0,3.61.88,3.61,4.24s-1.94,4.25-3.61,4.25-3.63-.8-3.63-4.25S171.37,35.16,173,35.16Zm0,7.08c1.28,0,1.57-1.47,1.57-2.85s-0.29-2.83-1.57-2.83-1.58,1.46-1.58,2.83S171.77,42.24,173,42.24Z" transform="translate(-12.57 -8.33)"/><path class="cls-1" d="M178.86,36.74h-1.37V35.29h1.38V33.61a2.08,2.08,0,0,1,2.37-2.27,7,7,0,0,1,1.42.19L182.57,33a3,3,0,0,0-.78-0.13,0.92,0.92,0,0,0-.94,1v1.42h1.5v1.46h-1.5v6.78h-2V36.74Z" transform="translate(-12.57 -8.33)"/><path class="cls-1" d="M188.44,33.59l2-.61v2.3h1.65v1.46h-1.65V41c0,0.88.32,1.14,0.89,1.14a1.56,1.56,0,0,0,.75-0.18v1.41a3.06,3.06,0,0,1-1.33.27c-1.47,0-2.3-.67-2.3-2.4V36.74h-1.31V35.29h1.31V33.59Z" transform="translate(-12.57 -8.33)"/><path class="cls-1" d="M193.33,31.53h2v4.81h0a2.23,2.23,0,0,1,2-1.18c1.87,0,2.43,1.39,2.43,3.05v5.31h-2V38.58c0-1.26-.32-1.79-1.14-1.79-1,0-1.41.88-1.41,1.94v4.8h-2v-12Z" transform="translate(-12.57 -8.33)"/><path class="cls-1" d="M207.67,43.12a6.12,6.12,0,0,1-2.46.53c-2.66,0-3.81-1.9-3.81-4.13,0-2.46,1.3-4.37,3.39-4.37,1.77,0,3.29,1,3.29,4.4v0.38h-4.76c0,1.41.56,2.25,2.09,2.25a3.28,3.28,0,0,0,2.16-.64Zm-1.5-4.43c0-1.46-.48-2.19-1.38-2.19s-1.47,1.1-1.47,2.19h2.85Z" transform="translate(-12.57 -8.33)"/><path class="cls-1" d="M81.71,50.43v7.23c0,1.85.56,2.46,1.76,2.46s1.74-.61,1.74-2.46V50.43h2v7.23c0,2.94-1.7,4.09-3.79,4.09s-3.81-1.15-3.81-4.09V50.43h2Z" transform="translate(-12.57 -8.33)"/><path class="cls-1" d="M89.24,54.71a11.34,11.34,0,0,0-.06-1.36H91c0,0.42.06,0.85,0.06,1.26h0a2.4,2.4,0,0,1,2.19-1.39c1.87,0,2.43,1.39,2.43,3.05v5.31h-2V56.65c0-1.26-.32-1.79-1.14-1.79-1,0-1.41.88-1.41,1.93v4.8h-2V54.71Z" transform="translate(-12.57 -8.33)"/><path class="cls-1" d="M97.7,49.85h2v2h-2v-2Zm0,3.5h2v8.24h-2V53.36Z" transform="translate(-12.57 -8.33)"/><path class="cls-1" d="M102.43,51.66l2-.61v2.3h1.65v1.45h-1.65v4.27c0,0.88.32,1.14,0.89,1.14a1.55,1.55,0,0,0,.75-0.18v1.41a3.05,3.05,0,0,1-1.33.27c-1.47,0-2.3-.67-2.3-2.4V54.81h-1.31V53.36h1.31V51.66Z" transform="translate(-12.57 -8.33)"/><path class="cls-1" d="M113.36,61.19a6.12,6.12,0,0,1-2.46.53c-2.65,0-3.81-1.9-3.81-4.13,0-2.46,1.29-4.36,3.39-4.36,1.78,0,3.29,1,3.29,4.4V58H109c0,1.41.56,2.25,2.09,2.25a3.27,3.27,0,0,0,2.16-.64Zm-1.5-4.43c0-1.46-.48-2.19-1.38-2.19S109,55.67,109,56.76h2.85Z" transform="translate(-12.57 -8.33)"/><path class="cls-1" d="M122.07,49.6V60.18a10.73,10.73,0,0,0,.06,1.41h-1.85a11,11,0,0,1-.06-1.28h0A2.22,2.22,0,0,1,118,61.72c-2,0-2.89-2-2.89-4.24,0-2.69,1.07-4.25,2.85-4.25a2.21,2.21,0,0,1,2.13,1.31h0V49.6h2Zm-3.55,10.67c1.17,0,1.57-1.26,1.57-2.81s-0.45-2.77-1.54-2.77-1.49,1.07-1.49,2.72C117.07,59.3,117.37,60.26,118.53,60.26Z" transform="translate(-12.57 -8.33)"/><path class="cls-1" d="M128.32,50.43h2.43l3.71,8.76h0V50.43h1.85V61.59H133.9l-3.69-8.7h0v8.7h-1.85V50.43Z" transform="translate(-12.57 -8.33)"/><path class="cls-1" d="M138.81,53.84a5.75,5.75,0,0,1,2.61-.61c2.56,0,3.15,1.25,3.15,3.31v3.6a10.18,10.18,0,0,0,.11,1.46h-1.79a4.08,4.08,0,0,1-.11-1.12h0a2.65,2.65,0,0,1-2.3,1.25A2.36,2.36,0,0,1,138,59.3c0-2.24,1.82-2.8,4.33-2.8h0.4V56.2a1.42,1.42,0,0,0-1.54-1.57,3.8,3.8,0,0,0-2.25.8Zm3.9,3.73h-0.18c-1.69,0-2.7.35-2.7,1.55a1.19,1.19,0,0,0,1.26,1.26c1.18,0,1.62-.88,1.62-2.35V57.56Z" transform="translate(-12.57 -8.33)"/><path class="cls-1" d="M147.14,51.66l2-.61v2.3h1.65v1.45h-1.65v4.27c0,0.88.32,1.14,0.89,1.14a1.56,1.56,0,0,0,.75-0.18v1.41a3.06,3.06,0,0,1-1.33.27c-1.47,0-2.3-.67-2.3-2.4V54.81h-1.31V53.36h1.31V51.66Z" transform="translate(-12.57 -8.33)"/><path class="cls-1" d="M152.19,49.85h2v2h-2v-2Zm0,3.5h2v8.24h-2V53.36Z" transform="translate(-12.57 -8.33)"/><path class="cls-1" d="M159.59,53.23c1.68,0,3.61.88,3.61,4.24s-1.94,4.25-3.61,4.25-3.63-.8-3.63-4.25S157.91,53.23,159.59,53.23Zm0,7.08c1.28,0,1.57-1.47,1.57-2.85s-0.29-2.83-1.57-2.83S158,56.09,158,57.46,158.31,60.31,159.59,60.31Z" transform="translate(-12.57 -8.33)"/><path class="cls-1" d="M164.76,54.71a11.34,11.34,0,0,0-.06-1.36h1.85c0,0.42.06,0.85,0.06,1.26h0a2.4,2.4,0,0,1,2.19-1.39c1.87,0,2.43,1.39,2.43,3.05v5.31h-2V56.65c0-1.26-.32-1.79-1.14-1.79-1,0-1.41.88-1.41,1.93v4.8h-2V54.71Z" transform="translate(-12.57 -8.33)"/><path class="cls-1" d="M172.84,59.67a5.29,5.29,0,0,0,2.06.54c0.72,0,1.28-.18,1.28-0.82a1.26,1.26,0,0,0-.88-1l-0.82-.48c-0.83-.5-1.74-1-1.74-2.32a2.62,2.62,0,0,1,2.85-2.33,6.57,6.57,0,0,1,2.06.34l-0.11,1.53a4.53,4.53,0,0,0-1.74-.37c-0.8,0-1.13.3-1.13,0.8a1.41,1.41,0,0,0,.93,1.06l1,0.62c1,0.66,1.54,1.12,1.54,2.08,0,1.52-1.28,2.43-3.07,2.43a6.66,6.66,0,0,1-2.29-.4Z" transform="translate(-12.57 -8.33)"/></svg>