<?xml version="1.0" encoding="utf-8"?>
<!-- Generator: Adobe Illustrator 16.0.0, SVG Export Plug-In . SVG Version: 6.00 Build 0)  -->
<!DOCTYPE svg PUBLIC "-//W3C//DTD SVG 1.1//EN" "http://www.w3.org/Graphics/SVG/1.1/DTD/svg11.dtd">
<svg version="1.1" id="Layer_1" xmlns="http://www.w3.org/2000/svg" xmlns:xlink="http://www.w3.org/1999/xlink" x="0px" y="0px"
	 width="218px" height="50px" viewBox="0 0 218 50" enable-background="new 0 0 218 50" xml:space="preserve">
<g id="Layer_2">
</g>
<g>
	<g>
		<path fill="#FFFFFF" d="M17.781,38.436C9.08,38.436,2,31.357,2,22.658C2,13.957,9.08,6.876,17.781,6.876
			c8.701,0,15.78,7.08,15.78,15.781C33.561,31.355,26.481,38.436,17.781,38.436z M17.721,16.435c0.02,0,1.283,1.351,1.283,2.432
			c0,1.171-0.914,1.451-1.223,1.451c-0.015,0-0.034-0.002-0.053-0.002h-0.013c-0.02,0-0.04,0.002-0.053,0.002
			c-0.307,0-1.222-0.28-1.222-1.451C16.439,17.785,17.698,16.435,17.721,16.435z M5.837,23.535h1.44v-2.659h2.418v-1.114H7.277
			v-1.477h2.498v-1.111H5.837V23.535z M19.026,16.625h1.518l-1.765-6.362h-1.94l-1.829,6.362h1.406l0.404-1.422h1.84L19.026,16.625z
			 M18.395,14.126h-1.324l0.617-2.767h0.101L18.395,14.126z M25.06,20.354c0,1.869,0.867,3.29,2.697,3.29
			c1.835,0,2.71-1.42,2.71-3.29s-0.875-3.29-2.71-3.29C25.927,17.064,25.06,18.485,25.06,20.354z M26.595,20.354
			c0-1.222,0.299-2.215,1.162-2.215c0.866,0,1.178,0.994,1.178,2.215s-0.312,2.215-1.178,2.215
			C26.894,22.569,26.595,21.574,26.595,20.354z M17.108,36.676c0.084-0.615,0.167-1.604,0.167-2.761c0-0.317,0-0.106,0-0.194
			c0-1.629-0.06-2.181-1.147-2.539c-1.68-0.557-2.367-2.431-1.998-4.767L8.511,12.126c-2.922,2.576-4.766,6.341-4.766,10.531
			C3.745,30.171,9.685,36.325,17.108,36.676z M17.774,27.564c-2.235-0.521-3.065-2.562-3.065-4.373L9.788,11.12
			c-0.32,0.224-0.632,0.46-0.934,0.706C9.936,14.39,14.793,25.915,14.8,25.93c0.859,2.071,2.421,1.385,2.801,3.092
			c0.09,0.416,0.097,0.603,0.097,0.603h0.167c0,0,0.003-0.187,0.097-0.603c0.377-1.707,1.938-1.021,2.798-3.092
			c0.006-0.019,4.861-11.542,5.943-14.104c-0.301-0.246-0.611-0.482-0.934-0.706l-4.917,12.075c0,1.81-0.832,3.846-3.067,4.37
			H17.774L17.774,27.564z M17.772,23.92c-0.949-0.211-2.13-1.153-2.284-2.366c-0.055-0.459-0.1-0.589-0.033-1.504l-4.311-9.76
			c-0.347,0.187-0.687,0.39-1.018,0.606c1.289,2.896,5.23,11.746,5.233,11.757c0.625,1.313,1.718,1.338,2.097,2.122
			c0.228,0.464,0.248,0.879,0.25,0.913h0.145c0.003-0.033,0.026-0.443,0.25-0.913c0.379-0.784,1.474-0.809,2.096-2.122
			c0.003-0.011,3.947-8.86,5.233-11.757c-0.327-0.217-0.669-0.419-1.018-0.606l-4.306,9.76c0.067,0.915,0.023,1.045-0.036,1.504
			c-0.154,1.212-1.336,2.154-2.279,2.366H17.772L17.772,23.92z M17.833,22.263l0.065-0.532c0.273-1.236,1.17-1.082,1.792-2.295
			c0.003-0.005,0.01-0.019,0.01-0.019c0.019-0.045,3.069-6.588,4.341-9.32c-1.886-0.943-4.01-1.477-6.26-1.477
			c-2.248,0-4.375,0.534-6.262,1.477c1.273,2.732,4.321,9.275,4.346,9.32c0,0,0.006,0.014,0.008,0.019
			c0.62,1.213,1.516,1.059,1.789,2.295l0.066,0.532H17.833z M31.816,22.657c0-4.19-1.847-7.955-4.765-10.531l-5.624,14.289
			c0.375,2.336-0.318,4.207-1.997,4.767c-1.088,0.359-1.148,0.91-1.148,2.539c0,0.088,0-0.123,0,0.194
			c0,1.157,0.088,2.146,0.168,2.761C25.88,36.325,31.816,30.171,31.816,22.657z M8.18,26.801c0,0,0.208,0.442,0.376,0.756
			c0.167,0.312,0.396,0.689,0.396,0.689l-0.37,0.217c0,0-0.282-0.469-0.54-1.01c-0.071,0.036-0.515,0.268-0.588,0.303
			c0.043,0.078,0.498,0.956,0.498,0.956l-0.375,0.215c0,0-0.461-0.896-0.5-0.972c-0.08,0.039-1.038,0.531-1.038,0.531L5.81,28.035
			l2.344-1.223L8.18,26.801z M9.66,29.205l0.327,0.393l-2.05,1.715l-0.332-0.395l2.032-1.695L9.66,29.205z M11.559,31.001
			l0.406,0.291l-0.526,2.826l-0.465-0.269c0,0,0.117-0.576,0.131-0.638c-0.022-0.021-0.294-0.18-0.558-0.36
			c-0.266-0.19-0.526-0.406-0.551-0.42c-0.05,0.023-0.565,0.332-0.565,0.332l-0.397-0.343l2.5-1.401L11.559,31.001z M10.376,32.202
			c0.047,0.04,0.22,0.181,0.401,0.308c0.182,0.126,0.365,0.249,0.419,0.271c0.026-0.117,0.214-1.047,0.252-1.219
			C11.295,31.654,10.483,32.139,10.376,32.202z M13.25,32.041c0,0,0.433,0.218,1.048,0.426c0.418,0.146,0.774,0.26,1.124,0.338
			l-0.123,0.406c0,0-0.332-0.061-0.874-0.227c-0.032,0.089-0.737,2.104-0.737,2.104l-0.482-0.168c0,0,0.703-2.02,0.732-2.104
			c-0.505-0.189-0.856-0.377-0.856-0.377L13.25,32.041z M21.69,32.579c0.175,0.092,0.302,0.257,0.372,0.487
			c0.031,0.098,0.048,0.188,0.048,0.281c0,0.373-0.262,0.666-0.732,0.812c0,0-0.238,0.069-0.309,0.094
			c0.027,0.086,0.309,0.989,0.309,0.989l-0.469,0.122l-0.795-2.573l0.71-0.225C21.178,32.464,21.474,32.466,21.69,32.579z
			 M20.697,33.062c0.023,0.08,0.22,0.709,0.244,0.787c0.098-0.029,0.311-0.104,0.311-0.104c0.07-0.021,0.237-0.088,0.318-0.239
			c0.026-0.05,0.04-0.104,0.04-0.157c0-0.043-0.009-0.094-0.023-0.144c-0.03-0.09-0.086-0.162-0.17-0.205
			c-0.143-0.079-0.337-0.062-0.459-0.021C20.957,32.98,20.763,33.043,20.697,33.062z M23.282,31.457l2.317,1.697l-0.411,0.291
			c0,0-0.466-0.354-0.512-0.389c-0.027,0.014-0.266,0.184-0.524,0.336c-0.243,0.146-0.505,0.271-0.532,0.293
			c0.011,0.062,0.103,0.629,0.103,0.629l-0.443,0.211l-0.389-2.84L23.282,31.457z M23.548,33.256c0.069-0.033,0.25-0.13,0.427-0.236
			c0.16-0.098,0.287-0.178,0.351-0.229c-0.094-0.07-0.817-0.62-0.968-0.736C23.39,32.24,23.53,33.139,23.548,33.256z M25.93,29.119
			l2.021,1.802l-0.363,0.427c0,0-1.895-0.553-2.182-0.63c0.213,0.203,1.388,1.442,1.388,1.442l-0.355,0.32l-1.903-1.938l0.446-0.396
			c0,0,1.828,0.545,2.116,0.619c-0.213-0.203-1.476-1.287-1.476-1.287L25.93,29.119z M26.853,27.773l2.341,1.354l-0.238,0.41
			l-2.353-1.357L26.853,27.773z M27.867,25.527l0.401,0.209l-0.04,0.047c-0.13,0.16-0.189,0.238-0.25,0.418
			c-0.031,0.082-0.068,0.236-0.007,0.355c0.03,0.062,0.084,0.104,0.16,0.131c0.178,0.061,0.333-0.101,0.508-0.273
			c0.247-0.252,0.554-0.562,1.048-0.396c0.502,0.172,0.673,0.621,0.466,1.229c-0.063,0.188-0.179,0.345-0.285,0.489l-0.024,0.031
			l-0.415-0.191l0.041-0.051c0.05-0.062,0.223-0.267,0.288-0.463c0.063-0.181,0.056-0.479-0.212-0.564
			c-0.223-0.077-0.39,0.095-0.585,0.296c-0.238,0.25-0.51,0.53-0.958,0.378c-0.197-0.064-0.345-0.191-0.427-0.355
			c-0.102-0.205-0.104-0.465-0.011-0.733c0.061-0.185,0.161-0.372,0.278-0.521L27.867,25.527z"/>
	</g>
	<g>
		<path fill="#FFFFFF" d="M17.781,38.436C9.08,38.436,2,31.357,2,22.658C2,13.957,9.08,6.876,17.781,6.876
			c8.701,0,15.78,7.08,15.78,15.781C33.561,31.355,26.481,38.436,17.781,38.436z M17.721,16.435c0.02,0,1.283,1.351,1.283,2.432
			c0,1.171-0.914,1.451-1.223,1.451c-0.015,0-0.034-0.002-0.053-0.002h-0.013c-0.02,0-0.04,0.002-0.053,0.002
			c-0.307,0-1.222-0.28-1.222-1.451C16.439,17.785,17.698,16.435,17.721,16.435z M5.837,23.535h1.44v-2.659h2.418v-1.114H7.277
			v-1.477h2.498v-1.111H5.837V23.535z M19.026,16.625h1.518l-1.765-6.362h-1.94l-1.829,6.362h1.406l0.404-1.422h1.84L19.026,16.625z
			 M18.395,14.126h-1.324l0.617-2.767h0.101L18.395,14.126z M25.06,20.354c0,1.869,0.867,3.29,2.697,3.29
			c1.835,0,2.71-1.42,2.71-3.29s-0.875-3.29-2.71-3.29C25.927,17.064,25.06,18.485,25.06,20.354z M26.595,20.354
			c0-1.222,0.299-2.215,1.162-2.215c0.866,0,1.178,0.994,1.178,2.215s-0.312,2.215-1.178,2.215
			C26.894,22.569,26.595,21.574,26.595,20.354z M17.108,36.676c0.084-0.615,0.167-1.604,0.167-2.761c0-0.317,0-0.106,0-0.194
			c0-1.629-0.06-2.181-1.147-2.539c-1.68-0.557-2.367-2.431-1.998-4.767L8.511,12.126c-2.922,2.576-4.766,6.341-4.766,10.531
			C3.745,30.171,9.685,36.325,17.108,36.676z M17.774,27.564c-2.235-0.521-3.065-2.562-3.065-4.373L9.788,11.12
			c-0.32,0.224-0.632,0.46-0.934,0.706C9.936,14.39,14.793,25.915,14.8,25.93c0.859,2.071,2.421,1.385,2.801,3.092
			c0.09,0.416,0.097,0.603,0.097,0.603h0.167c0,0,0.003-0.187,0.097-0.603c0.377-1.707,1.938-1.021,2.798-3.092
			c0.006-0.019,4.861-11.542,5.943-14.104c-0.301-0.246-0.611-0.482-0.934-0.706l-4.917,12.075c0,1.81-0.832,3.846-3.067,4.37
			H17.774L17.774,27.564z M17.772,23.92c-0.949-0.211-2.13-1.153-2.284-2.366c-0.055-0.459-0.1-0.589-0.033-1.504l-4.311-9.76
			c-0.347,0.187-0.687,0.39-1.018,0.606c1.289,2.896,5.23,11.746,5.233,11.757c0.625,1.313,1.718,1.338,2.097,2.122
			c0.228,0.464,0.248,0.879,0.25,0.913h0.145c0.003-0.033,0.026-0.443,0.25-0.913c0.379-0.784,1.474-0.809,2.096-2.122
			c0.003-0.011,3.947-8.86,5.233-11.757c-0.327-0.217-0.669-0.419-1.018-0.606l-4.306,9.76c0.067,0.915,0.023,1.045-0.036,1.504
			c-0.154,1.212-1.336,2.154-2.279,2.366H17.772L17.772,23.92z M17.833,22.263l0.065-0.532c0.273-1.236,1.17-1.082,1.792-2.295
			c0.003-0.005,0.01-0.019,0.01-0.019c0.019-0.045,3.069-6.588,4.341-9.32c-1.886-0.943-4.01-1.477-6.26-1.477
			c-2.248,0-4.375,0.534-6.262,1.477c1.273,2.732,4.321,9.275,4.346,9.32c0,0,0.006,0.014,0.008,0.019
			c0.62,1.213,1.516,1.059,1.789,2.295l0.066,0.532H17.833z M31.816,22.657c0-4.19-1.847-7.955-4.765-10.531l-5.624,14.289
			c0.375,2.336-0.318,4.207-1.997,4.767c-1.088,0.359-1.148,0.91-1.148,2.539c0,0.088,0-0.123,0,0.194
			c0,1.157,0.088,2.146,0.168,2.761C25.88,36.325,31.816,30.171,31.816,22.657z M8.18,26.801c0,0,0.208,0.442,0.376,0.756
			c0.167,0.312,0.396,0.689,0.396,0.689l-0.37,0.217c0,0-0.282-0.469-0.54-1.01c-0.071,0.036-0.515,0.268-0.588,0.303
			c0.043,0.078,0.498,0.956,0.498,0.956l-0.375,0.215c0,0-0.461-0.896-0.5-0.972c-0.08,0.039-1.038,0.531-1.038,0.531L5.81,28.035
			l2.344-1.223L8.18,26.801z M9.66,29.205l0.327,0.393l-2.05,1.715l-0.332-0.395l2.032-1.695L9.66,29.205z M11.559,31.001
			l0.406,0.291l-0.526,2.826l-0.465-0.269c0,0,0.117-0.576,0.131-0.638c-0.022-0.021-0.294-0.18-0.558-0.36
			c-0.266-0.19-0.526-0.406-0.551-0.42c-0.05,0.023-0.565,0.332-0.565,0.332l-0.397-0.343l2.5-1.401L11.559,31.001z M10.376,32.202
			c0.047,0.04,0.22,0.181,0.401,0.308c0.182,0.126,0.365,0.249,0.419,0.271c0.026-0.117,0.214-1.047,0.252-1.219
			C11.295,31.654,10.483,32.139,10.376,32.202z M13.25,32.041c0,0,0.433,0.218,1.048,0.426c0.418,0.146,0.774,0.26,1.124,0.338
			l-0.123,0.406c0,0-0.332-0.061-0.874-0.227c-0.032,0.089-0.737,2.104-0.737,2.104l-0.482-0.168c0,0,0.703-2.02,0.732-2.104
			c-0.505-0.189-0.856-0.377-0.856-0.377L13.25,32.041z M21.69,32.579c0.175,0.092,0.302,0.257,0.372,0.487
			c0.031,0.098,0.048,0.188,0.048,0.281c0,0.373-0.262,0.666-0.732,0.812c0,0-0.238,0.069-0.309,0.094
			c0.027,0.086,0.309,0.989,0.309,0.989l-0.469,0.122l-0.795-2.573l0.71-0.225C21.178,32.464,21.474,32.466,21.69,32.579z
			 M20.697,33.062c0.023,0.08,0.22,0.709,0.244,0.787c0.098-0.029,0.311-0.104,0.311-0.104c0.07-0.021,0.237-0.088,0.318-0.239
			c0.026-0.05,0.04-0.104,0.04-0.157c0-0.043-0.009-0.094-0.023-0.144c-0.03-0.09-0.086-0.162-0.17-0.205
			c-0.143-0.079-0.337-0.062-0.459-0.021C20.957,32.98,20.763,33.043,20.697,33.062z M23.282,31.457l2.317,1.697l-0.411,0.291
			c0,0-0.466-0.354-0.512-0.389c-0.027,0.014-0.266,0.184-0.524,0.336c-0.243,0.146-0.505,0.271-0.532,0.293
			c0.011,0.062,0.103,0.629,0.103,0.629l-0.443,0.211l-0.389-2.84L23.282,31.457z M23.548,33.256c0.069-0.033,0.25-0.13,0.427-0.236
			c0.16-0.098,0.287-0.178,0.351-0.229c-0.094-0.07-0.817-0.62-0.968-0.736C23.39,32.24,23.53,33.139,23.548,33.256z M25.93,29.119
			l2.021,1.802l-0.363,0.427c0,0-1.895-0.553-2.182-0.63c0.213,0.203,1.388,1.442,1.388,1.442l-0.355,0.32l-1.903-1.938l0.446-0.396
			c0,0,1.828,0.545,2.116,0.619c-0.213-0.203-1.476-1.287-1.476-1.287L25.93,29.119z M26.853,27.773l2.341,1.354l-0.238,0.41
			l-2.353-1.357L26.853,27.773z M27.867,25.527l0.401,0.209l-0.04,0.047c-0.13,0.16-0.189,0.238-0.25,0.418
			c-0.031,0.082-0.068,0.236-0.007,0.355c0.03,0.062,0.084,0.104,0.16,0.131c0.178,0.061,0.333-0.101,0.508-0.273
			c0.247-0.252,0.554-0.562,1.048-0.396c0.502,0.172,0.673,0.621,0.466,1.229c-0.063,0.188-0.179,0.345-0.285,0.489l-0.024,0.031
			l-0.415-0.191l0.041-0.051c0.05-0.062,0.223-0.267,0.288-0.463c0.063-0.181,0.056-0.479-0.212-0.564
			c-0.223-0.077-0.39,0.095-0.585,0.296c-0.238,0.25-0.51,0.53-0.958,0.378c-0.197-0.064-0.345-0.191-0.427-0.355
			c-0.102-0.205-0.104-0.465-0.011-0.733c0.061-0.185,0.161-0.372,0.278-0.521L27.867,25.527z"/>
	</g>
</g>
<g>
	<g>
		<path fill="#FFFFFF" d="M44.557,12.924h12.687v3.585H49.61v4.156h7.308v3.586H49.61v7.632h-5.053V12.924L44.557,12.924z"/>
		<path fill="#FFFFFF" d="M63.952,12.924h6.193l7.308,18.961h-5.542l-1.412-4.047h-7.118l-1.494,4.047h-5.134L63.952,12.924z
			 M67.048,16.836h-0.053l-2.446,7.416h4.755L67.048,16.836z"/>
		<path fill="#FFFFFF" d="M88.232,12.598c6.252,0,9.508,3.722,9.508,9.807c0,6.031-3.313,9.805-9.508,9.805
			c-6.192,0-9.507-3.774-9.507-9.805C78.725,16.32,81.986,12.598,88.232,12.598z M88.232,28.462c3.067,0,4.295-2.935,4.295-6.056
			c0-3.287-1.223-6.058-4.295-6.058c-3.068,0-4.291,2.771-4.291,6.058C83.941,25.527,85.164,28.462,88.232,28.462z"/>
		<path fill="#FFFFFF" d="M100.619,29.468c1.111,0.705,2.416,1.113,4.184,1.113c2.336,0,4.264-1.195,4.264-3.886
			c0-3.72-8.688-4.181-8.688-9.153c0-3.042,2.662-4.944,6.004-4.944c0.927,0,2.418,0.136,3.727,0.625l-0.303,1.712
			c-0.844-0.462-2.174-0.706-3.446-0.706c-1.957,0-4.104,0.815-4.104,3.259c0,3.803,8.692,3.831,8.692,9.372
			c0,3.83-3.289,5.354-6.223,5.354c-1.85,0-3.289-0.379-4.291-0.812L100.619,29.468z"/>
		<path fill="#FFFFFF" d="M120.5,19.498h-3.154v8.964c0,1.25,0.465,2.283,1.848,2.283c0.652,0,1.094-0.138,1.576-0.326l0.107,1.412
			c-0.406,0.162-1.248,0.379-2.092,0.379c-3.041,0-3.148-2.092-3.148-4.619v-8.093h-2.719v-1.467h2.719v-3.342l1.709-0.598v3.939
			h3.154V19.498L120.5,19.498z"/>
		<path fill="#FFFFFF" d="M131.525,29.657h-0.055c-0.764,1.653-2.689,2.553-4.398,2.553c-3.941,0-4.566-2.664-4.566-3.912
			c0-4.644,4.945-4.86,8.529-4.86h0.328v-0.707c0-2.363-0.844-3.559-3.152-3.559c-1.439,0-2.797,0.326-4.074,1.141v-1.657
			c1.062-0.517,2.854-0.95,4.074-0.95c3.424,0,4.863,1.548,4.863,5.161v6.111c0,1.109,0,1.957,0.137,2.902h-1.688L131.525,29.657
			L131.525,29.657z M131.363,24.904h-0.49c-2.961,0-6.492,0.299-6.492,3.339c0,1.821,1.305,2.5,2.879,2.5
			c4.021,0,4.104-3.504,4.104-4.998V24.904L131.363,24.904z"/>
		<path fill="#FFFFFF" d="M143.123,19.498h-3.152v8.964c0,1.25,0.463,2.283,1.848,2.283c0.652,0,1.094-0.138,1.576-0.326
			l0.109,1.412c-0.408,0.162-1.25,0.379-2.094,0.379c-3.043,0-3.15-2.092-3.15-4.619v-8.093h-2.719v-1.467h2.719v-3.342l1.711-0.598
			v3.939h3.152V19.498L143.123,19.498z"/>
	</g>
	<g>
		<path fill="#FFFFFF" d="M44.557,12.924h12.687v3.585H49.61v4.156h7.308v3.586H49.61v7.632h-5.053V12.924L44.557,12.924z"/>
		<path fill="#FFFFFF" d="M63.952,12.924h6.193l7.308,18.961h-5.542l-1.412-4.047h-7.118l-1.494,4.047h-5.134L63.952,12.924z
			 M67.048,16.836h-0.053l-2.446,7.416h4.755L67.048,16.836z"/>
		<path fill="#FFFFFF" d="M88.232,12.598c6.252,0,9.508,3.722,9.508,9.807c0,6.031-3.313,9.805-9.508,9.805
			c-6.192,0-9.507-3.774-9.507-9.805C78.725,16.32,81.986,12.598,88.232,12.598z M88.232,28.462c3.067,0,4.295-2.935,4.295-6.056
			c0-3.287-1.223-6.058-4.295-6.058c-3.068,0-4.291,2.771-4.291,6.058C83.941,25.527,85.164,28.462,88.232,28.462z"/>
		<path fill="#FFFFFF" d="M100.619,29.468c1.111,0.705,2.416,1.113,4.184,1.113c2.336,0,4.264-1.195,4.264-3.886
			c0-3.72-8.688-4.181-8.688-9.153c0-3.042,2.662-4.944,6.004-4.944c0.927,0,2.418,0.136,3.727,0.625l-0.303,1.712
			c-0.844-0.462-2.174-0.706-3.446-0.706c-1.957,0-4.104,0.815-4.104,3.259c0,3.803,8.692,3.831,8.692,9.372
			c0,3.83-3.289,5.354-6.223,5.354c-1.85,0-3.289-0.379-4.291-0.812L100.619,29.468z"/>
		<path fill="#FFFFFF" d="M120.5,19.498h-3.154v8.964c0,1.25,0.465,2.283,1.848,2.283c0.652,0,1.094-0.138,1.576-0.326l0.107,1.412
			c-0.406,0.162-1.248,0.379-2.092,0.379c-3.041,0-3.148-2.092-3.148-4.619v-8.093h-2.719v-1.467h2.719v-3.342l1.709-0.598v3.939
			h3.154V19.498L120.5,19.498z"/>
		<path fill="#FFFFFF" d="M131.525,29.657h-0.055c-0.764,1.653-2.689,2.553-4.398,2.553c-3.941,0-4.566-2.664-4.566-3.912
			c0-4.644,4.945-4.86,8.529-4.86h0.328v-0.707c0-2.363-0.844-3.559-3.152-3.559c-1.439,0-2.797,0.326-4.074,1.141v-1.657
			c1.062-0.517,2.854-0.95,4.074-0.95c3.424,0,4.863,1.548,4.863,5.161v6.111c0,1.109,0,1.957,0.137,2.902h-1.688L131.525,29.657
			L131.525,29.657z M131.363,24.904h-0.49c-2.961,0-6.492,0.299-6.492,3.339c0,1.821,1.305,2.5,2.879,2.5
			c4.021,0,4.104-3.504,4.104-4.998V24.904L131.363,24.904z"/>
		<path fill="#FFFFFF" d="M143.123,19.498h-3.152v8.964c0,1.25,0.463,2.283,1.848,2.283c0.652,0,1.094-0.138,1.576-0.326
			l0.109,1.412c-0.408,0.162-1.25,0.379-2.094,0.379c-3.043,0-3.15-2.092-3.15-4.619v-8.093h-2.719v-1.467h2.719v-3.342l1.711-0.598
			v3.939h3.152V19.498L143.123,19.498z"/>
	</g>
</g>
</svg>
