<?xml version="1.0" encoding="utf-8"?>
<!-- Generator: Adobe Illustrator 19.2.1, SVG Export Plug-In . SVG Version: 6.00 Build 0)  -->
<svg version="1.1" id="Layer_1" xmlns="http://www.w3.org/2000/svg" xmlns:xlink="http://www.w3.org/1999/xlink" x="0px" y="0px"
	 viewBox="0 0 110 20.3" style="enable-background:new 0 0 110 20.3;" xml:space="preserve">
<style type="text/css">
	.st0{fill:#FFFFFF;}
</style>
<g id="Layer_2">
</g>
<g>
	<path class="st0" d="M0.3,0.4H13V4H5.4v4.2h7.3v3.6H5.4v7.6H0.3V0.4L0.3,0.4z"/>
	<path class="st0" d="M19.7,0.4h6.2l7.3,19h-5.5l-1.4-4h-7.1l-1.5,4h-5.1L19.7,0.4z M22.7,4.3L22.7,4.3l-2.5,7.4H25L22.7,4.3z"/>
	<path class="st0" d="M43.9,0.1c6.3,0,9.5,3.7,9.5,9.8c0,6-3.3,9.8-9.5,9.8s-9.5-3.8-9.5-9.8C34.4,3.8,37.7,0.1,43.9,0.1z M43.9,16
		c3.1,0,4.3-2.9,4.3-6.1c0-3.3-1.2-6.1-4.3-6.1s-4.3,2.8-4.3,6.1C39.6,13,40.9,16,43.9,16z"/>
	<g>
		<path class="st0" d="M56.4,16.8c1.1,0.7,2.4,1.1,4.2,1.1c2.3,0,4.2-1.2,4.2-3.9c0-3.7-8.6-4.2-8.6-9.1c0-3,2.6-4.9,6-4.9
			c0.9,0,2.4,0.1,3.7,0.6l-0.3,1.7c-0.8-0.5-2.2-0.7-3.4-0.7c-1.9,0-4.1,0.8-4.1,3.2c0,3.8,8.6,3.8,8.6,9.3c0,3.8-3.3,5.3-6.2,5.3
			c-1.8,0-3.3-0.4-4.3-0.8L56.4,16.8z"/>
		<path class="st0" d="M73.9,2h-5.6V0.4h13V2h-5.6v17.2h-1.9L73.9,2L73.9,2z"/>
		<path class="st0" d="M87.8,0.3h2.1l7.5,18.8h-1.9l-2-5H84l-2,5h-1.8L87.8,0.3z M88.7,2.1l-4.1,10.4h8.2L88.7,2.1z"/>
		<path class="st0" d="M101.7,2h-5.6V0.4h13V2h-5.6v17.2h-1.8V2z"/>
	</g>
</g>
</svg>
