<?xml version="1.0" encoding="utf-8"?>
<!-- Generator: Adobe Illustrator 16.0.0, SVG Export Plug-In . SVG Version: 6.00 Build 0)  -->
<!DOCTYPE svg PUBLIC "-//W3C//DTD SVG 1.1//EN" "http://www.w3.org/Graphics/SVG/1.1/DTD/svg11.dtd">
<svg version="1.1" id="Layer_1" xmlns="http://www.w3.org/2000/svg" xmlns:xlink="http://www.w3.org/1999/xlink" x="0px" y="0px"
	 width="218px" height="50px" viewBox="0 0 218 50" enable-background="new 0 0 218 50" xml:space="preserve">
<g id="Layer_2">
</g>
<g id="Layer_1_1_">
	<g>
		<g>
			<path fill="#AAAAAA" d="M41.436,43.936c-10.217,0-18.531-8.312-18.531-18.528c0-10.217,8.314-18.532,18.531-18.532
				c10.217,0,18.53,8.314,18.53,18.531C59.966,35.623,51.652,43.936,41.436,43.936z M41.365,18.1c0.023,0,1.506,1.586,1.506,2.856
				c0,1.375-1.073,1.704-1.436,1.704c-0.018,0-0.04-0.002-0.062-0.003h-0.015c-0.023,0.001-0.047,0.003-0.062,0.003
				c-0.361,0-1.435-0.328-1.435-1.704C39.86,19.686,41.339,18.1,41.365,18.1z M27.411,26.438h1.691v-3.123h2.84v-1.308h-2.84v-1.735
				h2.933v-1.304h-4.624V26.438z M42.898,18.324h1.782l-2.072-7.47H40.33l-2.147,7.47h1.651l0.475-1.669h2.161L42.898,18.324z
				 M42.156,15.39h-1.554l0.724-3.249h0.119L42.156,15.39z M49.983,22.703c0,2.195,1.018,3.863,3.167,3.863
				c2.155,0,3.183-1.668,3.183-3.863c0-2.195-1.028-3.863-3.183-3.863C51.001,18.84,49.983,20.508,49.983,22.703z M51.786,22.703
				c0-1.434,0.351-2.601,1.365-2.601c1.017,0,1.383,1.167,1.383,2.601s-0.366,2.601-1.383,2.601
				C52.136,25.304,51.786,24.136,51.786,22.703z M40.646,41.869c0.099-0.723,0.197-1.883,0.197-3.242c0-0.372,0-0.126,0-0.229
				c0-1.912-0.07-2.56-1.348-2.982c-1.972-0.652-2.779-2.854-2.346-5.596l-6.598-16.779c-3.432,3.025-5.597,7.446-5.597,12.366
				C24.954,34.23,31.928,41.457,40.646,41.869z M41.428,31.171c-2.625-0.612-3.599-3.004-3.599-5.129l-5.778-14.179
				c-0.376,0.262-0.743,0.54-1.097,0.829c1.271,3.011,6.974,16.544,6.982,16.563c1.009,2.433,2.844,1.626,3.289,3.632
				c0.106,0.487,0.114,0.7,0.114,0.7h0.196c0,0,0.004-0.213,0.114-0.7c0.443-2.006,2.275-1.199,3.285-3.632
				c0.007-0.021,5.709-13.552,6.979-16.563c-0.354-0.289-0.718-0.567-1.097-0.829l-5.774,14.179c0,2.125-0.977,4.517-3.602,5.129
				H41.428z M41.426,26.891c-1.114-0.248-2.501-1.354-2.682-2.778c-0.065-0.54-0.117-0.692-0.038-1.767l-5.062-11.46
				c-0.407,0.219-0.806,0.458-1.195,0.711c1.514,3.401,6.142,13.793,6.145,13.806c0.733,1.542,2.018,1.572,2.462,2.492
				c0.267,0.545,0.291,1.032,0.293,1.071h0.17c0.004-0.039,0.031-0.526,0.294-1.071c0.445-0.92,1.731-0.949,2.461-2.492
				c0.004-0.013,4.634-10.404,6.145-13.806c-0.384-0.254-0.785-0.492-1.195-0.711l-5.056,11.46c0.079,1.075,0.027,1.227-0.043,1.767
				c-0.181,1.423-1.569,2.53-2.676,2.778H41.426z M41.496,24.944l0.077-0.625c0.321-1.452,1.374-1.27,2.104-2.695
				c0.003-0.006,0.012-0.022,0.012-0.022c0.022-0.053,3.604-7.736,5.097-10.945c-2.214-1.107-4.709-1.734-7.351-1.734
				c-2.639,0-5.137,0.627-7.353,1.734c1.495,3.208,5.074,10.892,5.103,10.945c0,0,0.007,0.016,0.01,0.022
				c0.728,1.425,1.78,1.243,2.1,2.695l0.078,0.625H41.496z M57.917,25.407c0-4.92-2.169-9.341-5.595-12.366L45.718,29.82
				c0.439,2.742-0.374,4.941-2.345,5.596c-1.278,0.424-1.348,1.07-1.348,2.982c0,0.104,0-0.144,0,0.229
				c0,1.359,0.104,2.52,0.197,3.242C50.947,41.457,57.917,34.23,57.917,25.407z M30.161,30.273c0,0,0.244,0.519,0.442,0.886
				c0.196,0.366,0.465,0.812,0.465,0.812l-0.434,0.254c0,0-0.331-0.55-0.634-1.186c-0.083,0.042-0.604,0.314-0.69,0.355
				c0.051,0.092,0.584,1.123,0.584,1.123l-0.441,0.252c0,0-0.541-1.052-0.587-1.141c-0.094,0.046-1.218,0.626-1.218,0.626
				l-0.269-0.532l2.752-1.434L30.161,30.273z M31.9,33.096l0.383,0.461l-2.407,2.014l-0.39-0.463l2.386-1.991L31.9,33.096z
				 M34.13,35.205l0.476,0.342l-0.617,3.318l-0.546-0.314c0,0,0.137-0.676,0.153-0.742c-0.026-0.021-0.345-0.211-0.654-0.429
				c-0.312-0.226-0.618-0.478-0.647-0.495c-0.059,0.035-0.664,0.391-0.664,0.391l-0.467-0.397l2.935-1.653L34.13,35.205z
				 M32.74,36.615c0.056,0.047,0.259,0.213,0.471,0.361c0.214,0.149,0.429,0.293,0.492,0.32c0.031-0.138,0.251-1.229,0.296-1.432
				C33.82,35.973,32.866,36.54,32.74,36.615z M36.115,36.427c0,0,0.508,0.255,1.231,0.5c0.492,0.171,0.91,0.304,1.32,0.396
				L38.522,37.8c0,0-0.39-0.069-1.027-0.265c-0.037,0.104-0.865,2.47-0.865,2.47l-0.566-0.196c0,0,0.825-2.369,0.86-2.473
				c-0.594-0.223-1.006-0.441-1.006-0.441L36.115,36.427z M46.026,37.059c0.206,0.107,0.355,0.301,0.437,0.572
				c0.036,0.114,0.056,0.225,0.056,0.331c0,0.438-0.307,0.782-0.86,0.957c0,0-0.279,0.086-0.363,0.11
				c0.032,0.101,0.363,1.162,0.363,1.162l-0.551,0.144l-0.933-3.022l0.834-0.26C45.425,36.923,45.772,36.925,46.026,37.059z
				 M44.86,37.627c0.027,0.094,0.258,0.831,0.286,0.923c0.115-0.034,0.365-0.114,0.365-0.114c0.083-0.024,0.279-0.104,0.374-0.281
				c0.031-0.059,0.046-0.125,0.046-0.191c0-0.052-0.01-0.105-0.027-0.162c-0.035-0.107-0.101-0.191-0.2-0.242
				c-0.168-0.092-0.396-0.067-0.539-0.025C45.165,37.531,44.938,37.604,44.86,37.627z M47.896,35.741l2.72,1.993l-0.482,0.341
				c0,0-0.547-0.415-0.602-0.455c-0.032,0.017-0.312,0.215-0.615,0.394c-0.285,0.174-0.594,0.325-0.625,0.344
				c0.013,0.072,0.121,0.738,0.121,0.738l-0.52,0.248l-0.457-3.335L47.896,35.741z M48.208,37.854
				c0.081-0.039,0.293-0.154,0.502-0.28c0.188-0.113,0.337-0.207,0.412-0.269c-0.11-0.084-0.96-0.729-1.136-0.865
				C48.022,36.66,48.187,37.715,48.208,37.854z M51.005,32.995l2.373,2.116l-0.427,0.5c0,0-2.225-0.648-2.562-0.739
				c0.25,0.239,1.63,1.694,1.63,1.694l-0.417,0.377l-2.235-2.271l0.524-0.471c0,0,2.147,0.641,2.485,0.729
				c-0.25-0.238-1.733-1.512-1.733-1.512L51.005,32.995z M52.089,31.415l2.749,1.594l-0.28,0.482l-2.762-1.599L52.089,31.415z
				 M53.28,28.777l0.471,0.246l-0.047,0.055c-0.153,0.188-0.222,0.281-0.293,0.49c-0.036,0.097-0.08,0.279-0.008,0.418
				c0.035,0.072,0.099,0.125,0.188,0.154c0.209,0.071,0.391-0.111,0.597-0.322c0.29-0.295,0.65-0.659,1.231-0.465
				c0.59,0.201,0.79,0.728,0.547,1.441c-0.074,0.219-0.21,0.404-0.335,0.576l-0.028,0.037l-0.487-0.227l0.048-0.057
				c0.059-0.068,0.262-0.309,0.338-0.544c0.074-0.208,0.066-0.56-0.249-0.665c-0.262-0.091-0.458,0.111-0.688,0.348
				c-0.279,0.293-0.598,0.623-1.124,0.443c-0.231-0.078-0.405-0.227-0.502-0.42c-0.119-0.24-0.122-0.546-0.013-0.865
				c0.071-0.214,0.189-0.438,0.327-0.607L53.28,28.777z"/>
		</g>
		<g>
			<path fill="#AAAAAA" d="M73.423,13.817h15.164v4.286h-9.125v4.968h8.735v4.287h-8.735v9.123h-6.04L73.423,13.817L73.423,13.817z"
				/>
			<path fill="#AAAAAA" d="M96.605,13.817h7.403l8.734,22.666h-6.624l-1.688-4.838h-8.507l-1.786,4.838H88L96.605,13.817z
				 M100.306,18.493h-0.064l-2.923,8.864h5.683L100.306,18.493z"/>
			<path fill="#AAAAAA" d="M125.628,13.427c7.47,0,11.365,4.449,11.365,11.722c0,7.208-3.962,11.722-11.365,11.722
				s-11.364-4.514-11.364-11.722C114.264,17.876,118.161,13.427,125.628,13.427z M125.628,32.391c3.669,0,5.131-3.507,5.131-7.241
				c0-3.929-1.461-7.241-5.131-7.241c-3.669,0-5.13,3.312-5.13,7.241C120.499,28.884,121.959,32.391,125.628,32.391z"/>
			<path fill="#AAAAAA" d="M140.432,33.592c1.33,0.844,2.889,1.331,5,1.331c2.793,0,5.098-1.429,5.098-4.644
				c0-4.448-10.391-5-10.391-10.942c0-3.637,3.182-5.91,7.176-5.91c1.104,0,2.89,0.163,4.447,0.747l-0.357,2.046
				c-1.006-0.552-2.598-0.844-4.123-0.844c-2.338,0-4.903,0.974-4.903,3.896c0,4.546,10.392,4.579,10.392,11.203
				c0,4.578-3.93,6.396-7.437,6.396c-2.208,0-3.929-0.454-5.13-0.975L140.432,33.592z"/>
			<path fill="#AAAAAA" d="M164.193,21.675h-3.767v10.716c0,1.493,0.554,2.729,2.208,2.729c0.779,0,1.299-0.163,1.883-0.391
				l0.129,1.688c-0.486,0.194-1.492,0.454-2.5,0.454c-3.635,0-3.764-2.5-3.764-5.521v-9.676h-3.248v-1.753h3.248v-3.994l2.044-0.715
				v4.708h3.767V21.675L164.193,21.675z"/>
			<path fill="#AAAAAA" d="M177.373,33.818h-0.064c-0.908,1.98-3.215,3.053-5.26,3.053c-4.709,0-5.455-3.184-5.455-4.676
				c0-5.553,5.91-5.812,10.195-5.812h0.391v-0.844c0-2.825-1.008-4.254-3.768-4.254c-1.721,0-3.344,0.39-4.871,1.364v-1.981
				c1.268-0.617,3.41-1.136,4.871-1.136c4.092,0,5.812,1.851,5.812,6.169v7.306c0,1.332,0,2.339,0.162,3.476h-2.015L177.373,33.818
				L177.373,33.818z M177.18,28.137h-0.586c-3.539,0-7.76,0.356-7.76,3.993c0,2.177,1.559,2.988,3.441,2.988
				c4.807,0,4.904-4.188,4.904-5.976V28.137L177.18,28.137z"/>
			<path fill="#AAAAAA" d="M191.236,21.675h-3.769v10.716c0,1.493,0.554,2.729,2.209,2.729c0.779,0,1.3-0.163,1.884-0.391
				l0.129,1.688c-0.486,0.194-1.492,0.454-2.5,0.454c-3.638,0-3.767-2.5-3.767-5.521v-9.676h-3.248v-1.753h3.248v-3.994l2.045-0.715
				v4.708h3.769V21.675L191.236,21.675z"/>
		</g>
	</g>
</g>
</svg>
