<?xml version="1.0" encoding="utf-8"?>
<!-- Generator: Adobe Illustrator 19.2.1, SVG Export Plug-In . SVG Version: 6.00 Build 0)  -->
<svg version="1.1" id="Layer_1" xmlns="http://www.w3.org/2000/svg" xmlns:xlink="http://www.w3.org/1999/xlink" x="0px" y="0px"
	 width="183px" height="50px" style="enable-background:new 0 0 183 50;" xml:space="preserve">
<style type="text/css">
	.st0{fill:#FFFFFF;}
</style>
<g id="Layer_2">
</g>
<g>
	<path class="st0" d="M30.8,38.4c-8.7,0-15.8-7.1-15.8-15.8C15,14,22.1,6.9,30.8,6.9S46.6,14,46.6,22.7S39.5,38.4,30.8,38.4z
		 M30.7,16.4c0,0,1.3,1.4,1.3,2.4c0,1.2-0.9,1.5-1.2,1.5c0,0,0,0-0.1,0l0,0c0,0,0,0-0.1,0c-0.3,0-1.2-0.3-1.2-1.5
		C29.4,17.8,30.7,16.4,30.7,16.4z M18.8,23.5h1.4v-2.7h2.4v-1.1h-2.4v-1.5h2.5v-1.1h-3.9V23.5z M32,16.6h1.5l-1.8-6.4h-1.9L28,16.6
		h1.4l0.4-1.4h1.8L32,16.6z M31.4,14.1h-1.3l0.6-2.8h0.1L31.4,14.1z M38.1,20.4c0,1.9,0.9,3.3,2.7,3.3s2.7-1.4,2.7-3.3
		s-0.9-3.3-2.7-3.3C38.9,17.1,38.1,18.5,38.1,20.4z M39.6,20.4c0-1.2,0.3-2.2,1.2-2.2s1.2,1,1.2,2.2s-0.3,2.2-1.2,2.2
		C39.9,22.6,39.6,21.6,39.6,20.4z M30.1,36.7c0.1-0.6,0.2-1.6,0.2-2.8c0-0.3,0-0.1,0-0.2c0-1.6-0.1-2.2-1.1-2.5
		c-1.7-0.6-2.4-2.4-2-4.8l-5.6-14.3c-2.9,2.6-4.8,6.3-4.8,10.5C16.7,30.2,22.7,36.3,30.1,36.7z M30.8,27.6c-2.2-0.5-3.1-2.6-3.1-4.4
		l-4.9-12.1c-0.3,0.2-0.6,0.5-0.9,0.7c1.1,2.6,5.9,14.1,5.9,14.1c0.9,2.1,2.4,1.4,2.8,3.1c0.1,0.4,0.1,0.6,0.1,0.6h0.2
		c0,0,0-0.2,0.1-0.6c0.4-1.7,1.9-1,2.8-3.1c0,0,4.9-11.5,5.9-14.1c-0.3-0.2-0.6-0.5-0.9-0.7l-4.9,12.1C33.9,25,33,27,30.8,27.6
		L30.8,27.6L30.8,27.6z M30.8,23.9c-0.9-0.2-2.1-1.2-2.3-2.4c-0.1-0.5-0.1-0.6,0-1.5l-4.3-9.8c-0.3,0.2-0.7,0.4-1,0.6
		c1.3,2.9,5.2,11.7,5.2,11.8c0.6,1.3,1.7,1.3,2.1,2.1c0.2,0.5,0.2,0.9,0.2,0.9h0.1c0,0,0-0.4,0.2-0.9c0.4-0.8,1.5-0.8,2.1-2.1
		c0,0,3.9-8.9,5.2-11.8c-0.3-0.2-0.7-0.4-1-0.6L33.1,20c0.1,0.9,0,1,0,1.5C32.9,22.8,31.7,23.7,30.8,23.9L30.8,23.9L30.8,23.9z
		 M30.8,22.3l0.1-0.5c0.3-1.2,1.2-1.1,1.8-2.3l0,0c0,0,3.1-6.6,4.3-9.3c-1.9-0.9-4-1.5-6.3-1.5c-2.2,0-4.4,0.5-6.3,1.5
		c1.3,2.7,4.3,9.3,4.3,9.3l0,0c0.6,1.2,1.5,1.1,1.8,2.3l0.1,0.5H30.8z M44.8,22.7c0-4.2-1.8-8-4.8-10.5l-5.6,14.3
		c0.4,2.3-0.3,4.2-2,4.8c-1.1,0.4-1.1,0.9-1.1,2.5c0,0.1,0-0.1,0,0.2c0,1.2,0.1,2.1,0.2,2.8C38.9,36.3,44.8,30.2,44.8,22.7z
		 M21.2,26.8c0,0,0.2,0.4,0.4,0.8c0.2,0.3,0.4,0.7,0.4,0.7l-0.4,0.2c0,0-0.3-0.5-0.5-1c-0.1,0-0.5,0.3-0.6,0.3c0,0.1,0.5,1,0.5,1
		L20.6,29c0,0-0.5-0.9-0.5-1c-0.1,0-1,0.5-1,0.5L18.8,28L21.2,26.8L21.2,26.8z M22.7,29.2l0.3,0.4l-2,1.7l-0.3-0.4L22.7,29.2
		L22.7,29.2z M24.6,31l0.4,0.3l-0.5,2.8L24,33.8l0.1-0.6c0,0-0.3-0.2-0.6-0.4c-0.3-0.2-0.5-0.4-0.6-0.4l-0.6,0.3L22,32.4L24.6,31
		L24.6,31z M23.4,32.2c0,0,0.2,0.2,0.4,0.3c0.2,0.1,0.4,0.2,0.4,0.3c0-0.1,0.2-1,0.3-1.2C24.3,31.7,23.5,32.1,23.4,32.2z M26.2,32
		c0,0,0.4,0.2,1,0.4c0.4,0.1,0.8,0.3,1.1,0.3l-0.1,0.4c0,0-0.3-0.1-0.9-0.2c0,0.1-0.7,2.1-0.7,2.1l-0.5-0.2c0,0,0.7-2,0.7-2.1
		c-0.5-0.2-0.9-0.4-0.9-0.4L26.2,32z M34.7,32.6c0.2,0.1,0.3,0.3,0.4,0.5c0,0.1,0,0.2,0,0.3c0,0.4-0.3,0.7-0.7,0.8
		c0,0-0.2,0.1-0.3,0.1c0,0.1,0.3,1,0.3,1l-0.5,0.1l-0.8-2.6l0.7-0.2C34.2,32.5,34.5,32.5,34.7,32.6z M33.7,33.1
		c0,0.1,0.2,0.7,0.2,0.8c0.1,0,0.3-0.1,0.3-0.1c0.1,0,0.2-0.1,0.3-0.2c0,0,0-0.1,0-0.2v-0.1c0-0.1-0.1-0.2-0.2-0.2
		C34.2,33,34,33,33.7,33.1C34,33,33.8,33,33.7,33.1z M36.3,31.5l2.3,1.7l-0.4,0.3l-0.5-0.4c0,0-0.3,0.2-0.5,0.3s-0.5,0.3-0.5,0.3
		c0,0.1,0.1,0.6,0.1,0.6l-0.4,0.2L36,31.7L36.3,31.5z M36.5,33.3c0.1,0,0.2-0.1,0.4-0.2c0.2-0.1,0.3-0.2,0.4-0.2
		c-0.1-0.1-0.8-0.6-1-0.7C36.4,32.2,36.5,33.1,36.5,33.3z M38.9,29.1l2,1.8l-0.4,0.4c0,0-1.9-0.6-2.2-0.6c0.2,0.2,1.4,1.4,1.4,1.4
		l-0.4,0.3l-1.9-1.9l0.4-0.4c0,0,1.8,0.5,2.1,0.6c-0.2-0.2-1.5-1.3-1.5-1.3L38.9,29.1z M39.9,27.8l2.3,1.4L42,29.5l-2.4-1.4
		L39.9,27.8z M40.9,25.5l0.4,0.2l0,0C41.1,25.9,41,26,41,26.2c0,0.1-0.1,0.2,0,0.4c0,0.1,0.1,0.1,0.2,0.1c0.2,0.1,0.3-0.1,0.5-0.3
		c0.2-0.3,0.6-0.6,1-0.4c0.5,0.2,0.7,0.6,0.5,1.2c-0.1,0.2-0.2,0.3-0.3,0.5l0,0l-0.4-0.2v-0.1c0-0.1,0.2-0.3,0.3-0.5
		s0.1-0.5-0.2-0.6c-0.2-0.1-0.4,0.1-0.6,0.3c-0.2,0.2-0.5,0.5-1,0.4c-0.2-0.1-0.3-0.2-0.4-0.4c-0.1-0.2-0.1-0.5,0-0.7
		C40.6,25.9,40.7,25.7,40.9,25.5L40.9,25.5z"/>
</g>
<g>
	<path class="st0" d="M57.6,12.9h12.7v3.6h-7.6v4.2H70v3.6h-7.3v7.6h-5.1L57.6,12.9L57.6,12.9z"/>
	<path class="st0" d="M77,12.9h6.2l7.3,19H85l-1.4-4h-7.1l-1.5,4h-5.1L77,12.9z M80,16.8L80,16.8l-2.5,7.4h4.8L80,16.8z"/>
	<path class="st0" d="M101.2,12.6c6.3,0,9.5,3.7,9.5,9.8c0,6-3.3,9.8-9.5,9.8s-9.5-3.8-9.5-9.8C91.7,16.3,95,12.6,101.2,12.6z
		 M101.2,28.5c3.1,0,4.3-2.9,4.3-6.1c0-3.3-1.2-6.1-4.3-6.1c-3.1,0-4.3,2.8-4.3,6.1C96.9,25.5,98.2,28.5,101.2,28.5z"/>
	<g>
		<path class="st0" d="M113.7,29.3c1.1,0.7,2.4,1.1,4.2,1.1c2.3,0,4.2-1.2,4.2-3.9c0-3.7-8.6-4.2-8.6-9.1c0-3,2.6-4.9,6-4.9
			c0.9,0,2.4,0.1,3.7,0.6l-0.3,1.7c-0.8-0.5-2.2-0.7-3.4-0.7c-1.9,0-4.1,0.8-4.1,3.2c0,3.8,8.6,3.8,8.6,9.3c0,3.8-3.3,5.3-6.2,5.3
			c-1.8,0-3.3-0.4-4.3-0.8L113.7,29.3z"/>
		<path class="st0" d="M131.2,14.5h-5.6v-1.6h13v1.6H133v17.2h-1.9L131.2,14.5L131.2,14.5z"/>
		<path class="st0" d="M145.1,12.8h2.1l7.5,18.8h-1.9l-2-5h-9.5l-2,5h-1.8L145.1,12.8z M146,14.6L141.9,25h8.2L146,14.6z"/>
		<path class="st0" d="M159,14.5h-5.6v-1.6h13v1.6h-5.6v17.2H159V14.5z"/>
	</g>
</g>
</svg>
