<?xml version="1.0" encoding="utf-8"?>
<!-- Generator: Adobe Illustrator 16.0.0, SVG Export Plug-In . SVG Version: 6.00 Build 0)  -->
<!DOCTYPE svg PUBLIC "-//W3C//DTD SVG 1.1//EN" "http://www.w3.org/Graphics/SVG/1.1/DTD/svg11.dtd">
<svg version="1.1" id="Layer_2" xmlns="http://www.w3.org/2000/svg" xmlns:xlink="http://www.w3.org/1999/xlink" x="0px" y="0px"
	 width="320px" height="96px" viewBox="0 0 320 96" enable-background="new 0 0 320 96" xml:space="preserve">
<circle fill="#E0E0E0" cx="176" cy="48" r="8"/>
<circle fill="#E0E0E0" cx="208" cy="48" r="8"/>
<circle fill="#E0E0E0" cx="240" cy="48" r="8"/>
<polygon fill="#848484" points="267,23 266,23 266,10 273,10 273,12 280,12 280,15 279,15 279,13 272,13 272,11 267,11 "/>
<path fill="#848484" d="M280.205,22.996h-14.109l4.09-8.18h14.109L280.205,22.996z M267.701,22.004h11.891l3.098-6.195h-11.891
	L267.701,22.004z"/>
<path fill="#848484" d="M240,24.496c-4.685,0-8.496-3.812-8.496-8.496s3.812-8.496,8.496-8.496s8.496,3.812,8.496,8.496
	S244.685,24.496,240,24.496z M240,8.496c-4.138,0-7.504,3.366-7.504,7.504s3.366,7.504,7.504,7.504s7.504-3.366,7.504-7.504
	S244.138,8.496,240,8.496z"/>
<path fill="#848484" d="M208,24.496c-4.685,0-8.496-3.812-8.496-8.496s3.812-8.496,8.496-8.496s8.496,3.812,8.496,8.496
	S212.685,24.496,208,24.496z M208,8.496c-4.138,0-7.504,3.366-7.504,7.504s3.366,7.504,7.504,7.504s7.504-3.366,7.504-7.504
	S212.138,8.496,208,8.496z"/>
<path fill="#848484" d="M208,20.33c-2.388,0-4.33-1.942-4.33-4.33s1.942-4.33,4.33-4.33s4.33,1.942,4.33,4.33
	S210.388,20.33,208,20.33z M208,12.663c-1.841,0-3.338,1.497-3.338,3.337s1.497,3.337,3.338,3.337s3.338-1.497,3.338-3.337
	S209.841,12.663,208,12.663z"/>
<path fill="#848484" d="M176,24.496c-4.685,0-8.496-3.812-8.496-8.496s3.812-8.496,8.496-8.496s8.496,3.812,8.496,8.496
	S180.685,24.496,176,24.496z M176,8.496c-4.138,0-7.504,3.366-7.504,7.504s3.366,7.504,7.504,7.504s7.504-3.366,7.504-7.504
	S180.138,8.496,176,8.496z"/>
<polygon fill="#848484" points="14.069,20.413 13.368,19.712 16.892,16.188 13.368,12.663 14.069,11.962 18.295,16.188 "/>
<polygon fill="#848484" points="48,18.639 43.774,14.413 44.476,13.712 48,17.236 51.524,13.712 52.226,14.413 "/>
<polygon fill="#848484" points="239.383,18.99 235.899,15.507 236.601,14.806 239.367,17.572 243.392,13.375 244.108,14.062 "/>
<path fill="#848484" d="M240,56.496c-4.685,0-8.496-3.812-8.496-8.496s3.812-8.496,8.496-8.496s8.496,3.812,8.496,8.496
	S244.685,56.496,240,56.496z M240,40.496c-4.138,0-7.504,3.366-7.504,7.504s3.366,7.504,7.504,7.504s7.504-3.366,7.504-7.504
	S244.138,40.496,240,40.496z"/>
<path fill="#848484" d="M208,56.496c-4.685,0-8.496-3.812-8.496-8.496s3.812-8.496,8.496-8.496s8.496,3.812,8.496,8.496
	S212.685,56.496,208,56.496z M208,40.496c-4.138,0-7.504,3.366-7.504,7.504s3.366,7.504,7.504,7.504s7.504-3.366,7.504-7.504
	S212.138,40.496,208,40.496z"/>
<path fill="#848484" d="M208,52.33c-2.388,0-4.33-1.942-4.33-4.33c0-2.387,1.942-4.33,4.33-4.33s4.33,1.942,4.33,4.33
	C212.33,50.388,210.388,52.33,208,52.33z M208,44.663c-1.841,0-3.338,1.497-3.338,3.337c0,1.841,1.497,3.338,3.338,3.338
	s3.338-1.497,3.338-3.338C211.338,46.16,209.841,44.663,208,44.663z"/>
<path fill="#848484" d="M176,56.496c-4.685,0-8.496-3.812-8.496-8.496s3.812-8.496,8.496-8.496s8.496,3.812,8.496,8.496
	S180.685,56.496,176,56.496z M176,40.496c-4.138,0-7.504,3.366-7.504,7.504s3.366,7.504,7.504,7.504s7.504-3.366,7.504-7.504
	S180.138,40.496,176,40.496z"/>
<polygon fill="#848484" points="239.383,50.99 235.899,47.507 236.601,46.806 239.367,49.572 243.392,45.375 244.108,46.062 "/>
</svg>
