<?xml version="1.0" encoding="utf-8"?>
<!-- Generator: Adobe Illustrator 16.0.0, SVG Export Plug-In . SVG Version: 6.00 Build 0)  -->
<!DOCTYPE svg PUBLIC "-//W3C//DTD SVG 1.1//EN" "http://www.w3.org/Graphics/SVG/1.1/DTD/svg11.dtd">
<svg version="1.1" id="Layer_1" xmlns="http://www.w3.org/2000/svg" xmlns:xlink="http://www.w3.org/1999/xlink" x="0px" y="0px"
	 width="512px" height="512px" viewBox="0 0 512 512" enable-background="new 0 0 512 512" xml:space="preserve">
<path fill="#666666" d="M361.5,190.56c-7.766,3.442-16.105,5.77-24.863,6.816c8.938-5.357,15.803-13.84,19.034-23.95
	c-8.364,4.961-17.631,8.563-27.489,10.505c-7.896-8.414-19.147-13.67-31.599-13.67c-23.907,0-43.29,19.381-43.29,43.288
	c0,3.393,0.383,6.697,1.121,9.865c-35.979-1.806-67.875-19.04-89.227-45.23c-3.727,6.394-5.86,13.83-5.86,21.763
	c0,15.019,7.642,28.27,19.257,36.032c-7.097-0.225-13.771-2.172-19.606-5.415c-0.005,0.181-0.005,0.362-0.005,0.544
	c0,20.974,14.922,38.47,34.727,42.449c-3.633,0.987-7.458,1.52-11.406,1.52c-2.79,0-5.501-0.271-8.146-0.777
	c5.509,17.197,21.496,29.716,40.439,30.063c-14.815,11.61-33.481,18.53-53.764,18.53c-3.493,0-6.939-0.204-10.326-0.605
	c19.155,12.282,41.912,19.45,66.357,19.45c79.625,0,123.167-65.966,123.167-123.169c0-1.877-0.043-3.744-0.127-5.601
	C348.357,206.864,355.697,199.24,361.5,190.56L361.5,190.56z"/>
</svg>
