<?xml version="1.0" encoding="utf-8"?>
<!-- Generator: Adobe Illustrator 16.0.0, SVG Export Plug-In . SVG Version: 6.00 Build 0)  -->
<!DOCTYPE svg PUBLIC "-//W3C//DTD SVG 1.1//EN" "http://www.w3.org/Graphics/SVG/1.1/DTD/svg11.dtd">
<svg version="1.1" id="Layer_1" xmlns="http://www.w3.org/2000/svg" xmlns:xlink="http://www.w3.org/1999/xlink" x="0px" y="0px"
	 width="222.554px" height="108.473px" viewBox="0 0 222.554 108.473" enable-background="new 0 0 222.554 108.473"
	 xml:space="preserve">
<g>
	<path fill="#2F87B8" d="M0.151,3.105v-2.52c1.015,0.02,1.63,0.04,1.846,0.059c2.402,0.274,5.556,0.41,9.463,0.41
		c0.586,0,1.777-0.059,3.574-0.176c1.289-0.098,2.256-0.195,2.9-0.293h2.139c0.039,1.426,0.059,2.227,0.059,2.402
		c-1.953,0.254-3.096,0.42-3.428,0.498c-0.86,0.234-1.494,0.547-1.904,0.938c-0.215,0.215-0.322,0.469-0.322,0.762
		c0,0.215,0.019,0.43,0.059,0.645l0.967,2.549c0.684,1.992,1.816,4.698,3.398,8.115l3.34,7.559c0.645,1.465,1.23,2.852,1.758,4.16
		l1.699-4.16l3.486-9.668l0.82-2.051c0.098-0.293,0.224-0.703,0.381-1.23c0.508-1.738,0.933-3.057,1.274-3.955
		c0.341-0.898,0.513-1.63,0.513-2.197c0-0.371-0.186-0.693-0.557-0.967c-0.567-0.429-1.494-0.703-2.783-0.82
		c-0.274-0.078-0.635-0.142-1.084-0.19c-0.45-0.048-0.85-0.112-1.201-0.19C26.43,2.393,26.372,2.1,26.372,1.904
		c0-0.253,0.039-0.703,0.117-1.348c0.352,0,1.357,0.078,3.018,0.234c1.66,0.157,3.281,0.234,4.863,0.234
		c1.621,0,3.007-0.073,4.16-0.22c1.152-0.146,2.09-0.229,2.812-0.249v0.938c0,0.234-0.01,0.586-0.029,1.055
		c-2.52,0.918-3.995,1.543-4.424,1.875c-0.274,0.195-0.538,0.518-0.791,0.967c-0.743,1.309-1.875,3.955-3.398,7.939l-3.75,9.697
		c-0.352,0.938-0.737,1.929-1.157,2.974c-0.42,1.045-0.864,2.193-1.333,3.442c-0.098,0.293-0.557,1.465-1.377,3.516l-0.293,0.527
		c-0.86,2.754-1.504,4.658-1.934,5.713c-0.773,0.039-1.257,0.059-1.451,0.059c-0.368,0-0.88-0.02-1.538-0.059
		c-0.215-0.586-0.43-1.182-0.645-1.787c-0.215-0.605-1.045-2.725-2.491-6.357l-5.54-12.422l-3.312-7.998
		c-1.7-3.633-2.629-5.576-2.786-5.83C4.76,4.317,4.388,3.965,3.976,3.75C3.563,3.535,2.71,3.369,1.416,3.252L0.151,3.105z"/>
	<path fill="#2F87B8" d="M41.782,19.365c0-2.421,0.468-4.853,1.405-7.295c0.683-1.758,1.639-3.369,2.869-4.834
		c1.23-1.465,2.772-2.769,4.626-3.911s3.747-1.963,5.679-2.461c1.933-0.498,4.089-0.747,6.471-0.747
		c4.06,0,7.583,0.762,10.569,2.285c2.986,1.523,5.338,3.584,7.056,6.182c2.225,3.379,3.337,6.924,3.337,10.635
		c0,5.527-1.879,10.264-5.636,14.209c-3.758,3.945-8.983,5.918-15.678,5.918c-1.659,0-3.211-0.107-4.654-0.322
		c-1.093-0.156-2.05-0.371-2.87-0.645c-1.483-0.488-2.313-0.771-2.488-0.85c-2.127-1.211-3.835-2.451-5.124-3.721
		c-1.289-1.27-2.381-2.705-3.279-4.307c-0.488-0.898-1.044-2.52-1.669-4.863C41.986,23.135,41.782,21.377,41.782,19.365z
		 M61.72,3.018c-1.697,0-3.199,0.396-4.506,1.187c-1.307,0.791-2.292,1.666-2.955,2.622c-1.112,1.622-1.902,3.394-2.37,5.317
		c-0.468,1.924-0.702,4.263-0.702,7.017c0,1.68,0.068,2.881,0.205,3.604c0.039,0.234,0.098,0.635,0.176,1.201
		c0.175,1.446,0.38,2.5,0.614,3.164c0.839,2.48,1.434,4.014,1.785,4.6c0.585,0.996,1.454,1.982,2.604,2.959
		c0.585,0.508,1.434,0.972,2.545,1.392c1.112,0.42,2.224,0.63,3.336,0.63c2.106,0,4.062-0.493,5.866-1.479
		c1.805-0.986,3.253-2.661,4.345-5.024c1.092-2.363,1.639-5.439,1.639-9.229c0-1.562-0.107-3.681-0.322-6.357l-0.146-0.557
		c-0.059-0.156-0.156-0.557-0.292-1.201c-0.722-3.203-2.102-5.644-4.141-7.324C67.362,3.857,64.801,3.018,61.72,3.018z"/>
	<path fill="#2F87B8" d="M89.038,38.818v-2.109c0.388-0.117,1.029-0.283,1.922-0.498c1.261-0.312,2.203-0.634,2.824-0.967
		c0.352-0.605,0.527-1.445,0.527-2.52l-0.029-3.457l0.059-6.68l-0.029-1.582c0.156-3.867,0.234-5.859,0.234-5.977l-0.059-3.896
		l0.088-1.582l-0.146-3.34l-0.059-1.26c-0.02-0.195-0.088-0.508-0.205-0.938c-0.801-0.371-2.1-0.605-3.896-0.703
		c-0.43-0.019-0.772-0.048-1.025-0.088l-0.059-2.578l8.376,0.352c1.035,0.04,1.679,0.059,1.933,0.059
		c1.152,0,2.997-0.078,5.536-0.234c1.425-0.098,2.323-0.156,2.694-0.176c0.023,0.371,0.035,0.684,0.035,0.938
		c0,0.333-0.024,0.762-0.07,1.289c-0.78,0.274-1.672,0.532-2.675,0.776c-1.003,0.245-1.827,0.494-2.47,0.747
		c-0.117,0.508-0.175,1.241-0.175,2.197c0,0.84,0.029,1.523,0.087,2.051c-0.059,3.301-0.087,5.84-0.087,7.617l0.029,7.734
		l-0.146,3.926l0.117,5.859l-0.088,1.113c0,0.157,0.058,0.381,0.175,0.674c1.185,0.254,2.262,0.43,3.234,0.527
		c0.175,0.02,0.767,0.098,1.777,0.234c0.078,0.586,0.117,1.074,0.117,1.465c0,0.215-0.01,0.547-0.029,0.996
		c-0.253,0-0.449,0.01-0.585,0.029c-0.625,0.04-0.985,0.059-1.082,0.059c-0.137,0-0.391-0.029-0.761-0.088
		c-0.273-0.039-1.57-0.176-3.89-0.41l-5.177-0.059c-1.034,0-2.536,0.098-4.505,0.293C90.266,38.73,89.428,38.799,89.038,38.818z"/>
	<path fill="#2F87B8" d="M146.4,1.494c0.254,0.586,0.771,2.256,1.553,5.01c0.352,1.25,0.537,2.578,0.557,3.984h-2.666
		c-1.875-2.656-3.809-4.565-5.801-5.728c-1.992-1.162-4.219-1.743-6.68-1.743c-3.027,0-5.468,1.182-7.323,3.545
		c-2.52,3.204-3.779,7.666-3.779,13.389c0,3.321,0.215,5.684,0.645,7.09c0.703,2.285,1.592,4.15,2.666,5.596
		c0.82,1.094,1.894,1.963,3.223,2.607c1.718,0.879,3.554,1.318,5.507,1.318c2.148,0,4.224-0.667,6.226-2s3.921-3.323,5.757-5.97
		c0.723-0.136,1.67-0.214,2.842-0.233c-0.078,0.74-0.205,1.508-0.381,2.306c-0.059,0.312-0.283,1.548-0.674,3.708l-0.264,0.876
		l-0.41,1.372c-1.191,0.918-2.866,1.607-5.024,2.065s-4.81,0.688-7.954,0.688c-2.402,0-4.673-0.225-6.812-0.674
		s-3.969-1.162-5.492-2.139c-2.227-1.406-3.975-2.93-5.244-4.57c-1.271-1.641-2.213-3.428-2.828-5.361s-0.922-4.102-0.922-6.504
		c0-5.82,1.918-10.625,5.756-14.414c3.838-3.789,8.735-5.684,14.692-5.684c2.422,0,4.702,0.122,6.841,0.366
		C142.548,0.64,144.545,1.006,146.4,1.494z"/>
	<path fill="#2F87B8" d="M152.23,0.879c1.113,0.059,2.08,0.146,2.9,0.264c1.543,0.215,3.33,0.322,5.361,0.322
		c0.703,0,2.51-0.059,5.42-0.176c4.355-0.176,8.291-0.264,11.807-0.264l5.303-0.059c1.191,0,2.949,0.146,5.273,0.439
		c0.352,0.391,0.527,0.918,0.527,1.582v6.035l0.059,1.201c0,0.117-0.01,0.293-0.029,0.527l-1.201,0.059
		c-0.156,0-0.488-0.019-0.996-0.059c-0.176-0.391-0.41-0.967-0.703-1.729l-1.172-2.08c-0.449-0.879-1.074-1.777-1.875-2.695
		c-0.488-0.136-1.113-0.215-1.875-0.234c-0.195-0.019-0.791-0.068-1.787-0.146c-1.816-0.156-3.77-0.234-5.859-0.234
		c-2.383,0-4.512,0.04-6.387,0.117c-0.059,0.488-0.088,2.413-0.088,5.771l0.029,4.922v3.691c0.489,0.059,0.91,0.088,1.263,0.088
		c3.504,0,5.999-0.068,7.486-0.205c1.488-0.136,2.407-0.327,2.76-0.571c0.353-0.244,0.666-0.669,0.94-1.274
		c0.176-0.429,0.519-1.865,1.027-4.307l0.381-0.029l1.699,0.029c0.078,1.739,0.117,3.057,0.117,3.955
		c0,2.051-0.015,3.369-0.044,3.955s-0.044,1.045-0.044,1.377c0,0.527,0.029,1.373,0.088,2.534c0.059,1.162,0.088,2.026,0.088,2.593
		v0.645h-2.08c-0.079-0.312-0.226-0.957-0.44-1.934c-0.392-1.816-0.744-2.949-1.057-3.398c-0.235-0.352-0.627-0.615-1.175-0.791
		c-0.392-0.136-1.84-0.205-4.345-0.205c-2.956,0-5.178,0.078-6.665,0.234c0,0.508,0,0.84,0,0.996c0,2.325,0.039,4.258,0.117,5.801
		l-0.059,6.328c0,0.743,0.264,1.25,0.791,1.523c0.801,0.41,3.252,0.615,7.354,0.615c2.715,0,5.02-0.205,6.914-0.615
		c1.309-0.293,2.461-0.947,3.457-1.963c1.328-1.308,2.432-3.145,3.311-5.508c0.605-0.059,1.104-0.088,1.494-0.088
		c0.215,0,0.537,0.01,0.967,0.029c-0.058,0.488-0.105,0.898-0.145,1.23l-0.173,0.879l-1.067,5.537l-0.52,3.34
		c-1.271,0.059-2.277,0.088-3.02,0.088c-1.096,0-4.018-0.098-8.767-0.293c-3.343-0.136-7.37-0.205-12.08-0.205
		c-2.346,0-5.229,0.098-8.649,0.293h-1.231l-3.548,0.117v-2.021c0.371-0.098,1.113-0.205,2.227-0.322
		c2.031-0.234,3.438-0.546,4.219-0.938c0.215-0.566,0.322-1.279,0.322-2.139c0-0.332-0.01-0.898-0.029-1.699l0.029-0.908
		l-0.088-11.045l0.029-3.311l-0.146-4.688l0.029-3.311l-0.264-3.633c0-0.098-0.02-0.293-0.059-0.586
		c-0.195-0.215-0.488-0.352-0.879-0.41c-0.215-0.039-0.508-0.098-0.879-0.176c-1.113-0.234-2.188-0.371-3.223-0.41
		c-0.371-0.019-0.801-0.059-1.289-0.117L152.23,0.879z"/>
	<path fill="#2F87B8" d="M218.295,1.729c0.195,0.664,0.371,1.67,0.527,3.018c0.234,2.012,0.352,3.574,0.352,4.688
		c0,0.352-0.039,0.732-0.117,1.143l-0.293,0.088l-2.109-0.146l-0.352-0.059c-0.859-2.578-1.719-4.326-2.578-5.244
		c-1.484-1.562-3.232-2.344-5.244-2.344c-1.914,0-3.433,0.503-4.556,1.51s-1.685,2.253-1.685,3.738c0,1.251,0.556,2.453,1.668,3.607
		c1.093,1.153,3.418,2.255,6.975,3.307c1.192,0.351,2.633,0.915,4.323,1.693c1.69,0.779,2.976,1.627,3.854,2.545
		c1.171,1.211,1.976,2.378,2.414,3.502c0.439,1.123,0.659,2.525,0.659,4.205c0,1.837-0.342,3.644-1.025,5.422
		c-0.371,0.938-0.967,1.827-1.787,2.667c-0.586,0.586-1.494,1.275-2.725,2.066s-2.505,1.363-3.823,1.714
		c-1.318,0.351-3.013,0.527-5.083,0.527c-1.367,0-2.998-0.195-4.893-0.586l-3.516-1.025c-0.977-0.273-1.592-0.517-1.846-0.732
		c-0.098-0.078-0.186-0.264-0.264-0.557v-0.322c0-0.215-0.049-1.553-0.146-4.014c-0.039-1.27-0.059-2.168-0.059-2.695V28.33
		l2.725-0.059c0.936,2.176,1.54,3.489,1.813,3.939c0.604,1,1.271,1.809,2.003,2.426c0.731,0.618,1.604,1.107,2.618,1.47
		c1.014,0.363,2.115,0.544,3.305,0.544c1.053,0,2.213-0.225,3.48-0.675c1.268-0.449,2.286-1.188,3.057-2.215
		c0.77-1.026,1.155-2.126,1.155-3.3c0-1.447-0.674-2.786-2.021-4.019c-0.82-0.763-3.027-1.779-6.621-3.051
		c-3.594-1.271-6.084-2.405-7.471-3.401s-2.48-2.33-3.281-4.001s-1.201-3.278-1.201-4.822c0-3.106,1.113-5.744,3.34-7.913
		S205.375,0,209.711,0c0.938,0,2.324,0.166,4.16,0.498C214.984,0.693,216.459,1.104,218.295,1.729z"/>
</g>
<g>
	<path fill="#2F87B8" d="M0,107.58c0-0.482,0.049-1.053,0.146-1.712l3.046-0.531c0.373-0.08,0.82-0.209,1.34-0.386l0.316-6.029
		c-0.064-2.171-0.097-3.795-0.097-4.873l0.024-0.578c0.048-0.659,0.073-2.315,0.073-4.969l-0.064-0.699l0.064-2.026L4.8,83.678
		v-1.037c0-0.933-0.069-2.025-0.206-3.28c-0.016-0.112-0.077-0.306-0.183-0.579c-0.13-0.048-0.272-0.08-0.427-0.096
		c-0.154-0.017-0.313-0.04-0.475-0.072C2.875,78.5,2.201,78.42,1.486,78.372L1.12,78.275c-0.438-0.049-0.771-0.112-0.999-0.193
		c-0.049-0.466-0.073-0.764-0.073-0.893c0-0.192,0.048-0.458,0.146-0.796c0.322-0.063,0.773-0.096,1.353-0.096
		c0.58,0,0.982-0.009,1.208-0.024c1.964,0.209,3.422,0.321,4.372,0.338c0.435,0,0.874,0.011,1.316,0.035s0.833,0.037,1.172,0.037
		c0.531,0,1.827-0.081,3.889-0.241c0.338-0.081,0.708-0.121,1.11-0.121c0.596,0,1.096,0.032,1.498,0.097
		c0.016,0.338,0.024,0.579,0.024,0.724c0,0.257-0.032,0.571-0.097,0.94l-4.267,0.676c-0.339,0.16-0.509,0.394-0.509,0.699
		l0.054,0.893l0.018,0.386l-0.016,1.062l-0.032,0.82v0.192c0.032,0.177,0.048,0.33,0.048,0.458l-0.048,3.063
		c0.032,0.289,0.048,0.507,0.048,0.651c0,0.08-0.011,0.338-0.032,0.771c-0.011,0.258-0.016,0.522-0.016,0.796
		c0,0.241,0.016,0.812,0.048,1.713c0.45,0.08,0.827,0.129,1.132,0.145l3.564,0.072h1.734l4.335,0.024l4.215-0.121
		c0.545,0,1.124-0.056,1.734-0.169c0.032-0.546,0.056-1.889,0.072-4.027l0.048-1.086l-0.145-4.1l-0.169-1.688
		c-0.048-0.112-0.161-0.217-0.338-0.313c-0.563-0.322-1.688-0.684-3.376-1.086c-0.306-0.063-0.595-0.145-0.868-0.241
		c0.032-0.562,0.096-1.021,0.193-1.374c0.353-0.017,0.57-0.024,0.65-0.024l2.336,0.024c1.493,0.192,3.01,0.289,4.552,0.289
		c0.353,0,0.634-0.008,0.842-0.024l3.131-0.097c0.289-0.016,0.57-0.031,0.843-0.048c0.578-0.129,1.172-0.193,1.783-0.193
		c0.465,0,1.027,0.024,1.686,0.073c-0.016,0.627-0.057,1.197-0.121,1.712c-1.471,0.306-2.435,0.526-2.891,0.663
		c-0.456,0.136-0.916,0.326-1.379,0.567l-0.145,0.482v0.41l0.024,0.627l-0.032,0.313c-0.043,0.338-0.064,0.595-0.064,0.771v0.604
		c0.032,0.724,0.048,1.125,0.048,1.206v3.062l0.024,2.315l-0.064,3.063c-0.022,0.707,0.007,2.154,0.088,4.342v3.425l0.048,2.846
		c0,0.53-0.016,1.174-0.048,1.93c0.335,0.097,0.647,0.177,0.935,0.241c1.503,0.321,2.639,0.651,3.406,0.989l0.072,1.688
		c-0.642,0.017-1.02,0.024-1.131,0.024c-0.771,0-1.654-0.048-2.649-0.145c-1.317-0.145-3.436-0.217-6.358-0.217
		c-1.317,0-3.019,0.104-5.106,0.313c-0.225,0-0.498-0.049-0.819-0.145c0.016-0.74,0.056-1.263,0.121-1.568l1.857-0.434l1.954-0.313
		c0.193-0.049,0.442-0.121,0.748-0.218c0.177-1.302,0.273-3.465,0.29-6.488l0.024-2.05c-0.096-0.853-0.145-1.873-0.145-3.063
		c-0.594-0.048-1.236-0.08-1.927-0.096l-11.175-0.121l-0.217-0.024l-0.168-0.023c-0.112,0-0.241,0.008-0.385,0.023
		c-0.418,0.017-0.771,0.024-1.06,0.024h-0.674c-0.305,0-0.65,0.057-1.036,0.169l-0.121,1.809v0.313
		c0.032,0.435,0.048,0.716,0.048,0.845v7.477c0,0.418,0.024,0.845,0.072,1.278l0.218,0.146l3.563,0.555
		c0.178,0.063,0.315,0.104,0.412,0.12c0.21,0.048,0.388,0.121,0.533,0.217c0.048,0.37,0.073,0.619,0.073,0.748
		c0,0.209-0.032,0.498-0.097,0.868c-0.58,0.017-1.071,0.024-1.474,0.024c-0.354,0-0.685-0.008-0.99-0.024
		c-0.145,0-0.282-0.008-0.411-0.024l-3.406-0.145c-0.805-0.08-1.933-0.12-3.382-0.12l-0.507,0.023
		c-0.676,0.032-1.071,0.057-1.184,0.073C3.688,107.516,2.126,107.58,0,107.58z"/>
	<path fill="#2F87B8" d="M42.088,78.468l-0.072-1.905c0.29-0.016,0.587-0.023,0.894-0.023c0.805,0,1.65,0.023,2.536,0.072
		c2.125,0.112,3.374,0.169,3.744,0.169c1.288,0,2.548-0.026,3.78-0.076c1.232-0.052,2.327-0.083,3.285-0.098
		s1.606-0.029,1.945-0.044l-0.024,0.286l0.048,1.404v0.191c-0.901,0.128-1.833,0.192-2.798,0.192c-0.901,0-1.496,0.177-1.785,0.531
		c-0.193,0.225-0.29,1.182-0.29,2.87c0,0.515,0.008,0.933,0.024,1.254L53.4,84.16l-0.048,2.268l0.145,1.93L53.4,92.529l0.313,6.055
		c0.081,1.752,0.466,3.208,1.158,4.365c0.515,0.853,1.238,1.52,2.171,2.002c1.351,0.676,2.677,1.013,3.979,1.013
		c1.543,0,2.982-0.2,4.317-0.603c0.788-0.226,1.532-0.592,2.231-1.099c0.7-0.506,1.186-0.968,1.459-1.386
		c0.579-0.885,0.98-1.713,1.206-2.484c0.305-1.062,0.458-2.709,0.458-4.944c0-3.892-0.209-8.273-0.627-13.146l-0.097-1.278
		c-0.048-0.948-0.226-1.583-0.531-1.905c-0.515-0.498-1.094-0.747-1.736-0.747l-2.267,0.048l-0.314-0.072l0.048-1.857h1.906
		l4.606,0.217c1.544,0,3.015-0.072,4.414-0.217l0.41,0.049c0.096,0.53,0.145,0.9,0.145,1.109c0,0.177-0.033,0.394-0.097,0.651
		c-0.595,0.163-1.222,0.259-1.881,0.289c-1.077,0.145-1.672,0.266-1.785,0.361c-0.226,0.193-0.337,0.491-0.337,0.894
		c0,0.29,0.024,0.708,0.072,1.255c0.048,0.402,0.072,1.104,0.072,2.101c0,0.563,0.003,1.006,0.012,1.328
		c0.008,0.321,0.02,0.65,0.036,0.988c0.048,1.159,0.088,2.334,0.121,3.524l0.241,4.9c0,3.283-0.113,5.479-0.338,6.591
		c-0.226,1.11-0.531,1.987-0.917,2.63c-0.595,0.967-1.439,1.856-2.533,2.668c-1.094,0.812-2.46,1.457-4.1,1.932
		c-1.64,0.474-3.554,0.712-5.74,0.712c-2.493,0-4.631-0.334-6.416-1.002c-1.785-0.666-3.132-1.543-4.04-2.629
		c-0.908-1.085-1.531-2.495-1.869-4.232c-0.241-1.189-0.362-2.894-0.362-5.113V83.991c0-2.717-0.129-4.253-0.386-4.606
		c-0.354-0.498-1.456-0.78-3.305-0.844C42.699,78.541,42.362,78.517,42.088,78.468z"/>
	<path fill="#2F87B8" d="M78.991,78.348l-0.096-1.688h2.05l0.7-0.024c0.965-0.048,1.632-0.072,2.002-0.072
		c0.193,0,0.756,0.017,1.688,0.049c0.208,0.016,0.386,0.023,0.53,0.023c0.145,0,0.651-0.016,1.52-0.048
		c0.869-0.032,1.359-0.048,1.471-0.048c0.177,0,0.426,0.008,0.748,0.023c2.476,2.251,4.494,4.189,6.054,5.813
		s7.251,7.308,17.076,17.052v-0.603l-0.096-2.798c-0.049-1.641-0.113-2.939-0.193-3.896c-0.08-0.956-0.128-2.099-0.145-3.425
		s-0.072-2.527-0.169-3.605c-0.193-2.106-0.29-3.32-0.29-3.642c-0.016-1.045-0.128-1.681-0.337-1.905
		c-0.338-0.354-1.109-0.619-2.315-0.796c-0.885-0.145-1.544-0.33-1.978-0.555l0.024-1.423l0.627-0.073l4.751-0.145l5.306-0.145
		c0.354-0.016,0.691-0.024,1.014-0.024l0.023,1.568c-0.369,0.192-0.747,0.338-1.133,0.434c-1.029,0.241-1.624,0.41-1.785,0.507
		c-0.82,0.466-1.262,0.748-1.326,0.844c-0.145,0.193-0.217,0.491-0.217,0.893c0,0.097,0.016,0.435,0.048,1.014
		c0.017,0.289,0.024,0.965,0.024,2.025c0.016,2.332,0.08,4.173,0.192,5.523c0.032,0.435,0.057,0.925,0.072,1.472l0.266,8.466
		c0.017,0.595,0.024,1.013,0.024,1.254v2.967l0.072,1.254l-0.072,1.303c0.064,0.659,0.096,1.053,0.096,1.182v1.278l-2.773,0.097
		l-2.87-2.967l-5.861-5.812l-4.101-4.101l-3.015-3.087c-1.962-1.93-3.747-3.626-5.354-5.09l-3.932-3.545l0.217,8.973
		c0.016,0.546,0.024,1.109,0.024,1.688l-0.024,1.713l0.145,3.159c0.048,1.319,0.136,2.75,0.266,4.294
		c0.032,0.418,0.072,0.711,0.12,0.879c0.048,0.169,0.145,0.415,0.29,0.737c0.627,0.225,1.994,0.394,4.101,0.506
		c0.145,0.032,0.353,0.089,0.627,0.169l0.096,1.954l-0.94,0.023c-0.515,0-2.139-0.12-4.872-0.361
		c-2.557,0.032-4.261,0.08-5.113,0.145c-0.853,0.064-1.318,0.097-1.399,0.097c-0.193,0-0.458-0.032-0.796-0.097
		c-0.033-0.37-0.048-0.691-0.048-0.965c0-0.177,0.008-0.466,0.024-0.868c0.45-0.08,0.82-0.121,1.11-0.121
		c0.096,0,0.41,0.017,0.94,0.049c1.351,0,2.15-0.101,2.4-0.303c0.25-0.2,0.39-0.742,0.422-1.627
		c0.112-2.557,0.168-4.116,0.168-4.679v-1.327l0.048-7.839l-0.072-4.896c-0.016-1.865-0.137-3.16-0.362-3.884
		c-0.097-0.37-0.281-0.691-0.555-0.965c-0.563-0.579-1.19-1.013-1.881-1.303C81.829,78.846,80.743,78.621,78.991,78.348z"/>
	<path fill="#2F87B8" d="M151.614,78.468c0.112,0.467,0.241,1.387,0.386,2.762c0.145,1.374,0.217,2.376,0.217,3.003
		c0,0.241-0.056,0.539-0.168,0.893c-0.691-0.016-1.278-0.08-1.761-0.192c-1.223-1.882-2.083-3.063-2.581-3.546
		c-0.933-0.9-2.131-1.664-3.594-2.291c-1.077-0.467-2.315-0.7-3.715-0.7c-2.685,0-5.049,1.205-7.091,3.615
		c-2.042,2.409-3.063,5.992-3.063,10.747c0,2.233,0.398,4.403,1.194,6.507c0.796,2.104,1.99,3.756,3.582,4.952
		s3.465,1.796,5.619,1.796c1.046,0,2.155-0.137,3.329-0.408c0.595-0.129,1.077-0.385,1.447-0.769
		c0.257-0.256,0.426-0.641,0.506-1.153c0.129-0.929,0.193-2.25,0.193-3.962c0-1.666-0.024-2.811-0.072-3.435
		c-0.113-0.24-0.222-0.396-0.326-0.468s-0.43-0.188-0.977-0.35l-2.146-0.575c-0.467-0.112-0.756-0.249-0.868-0.41
		c-0.032-0.209-0.049-0.361-0.049-0.458c0-0.226,0.057-0.539,0.169-0.94c0.29-0.097,0.49-0.146,0.604-0.146
		c1.752,0,3.271,0.059,4.559,0.174c0.45,0.029,0.94,0.044,1.471,0.044l3.812-0.049l1.615-0.048c0.193-0.017,0.732,0,1.616,0.048
		c0.017,0.418,0.024,0.772,0.024,1.062c0,0.177-0.057,0.378-0.169,0.603c-0.273,0.164-0.739,0.368-1.399,0.614
		c-0.659,0.246-1.028,0.409-1.109,0.491c-0.128,0.128-0.217,0.329-0.265,0.603c-0.049,0.272-0.072,1.228-0.072,2.865
		c0,1.895-0.009,3.026-0.024,3.395c-0.064,1.188-0.097,1.863-0.097,2.022c0,0.596-0.08,0.964-0.241,1.108
		c-0.45,0.45-1.845,0.96-4.185,1.529s-5.062,0.855-8.164,0.855c-2.171,0-4.057-0.174-5.656-0.52s-2.963-0.855-4.088-1.531
		c-1.512-0.9-2.806-1.993-3.884-3.28c-1.077-1.286-1.881-2.677-2.412-4.172c-0.739-2.123-1.109-4.237-1.109-6.344
		c0-2.363,0.547-4.76,1.641-7.188c0.804-1.753,1.934-3.333,3.389-4.74s3.276-2.527,5.463-3.364c2.187-0.836,4.566-1.254,7.14-1.254
		c0.321,0,0.844,0.04,1.567,0.121c1.962,0,3.795,0.244,5.499,0.734C149.074,77.21,150.488,77.793,151.614,78.468z"/>
	<path fill="#2F87B8" d="M158.464,106.182c0.418-0.226,1.037-0.391,1.857-0.495s1.56-0.277,2.219-0.519
		c0.081-0.321,0.129-0.555,0.146-0.699c0.031-0.225,0.048-0.997,0.048-2.315l-0.024-5.379l0.097-2.894l-0.048-2.243l0.048-1.303
		c0.048-1.753,0.072-3.393,0.072-4.921c0-3.344-0.04-5.482-0.12-6.415l-1.424-0.29c-1.302-0.08-2.17-0.16-2.604-0.241l-0.048-1.446
		l0.096-0.266c0.805-0.129,1.544-0.193,2.22-0.193c0.369,0,1.117-0.008,2.243-0.023c1.157,0.096,1.784,0.145,1.881,0.145
		l1.278-0.072l3.015-0.146c1.882-0.192,3.867-0.289,5.958-0.289c3.296,0,5.917,0.84,7.862,2.52c1.946,1.681,2.919,3.606,2.919,5.777
		c0,1.624-0.525,3.099-1.574,4.426c-1.05,1.326-2.664,2.328-4.844,3.003c0.191,0.338,0.448,0.732,0.769,1.183
		c0.674,0.964,1.218,1.784,1.634,2.46l3.847,6.247c0.965,1.656,1.596,2.625,1.894,2.905c0.297,0.281,0.912,0.592,1.845,0.93
		c0.724,0.273,1.278,0.546,1.664,0.819c0.097,0.273,0.146,0.515,0.146,0.724c0,0.145-0.009,0.33-0.024,0.555h-0.651l-0.482,0.024
		l-1.254-0.169h-0.989c-0.515-0.08-1.149-0.12-1.905-0.12l-2.412-0.024c-0.177,0-0.739,0.057-1.688,0.169
		c-0.434,0.048-0.779,0.088-1.037,0.12l-0.819-1.592c-0.676-1.206-1.15-2.106-1.424-2.701c-0.707-1.56-1.921-4.044-3.642-7.453
		c-0.804-1.575-1.367-2.468-1.688-2.677c-0.482-0.338-1.311-0.507-2.484-0.507c-0.321,0-0.868,0.017-1.64,0.049
		c-0.049,0.466-0.072,1.021-0.072,1.664l0.12,5.354l-0.145,4.534c0.45,0.273,1.037,0.482,1.761,0.627
		c1.254,0.258,2.331,0.562,3.231,0.917c0,0.788-0.032,1.383-0.096,1.784c-0.306-0.016-0.499-0.023-0.579-0.023l-0.989,0.048
		c-3.457-0.306-5.507-0.458-6.15-0.458c-0.418,0-0.716,0.008-0.893,0.023l-3.328,0.218c-1.013,0.112-1.938,0.169-2.773,0.169h-1.037
		c-0.032-0.402-0.049-0.659-0.049-0.772C158.392,106.752,158.416,106.503,158.464,106.182z M169.318,90.576
		c0.771,0.032,1.334,0.048,1.688,0.048c2.734,0,4.672-0.49,5.813-1.471c1.142-0.981,1.712-2.292,1.712-3.932
		c0-1.013-0.141-1.967-0.421-2.859c-0.28-0.892-0.63-1.555-1.046-1.988c-0.594-0.628-1.372-1.102-2.333-1.424
		c-0.706-0.241-1.838-0.361-3.393-0.361c-0.737,0-1.371,0.04-1.9,0.12l-0.048,0.459l0.048,3.256l-0.072,1.978l0.024,2.629
		c-0.032,0.74-0.057,1.696-0.072,2.87V90.576z"/>
	<path fill="#2F87B8" d="M188.203,76.611c0.435-0.129,1.439-0.193,3.016-0.193l0.24,0.048c0.402,0.064,0.684,0.097,0.845,0.097
		l0.241-0.023c0.241,0.031,0.9,0.088,1.978,0.168c1.994,0.146,3.578,0.218,4.752,0.218c1.286,0,2.548-0.089,3.786-0.266
		c0.177-0.032,0.306-0.048,0.387-0.048l0.192,0.023c0.08,0.209,0.121,0.37,0.121,0.482l-0.024,1.255
		c-0.37,0.145-0.812,0.257-1.326,0.337l-1.086,0.193c-0.402,0.08-0.94,0.169-1.616,0.266l-0.145,0.096l-0.048,0.314
		c0.53,1.142,1.656,2.917,3.376,5.328c0.45,0.772,0.901,1.495,1.352,2.171c0.128,0.178,0.587,0.925,1.374,2.243
		c0.082,0.145,0.17,0.289,0.267,0.435c0.145,0.225,0.289,0.441,0.434,0.65c0.273,0.402,0.45,0.668,0.531,0.796
		c0.321,0.515,0.595,0.909,0.82,1.183l2.508-3.521c0.82-1.062,1.89-2.604,3.208-4.631l0.097-0.12l2.05-3.642
		c0.321-0.466,0.481-0.812,0.481-1.037c0-0.08-0.023-0.217-0.072-0.41c-0.241-0.16-0.442-0.257-0.603-0.289
		c-0.064-0.032-0.402-0.064-1.014-0.097c-0.337-0.064-0.659-0.12-0.965-0.169c-0.305-0.048-0.555-0.096-0.747-0.145
		c-0.032-0.209-0.08-0.804-0.145-1.784l4.944,0.265c0.145,0.017,0.346,0.049,0.603,0.097h1.158l0.41-0.024
		c0.515-0.08,1.182-0.145,2.002-0.192c0.241-0.017,0.474-0.04,0.699-0.072l-0.024,1.809l-0.313,0.097
		c-1.351,0.225-2.275,0.522-2.773,0.893c-0.724,0.546-1.696,1.865-2.919,3.955l-3.135,4.703c-1.882,2.557-3.096,4.302-3.643,5.234
		c-0.145,0.225-0.266,0.507-0.361,0.844v0.748l-0.024,2.099v0.578c-0.048,0.418-0.072,0.853-0.072,1.303l0.097,6.175
		c0.063,0.129,0.152,0.217,0.265,0.266c0.226,0.063,0.74,0.145,1.544,0.241c1.544,0.16,2.404,0.297,2.581,0.409
		c0.128,0.081,0.192,0.241,0.192,0.482c0,0.146-0.016,0.338-0.048,0.579c0,0.145-0.008,0.37-0.024,0.676l-2.773-0.049l-2.581-0.217
		l-1.784-0.121l-2.678,0.097h-2.002c-0.225-0.016-0.587,0.017-1.085,0.097c-0.805,0.129-1.407,0.193-1.81,0.193l-1.664-0.024
		c-0.016-0.338-0.024-0.595-0.024-0.771s0.009-0.442,0.024-0.796l4.438-0.917c0.192-0.064,0.378-0.145,0.555-0.241
		c0.016-0.739,0.023-1.198,0.023-1.375c0-2.46-0.016-4.137-0.048-5.029s-0.048-1.41-0.048-1.555v-0.555
		c0-1.014-0.531-2.179-1.593-3.498c-0.45-0.562-0.731-0.933-0.844-1.109l-4.728-7.188l-2.219-3.569
		c-0.08-0.129-0.579-0.788-1.495-1.978c-0.29-0.258-0.571-0.435-0.845-0.531c-0.16-0.064-0.893-0.233-2.194-0.506
		c-0.081-0.146-0.121-0.273-0.121-0.387c0-0.096,0.008-0.221,0.024-0.374C188.171,77.145,188.188,76.916,188.203,76.611z"/>
</g>
<g>
	<path fill="#2F87B8" d="M90.174,54.655c0.509,0.493,0.888,1.059,1.139,1.697c0.25,0.639,0.375,1.24,0.375,1.805
		c0,1.063-0.163,1.921-0.489,2.572c-0.493,0.984-1.156,1.711-1.991,2.18c-0.835,0.468-1.804,0.702-2.909,0.702
		c-1.24,0-2.292-0.278-3.153-0.834c-0.863-0.555-1.479-1.187-1.849-1.894c-0.369-0.706-0.554-1.584-0.554-2.632
		c0-0.531,0.088-1.066,0.262-1.602c0.175-0.536,0.416-1.002,0.722-1.399c0.306-0.397,0.642-0.73,1.007-1
		c0.533-0.381,1.066-0.653,1.603-0.816c0.537-0.163,1.187-0.244,1.95-0.244C87.948,53.19,89.244,53.679,90.174,54.655z
		 M83.661,58.771c0.072,0.986,0.123,1.555,0.155,1.706c0.103,0.532,0.266,0.989,0.488,1.371c0.15,0.246,0.4,0.465,0.75,0.655
		c0.35,0.191,0.767,0.287,1.251,0.287c0.579,0,1.067-0.186,1.464-0.555c0.397-0.37,0.683-0.948,0.858-1.735
		c0.111-0.517,0.167-1.363,0.167-2.54c0-1.447-0.238-2.471-0.714-3.071c-0.477-0.6-1.104-0.9-1.882-0.9
		c-0.612,0-1.118,0.171-1.519,0.513c-0.401,0.342-0.681,0.847-0.839,1.515C83.736,56.445,83.677,57.364,83.661,58.771z"/>
	<path fill="#2F87B8" d="M93.212,63.338L93.2,62.671c0.127-0.064,0.411-0.157,0.852-0.28s0.685-0.212,0.732-0.269
		c0.087-0.087,0.131-0.209,0.131-0.368v-0.263c0.031-0.737,0.047-1.151,0.047-1.238c0-0.071-0.004-0.171-0.012-0.298l-0.012-0.144
		l0.012-0.154v-0.106l-0.071-2.049l-0.012-2.287l-0.024-0.226c-0.143,0-0.353-0.008-0.631-0.023h-0.751
		c-0.047-0.006-0.115-0.019-0.202-0.039c-0.008-0.216-0.012-0.388-0.012-0.517c0-0.224,0.055-0.405,0.167-0.541
		c0.238,0,0.707-0.028,1.405-0.083c0.024-0.945,0.177-1.832,0.458-2.662c0.282-0.83,0.637-1.495,1.066-1.994l0.309-0.346
		c0.524-0.445,1.007-0.756,1.447-0.935c0.441-0.179,0.963-0.268,1.566-0.268c0.587,0,1.074,0.095,1.459,0.286
		c0.385,0.19,0.651,0.435,0.797,0.732c0.147,0.297,0.221,0.573,0.221,0.828c0,0.318-0.131,0.609-0.393,0.875
		c-0.263,0.267-0.552,0.399-0.869,0.399c-0.238,0-0.473-0.08-0.704-0.238c-0.159-0.119-0.351-0.367-0.577-0.745
		c-0.226-0.376-0.403-0.617-0.53-0.72c-0.127-0.095-0.293-0.143-0.5-0.143c-0.246,0-0.461,0.096-0.643,0.286
		c-0.183,0.19-0.31,0.464-0.382,0.822c-0.071,0.356-0.107,1.071-0.107,2.143l-0.012,1.311l0.012,0.345l0.225,0.012l1.409-0.035
		c0.071,0,0.181,0.011,0.332,0.035c0.111,0.095,0.167,0.175,0.167,0.238l-0.024,0.226v0.322c0,0.047-0.012,0.139-0.036,0.273
		c-0.071,0.04-0.154,0.06-0.25,0.06h-0.106l-0.902,0.023c-0.15,0-0.265-0.007-0.344-0.023h-0.107c-0.08,0-0.198,0.018-0.356,0.053
		l-0.008,0.583c0,0.056,0.003,0.143,0.008,0.262c0.011,0.453,0.017,0.762,0.017,0.929l-0.009,1.749l0.02,1.273l-0.011,1.024
		c-0.017,0.722,0.054,1.158,0.212,1.31c0.229,0.229,0.706,0.384,1.433,0.463c0.134,0.008,0.256,0.036,0.366,0.084
		c0.032,0.19,0.048,0.313,0.048,0.369c0,0.088-0.016,0.21-0.048,0.369h-0.855c-0.072,0-0.535-0.028-1.391-0.083l-0.642-0.049
		c-0.618,0-1.098,0.016-1.438,0.044C94.967,63.295,94.321,63.315,93.212,63.338z"/>
	<path fill="#2F87B8" d="M110.528,54.306c0.937-0.396,1.614-0.785,2.031-1.166c0.416-0.38,0.863-0.999,1.34-1.855h0.666
		c0.071,0.207,0.107,0.424,0.107,0.655c0,0.413-0.004,0.734-0.012,0.965l-0.036,0.703c0,0.04,0.004,0.131,0.012,0.274l0.274,0.012
		c0.039,0,0.412-0.016,1.119-0.047c0.056,0,0.354-0.008,0.893-0.024c0.049,0.212,0.072,0.401,0.072,0.566
		c0,0.181-0.027,0.393-0.083,0.637c-0.263,0.047-0.461,0.071-0.596,0.071c-0.063,0-0.19-0.016-0.382-0.047h-0.619l-0.215-0.012
		l-0.57,0.036l-0.024,4.55c-0.008,0.881,0.01,1.432,0.054,1.649c0.043,0.219,0.137,0.427,0.279,0.625
		c0.184,0.088,0.386,0.131,0.607,0.131c0.215,0,0.374-0.02,0.477-0.06c0.104-0.039,0.277-0.154,0.523-0.345
		c0.049-0.039,0.124-0.095,0.228-0.166c0.19,0.15,0.345,0.301,0.464,0.451l0.048,0.143c-0.278,0.437-0.669,0.78-1.173,1.031
		c-0.504,0.249-1.042,0.375-1.614,0.375c-0.737,0-1.337-0.234-1.798-0.702s-0.691-1.193-0.691-2.177l0.048-2.093v-3.39l-0.369-0.023
		l-0.858,0.023l-0.155-0.059c-0.047-0.071-0.071-0.137-0.071-0.201C110.504,54.79,110.512,54.612,110.528,54.306z"/>
	<path fill="#2F87B8" d="M117.9,62.587c0.127-0.031,0.479-0.079,1.06-0.143c0.254-0.032,0.412-0.087,0.477-0.167
		c0.078-0.119,0.119-0.4,0.119-0.846v-0.846l0.035-0.894v-0.976l0.012-0.238l-0.012-0.596l0.024-0.202l0.048-4.323v-0.333
		c0-1.477-0.04-2.39-0.119-2.739c-0.048-0.207-0.161-0.37-0.34-0.489s-0.598-0.229-1.256-0.333v-0.25
		c0-0.119,0.008-0.266,0.023-0.44l1.002-0.215c0.199-0.055,0.391-0.103,0.574-0.143c0.445-0.096,1.007-0.293,1.684-0.596
		c0.119-0.071,0.23-0.131,0.334-0.179l0.646,0.048l-0.024,7.122c0.721-0.572,1.379-0.977,1.974-1.214
		c0.594-0.238,1.213-0.357,1.854-0.357c0.61,0,1.14,0.109,1.587,0.328c0.448,0.218,0.795,0.488,1.041,0.81
		c0.245,0.322,0.42,0.713,0.523,1.173c0.07,0.31,0.106,0.904,0.106,1.786v0.763l0.013,1.679l-0.061,2.43
		c0.031,0.071,0.068,0.119,0.107,0.143c0.096,0.04,0.329,0.096,0.703,0.167c0.214,0.04,0.381,0.075,0.5,0.107
		c0.063,0.118,0.096,0.213,0.096,0.283l-0.012,0.095c-0.017,0.087-0.024,0.217-0.024,0.39l-0.273,0.018
		c-0.119,0-0.354-0.016-0.703-0.047c-0.667-0.063-1.228-0.096-1.68-0.096c-0.294,0-0.687,0.017-1.179,0.048
		c-0.35,0.017-0.794,0.024-1.334,0.024c-0.088,0-0.166-0.013-0.238-0.036v-0.286l-0.023-0.154c0-0.063,0.02-0.151,0.06-0.263
		c0.183-0.087,0.394-0.145,0.637-0.172c0.242-0.028,0.471-0.059,0.685-0.09c0.032-0.15,0.053-0.245,0.06-0.286l0.06-1.738v-2.918
		c0-0.865-0.047-1.451-0.143-1.756c-0.096-0.306-0.294-0.557-0.596-0.751c-0.302-0.194-0.666-0.292-1.096-0.292
		c-0.5,0-0.986,0.117-1.459,0.351c-0.473,0.235-0.875,0.51-1.209,0.829v2.084c0,1.143-0.01,2.001-0.028,2.572
		c-0.013,0.342-0.019,0.556-0.019,0.643c0,0.549,0.035,0.926,0.106,1.132c0.032,0.095,0.119,0.183,0.263,0.262
		c0.293,0.024,0.537,0.038,0.732,0.042c0.193,0.004,0.352,0.021,0.471,0.054c0.016,0.195,0.023,0.333,0.023,0.41
		c0,0.11-0.017,0.243-0.048,0.399l-1.324-0.054c-0.502-0.035-0.952-0.054-1.349-0.054l-1.672,0.083l-1.169-0.011
		c-0.079-0.111-0.163-0.31-0.25-0.596V62.587z"/>
	<path fill="#2F87B8" d="M131.942,57.018c0.206-0.676,0.388-1.124,0.547-1.347c0.444-0.652,0.919-1.161,1.424-1.527
		c0.504-0.366,0.958-0.608,1.363-0.727c0.523-0.15,0.948-0.227,1.273-0.227c0.747,0,1.351,0.058,1.812,0.172
		c0.46,0.115,0.844,0.28,1.154,0.494c0.444,0.309,0.802,0.623,1.072,0.939c0.27,0.318,0.489,0.69,0.661,1.119
		c0.171,0.429,0.264,0.948,0.279,1.559l-1.322-0.022c-0.365,0-1.167-0.034-2.405-0.104c-0.46-0.039-0.778-0.06-0.953-0.06
		c-0.055,0-0.484,0.008-1.286,0.024h-1.024c-0.016,0.111-0.023,0.207-0.023,0.286c0,0.422,0.052,0.866,0.155,1.332
		s0.258,0.875,0.464,1.229c0.207,0.354,0.463,0.659,0.769,0.913c0.306,0.255,0.621,0.438,0.946,0.55l0.691,0.227
		c0.611,0,1.02-0.02,1.227-0.06c0.38-0.079,0.716-0.181,1.007-0.303c0.289-0.124,0.641-0.332,1.054-0.626
		c0.285,0.206,0.523,0.393,0.715,0.56c-0.699,0.77-1.424,1.328-2.174,1.673c-0.75,0.346-1.59,0.519-2.52,0.519
		c-0.626,0-1.139-0.056-1.536-0.167c-0.531-0.143-1.012-0.361-1.44-0.655s-0.799-0.66-1.107-1.098
		c-0.31-0.437-0.54-0.886-0.691-1.347c-0.198-0.604-0.298-1.089-0.298-1.455C131.774,58.198,131.831,57.574,131.942,57.018z
		 M138.86,56.513c-0.007-0.445-0.095-0.873-0.262-1.279c-0.167-0.407-0.425-0.724-0.773-0.952c-0.35-0.227-0.703-0.341-1.061-0.341
		c-0.532,0-1.012,0.234-1.441,0.703c-0.429,0.468-0.67,1.104-0.727,1.905l2.716,0.023c0.174,0,0.421-0.011,0.738-0.035
		c0.23-0.021,0.394-0.032,0.489-0.032C138.609,56.505,138.718,56.508,138.86,56.513z"/>
</g>
<line fill="none" stroke="#2F87B8" stroke-miterlimit="10" x1="75.554" y1="60.01" x2="0.554" y2="60.01"/>
<line fill="none" stroke="#2F87B8" stroke-miterlimit="10" x1="222.554" y1="60.01" x2="147.554" y2="60.01"/>
</svg>
