<?xml version="1.0" encoding="utf-8"?>
<!-- Generator: Adobe Illustrator 16.0.0, SVG Export Plug-In . SVG Version: 6.00 Build 0)  -->
<!DOCTYPE svg PUBLIC "-//W3C//DTD SVG 1.1//EN" "http://www.w3.org/Graphics/SVG/1.1/DTD/svg11.dtd">
<svg version="1.1" id="Layer_2" xmlns="http://www.w3.org/2000/svg" xmlns:xlink="http://www.w3.org/1999/xlink" x="0px" y="0px"
	 width="1024px" height="1024px" viewBox="0 0 1024 1024" enable-background="new 0 0 1024 1024" xml:space="preserve">
<path fill="#808184" d="M965.26,237.955L603.809,33.928c-49.141-27.766-133.725-27.827-183.019,0L59.339,237.955
	c-27.645,15.626-42.842,37.491-42.842,61.587c0,24.158,15.229,45.992,42.842,61.587L420.79,565.188
	c24.616,13.914,57.123,21.56,91.494,21.56c34.463,0,66.908-7.646,91.524-21.56L965.26,361.13
	c27.705-15.595,42.873-37.429,42.873-61.587C1008.133,275.446,992.873,253.612,965.26,237.955z M948.809,332.018L587.357,536.076
	c-38.775,21.864-111.402,21.864-150.116,0L75.791,332.018c-16.421-9.296-25.809-21.13-25.809-32.476
	c0-11.314,9.388-23.118,25.809-32.476L437.242,63.04c19.387-10.948,46.695-17.217,75.012-17.217s55.686,6.3,75.073,17.217
	l361.451,204.027c16.36,9.296,25.81,21.161,25.81,32.476C974.648,310.888,965.229,322.722,948.809,332.018z"/>
<path fill="#808184" d="M965.26,452.074c-8.012-4.556-18.225-1.743-22.812,6.33c-4.586,8.042-1.682,18.256,6.361,22.843
	c16.359,9.266,25.84,21.1,25.84,32.414s-9.48,23.18-25.84,32.415L587.357,750.164c-40.641,22.935-109.414,22.935-150.116,0
	L75.791,546.076c-16.421-9.235-25.809-21.101-25.809-32.415s9.388-23.148,25.809-32.414c8.042-4.587,10.886-14.801,6.36-22.843
	c-4.587-8.073-14.862-10.917-22.843-6.33c-27.644,15.596-42.842,37.46-42.842,61.587c0,24.128,15.198,46.022,42.842,61.618
	l361.451,204.027c25.656,14.464,58.59,21.742,91.494,21.742c32.934,0,65.899-7.217,91.525-21.742l361.451-204.027
	c27.675-15.596,42.873-37.49,42.873-61.618C1008.103,489.534,992.873,467.669,965.26,452.074z"/>
<path fill="#808184" d="M965.26,662.033c-8.012-4.556-18.225-1.742-22.812,6.33c-4.586,8.043-1.682,18.257,6.361,22.782
	c16.359,9.327,25.84,21.161,25.84,32.476s-9.48,23.148-25.84,32.476L587.357,960.154c-40.641,22.904-109.414,22.966-150.116,0
	L75.791,756.097c-16.421-9.296-25.809-21.131-25.809-32.476c0-11.314,9.388-23.148,25.809-32.476
	c8.042-4.525,10.886-14.739,6.36-22.782c-4.587-8.042-14.862-10.917-22.843-6.33c-27.614,15.565-42.842,37.43-42.842,61.526
	c0,24.158,15.198,46.054,42.842,61.588l361.451,204.088c25.656,14.465,58.59,21.712,91.494,21.712
	c32.934,0,65.899-7.217,91.525-21.712l361.451-204.088c27.675-15.596,42.873-37.43,42.873-61.588
	C1008.103,699.463,992.873,677.599,965.26,662.033z"/>
</svg>
