<?xml version="1.0" encoding="utf-8"?>
<!-- Generator: Adobe Illustrator 16.0.0, SVG Export Plug-In . SVG Version: 6.00 Build 0)  -->
<!DOCTYPE svg PUBLIC "-//W3C//DTD SVG 1.1//EN" "http://www.w3.org/Graphics/SVG/1.1/DTD/svg11.dtd">
<svg version="1.1" id="Layer_1" xmlns="http://www.w3.org/2000/svg" xmlns:xlink="http://www.w3.org/1999/xlink" x="0px" y="0px"
	 width="206.833px" height="45.167px" viewBox="0 0 206.833 45.167" enable-background="new 0 0 206.833 45.167"
	 xml:space="preserve">
<g>
	<path fill="#383533" d="M203.327,21.826c-1.407-0.301-2.859-0.455-4.362-0.455c-3.702,0-5.557,1.833-5.557,5.493
		c0,3.747,1.758,5.622,5.271,5.622c0.959,0,1.858-0.18,2.688-0.531v0.531c0,1.622-1.043,2.432-3.133,2.432
		c-1.361,0-2.582-0.175-3.662-0.531v1.592c1.059,0.349,2.271,0.527,3.641,0.527c3.407,0,5.113-1.344,5.113-4.02V21.826z
		 M201.368,30.217c-0.771,0.384-1.661,0.571-2.677,0.571c-2.236,0-3.357-1.315-3.357-3.945c0-2.562,1.18-3.841,3.548-3.841
		c0.987,0,1.819,0.081,2.486,0.25V30.217z M188.336,32.486V21.371h1.33l0.344,1.415c0.979-0.938,2.146-1.415,3.515-1.415v1.632
		c-1.325,0-2.402,0.469-3.229,1.407v8.076H188.336z M176.654,26.928c0-3.704,1.765-5.558,5.293-5.558
		c3.525,0,5.293,1.854,5.293,5.558c0,3.692-1.768,5.546-5.293,5.546C178.433,32.474,176.67,30.621,176.654,26.928 M178.613,26.882
		c0,2.674,1.111,4.016,3.334,4.016c2.22,0,3.334-1.342,3.334-4.016c0-2.613-1.114-3.926-3.334-3.926
		C179.725,22.957,178.613,24.269,178.613,26.882 M174.126,32.486h1.957v-1.96h-1.957V32.486z M169.055,32.486V21.371h1.325
		l0.345,1.415c0.979-0.938,2.149-1.415,3.518-1.415v1.632c-1.325,0-2.404,0.469-3.229,1.407v8.076H169.055z M160.054,25.86h5.693
		c0.097-1.949-0.785-2.925-2.646-2.925C161.195,22.935,160.178,23.911,160.054,25.86 M163.42,21.371c3.399,0,4.77,2.039,4.117,6.119
		h-7.483c0,2.268,1.427,3.408,4.294,3.408c0.984,0,1.961-0.109,2.944-0.318v1.586c-0.983,0.213-2.174,0.32-3.576,0.32
		c-3.747,0-5.622-1.896-5.622-5.686C158.094,23.182,159.867,21.371,163.42,21.371 M149.375,21.371h8.151v1.586l-6,8.045h5.788v1.484
		h-8.148v-1.484l6.085-8.045h-5.876V21.371z M148.064,32.486h-1.959V21.371h1.959V32.486z M148.064,18.936h-1.959v-1.585h1.959
		V18.936z M142.518,32.486h1.959V17.351h-1.959V32.486z M140.888,32.486h-1.958V21.371h1.958V32.486z M140.888,18.936h-1.958v-1.585
		h1.958V18.936z M133.6,19.575h1.228l0.424,1.796h2.584v1.586h-2.277v6.383c0,1.04,0.447,1.559,1.348,1.559h0.93v1.588h-1.44
		c-1.862,0-2.795-0.999-2.795-2.996V19.575z M128.001,32.486V21.371h1.325l0.346,1.415c0.975-0.938,2.146-1.415,3.515-1.415v1.632
		c-1.326,0-2.401,0.469-3.228,1.407v8.076H128.001z M119,25.86h5.692c0.099-1.949-0.786-2.925-2.645-2.925
		C120.14,22.935,119.124,23.911,119,25.86 M122.363,21.371c3.401,0,4.773,2.039,4.117,6.119H119c0,2.268,1.429,3.408,4.295,3.408
		c0.982,0,1.958-0.109,2.945-0.318v1.586c-0.987,0.213-2.178,0.32-3.58,0.32c-3.743,0-5.62-1.896-5.62-5.686
		C117.04,23.182,118.812,21.371,122.363,21.371 M106.307,17.351v15.135h1.959v-6.878h7.567v-1.593h-7.567v-5.079h7.942v-1.585
		H106.307z M102.725,27.405c-0.776-0.144-1.744-0.215-2.901-0.215c-1.701,0-2.549,0.602-2.549,1.801c0,1.27,0.738,1.907,2.221,1.907
		c1.354,0,2.43-0.292,3.229-0.871V27.405z M95.315,29.025c0-2.281,1.503-3.417,4.508-3.417c1.108,0,2.075,0.065,2.901,0.207v-1.05
		c0-1.204-1-1.809-2.996-1.809c-1.144,0-2.314,0.179-3.515,0.533v-1.588c1.2-0.353,2.371-0.531,3.515-0.531
		c3.303,0,4.952,1.185,4.952,3.557v7.559h-0.995l-0.78-0.786c-0.969,0.521-2.103,0.786-3.41,0.786
		C96.71,32.486,95.315,31.333,95.315,29.025 M95.008,32.166c-0.918,0.213-1.902,0.32-2.963,0.32c-4.019,0-6.031-1.925-6.031-5.771
		c0-3.564,2.013-5.345,6.031-5.345c1.061,0,2.045,0.104,2.963,0.322v1.584c-0.918-0.209-1.835-0.32-2.754-0.32
		c-2.855,0-4.282,1.255-4.282,3.759c0,2.79,1.427,4.183,4.282,4.183c0.919,0,1.836-0.109,2.754-0.318V32.166z M84.913,32.486h-1.959
		V21.371h1.959V32.486z M84.913,18.936h-1.959v-1.585h1.959V18.936z M77.355,32.486V21.371h1.324l0.348,1.415
		c0.976-0.938,2.147-1.415,3.515-1.415v1.632c-1.324,0-2.403,0.469-3.228,1.407v8.076H77.355z M71.271,32.537V20.829
		c0-2.686,1.385-4.03,4.149-4.03c0.911,0,1.733,0.142,2.478,0.424v1.592c-0.699-0.286-1.525-0.428-2.485-0.428
		c-1.452,0-2.183,0.612-2.183,1.827v1.157h3.334v1.586H73.23v9.536L71.271,32.537z M55.916,32.486l6.425-15.135h2.169l6.453,15.135
		H68.9l-2.011-4.765h-5.058l0.539-1.588h3.778l-2.792-6.752L57.95,32.486H55.916z"/>
</g>
<g>
	<g>
		<defs>
			<path id="SVGID_1_" d="M6.543,32.902c3.045,5.389,8.453,9.27,14.814,10.236h6.224c8.86-1.346,15.865-8.341,17.224-17.197v-6.292
				c-0.024-0.173-0.054-0.343-0.084-0.514c-11.586,3.421-21.873,9.477-27.422,14.385c4.797-6.131,13.49-11.872,22.998-15.228
				C29.75,19.657,17.77,24.418,6.543,32.902 M3.892,22.791c0,2.508,0.447,4.906,1.267,7.124c9.288-6.834,23.289-12.058,37.227-12.32
				c0.615-0.188,1.232-0.371,1.847-0.538C41.75,8.485,33.839,2.216,24.47,2.216C13.105,2.216,3.892,11.429,3.892,22.791"/>
		</defs>
		<clipPath id="SVGID_2_">
			<use xlink:href="#SVGID_1_"  overflow="visible"/>
		</clipPath>
		<radialGradient id="SVGID_3_" cx="24.3486" cy="22.6777" r="20.4587" gradientUnits="userSpaceOnUse">
			<stop  offset="0" style="stop-color:#FFFFFF"/>
			<stop  offset="1" style="stop-color:#73CBEA"/>
		</radialGradient>
		<rect x="3.892" y="2.217" clip-path="url(#SVGID_2_)" fill="url(#SVGID_3_)" width="40.914" height="40.921"/>
	</g>
	<g>
		<defs>
			<path id="SVGID_4_" d="M6.543,32.902c3.532,6.249,10.237,10.47,17.926,10.47c11.362,0,20.576-9.213,20.576-20.581
				c0-1.247-0.111-2.468-0.324-3.657c-11.586,3.421-21.873,9.477-27.422,14.385c4.797-6.131,13.488-11.872,22.996-15.228
				C29.75,19.657,17.77,24.422,6.543,32.902 M4.829,28.947c0.101,0.324,0.214,0.648,0.332,0.968
				c9.285-6.834,23.286-12.058,37.225-12.32c0.615-0.188,1.232-0.371,1.847-0.538c-0.191-0.669-0.42-1.324-0.679-1.968
				C28.057,15.308,15.148,19.923,4.829,28.947"/>
		</defs>
		<clipPath id="SVGID_5_">
			<use xlink:href="#SVGID_4_"  overflow="visible"/>
		</clipPath>
		
			<linearGradient id="SVGID_6_" gradientUnits="userSpaceOnUse" x1="-212.2246" y1="415.4614" x2="-211.2246" y2="415.4614" gradientTransform="matrix(0 25.8203 40.0051 0 -16595.668 5494.4014)">
			<stop  offset="0" style="stop-color:#AEC700"/>
			<stop  offset="1" style="stop-color:#006228"/>
		</linearGradient>
		<rect x="4.829" y="15.089" clip-path="url(#SVGID_5_)" fill="url(#SVGID_6_)" width="40.216" height="28.283"/>
	</g>
</g>
</svg>
