<?xml version="1.0" encoding="utf-8"?>
<!-- Generator: Adobe Illustrator 16.0.0, SVG Export Plug-In . SVG Version: 6.00 Build 0)  -->
<!DOCTYPE svg PUBLIC "-//W3C//DTD SVG 1.1//EN" "http://www.w3.org/Graphics/SVG/1.1/DTD/svg11.dtd">
<svg version="1.1" id="Layer_2" xmlns="http://www.w3.org/2000/svg" xmlns:xlink="http://www.w3.org/1999/xlink" x="0px" y="0px"
	 width="1024px" height="1024px" viewBox="0 0 1024 1024" enable-background="new 0 0 1024 1024" xml:space="preserve">
<path fill="#666666" d="M512.897,233.883c7.734,0,13.99-6.285,13.99-13.99v-41.971h13.608c7.705,0,13.99-6.285,13.99-13.99V79.99
	c0-7.705-6.285-13.99-13.99-13.99h-55.961c-7.706,0-13.989,6.285-13.989,13.99v83.941c0,7.705,6.283,13.99,13.989,13.99h14.372
	v41.971C498.906,227.598,505.137,233.883,512.897,233.883z M498.525,93.98h27.981v55.961h-27.981V93.98z"/>
<path fill="#666666" d="M198.227,956.235c2.077,1.094,4.29,1.64,6.503,1.64c5.028,0,9.893-2.732,12.352-7.487l120.118-228.706
	c53.857,27.052,113.562,41.697,175.696,41.697c61.918,0,121.541-14.592,175.262-41.479l119.736,228.487
	c2.514,4.755,7.377,7.487,12.377,7.487c2.186,0,4.428-0.546,6.477-1.585c6.83-3.606,9.509-12.077,5.902-18.908L712.696,708.347
	c27.707-16.504,53.773-36.149,77.164-59.54c27.271-27.298,27.271-71.673,0-98.915c-26.449-26.423-72.574-26.367-98.914,0
	c-13.227,13.253-27.815,24.619-43.229,34.401l-65.961-125.911C607.278,437.97,624,406.956,624,371.817
	c0-61.262-49.843-111.157-111.158-111.157c-61.316,0-111.128,49.868-111.128,111.157c0,35.139,16.694,66.098,42.161,86.51
	L377.75,584.184c-15.302-9.781-29.812-21.095-42.954-34.265c-26.45-26.45-72.574-26.396-98.915,0
	c-27.271,27.271-27.271,71.646,0,98.915c23.281,23.28,49.212,42.872,76.781,59.321L192.325,937.382
	C188.773,944.213,191.396,952.684,198.227,956.235z M285.365,557.405c11.23,0,21.778,4.345,29.702,12.27
	c52.792,52.765,123.015,81.811,197.829,81.811c74.816,0,145.121-29.046,197.885-81.811c15.851-15.876,43.502-15.82,59.351,0
	c16.366,16.367,16.366,42.981,0,59.35c-68.611,68.585-160.013,106.375-257.234,106.375c-97.275,0-188.593-37.79-257.15-106.375
	c-16.368-16.367-16.368-42.981,0-59.35C263.643,561.777,274.135,557.405,285.365,557.405z M429.748,371.872
	c0-45.878,37.299-83.204,83.148-83.204c45.852,0,83.178,37.326,83.178,83.204c0,45.851-37.326,83.176-83.178,83.176
	C467.047,455.048,429.748,417.668,429.748,371.872z M467.702,473.191c13.826,6.175,29.073,9.837,45.194,9.837
	c16.068,0,31.26-3.607,45.059-9.729l65.334,124.709c-33.965,16.56-71.428,25.549-110.393,25.549
	c-39.046,0-76.618-9.045-110.609-25.686L467.702,473.191z"/>
</svg>
