<?xml version="1.0" encoding="utf-8"?>
<!-- Generator: Adobe Illustrator 16.0.0, SVG Export Plug-In . SVG Version: 6.00 Build 0)  -->
<!DOCTYPE svg PUBLIC "-//W3C//DTD SVG 1.1//EN" "http://www.w3.org/Graphics/SVG/1.1/DTD/svg11.dtd">
<svg version="1.1" id="Layer_2" xmlns="http://www.w3.org/2000/svg" xmlns:xlink="http://www.w3.org/1999/xlink" x="0px" y="0px"
	 width="1024px" height="457px" viewBox="0 0 1024 457" enable-background="new 0 0 1024 457" xml:space="preserve">
<path fill="#666666" d="M162.944,128.154c14.515,0,31.292-3.627,50.343-10.885v46.713c-4.233,1.51-10.279,3.174-18.145,4.986
	c2.419,6.953,3.629,13.453,3.629,19.501c0,19.353-5.816,36.204-17.46,50.567c-11.641,14.36-26.684,22.905-45.127,25.62
	c-12.092,1.814-18.138,8.318-18.138,19.506c0,3.931,1.964,7.855,5.895,11.789c5.143,5.744,12.698,9.377,22.678,10.888
	c43.234,6.649,64.853,24.644,64.853,53.968c0,46.863-27.968,70.298-83.901,70.298c-22.979,0-41.875-4.081-56.688-12.247
	c-18.748-10.278-28.118-26.452-28.118-48.528c0-25.396,14.059-42.778,42.176-52.151v-0.906
	c-10.276-6.348-15.419-16.021-15.419-29.021c0-16.936,4.838-27.516,14.516-31.744v-0.91c-9.678-3.326-18.293-10.887-25.854-22.677
	c-8.466-12.698-12.698-26.302-12.698-40.814c0-21.771,7.709-39.908,23.128-54.423c14.816-13.604,32.505-20.407,53.063-20.407
	C136.489,117.27,150.244,120.896,162.944,128.154L162.944,128.154z M164.758,366.703c0-15.419-12.698-23.131-38.096-23.131
	c-24.491,0-36.734,8.014-36.734,24.041c0,15.717,13.302,23.578,39.908,23.578C153.117,391.191,164.758,383.031,164.758,366.703
	L164.758,366.703z M94.917,192.554c0,20.862,9.521,31.292,28.567,31.292c18.443,0,27.666-10.583,27.666-31.746
	c0-8.769-2.114-16.325-6.35-22.679c-5.14-6.953-12.243-10.431-21.315-10.431C104.441,158.991,94.917,170.181,94.917,192.554
	L94.917,192.554z"/>
<path fill="#666666" d="M261.374,84.162c-8.771,0-16.25-3.325-22.449-9.977c-6.199-6.65-9.299-14.513-9.299-23.584
	c0-9.373,3.101-17.383,9.299-24.035c6.199-6.65,13.68-9.979,22.449-9.979c8.466,0,15.798,3.327,21.995,9.979
	c6.196,6.652,9.297,14.664,9.297,24.035c0,9.072-3.102,16.934-9.297,23.584C277.172,80.835,269.841,84.162,261.374,84.162
	L261.374,84.162z"/>
<path fill="#666666" d="M235.525,320.896c0.604-6.045,0.904-16.321,0.904-30.84V149.014c0-14.208-0.302-24.035-0.904-29.478h51.247
	c-0.604,5.746-0.908,15.27-0.908,28.572V287.34c0,15.418,0.305,26.604,0.908,33.559L235.525,320.896L235.525,320.896z"/>
<path fill="#666666" d="M380.615,119.536h39.455v43.991c-1.51,0-4.309-0.149-8.389-0.453c-4.083-0.302-7.938-0.453-11.565-0.453
	h-19.501v84.354c0,20.256,6.65,30.387,19.954,30.387c9.373,0,17.838-2.567,25.398-7.707v45.35
	c-11.188,6.05-24.646,9.071-40.363,9.071c-22.073,0-37.338-7.859-45.805-23.58c-6.353-11.793-9.526-30.39-9.526-55.787V163.53h0.455
	v-0.906l-6.803-0.453c-3.934,0-9.07,0.453-15.418,1.359v-43.991h22.222V101.85c0-8.466-0.455-15.27-1.359-20.408h52.606
	c-0.906,5.746-1.359,12.246-1.359,19.5v18.596L380.615,119.536L380.615,119.536z"/>
<path fill="#666666" d="M539.911,118.175c-13.002,0-26.604,4.536-40.813,13.606V52.416c0-17.232,0.304-28.572,0.906-34.014h-51.7
	c0.906,4.837,1.358,16.174,1.358,34.014v239.912c0,13.904-0.452,23.432-1.358,28.564h52.605c0-0.903-0.302-4.605-0.905-11.104
	c-0.604-6.503-0.906-12.324-0.906-17.46V180.76c10.583-9.977,20.861-14.963,30.836-14.963c11.491,0,20.264,5.744,26.31,17.231
	c4.531,9.071,6.808,20.411,6.808,34.015l-0.457,61.223c0,10.282-0.755,24.492-2.269,42.631h54.874
	c-1.208-7.557-1.813-21.465-1.813-41.722v-62.132c0-26.304-5.896-48.679-17.688-67.12
	C582.395,128.758,563.8,118.175,539.911,118.175L539.911,118.175z"/>
<path fill="#666666" d="M700.477,322.713c-23.885,0-41.573-10.582-53.064-31.748c-9.064-17.229-13.599-39.758-13.599-67.572v-62.132
	c0-20.56-0.608-34.468-1.816-41.725h54.424c-0.907,6.649-1.514,20.862-1.813,42.631l-0.453,61.226
	c0,17.229,1.964,29.632,5.896,37.188c4.533,9.373,12.851,14.06,24.939,14.06c8.467,0,17.99-4.985,28.571-14.966V148.108
	c0-5.143-0.302-11.036-0.906-17.688c-0.604-6.653-0.905-10.278-0.905-10.886h52.604c-0.601,5.14-0.906,14.664-0.906,28.572v138.777
	c0,17.835,0.309,29.172,0.906,34.01H744.92v-16.319C731.012,316.662,716.198,322.713,700.477,322.713L700.477,322.713z"/>
<path fill="#666666" d="M904.573,322.256c-16.321,0-29.931-5.892-40.812-17.682v16.318h-48.076c0.91-5.136,1.363-14.66,1.363-28.564
	V52.416c0-17.84-0.453-29.176-1.363-34.014h51.705c-0.607,5.439-0.91,16.779-0.91,34.014v78.912
	c13.908-8.768,27.521-13.153,40.818-13.153c23.886,0,42.632,10.583,56.234,31.748c11.488,18.441,17.231,40.816,17.231,67.12
	c0,26.906-6.046,50.339-18.138,70.297C948.115,310.617,928.764,322.256,904.573,322.256L904.573,322.256z M897.776,165.796
	c-9.977,0-20.411,4.987-31.295,14.963v78.461c9.68,9.369,19.199,14.062,28.572,14.062c11.789,0,20.709-6.499,26.759-19.501
	c4.838-10.279,7.259-22.525,7.259-36.736C929.071,182.879,918.636,165.796,897.776,165.796L897.776,165.796z"/>
<g opacity="0.8">
	<path fill="#666666" d="M270.855,364.367c-2.875-3.904-6.576-6.371-11.608-6.371c-4.83,0-9.454,3.703-9.454,8.736
		c0,13.054,30.725,7.604,30.725,33.604c0,15.521-9.66,26.511-25.483,26.511c-10.688,0-18.497-6.162-23.843-15.104l9.767-9.562
		c2.053,5.963,7.5,11.309,13.974,11.309c6.166,0,9.969-5.24,9.969-11.2c0-8.019-7.396-10.274-13.461-12.64
		c-9.971-4.112-17.266-9.146-17.266-21.17c0-12.849,9.557-23.225,22.604-23.225c6.888,0,16.443,3.391,21.171,8.629L270.855,364.367z
		"/>
	<path fill="#666666" d="M323.049,426.848c-23.639,0-38.332-18.087-38.332-40.896c0-23.02,15.209-40.69,38.332-40.69
		c23.12,0,38.33,17.673,38.33,40.69C361.379,408.761,346.684,426.848,323.049,426.848z M323.049,360.157
		c-14.284,0-22.712,12.638-22.712,25.175c0,11.922,5.961,26.616,22.712,26.616c16.749,0,22.708-14.694,22.708-26.616
		C345.757,372.795,337.328,360.157,323.049,360.157z"/>
	<path fill="#666666" d="M420.556,367.861c-4.214-5.139-10.585-8.221-17.062-8.221c-14.488,0-22.812,13.356-22.812,26.721
		c0,13.05,8.633,26.098,22.712,26.098c6.474,0,12.948-3.389,17.162-8.215v17.979c-5.653,2.672-11.304,4.624-17.574,4.624
		c-21.784,0-37.919-18.804-37.919-40.179c0-21.991,15.518-41.411,38.229-41.411c6.062,0,12.021,1.644,17.265,4.519v18.088
		L420.556,367.861L420.556,367.861z"/>
	<path fill="#666666" d="M445.615,424.795h-15.104v-77.484h15.104V424.795z"/>
	<path fill="#666666" d="M472.436,408.455l-6.373,16.34h-15.926l30.212-79.537h11.714l29.389,79.537H505.32l-5.96-16.34H472.436z
		 M485.486,367.966h-0.206l-8.527,28.157h18.396L485.486,367.966z"/>
	<path fill="#666666" d="M541.169,411.639h21.376v13.156h-36.48v-77.484h15.104V411.639z"/>
	<path fill="#666666" d="M648.853,367.861c-4.21-5.139-10.581-8.221-17.062-8.221c-14.488,0-22.812,13.356-22.812,26.721
		c0,13.05,8.634,26.098,22.712,26.098c6.473,0,12.952-3.389,17.162-8.215v17.979c-5.655,2.672-11.306,4.624-17.572,4.624
		c-21.786,0-37.921-18.804-37.921-40.179c0-21.991,15.521-41.411,38.227-41.411c6.065,0,12.022,1.644,17.27,4.519L648.853,367.861
		L648.853,367.861z"/>
	<path fill="#666666" d="M693.44,426.848c-23.638,0-38.332-18.087-38.332-40.896c0-23.02,15.21-40.69,38.332-40.69
		s38.328,17.673,38.328,40.69C731.768,408.761,717.073,426.848,693.44,426.848z M693.44,360.157
		c-14.284,0-22.712,12.638-22.712,25.175c0,11.922,5.961,26.616,22.712,26.616s22.712-14.694,22.712-26.616
		C716.152,372.795,707.72,360.157,693.44,360.157z"/>
	<path fill="#666666" d="M739.154,347.311h21.585c22.397,0,37.402,16.752,37.402,38.846c0,21.785-15.415,38.642-37.511,38.642
		h-21.479L739.154,347.311L739.154,347.311z M754.262,411.639h2.468c18.599,0,25.791-10.272,25.791-25.59
		c0-16.852-8.63-25.586-25.791-25.586h-2.468V411.639z"/>
	<path fill="#666666" d="M820.635,424.795h-15.108v-77.484h15.108V424.795z"/>
	<path fill="#666666" d="M831.616,345.258h10.896l40.799,54.153h0.205v-52.101h15.104v79.025H887.73l-40.799-54.156h-0.205v52.614
		h-15.109V345.258L831.616,345.258z"/>
	<path fill="#666666" d="M978.045,383.586v1.951c0,21.888-11.201,41.311-35.245,41.311c-22.61,0-36.896-19.106-36.896-40.482
		c0-22.098,14.694-41.104,37.816-41.104c13.15,0,24.664,6.677,30.624,18.494l-13.357,7.19c-3.083-6.985-9.66-12.326-17.677-12.326
		c-14.594,0-21.782,14.896-21.782,27.746c0,12.844,7.293,27.127,21.889,27.127c9.452,0,17.365-8.225,17.674-17.571h-16.441v-12.332
		L978.045,383.586L978.045,383.586z"/>
</g>
</svg>
