<?xml version="1.0" encoding="utf-8"?>
<!-- Generator: Adobe Illustrator 16.0.0, SVG Export Plug-In . SVG Version: 6.00 Build 0)  -->
<!DOCTYPE svg PUBLIC "-//W3C//DTD SVG 1.1//EN" "http://www.w3.org/Graphics/SVG/1.1/DTD/svg11.dtd">
<svg version="1.1" id="Layer_2" xmlns="http://www.w3.org/2000/svg" xmlns:xlink="http://www.w3.org/1999/xlink" x="0px" y="0px"
	 width="1024px" height="1024px" viewBox="0 0 1024 1024" enable-background="new 0 0 1024 1024" xml:space="preserve">
<path fill="#666666" d="M226.531,144.681l-81.881,81.854c-5.433,5.434-5.433,14.235,0,19.669c2.718,2.717,6.304,4.048,9.834,4.048
	c3.586,0,7.118-1.358,9.862-4.048L246.2,164.35c5.434-5.406,5.434-14.235,0-19.669C240.793,139.274,231.964,139.274,226.531,144.681
	z"/>
<path fill="#666666" d="M859.627,777.749l-81.882,81.854c-5.434,5.434-5.434,14.235,0,19.669c2.717,2.717,6.303,4.048,9.861,4.048
	c3.56,0,7.117-1.358,9.861-4.048l81.854-81.854c5.406-5.406,5.406-14.235,0-19.669C873.889,772.343,865.06,772.316,859.627,777.749z
	"/>
<path fill="#666666" d="M808.336,150.141c-5.435-5.433-14.236-5.433-19.67,0c-5.434,5.434-5.434,14.235,0,19.669l76.394,76.394
	c2.744,2.717,6.303,4.048,9.862,4.048c3.559,0,7.116-1.358,9.86-4.048c5.435-5.434,5.435-14.235,0-19.669L808.336,150.141z"/>
<path fill="#666666" d="M150.137,788.67c-5.433,5.406-5.433,14.236,0,19.669l76.393,76.395c2.744,2.717,6.304,4.048,9.862,4.048
	c3.56,0,7.146-1.358,9.861-4.048c5.434-5.435,5.434-14.264,0-19.669l-76.42-76.395C164.346,783.237,155.571,783.237,150.137,788.67z
	"/>
<path fill="#666666" d="M192.98,341.205c-5.678,10.568-10.623,21.435-15.132,32.383c-36.404,87.994-36.458,188.919-0.055,276.83
	c5.65,13.557,11.898,26.516,18.583,38.496c16.246,28.96,36.349,55.528,59.767,78.946c26.841,26.841,57.567,49.198,91.362,66.449
	c8.558,4.374,17.277,8.231,26.106,11.872c44.01,18.229,90.602,27.467,138.415,27.467c47.841,0,94.405-9.237,138.415-27.467
	c0.055,0,0.055-0.026,0.055-0.026c10.948-4.537,21.788-9.481,32.328-15.132c31.297-16.734,59.903-38.007,85.032-63.163
	c25.157-25.13,46.429-53.764,63.19-85.113c5.649-10.568,10.648-21.381,15.158-32.383v-0.027c36.351-87.993,36.351-188.864,0-276.749
	c-3.668-8.802-7.553-17.576-11.898-26.107c-17.225-33.768-39.582-64.493-66.45-91.361c-23.417-23.391-49.933-43.467-78.946-59.74
	c-11.898-6.683-24.885-12.985-38.469-18.582c-88.021-36.431-188.7-36.431-276.83,0h-0.054c-10.977,4.564-21.788,9.509-32.383,15.187
	c-31.296,16.734-59.903,38.006-85.059,63.163C230.986,281.275,209.715,309.882,192.98,341.205z M459.133,384.428L459.133,384.428
	c12.035-4.944,24.396-8.204,36.783-9.645c12.985-1.548,26.136-1.195,39.013,0.951c10.215,1.712,20.319,4.591,29.938,8.558
	c0,0,0,0,0.056,0c16.789,6.955,31.865,17.033,44.824,29.965c12.822,12.823,22.848,27.9,29.829,44.825c0,0,0,0,0,0.027l0,0
	c5.868,14.234,9.318,28.986,10.296,43.956c0.518,8.259,0.3,16.681-0.625,24.938c-1.467,12.415-4.672,24.775-9.671,36.783l0,0v0.027
	c-6.981,16.925-17.007,32.003-29.829,44.824c-12.822,12.797-27.928,22.849-44.88,29.856l0,0
	c-12.034,4.917-24.396,8.205-36.784,9.617c-8.259,0.979-16.57,1.194-24.938,0.651c-14.942-0.95-29.775-4.429-44.011-10.297
	c-16.952-7.009-32.058-17.061-44.879-29.855c-12.933-12.932-22.983-27.981-29.938-44.798c-3.966-9.645-6.873-19.724-8.584-29.992
	c-2.173-12.933-2.5-26.08-0.978-38.984c1.438-12.415,4.672-24.776,9.644-36.784l0,0c0,0,0,0,0-0.025
	c6.982-16.926,17.034-32.003,29.856-44.825C427.075,401.488,442.181,391.437,459.133,384.428z M825.56,397.196
	c26.841,73.677,26.841,155.883,0,229.614l-155.449-64.386c3.314-10.215,5.542-20.646,6.792-31.133
	c1.141-9.916,1.413-20.022,0.761-29.938c-0.868-13.447-3.396-26.76-7.553-39.745L825.56,397.196z M348.32,539.523
	c1.304,7.741,3.179,15.431,5.516,22.929l-95.301,39.501l-60.094,24.885c-26.841-73.648-26.841-155.884,0.055-229.614l155.395,64.385
	c-3.314,10.215-5.542,20.646-6.792,31.105C345.33,508.254,345.684,523.984,348.32,539.523z M275.811,748.191
	c-21.625-21.624-40.151-46.13-55.147-72.89c-4.075-7.226-7.934-14.833-11.573-22.766l107.744-44.607l47.65-19.724
	c7.824,15.187,17.93,28.987,30.102,41.186c12.144,12.17,25.999,22.223,41.293,30.047L371.44,814.967
	c-3.803-1.711-7.552-3.531-11.301-5.406C328.948,793.588,300.588,772.968,275.811,748.191z M397.193,825.562l64.386-155.504
	c12.985,4.186,26.324,6.711,39.745,7.58c9.971,0.57,19.968,0.407,29.965-0.788c10.486-1.223,20.864-3.504,31.134-6.792
	l64.386,155.504C553.293,852.485,470.705,852.485,397.193,825.562z M748.189,748.191c-23.201,23.229-49.634,42.843-78.565,58.326
	c-5.625,3.017-11.329,5.814-17.062,8.449l-64.439-155.529c15.295-7.824,29.123-17.877,41.239-30.047
	c12.171-12.116,22.224-25.972,30.047-41.238l155.503,64.385c-2.636,5.787-5.434,11.492-8.448,17.115
	C791.003,698.585,771.416,724.991,748.189,748.191z M748.189,275.814c24.803,24.831,45.423,53.166,61.343,84.354
	c1.901,3.722,3.694,7.471,5.434,11.302l-155.53,64.385c-7.851-15.269-17.875-29.124-30.019-41.239
	c-12.227-12.225-26.055-22.358-41.239-30.155l20.429-49.28l43.956-106.141c7.96,3.694,15.594,7.552,22.793,11.627
	C702.086,235.662,726.591,254.217,748.189,275.814z M626.834,198.443l-64.413,155.449c-7.498-2.391-15.159-4.238-22.93-5.542
	c-15.376-2.608-31.133-3.016-46.78-1.169c-10.486,1.223-20.864,3.505-31.134,6.792l-46.4-112.117l-17.984-43.358
	C470.761,171.521,553.293,171.521,626.834,198.443z M354.351,217.487c5.624-3.016,11.329-5.813,17.088-8.448l55.312,133.524
	l9.128,22.006c-15.322,7.823-29.15,17.902-41.293,30.046c-12.145,12.116-22.224,25.972-30.021,41.238L223.651,377.5l-14.615-6.03
	c2.635-5.787,5.433-11.492,8.448-17.115c15.513-28.933,35.101-55.339,58.327-78.54C299.012,252.587,325.445,232.973,354.351,217.487
	z"/>
<path fill="#666666" d="M718.36,874.789c-127.305,72.536-285.441,72.536-412.746,0c-6.71-3.776-15.187-1.494-18.989,5.216
	c-3.804,6.656-1.468,15.188,5.216,18.99c67.917,38.686,144.039,58.001,220.16,58.001s152.242-19.315,220.159-58.001
	c6.685-3.804,9.021-12.308,5.218-18.99C733.518,873.295,725.041,871.013,718.36,874.789z"/>
<path fill="#666666" d="M125.035,291.87c-77.371,135.78-77.371,304.485,0,440.266c2.554,4.511,7.28,7.037,12.115,7.037
	c2.336,0,4.674-0.598,6.847-1.82c6.683-3.804,9.02-12.278,5.216-18.963c-72.535-127.304-72.535-285.469,0-412.771
	c3.804-6.656,1.467-15.159-5.216-18.963C137.315,282.878,128.839,285.188,125.035,291.87z"/>
<path fill="#666666" d="M898.964,732.136c77.37-135.778,77.37-304.484,0-440.266c-3.804-6.683-12.36-8.992-18.962-5.216
	c-6.685,3.804-9.021,12.279-5.218,18.963c72.536,127.304,72.536,285.469,0,412.771c-3.803,6.656-1.467,15.159,5.218,18.963
	c2.173,1.25,4.51,1.82,6.846,1.82C891.684,739.173,896.409,736.646,898.964,732.136z"/>
<path fill="#666666" d="M305.64,149.218c127.304-72.536,285.442-72.536,412.746,0c2.174,1.222,4.537,1.793,6.874,1.793
	c4.835,0,9.535-2.5,12.116-7.01c3.803-6.655,1.467-15.159-5.218-18.989c-135.807-77.344-304.484-77.344-440.291,0
	c-6.656,3.83-8.992,12.307-5.189,18.989C290.454,150.685,298.93,152.939,305.64,149.218z"/>
</svg>
