<?xml version="1.0" encoding="utf-8"?>
<!-- Generator: Adobe Illustrator 16.0.0, SVG Export Plug-In . SVG Version: 6.00 Build 0)  -->
<!DOCTYPE svg PUBLIC "-//W3C//DTD SVG 1.1//EN" "http://www.w3.org/Graphics/SVG/1.1/DTD/svg11.dtd">
<svg version="1.1" id="Layer_2" xmlns="http://www.w3.org/2000/svg" xmlns:xlink="http://www.w3.org/1999/xlink" x="0px" y="0px"
	 width="1024px" height="1024px" viewBox="0 0 1024 1024" enable-background="new 0 0 1024 1024" xml:space="preserve">
<path fill="#666666" d="M919.572,149.715c-37.458,0-67.929,30.47-67.929,67.928c0,20.122,8.978,38.011,22.908,50.46L675.276,585.811
	c-8.402-3.736-17.645-5.882-27.463-5.882c-19.635,0-37.192,8.514-49.619,21.892L392.727,471.756
	c3.803-8.491,6.014-17.822,6.014-27.685c0-37.458-30.47-67.929-67.928-67.929c-37.414,0-67.929,30.471-67.929,67.929
	c0,20.477,9.287,38.63,23.66,51.079L130.432,743.646c-8.004-3.339-16.805-5.219-26.004-5.219c-37.458,0-67.928,30.472-67.928,67.93
	s30.47,67.929,67.928,67.929s67.929-30.471,67.929-67.929c0-20.122-8.933-37.989-22.863-50.461l156.332-248.827
	c7.739,3.116,16.187,4.931,25.031,4.931c19.459,0,36.883-8.314,49.266-21.448l205.556,130.151c-3.627,8.337-5.75,17.491-5.75,27.154
	c0,37.458,30.471,67.929,67.93,67.929c37.457,0,67.928-30.471,67.928-67.929c0-19.548-8.401-37.038-21.67-49.443l199.496-318.061
	c8.005,3.339,16.762,5.218,25.96,5.218c37.458,0,67.929-30.471,67.929-67.929S957.03,149.715,919.572,149.715z M149.715,806.357
	c0,24.985-20.299,45.284-45.286,45.284c-24.986,0-45.286-20.299-45.286-45.284c0-24.987,20.299-45.286,45.286-45.286
	C129.415,761.071,149.715,781.37,149.715,806.357z M330.857,489.357c-24.987,0-45.286-20.3-45.286-45.286
	s20.299-45.285,45.286-45.285s45.286,20.299,45.286,45.285C376.143,469.059,355.844,489.357,330.857,489.357z M647.858,693.143
	c-24.987,0-45.286-20.299-45.286-45.284c0-24.987,20.299-45.286,45.286-45.286c24.986,0,45.285,20.299,45.285,45.286
	C693.143,672.844,672.844,693.143,647.858,693.143z M919.572,262.929c-24.986,0-45.286-20.299-45.286-45.286
	c0-24.986,20.3-45.285,45.286-45.285c24.987,0,45.286,20.299,45.286,45.285C964.858,242.63,944.559,262.929,919.572,262.929z"/>
</svg>
